G04 DipTrace 3.3.1.3*
G04 BottomPaste.gbr*
%MOMM*%
G04 #@! TF.FileFunction,Paste,Bot*
G04 #@! TF.Part,Single*
%ADD110R,1.25X1.0*%
%ADD133R,1.9X1.2*%
%ADD139R,2.2X2.2*%
%ADD146R,0.9X0.8*%
%ADD147R,0.8X0.9*%
%ADD149R,1.0X1.8*%
%FSLAX35Y35*%
G04*
G71*
G90*
G75*
G01*
G04 BotPaste*
%LPD*%
D149*
X1687000Y6155000D3*
Y5875000D3*
D147*
X1511000Y6088000D3*
Y5918000D3*
X1644000Y2529000D3*
Y2699000D3*
D149*
X1833000Y2738000D3*
Y2458000D3*
D146*
X2174000Y2237000D3*
X2004000D3*
X2841000Y2314000D3*
X2671000D3*
D147*
X2284000Y4996000D3*
Y5166000D3*
D146*
X3021000Y5588000D3*
X2851000D3*
D147*
X2984000Y6019000D3*
Y6189000D3*
X3374000Y6029000D3*
Y6199000D3*
X3179000Y6025000D3*
Y6195000D3*
D146*
X3709000Y6197000D3*
X3539000D3*
X2872000Y5791000D3*
X3042000D3*
X3959000Y5626000D3*
X3789000D3*
X3364000Y6414000D3*
X3194000D3*
D139*
X2162000Y6949000D3*
Y6509000D3*
X2002000Y6119000D3*
X2442000D3*
D133*
X5228000Y9888000D3*
Y9498013D3*
X5218000Y9060000D3*
Y8670013D3*
X5183000Y3954000D3*
Y3564013D3*
X5204000Y4894000D3*
Y4504013D3*
X5163000Y2250000D3*
Y1860013D3*
X5164000Y3113000D3*
Y2723013D3*
X5214000Y6514000D3*
Y6124013D3*
X5225000Y5649000D3*
Y5259013D3*
X5217000Y8211000D3*
Y7821013D3*
X5196000Y7405987D3*
Y7016000D3*
D110*
X4174000Y5440000D3*
Y5610000D3*
X3604000Y5281000D3*
Y5451000D3*
D146*
X3538000Y6001000D3*
X3708000D3*
X2787000Y6465000D3*
X2957000D3*
M02*
