G04 DipTrace 3.3.1.3*
G04 BottomSilk.gbr*
%MOMM*%
G04 #@! TF.FileFunction,Legend,Bot*
G04 #@! TF.Part,Single*
%ADD10C,0.25*%
%ADD30O,0.39996X0.39985*%
%ADD39O,0.59978X0.60023*%
%ADD41O,0.60023X0.59978*%
%ADD46O,0.60002X0.60023*%
%ADD152C,0.07843*%
%FSLAX35Y35*%
G04*
G71*
G90*
G75*
G01*
G04 BotSilk*
%LPD*%
X1597000Y6185025D2*
D10*
Y5844960D1*
X1777000Y6185025D2*
Y5844960D1*
D30*
X1687000Y6305007D3*
X1743000Y2768025D2*
D10*
Y2427960D1*
X1923000Y2768025D2*
Y2427960D1*
D30*
X1833000Y2888007D3*
X1981992Y6954009D2*
D10*
Y6503992D1*
X2342002Y6954009D2*
Y6503992D1*
X1981992D2*
X2007012D1*
X1981992Y6954009D2*
X2007012D1*
X2316981Y6503992D2*
X2342002D1*
X2316981Y6954009D2*
X2342002D1*
D39*
X2161997Y7136489D3*
X1996991Y5938992D2*
D10*
X2447008D1*
X1996991Y6299002D2*
X2447008D1*
Y5938992D2*
Y5964012D1*
X1996991Y5938992D2*
Y5964012D1*
X2447008Y6273981D2*
Y6299002D1*
X1996991Y6273981D2*
Y6299002D1*
D41*
X1814511Y6118997D3*
X5082995Y9912997D2*
D10*
Y9473031D1*
X5372998Y9912997D2*
Y9473031D1*
D46*
X5228011Y10012995D3*
X5072995Y9084997D2*
D10*
Y8645031D1*
X5362998Y9084997D2*
Y8645031D1*
D46*
X5218011Y9184995D3*
X5037995Y3978997D2*
D10*
Y3539031D1*
X5327998Y3978997D2*
Y3539031D1*
D46*
X5183011Y4078995D3*
X5058995Y4918997D2*
D10*
Y4479031D1*
X5348998Y4918997D2*
Y4479031D1*
D46*
X5204011Y5018995D3*
X5017995Y2274997D2*
D10*
Y1835031D1*
X5307998Y2274997D2*
Y1835031D1*
D46*
X5163011Y2374995D3*
X5018995Y3137997D2*
D10*
Y2698031D1*
X5308998Y3137997D2*
Y2698031D1*
D46*
X5164011Y3237995D3*
X5068995Y6538997D2*
D10*
Y6099031D1*
X5358998Y6538997D2*
Y6099031D1*
D46*
X5214011Y6638995D3*
X5079995Y5673997D2*
D10*
Y5234031D1*
X5369998Y5673997D2*
Y5234031D1*
D46*
X5225011Y5773995D3*
X5071995Y8235997D2*
D10*
Y7796031D1*
X5361998Y8235997D2*
Y7796031D1*
D46*
X5217011Y8335995D3*
X5050995Y7430984D2*
D10*
Y6991018D1*
X5340998Y7430984D2*
Y6991018D1*
D46*
X5196011Y7530982D3*
X1682714Y6387265D2*
D152*
X1685129Y6392095D1*
X1690014Y6396980D1*
X1694843Y6399395D1*
X1704558D1*
X1709443Y6396980D1*
X1714272Y6392095D1*
X1716743Y6387265D1*
X1719158Y6379965D1*
Y6367780D1*
X1716743Y6360536D1*
X1714272Y6355651D1*
X1709443Y6350822D1*
X1704558Y6348351D1*
X1694843D1*
X1690014Y6350822D1*
X1685129Y6355651D1*
X1682714Y6360536D1*
X1667028Y6389624D2*
X1662142Y6392095D1*
X1654842Y6399338D1*
Y6348351D1*
X1398735Y6009636D2*
X1393906Y6012051D1*
X1389020Y6016936D1*
X1386606Y6021765D1*
Y6031480D1*
X1389020Y6036365D1*
X1393906Y6041194D1*
X1398735Y6043665D1*
X1406035Y6046080D1*
X1418220D1*
X1425464Y6043665D1*
X1430349Y6041194D1*
X1435179Y6036365D1*
X1437649Y6031480D1*
Y6021765D1*
X1435179Y6016936D1*
X1430349Y6012051D1*
X1425464Y6009636D1*
X1398791Y5991479D2*
X1396376D1*
X1391491Y5989064D1*
X1389076Y5986650D1*
X1386662Y5981764D1*
Y5972050D1*
X1389076Y5967221D1*
X1391491Y5964806D1*
X1396376Y5962335D1*
X1401205D1*
X1406091Y5964806D1*
X1413335Y5969635D1*
X1437649Y5993950D1*
Y5959921D1*
X1531735Y2620636D2*
X1526906Y2623051D1*
X1522020Y2627936D1*
X1519606Y2632765D1*
Y2642480D1*
X1522020Y2647365D1*
X1526906Y2652194D1*
X1531735Y2654665D1*
X1539035Y2657080D1*
X1551220D1*
X1558464Y2654665D1*
X1563349Y2652194D1*
X1568179Y2647365D1*
X1570649Y2642480D1*
Y2632765D1*
X1568179Y2627936D1*
X1563349Y2623051D1*
X1558464Y2620636D1*
X1519662Y2600064D2*
Y2573391D1*
X1539091Y2587935D1*
Y2580635D1*
X1541505Y2575806D1*
X1543920Y2573391D1*
X1551220Y2570921D1*
X1556049D1*
X1563349Y2573391D1*
X1568235Y2578221D1*
X1570649Y2585521D1*
Y2592820D1*
X1568235Y2600064D1*
X1565764Y2602479D1*
X1560935Y2604950D1*
X1840843Y2970265D2*
X1843258Y2975095D1*
X1848143Y2979980D1*
X1852972Y2982395D1*
X1862687D1*
X1867572Y2979980D1*
X1872402Y2975095D1*
X1874872Y2970265D1*
X1877287Y2962965D1*
Y2950780D1*
X1874872Y2943536D1*
X1872402Y2938651D1*
X1867572Y2933822D1*
X1862687Y2931351D1*
X1852972D1*
X1848143Y2933822D1*
X1843258Y2938651D1*
X1840843Y2943536D1*
X1800842Y2931351D2*
Y2982338D1*
X1825157Y2948365D1*
X1788713D1*
X2095636Y2349265D2*
X2098050Y2354095D1*
X2102936Y2358980D1*
X2107765Y2361395D1*
X2117480D1*
X2122365Y2358980D1*
X2127194Y2354095D1*
X2129665Y2349265D1*
X2132080Y2341965D1*
Y2329780D1*
X2129665Y2322536D1*
X2127194Y2317651D1*
X2122365Y2312822D1*
X2117480Y2310351D1*
X2107765D1*
X2102936Y2312822D1*
X2098050Y2317651D1*
X2095636Y2322536D1*
X2050806Y2361338D2*
X2075064D1*
X2077479Y2339495D1*
X2075064Y2341909D1*
X2067764Y2344380D1*
X2060520D1*
X2053220Y2341909D1*
X2048335Y2337080D1*
X2045920Y2329780D1*
Y2324951D1*
X2048335Y2317651D1*
X2053220Y2312765D1*
X2060520Y2310351D1*
X2067764D1*
X2075064Y2312765D1*
X2077479Y2315236D1*
X2079950Y2320065D1*
X2761400Y2426265D2*
X2763815Y2431095D1*
X2768700Y2435980D1*
X2773530Y2438395D1*
X2783244D1*
X2788130Y2435980D1*
X2792959Y2431095D1*
X2795430Y2426265D1*
X2797844Y2418965D1*
Y2406780D1*
X2795430Y2399536D1*
X2792959Y2394651D1*
X2788130Y2389822D1*
X2783244Y2387351D1*
X2773530D1*
X2768700Y2389822D1*
X2763815Y2394651D1*
X2761400Y2399536D1*
X2716570Y2431095D2*
X2718985Y2435924D1*
X2726285Y2438338D1*
X2731114D1*
X2738414Y2435924D1*
X2743300Y2428624D1*
X2745714Y2416495D1*
Y2404365D1*
X2743300Y2394651D1*
X2738414Y2389765D1*
X2731114Y2387351D1*
X2728700D1*
X2721456Y2389765D1*
X2716570Y2394651D1*
X2714156Y2401951D1*
Y2404365D1*
X2716570Y2411665D1*
X2721456Y2416495D1*
X2728700Y2418909D1*
X2731114D1*
X2738414Y2416495D1*
X2743300Y2411665D1*
X2745714Y2404365D1*
X2171735Y5087636D2*
X2166906Y5090051D1*
X2162020Y5094936D1*
X2159606Y5099765D1*
Y5109480D1*
X2162020Y5114365D1*
X2166906Y5119194D1*
X2171735Y5121665D1*
X2179035Y5124080D1*
X2191220D1*
X2198464Y5121665D1*
X2203349Y5119194D1*
X2208179Y5114365D1*
X2210649Y5109480D1*
Y5099765D1*
X2208179Y5094936D1*
X2203349Y5090051D1*
X2198464Y5087636D1*
X2210649Y5062235D2*
X2159662Y5037921D1*
Y5071950D1*
X2942608Y5700265D2*
X2945022Y5705095D1*
X2949908Y5709980D1*
X2954737Y5712395D1*
X2964452D1*
X2969337Y5709980D1*
X2974166Y5705095D1*
X2976637Y5700265D1*
X2979052Y5692965D1*
Y5680780D1*
X2976637Y5673536D1*
X2974166Y5668651D1*
X2969337Y5663822D1*
X2964452Y5661351D1*
X2954737D1*
X2949908Y5663822D1*
X2945022Y5668651D1*
X2942608Y5673536D1*
X2914792Y5712338D2*
X2922036Y5709924D1*
X2924507Y5705095D1*
Y5700209D1*
X2922036Y5695380D1*
X2917207Y5692909D1*
X2907492Y5690495D1*
X2900192Y5688080D1*
X2895363Y5683195D1*
X2892948Y5678365D1*
Y5671065D1*
X2895363Y5666236D1*
X2897778Y5663765D1*
X2905078Y5661351D1*
X2914792D1*
X2922036Y5663765D1*
X2924507Y5666236D1*
X2926921Y5671065D1*
Y5678365D1*
X2924507Y5683195D1*
X2919621Y5688080D1*
X2912378Y5690495D1*
X2902663Y5692909D1*
X2897778Y5695380D1*
X2895363Y5700209D1*
Y5705095D1*
X2897778Y5709924D1*
X2905078Y5712338D1*
X2914792D1*
X2871735Y6109429D2*
X2866906Y6111843D1*
X2862020Y6116729D1*
X2859606Y6121558D1*
Y6131273D1*
X2862020Y6136158D1*
X2866906Y6140987D1*
X2871735Y6143458D1*
X2879035Y6145872D1*
X2891220D1*
X2898464Y6143458D1*
X2903349Y6140987D1*
X2908179Y6136158D1*
X2910649Y6131272D1*
Y6121558D1*
X2908179Y6116729D1*
X2903349Y6111843D1*
X2898464Y6109429D1*
X2876620Y6062128D2*
X2883920Y6064599D1*
X2888805Y6069428D1*
X2891220Y6076728D1*
Y6079143D1*
X2888806Y6086442D1*
X2883920Y6091272D1*
X2876620Y6093742D1*
X2874205D1*
X2866905Y6091272D1*
X2862076Y6086443D1*
X2859662Y6079143D1*
Y6076728D1*
X2862076Y6069428D1*
X2866905Y6064599D1*
X2876620Y6062128D1*
X2888805D1*
X2900935Y6064599D1*
X2908235Y6069428D1*
X2910649Y6076728D1*
Y6081557D1*
X2908235Y6088857D1*
X2903349Y6091272D1*
X3261735Y6123650D2*
X3256906Y6126065D1*
X3252020Y6130950D1*
X3249606Y6135779D1*
Y6145494D1*
X3252020Y6150379D1*
X3256906Y6155208D1*
X3261735Y6157679D1*
X3269035Y6160094D1*
X3281220D1*
X3288464Y6157679D1*
X3293349Y6155208D1*
X3298179Y6150379D1*
X3300649Y6145494D1*
Y6135779D1*
X3298179Y6130950D1*
X3293349Y6126064D1*
X3288464Y6123650D1*
X3259376Y6107964D2*
X3256905Y6103078D1*
X3249662Y6095778D1*
X3300649D1*
X3259376Y6080092D2*
X3256905Y6075207D1*
X3249662Y6067907D1*
X3300649D1*
X3066735Y6130572D2*
X3061906Y6132986D1*
X3057020Y6137872D1*
X3054606Y6142701D1*
Y6152416D1*
X3057020Y6157301D1*
X3061905Y6162130D1*
X3066735Y6164601D1*
X3074035Y6167016D1*
X3086220D1*
X3093464Y6164601D1*
X3098349Y6162130D1*
X3103178Y6157301D1*
X3105649Y6152416D1*
Y6142701D1*
X3103179Y6137872D1*
X3098349Y6132986D1*
X3093464Y6130572D1*
X3064376Y6114886D2*
X3061906Y6110000D1*
X3054662Y6102700D1*
X3105649D1*
X3066791Y6084543D2*
X3064376D1*
X3059491Y6082129D1*
X3057076Y6079714D1*
X3054662Y6074829D1*
Y6065114D1*
X3057076Y6060285D1*
X3059491Y6057870D1*
X3064376Y6055399D1*
X3069205D1*
X3074091Y6057870D1*
X3081335Y6062699D1*
X3105649Y6087014D1*
Y6052985D1*
X3644572Y6309265D2*
X3646986Y6314095D1*
X3651872Y6318980D1*
X3656701Y6321395D1*
X3666416D1*
X3671301Y6318980D1*
X3676130Y6314095D1*
X3678601Y6309265D1*
X3681016Y6301965D1*
Y6289780D1*
X3678601Y6282536D1*
X3676130Y6277651D1*
X3671301Y6272822D1*
X3666416Y6270351D1*
X3656701D1*
X3651872Y6272822D1*
X3646986Y6277651D1*
X3644572Y6282536D1*
X3628885Y6311624D2*
X3624000Y6314095D1*
X3616700Y6321338D1*
Y6270351D1*
X3596128Y6321338D2*
X3569455D1*
X3583999Y6301909D1*
X3576699D1*
X3571870Y6299495D1*
X3569455Y6297080D1*
X3566984Y6289780D1*
Y6284951D1*
X3569455Y6277651D1*
X3574284Y6272765D1*
X3581584Y6270351D1*
X3588884D1*
X3596128Y6272765D1*
X3598543Y6275236D1*
X3601014Y6280065D1*
X2978779Y5903265D2*
X2981194Y5908095D1*
X2986079Y5912980D1*
X2990908Y5915395D1*
X3000623D1*
X3005508Y5912980D1*
X3010337Y5908095D1*
X3012808Y5903265D1*
X3015223Y5895965D1*
Y5883780D1*
X3012808Y5876536D1*
X3010337Y5871651D1*
X3005508Y5866822D1*
X3000623Y5864351D1*
X2990908D1*
X2986079Y5866822D1*
X2981194Y5871651D1*
X2978779Y5876536D1*
X2963093Y5905624D2*
X2958207Y5908095D1*
X2950907Y5915338D1*
Y5864351D1*
X2910906D2*
Y5915338D1*
X2935221Y5881365D1*
X2898777D1*
X3893364Y5738265D2*
X3895779Y5743095D1*
X3900664Y5747980D1*
X3905494Y5750395D1*
X3915208D1*
X3920094Y5747980D1*
X3924923Y5743095D1*
X3927394Y5738265D1*
X3929808Y5730965D1*
Y5718780D1*
X3927394Y5711536D1*
X3924923Y5706651D1*
X3920094Y5701822D1*
X3915208Y5699351D1*
X3905494D1*
X3900664Y5701822D1*
X3895779Y5706651D1*
X3893364Y5711536D1*
X3877678Y5740624D2*
X3872793Y5743095D1*
X3865493Y5750338D1*
Y5699351D1*
X3818192Y5733380D2*
X3820663Y5726080D1*
X3825492Y5721195D1*
X3832792Y5718780D1*
X3835206D1*
X3842506Y5721195D1*
X3847336Y5726080D1*
X3849806Y5733380D1*
Y5735795D1*
X3847336Y5743095D1*
X3842506Y5747924D1*
X3835206Y5750338D1*
X3832792D1*
X3825492Y5747924D1*
X3820663Y5743095D1*
X3818192Y5733380D1*
Y5721195D1*
X3820663Y5709065D1*
X3825492Y5701765D1*
X3832792Y5699351D1*
X3837621D1*
X3844921Y5701765D1*
X3847336Y5706651D1*
X3310494Y6526265D2*
X3312908Y6531095D1*
X3317794Y6535980D1*
X3322623Y6538395D1*
X3332337D1*
X3337223Y6535980D1*
X3342052Y6531095D1*
X3344523Y6526265D1*
X3346937Y6518965D1*
Y6506780D1*
X3344523Y6499536D1*
X3342052Y6494651D1*
X3337223Y6489822D1*
X3332337Y6487351D1*
X3322623D1*
X3317794Y6489822D1*
X3312908Y6494651D1*
X3310494Y6499536D1*
X3292337Y6526209D2*
Y6528624D1*
X3289922Y6533509D1*
X3287507Y6535924D1*
X3282622Y6538338D1*
X3272907D1*
X3268078Y6535924D1*
X3265663Y6533509D1*
X3263193Y6528624D1*
Y6523795D1*
X3265663Y6518909D1*
X3270493Y6511665D1*
X3294807Y6487351D1*
X3260778D1*
X3230492Y6538338D2*
X3237792Y6535924D1*
X3242677Y6528624D1*
X3245092Y6516495D1*
Y6509195D1*
X3242677Y6497065D1*
X3237792Y6489765D1*
X3230492Y6487351D1*
X3225663D1*
X3218363Y6489765D1*
X3213533Y6497065D1*
X3211063Y6509195D1*
Y6516495D1*
X3213533Y6528624D1*
X3218363Y6535924D1*
X3225663Y6538338D1*
X3230492D1*
X3213533Y6528624D2*
X3242677Y6497065D1*
X2203869Y7240895D2*
Y7189851D1*
X2186854D1*
X2179554Y7192322D1*
X2174669Y7197151D1*
X2172254Y7202036D1*
X2169840Y7209280D1*
Y7221465D1*
X2172254Y7228765D1*
X2174669Y7233595D1*
X2179554Y7238480D1*
X2186854Y7240895D1*
X2203869D1*
X2151683Y7228709D2*
Y7231124D1*
X2149268Y7236009D1*
X2146854Y7238424D1*
X2141968Y7240838D1*
X2132254D1*
X2127424Y7238424D1*
X2125010Y7236009D1*
X2122539Y7231124D1*
Y7226295D1*
X2125010Y7221409D1*
X2129839Y7214165D1*
X2154154Y7189851D1*
X2120124D1*
X2215122Y6373396D2*
Y6322352D1*
X2198108D1*
X2190808Y6324823D1*
X2185922Y6329652D1*
X2183508Y6334538D1*
X2181093Y6341782D1*
Y6353967D1*
X2183508Y6361267D1*
X2185922Y6366096D1*
X2190808Y6370982D1*
X2198108Y6373396D1*
X2215122D1*
X2160521Y6373340D2*
X2133848D1*
X2148392Y6353911D1*
X2141092D1*
X2136263Y6351496D1*
X2133848Y6349082D1*
X2131378Y6341782D1*
Y6336952D1*
X2133848Y6329652D1*
X2138678Y6324767D1*
X2145978Y6322352D1*
X2153278D1*
X2160521Y6324767D1*
X2162936Y6327238D1*
X2165407Y6332067D1*
X5297741Y10117401D2*
Y10066357D1*
X5280726D1*
X5273426Y10068828D1*
X5268541Y10073657D1*
X5266126Y10078543D1*
X5263711Y10085787D1*
Y10097972D1*
X5266126Y10105272D1*
X5268541Y10110101D1*
X5273426Y10114987D1*
X5280726Y10117401D1*
X5297741D1*
X5248025Y10107631D2*
X5243140Y10110101D1*
X5235840Y10117345D1*
Y10066357D1*
X5205554Y10117345D2*
X5212854Y10114931D1*
X5217739Y10107631D1*
X5220154Y10095501D1*
Y10088201D1*
X5217739Y10076072D1*
X5212854Y10068772D1*
X5205554Y10066357D1*
X5200724D1*
X5193424Y10068772D1*
X5188595Y10076072D1*
X5186124Y10088201D1*
Y10095501D1*
X5188595Y10107631D1*
X5193424Y10114931D1*
X5200724Y10117345D1*
X5205554D1*
X5188595Y10107631D2*
X5217739Y10076072D1*
X5170438Y10107631D2*
X5165553Y10110101D1*
X5158253Y10117345D1*
Y10066357D1*
X5298663Y9289401D2*
Y9238357D1*
X5281648D1*
X5274348Y9240828D1*
X5269463Y9245657D1*
X5267048Y9250543D1*
X5264633Y9257787D1*
Y9269972D1*
X5267048Y9277272D1*
X5269463Y9282101D1*
X5274348Y9286987D1*
X5281648Y9289401D1*
X5298663D1*
X5248947Y9279631D2*
X5244062Y9282101D1*
X5236762Y9289345D1*
Y9238357D1*
X5206475Y9289345D2*
X5213775Y9286931D1*
X5218661Y9279631D1*
X5221075Y9267501D1*
Y9260201D1*
X5218661Y9248072D1*
X5213775Y9240772D1*
X5206475Y9238357D1*
X5201646D1*
X5194346Y9240772D1*
X5189517Y9248072D1*
X5187046Y9260201D1*
Y9267501D1*
X5189517Y9279631D1*
X5194346Y9286931D1*
X5201646Y9289345D1*
X5206475D1*
X5189517Y9279631D2*
X5218661Y9248072D1*
X5168889Y9277216D2*
Y9279631D1*
X5166475Y9284516D1*
X5164060Y9286931D1*
X5159175Y9289345D1*
X5149460D1*
X5144631Y9286931D1*
X5142216Y9284516D1*
X5139745Y9279631D1*
Y9274801D1*
X5142216Y9269916D1*
X5147045Y9262672D1*
X5171360Y9238357D1*
X5137331D1*
X5263663Y4183401D2*
Y4132357D1*
X5246648D1*
X5239348Y4134828D1*
X5234463Y4139657D1*
X5232048Y4144543D1*
X5229633Y4151787D1*
Y4163972D1*
X5232048Y4171272D1*
X5234463Y4176101D1*
X5239348Y4180987D1*
X5246648Y4183401D1*
X5263663D1*
X5213947Y4173631D2*
X5209062Y4176101D1*
X5201762Y4183345D1*
Y4132357D1*
X5171475Y4183345D2*
X5178775Y4180931D1*
X5183661Y4173631D1*
X5186075Y4161501D1*
Y4154201D1*
X5183661Y4142072D1*
X5178775Y4134772D1*
X5171475Y4132357D1*
X5166646D1*
X5159346Y4134772D1*
X5154517Y4142072D1*
X5152046Y4154201D1*
Y4161501D1*
X5154517Y4173631D1*
X5159346Y4180931D1*
X5166646Y4183345D1*
X5171475D1*
X5154517Y4173631D2*
X5183661Y4142072D1*
X5131475Y4183345D2*
X5104801D1*
X5119345Y4163916D1*
X5112045D1*
X5107216Y4161501D1*
X5104801Y4159087D1*
X5102331Y4151787D1*
Y4146957D1*
X5104801Y4139657D1*
X5109631Y4134772D1*
X5116931Y4132357D1*
X5124231D1*
X5131475Y4134772D1*
X5133889Y4137243D1*
X5136360Y4142072D1*
X5285870Y5123401D2*
Y5072357D1*
X5268855D1*
X5261555Y5074828D1*
X5256670Y5079657D1*
X5254255Y5084543D1*
X5251841Y5091787D1*
Y5103972D1*
X5254255Y5111272D1*
X5256670Y5116101D1*
X5261555Y5120987D1*
X5268855Y5123401D1*
X5285870D1*
X5236154Y5113631D2*
X5231269Y5116101D1*
X5223969Y5123345D1*
Y5072357D1*
X5193683Y5123345D2*
X5200983Y5120931D1*
X5205868Y5113631D1*
X5208283Y5101501D1*
Y5094201D1*
X5205868Y5082072D1*
X5200983Y5074772D1*
X5193683Y5072357D1*
X5188854D1*
X5181554Y5074772D1*
X5176724Y5082072D1*
X5174254Y5094201D1*
Y5101501D1*
X5176724Y5113631D1*
X5181554Y5120931D1*
X5188854Y5123345D1*
X5193683D1*
X5176724Y5113631D2*
X5205868Y5082072D1*
X5134253Y5072357D2*
Y5123345D1*
X5158567Y5089372D1*
X5122123D1*
X5243663Y2479401D2*
Y2428357D1*
X5226648D1*
X5219348Y2430828D1*
X5214463Y2435657D1*
X5212048Y2440543D1*
X5209633Y2447787D1*
Y2459972D1*
X5212048Y2467272D1*
X5214463Y2472101D1*
X5219348Y2476987D1*
X5226648Y2479401D1*
X5243663D1*
X5193947Y2469631D2*
X5189062Y2472101D1*
X5181762Y2479345D1*
Y2428357D1*
X5151475Y2479345D2*
X5158775Y2476931D1*
X5163661Y2469631D1*
X5166075Y2457501D1*
Y2450201D1*
X5163661Y2438072D1*
X5158775Y2430772D1*
X5151475Y2428357D1*
X5146646D1*
X5139346Y2430772D1*
X5134517Y2438072D1*
X5132046Y2450201D1*
Y2457501D1*
X5134517Y2469631D1*
X5139346Y2476931D1*
X5146646Y2479345D1*
X5151475D1*
X5134517Y2469631D2*
X5163661Y2438072D1*
X5087216Y2479345D2*
X5111475D1*
X5113889Y2457501D1*
X5111475Y2459916D1*
X5104175Y2462387D1*
X5096931D1*
X5089631Y2459916D1*
X5084745Y2455087D1*
X5082331Y2447787D1*
Y2442957D1*
X5084745Y2435657D1*
X5089631Y2430772D1*
X5096931Y2428357D1*
X5104175D1*
X5111475Y2430772D1*
X5113889Y2433243D1*
X5116360Y2438072D1*
X5243427Y3342401D2*
Y3291357D1*
X5226413D1*
X5219113Y3293828D1*
X5214227Y3298657D1*
X5211813Y3303543D1*
X5209398Y3310787D1*
Y3322972D1*
X5211813Y3330272D1*
X5214227Y3335101D1*
X5219113Y3339987D1*
X5226413Y3342401D1*
X5243427D1*
X5193712Y3332631D2*
X5188826Y3335101D1*
X5181526Y3342345D1*
Y3291357D1*
X5151240Y3342345D2*
X5158540Y3339931D1*
X5163425Y3332631D1*
X5165840Y3320501D1*
Y3313201D1*
X5163425Y3301072D1*
X5158540Y3293772D1*
X5151240Y3291357D1*
X5146411D1*
X5139111Y3293772D1*
X5134282Y3301072D1*
X5131811Y3313201D1*
Y3320501D1*
X5134282Y3332631D1*
X5139111Y3339931D1*
X5146411Y3342345D1*
X5151240D1*
X5134282Y3332631D2*
X5163425Y3301072D1*
X5086981Y3335101D2*
X5089395Y3339931D1*
X5096695Y3342345D1*
X5101525D1*
X5108825Y3339931D1*
X5113710Y3332631D1*
X5116125Y3320501D1*
Y3308372D1*
X5113710Y3298657D1*
X5108825Y3293772D1*
X5101525Y3291357D1*
X5099110D1*
X5091866Y3293772D1*
X5086981Y3298657D1*
X5084566Y3305957D1*
Y3308372D1*
X5086981Y3315672D1*
X5091866Y3320501D1*
X5099110Y3322916D1*
X5101525D1*
X5108825Y3320501D1*
X5113710Y3315672D1*
X5116125Y3308372D1*
X5294663Y6743401D2*
Y6692357D1*
X5277648D1*
X5270348Y6694828D1*
X5265463Y6699657D1*
X5263048Y6704543D1*
X5260633Y6711787D1*
Y6723972D1*
X5263048Y6731272D1*
X5265463Y6736101D1*
X5270348Y6740987D1*
X5277648Y6743401D1*
X5294663D1*
X5244947Y6733631D2*
X5240062Y6736101D1*
X5232762Y6743345D1*
Y6692357D1*
X5214605Y6731216D2*
Y6733631D1*
X5212190Y6738516D1*
X5209775Y6740931D1*
X5204890Y6743345D1*
X5195175D1*
X5190346Y6740931D1*
X5187932Y6738516D1*
X5185461Y6733631D1*
Y6728801D1*
X5187932Y6723916D1*
X5192761Y6716672D1*
X5217075Y6692357D1*
X5183046D1*
X5152760Y6743345D2*
X5160060Y6740931D1*
X5164945Y6733631D1*
X5167360Y6721501D1*
Y6714201D1*
X5164945Y6702072D1*
X5160060Y6694772D1*
X5152760Y6692357D1*
X5147931D1*
X5140631Y6694772D1*
X5135801Y6702072D1*
X5133331Y6714201D1*
Y6721501D1*
X5135801Y6733631D1*
X5140631Y6740931D1*
X5147931Y6743345D1*
X5152760D1*
X5135801Y6733631D2*
X5164945Y6702072D1*
X5294741Y5878401D2*
Y5827357D1*
X5277726D1*
X5270426Y5829828D1*
X5265541Y5834657D1*
X5263126Y5839543D1*
X5260711Y5846787D1*
Y5858972D1*
X5263126Y5866272D1*
X5265541Y5871101D1*
X5270426Y5875987D1*
X5277726Y5878401D1*
X5294741D1*
X5245025Y5868631D2*
X5240140Y5871101D1*
X5232840Y5878345D1*
Y5827357D1*
X5214683Y5866216D2*
Y5868631D1*
X5212268Y5873516D1*
X5209854Y5875931D1*
X5204968Y5878345D1*
X5195254D1*
X5190424Y5875931D1*
X5188010Y5873516D1*
X5185539Y5868631D1*
Y5863801D1*
X5188010Y5858916D1*
X5192839Y5851672D1*
X5217154Y5827357D1*
X5183124D1*
X5167438Y5868631D2*
X5162553Y5871101D1*
X5155253Y5878345D1*
Y5827357D1*
X5297663Y8440401D2*
Y8389357D1*
X5280648D1*
X5273348Y8391828D1*
X5268463Y8396657D1*
X5266048Y8401543D1*
X5263633Y8408787D1*
Y8420972D1*
X5266048Y8428272D1*
X5268463Y8433101D1*
X5273348Y8437987D1*
X5280648Y8440401D1*
X5297663D1*
X5247947Y8430631D2*
X5243062Y8433101D1*
X5235762Y8440345D1*
Y8389357D1*
X5217605Y8428216D2*
Y8430631D1*
X5215190Y8435516D1*
X5212775Y8437931D1*
X5207890Y8440345D1*
X5198175D1*
X5193346Y8437931D1*
X5190932Y8435516D1*
X5188461Y8430631D1*
Y8425801D1*
X5190932Y8420916D1*
X5195761Y8413672D1*
X5220075Y8389357D1*
X5186046D1*
X5167889Y8428216D2*
Y8430631D1*
X5165475Y8435516D1*
X5163060Y8437931D1*
X5158175Y8440345D1*
X5148460D1*
X5143631Y8437931D1*
X5141216Y8435516D1*
X5138745Y8430631D1*
Y8425801D1*
X5141216Y8420916D1*
X5146045Y8413672D1*
X5170360Y8389357D1*
X5136331D1*
X5276663Y7635388D2*
Y7584344D1*
X5259648D1*
X5252348Y7586815D1*
X5247463Y7591644D1*
X5245048Y7596530D1*
X5242633Y7603773D1*
Y7615959D1*
X5245048Y7623259D1*
X5247463Y7628088D1*
X5252348Y7632973D1*
X5259648Y7635388D1*
X5276663D1*
X5226947Y7625617D2*
X5222062Y7628088D1*
X5214762Y7635332D1*
Y7584344D1*
X5196605Y7623203D2*
Y7625617D1*
X5194190Y7630503D1*
X5191775Y7632917D1*
X5186890Y7635332D1*
X5177175D1*
X5172346Y7632917D1*
X5169932Y7630503D1*
X5167461Y7625617D1*
Y7620788D1*
X5169932Y7615903D1*
X5174761Y7608659D1*
X5199075Y7584344D1*
X5165046D1*
X5144475Y7635332D2*
X5117801D1*
X5132345Y7615903D1*
X5125045D1*
X5120216Y7613488D1*
X5117801Y7611073D1*
X5115331Y7603773D1*
Y7598944D1*
X5117801Y7591644D1*
X5122631Y7586759D1*
X5129931Y7584344D1*
X5137231D1*
X5144475Y7586759D1*
X5146889Y7589230D1*
X5149360Y7594059D1*
X4213430Y5744395D2*
Y5693351D1*
X4184286D1*
X4139456Y5744338D2*
X4163714D1*
X4166129Y5722495D1*
X4163714Y5724909D1*
X4156414Y5727380D1*
X4149170D1*
X4141870Y5724909D1*
X4136985Y5720080D1*
X4134570Y5712780D1*
Y5707951D1*
X4136985Y5700651D1*
X4141870Y5695765D1*
X4149170Y5693351D1*
X4156414D1*
X4163714Y5695765D1*
X4166129Y5698236D1*
X4168600Y5703065D1*
X3642194Y5585395D2*
Y5534351D1*
X3613050D1*
X3568220Y5578095D2*
X3570635Y5582924D1*
X3577935Y5585338D1*
X3582764D1*
X3590064Y5582924D1*
X3594950Y5575624D1*
X3597364Y5563495D1*
Y5551365D1*
X3594950Y5541651D1*
X3590064Y5536765D1*
X3582764Y5534351D1*
X3580350D1*
X3573106Y5536765D1*
X3568220Y5541651D1*
X3565806Y5548951D1*
Y5551365D1*
X3568220Y5558665D1*
X3573106Y5563495D1*
X3580350Y5565909D1*
X3582764D1*
X3590064Y5563495D1*
X3594950Y5558665D1*
X3597364Y5551365D1*
X3678808Y6101080D2*
X3656964D1*
X3649664Y6103551D1*
X3647194Y6105965D1*
X3644779Y6110795D1*
Y6115680D1*
X3647194Y6120509D1*
X3649664Y6122980D1*
X3656964Y6125395D1*
X3678808D1*
Y6074351D1*
X3661794Y6101080D2*
X3644779Y6074351D1*
X3629093Y6115624D2*
X3624207Y6118095D1*
X3616907Y6125338D1*
Y6074351D1*
X3596336Y6125338D2*
X3569663D1*
X3584206Y6105909D1*
X3576906D1*
X3572077Y6103495D1*
X3569663Y6101080D1*
X3567192Y6093780D1*
Y6088951D1*
X3569663Y6081651D1*
X3574492Y6076765D1*
X3581792Y6074351D1*
X3589092D1*
X3596336Y6076765D1*
X3598750Y6079236D1*
X3601221Y6084065D1*
X2929016Y6565080D2*
X2907172D1*
X2899872Y6567551D1*
X2897401Y6569965D1*
X2894986Y6574795D1*
Y6579680D1*
X2897401Y6584509D1*
X2899872Y6586980D1*
X2907172Y6589395D1*
X2929016D1*
Y6538351D1*
X2912001Y6565080D2*
X2894986Y6538351D1*
X2879300Y6579624D2*
X2874415Y6582095D1*
X2867115Y6589338D1*
Y6538351D1*
X2827114D2*
Y6589338D1*
X2851428Y6555365D1*
X2814984D1*
M02*
