G04 DipTrace 3.3.1.3*
G04 GND.gbr*
%MOMM*%
G04 #@! TF.FileFunction,Copper,L3,Inr*
G04 #@! TF.Part,Single*
G04 #@! TA.AperFunction,CopperBalancing*
%ADD14C,0.2*%
G04 #@! TA.AperFunction,Conductor*
%ADD16C,1.0*%
%ADD17C,0.7*%
%ADD18C,2.0*%
G04 #@! TA.AperFunction,ComponentPad*
%ADD21C,1.778*%
G04 #@! TA.AperFunction,ViaPad*
%ADD22C,1.016*%
G04 #@! TA.AperFunction,CopperBalancing*
%ADD28C,0.635*%
G04 #@! TA.AperFunction,ComponentPad*
%ADD29O,1.8X2.5*%
%ADD51C,1.8*%
%ADD57R,1.5X1.5*%
%ADD58C,1.5*%
%ADD59R,1.778X1.778*%
%ADD62C,1.2*%
%ADD77C,2.0*%
%ADD78C,1.2192*%
%FSLAX35Y35*%
G04*
G71*
G90*
G75*
G01*
G04 Inner2*
%LPD*%
X4598000Y9804000D2*
D17*
X3890000Y9096000D1*
Y8677323D1*
Y7701250D1*
Y7555307D1*
Y7151000D1*
Y6880777D1*
X4046000D1*
Y5846953D1*
X3890000D1*
Y5473000D1*
X4005000Y5358000D1*
X4603000Y8859000D2*
X4421323Y8677323D1*
X3890000D1*
X4590000Y7972000D2*
X4319250Y7701250D1*
X3890000D1*
X4591000Y7125000D2*
X4346777Y6880777D1*
X4046000D1*
X4631000Y6254000D2*
X4702000Y6183000D1*
Y5694000D1*
X4428320Y5420320D1*
X4366000Y5358000D1*
X4005000D1*
X4560000Y5357000D2*
X4496680Y5420320D1*
X4428320D1*
X4560000Y4506000D2*
Y5357000D1*
X4617000Y3672000D2*
X4560000Y3729000D1*
Y4506000D1*
X4617000Y2814000D2*
Y3672000D1*
Y1944000D2*
Y2814000D1*
X2890000Y4310000D2*
D16*
X3435000D1*
Y4368000D1*
X1616000Y3454000D2*
Y3202000D1*
X2784497D1*
Y3059000D1*
X3540000D1*
X4004000D1*
X4617000Y3672000D1*
X1616000Y4097000D2*
Y3454000D1*
X2071000Y5190000D2*
X2206000D1*
X2277000Y5261000D1*
Y4752000D1*
X2719000Y4310000D1*
X2890000D1*
X1745000Y5420000D2*
X2071000D1*
Y5451000D1*
X2191000D1*
X2277000Y5365000D1*
Y5261000D1*
X1986000Y7332000D2*
X2123573Y7469573D1*
X2209307Y7555307D1*
X2390537D1*
X2641493D1*
X3890000D1*
X2590000Y8117000D2*
X2641493Y8065507D1*
Y7836397D1*
Y7555307D1*
X2817877Y7836397D2*
X2641493D1*
X2838000Y2497000D2*
Y3255503D1*
X2784497Y3202000D1*
X2848000Y1803000D2*
X2838000Y1813000D1*
Y2497000D1*
X3239000Y5835000D2*
D14*
X3250953Y5846953D1*
X3890000D1*
X1792000Y2014000D2*
D17*
X2007000D1*
Y2187000D1*
X2380000D1*
X2754000Y1813000D1*
X2838000D1*
X3457000Y7151000D2*
X3890000D1*
X3468000Y6743000D2*
X3213000Y6488000D1*
Y5861000D1*
X3239000Y5835000D1*
X2376000Y7488000D2*
Y7540770D1*
X2390537Y7555307D1*
X2089000Y7488000D2*
X2107427Y7469573D1*
X2123573D1*
X2614000Y5547000D2*
X2432000Y5365000D1*
X2277000D1*
X4455000Y1631000D2*
X4617000Y1793000D1*
Y1944000D1*
X5789000Y1492000D2*
X4455000D1*
Y1631000D1*
X3239000Y5835000D2*
D14*
X3071000D1*
X2783000Y5547000D1*
X2614000D1*
X3153000D1*
X3239000Y5633000D1*
Y5835000D1*
X2414000Y5791000D2*
Y5817000D1*
X2117000D1*
X2191000Y5743000D1*
Y5451000D1*
X1416000Y4097000D2*
D16*
X1616000D1*
X1416000Y3447000D2*
X1616000Y3454000D1*
X1416000Y3447000D2*
X1229000D1*
X1183000Y3493000D1*
Y4107000D1*
X1193000Y4097000D1*
X1416000D1*
X2071000Y5190000D2*
Y5420000D1*
X1557000Y1897000D2*
X1674000Y2014000D1*
X1792000D1*
X3540000Y3032000D2*
Y3059000D1*
X3534000Y4310000D2*
Y4420987D1*
X3510993Y4443993D1*
X2443000Y2613000D2*
D14*
X2559000Y2497000D1*
X2838000D1*
X6724000Y1386000D2*
D18*
X7202000Y1864000D1*
Y3829000D1*
X7056000Y3975000D1*
Y4657167D1*
X7410533Y5011700D1*
X7695000Y6256300D2*
Y6533133D1*
Y6810000D1*
D16*
X8000000D1*
D18*
Y7187920D1*
Y8470000D1*
X7906000Y8564000D1*
X7787477Y8682523D1*
X7691977Y8778023D1*
X7591477Y8878523D1*
X7495953Y8974047D1*
X7297420Y9172580D1*
X7177000Y9293000D1*
Y10021000D1*
X7361000Y10205000D1*
X7483000D1*
X7983000D1*
X7695000Y6533133D2*
D16*
X7883900D1*
D18*
X8000000D1*
Y6810000D1*
X7695000Y6256300D2*
D16*
X7883900D1*
D18*
X8000000D1*
Y6533133D1*
X7599000Y8873000D2*
X7591477Y8878523D1*
X7698000Y8771000D2*
X7691977Y8778023D1*
X7787477Y8682523D2*
D22*
Y8463570D1*
D18*
X7509000Y8185093D1*
X7698000Y8771000D2*
D22*
Y8620200D1*
D18*
Y8374093D1*
X7509000Y8185093D1*
X7599000Y8873000D2*
D22*
Y8722200D1*
D18*
Y8471170D1*
Y8275093D1*
X7509000Y8185093D1*
X7495953Y8974047D2*
Y8153953D1*
X7799367Y8457367D1*
D22*
X7906000Y8564000D1*
X7509000Y8185093D2*
D18*
Y8381170D1*
X7599000Y8471170D1*
X7983000Y10205000D2*
X8052000D1*
X7911000Y10064000D1*
X7799000D1*
X7727000Y9992000D1*
Y9602160D1*
X7297420Y9172580D1*
X7838920Y7187920D2*
X8000000D1*
X7410533Y5011700D2*
D16*
X7541300D1*
X7646000Y4907000D1*
X7905000D1*
X8000000Y5002000D1*
Y6256300D1*
D22*
X2706000Y6084000D3*
X3029000Y5395000D3*
X3522000Y6369000D3*
X2029000Y7890000D3*
X3709000Y6562000D3*
X2612000Y6545000D3*
D3*
X3779000Y5320000D3*
Y1200000D3*
Y5320000D3*
X2281000Y4480000D3*
X2684000Y1716000D3*
X3779000Y1200000D3*
X3069710Y3399007D3*
X2983723Y3484993D3*
X4598000Y9804000D3*
X4603000Y8859000D3*
X4590000Y7972000D3*
X4591000Y7125000D3*
X4631000Y6254000D3*
X4560000Y5357000D3*
Y4506000D3*
Y5357000D3*
X4617000Y3672000D3*
X4560000Y4506000D3*
X4617000Y2814000D3*
Y3672000D3*
Y1944000D3*
Y2814000D3*
X2890000Y4310000D3*
X1616000Y3454000D3*
X4617000Y3672000D3*
X1616000Y4097000D3*
Y3454000D3*
X2890000Y4310000D3*
X1745000Y5420000D3*
X1986000Y7332000D3*
X2590000Y8117000D3*
X2817877Y7836397D3*
X2838000Y2497000D3*
X2848000Y1803000D3*
X2838000Y2497000D3*
X3239000Y5835000D3*
X1792000Y2014000D3*
X2007000D3*
X3457000Y7151000D3*
X3468000Y6743000D3*
X3239000Y5835000D3*
X2376000Y7488000D3*
X2089000D3*
X1745000Y5420000D3*
X2614000Y5547000D3*
X4455000Y1631000D3*
X4617000Y1944000D3*
X5789000Y1492000D3*
X4455000Y1631000D3*
X2838000Y2497000D3*
X2007000Y2014000D3*
X3239000Y5835000D3*
X2614000Y5547000D3*
D3*
X3239000Y5835000D3*
X2414000Y5791000D3*
X1745000Y5420000D3*
D3*
X1616000Y3454000D3*
Y4097000D3*
Y3454000D3*
X1792000Y2014000D3*
X1616000Y4097000D3*
D3*
Y3454000D3*
Y4097000D3*
Y3107000D3*
X3468000Y6743000D3*
X2590000Y8413000D3*
Y8117000D3*
Y8413000D3*
Y8117000D3*
D3*
X2817877Y7836397D3*
D3*
X2376000Y7488000D3*
D3*
X2089000D3*
D3*
X1986000Y7332000D3*
X3457000Y7151000D3*
D3*
X2817877Y7836397D3*
X4560000Y5357000D3*
X3111000Y4583000D3*
X2890000Y4310000D3*
X3088000Y3947000D3*
X2890000Y4310000D3*
X3088000Y3947000D3*
D3*
X2890000Y4310000D3*
D3*
X2726000D3*
X2590000Y8413000D3*
X2838000Y2497000D3*
X1557000Y1897000D3*
X1792000Y2014000D3*
X1372000Y5420000D3*
X3986000Y10169000D3*
D3*
X2524000Y9668000D3*
X1986000Y7332000D3*
X4560000Y4506000D3*
Y5357000D3*
Y4506000D3*
X4617000Y3672000D3*
D3*
Y2814000D3*
D3*
Y1944000D3*
D3*
X4455000Y1631000D3*
X2848000Y1803000D3*
X2007000Y2014000D3*
X3534000Y4310000D3*
X3111000Y4583000D3*
D3*
X2590000Y8117000D3*
Y8413000D3*
X3534000Y4310000D3*
D3*
X2846000Y3705000D3*
X3088000Y3947000D3*
X3534000Y4591000D3*
X2443000Y2613000D3*
X2838000Y2497000D3*
X3868000Y6095000D3*
X4268000Y5129000D3*
X4212000Y3842000D3*
X4409000Y5735000D3*
X4180000Y9980000D3*
X4437000Y5877000D3*
X4350000Y8875000D3*
X4553000Y6151000D3*
X4360000Y7980000D3*
X4452000Y6281000D3*
X4363000Y7116000D3*
X4244000Y4939000D3*
X2864000Y5363000D3*
X2770000Y6199000D3*
X4914000Y1207000D3*
X6724000Y1386000D3*
X7495953Y8974047D3*
D3*
D3*
D3*
D3*
X7787477Y8682523D3*
X7906000Y8564000D3*
D3*
X7787477Y8682523D3*
X7906000Y8564000D3*
X7495953Y8974047D3*
X7787477Y8682523D3*
X7906000Y8564000D3*
X7495953Y8974047D3*
X6984000Y9740000D3*
X7838920Y7187920D3*
X7539080D3*
X7838920D3*
X7092000Y5011700D3*
Y4273000D3*
Y5011700D3*
D3*
X8130000Y10026000D3*
X2329000Y2497000D3*
X2308000Y1987000D3*
X2181000Y6261000D3*
X6939000Y1874000D3*
X4766000Y9365000D3*
X2361000Y6939000D3*
X1823000Y6481000D3*
X3633000Y5601000D3*
X2879000Y6295000D3*
X3633000Y5601000D3*
X2606000Y5801000D3*
X2868000Y6669000D3*
X2514000Y2226000D3*
X2142000Y2004000D3*
X1997000Y2518000D3*
X1840000Y3046000D3*
X2464000Y2349000D3*
X2486000Y6326000D3*
X1428000Y7962000D3*
X2452000Y3984000D3*
X2450000Y5249000D3*
X1931000Y5928000D3*
X2373000Y5486000D3*
X1988000Y6673000D3*
D3*
X1931000Y5928000D3*
X7599000Y8873000D3*
X7698000Y8771000D3*
X2524000Y8620000D3*
X2016000D3*
X3032000D3*
Y8112000D3*
Y9128000D3*
X2524000D3*
X1966000Y9143000D3*
X1508000Y9154000D3*
Y8620000D3*
X3540000Y3032000D3*
Y2524000D3*
Y2016000D3*
Y1508000D3*
X2026000Y1455000D3*
X2006000Y1763000D3*
X3540000Y3540000D3*
X3021000Y9661000D3*
X3027000Y10165000D3*
X2524000Y10171000D3*
X1968000Y10181000D3*
X1965000Y9649000D3*
X1507000Y9662000D3*
X3538000Y10169000D3*
X3488000Y9636000D3*
X3500000Y9135000D3*
X3540000Y8620000D3*
Y8112000D3*
X4048000Y9128000D3*
Y8620000D3*
Y8112000D3*
Y7604000D3*
Y7124000D3*
X1600073Y10305083D2*
D28*
X5461890D1*
X1650113Y10241917D2*
X5461890D1*
X1677183Y10178750D2*
X5461890D1*
X1688030Y10115583D2*
X5461890D1*
X1684383Y10052417D2*
X4084220D1*
X4275840D2*
X5439377D1*
X1665790Y9989250D2*
X4058973D1*
X4301087D2*
X5423427D1*
X1138147Y9926083D2*
X1171610D1*
X1628420D2*
X4072007D1*
X4288053D2*
X5445757D1*
X1138147Y9862917D2*
X1240837D1*
X1559240D2*
X5461890D1*
X1138147Y9799750D2*
X5461890D1*
X1138147Y9736583D2*
X5461890D1*
X1138147Y9673417D2*
X5461890D1*
X1138147Y9610250D2*
X5461890D1*
X1138147Y9547083D2*
X5441020D1*
X1138147Y9483917D2*
X5423337D1*
X1138147Y9420750D2*
X4658987D1*
X4873030D2*
X5443843D1*
X1138147Y9357583D2*
X4644770D1*
X4887157D2*
X5461890D1*
X1138147Y9294417D2*
X4668740D1*
X4863277D2*
X5461890D1*
X1138147Y9231250D2*
X5461890D1*
X1138147Y9168083D2*
X5423427D1*
X1138147Y9104917D2*
X5417320D1*
X1138147Y9041750D2*
X5452413D1*
X1138147Y8978583D2*
X4293493D1*
X4406543D2*
X5461890D1*
X1138147Y8915417D2*
X4235887D1*
X4464147D2*
X5461890D1*
X1138147Y8852250D2*
X4230877D1*
X4469160D2*
X5461890D1*
X1138147Y8789083D2*
X4267060D1*
X4432887D2*
X5461890D1*
X1138147Y8725917D2*
X5461890D1*
X1138147Y8662750D2*
X5424520D1*
X1138147Y8599583D2*
X5416863D1*
X1138147Y8536417D2*
X5449587D1*
X1138147Y8473250D2*
X5461890D1*
X1138147Y8410083D2*
X5461890D1*
X1138147Y8346917D2*
X5448947D1*
X1138147Y8283750D2*
X5415043D1*
X1138147Y8220583D2*
X5421970D1*
X1138147Y8157417D2*
X5461890D1*
X1138147Y8094250D2*
X4339793D1*
X4380247D2*
X5461890D1*
X1138147Y8031083D2*
X1329613D1*
X1526427D2*
X4250563D1*
X4469527D2*
X5461890D1*
X1138147Y7967917D2*
X1306733D1*
X1549303D2*
X1937920D1*
X2120060D2*
X4239170D1*
X4480827D2*
X5461890D1*
X1138147Y7904750D2*
X1321773D1*
X1534173D2*
X1908480D1*
X2149500D2*
X4266603D1*
X4453393D2*
X5461890D1*
X1138147Y7841583D2*
X1918233D1*
X2139747D2*
X5451863D1*
X1138147Y7778417D2*
X1994430D1*
X2063550D2*
X5415590D1*
X1138147Y7715250D2*
X5420877D1*
X1138147Y7652083D2*
X5461890D1*
X1138147Y7588917D2*
X5461890D1*
X1138147Y7525750D2*
X5461890D1*
X1138147Y7462583D2*
X5427983D1*
X1138147Y7399417D2*
X5421057D1*
X1138147Y7336250D2*
X5454780D1*
X1138147Y7273083D2*
X5461890D1*
X1138147Y7209917D2*
X4290120D1*
X4435893D2*
X5461890D1*
X1138147Y7146750D2*
X4245733D1*
X4480280D2*
X5461890D1*
X1138147Y7083583D2*
X4246187D1*
X4479827D2*
X5461890D1*
X1138147Y7020417D2*
X2273337D1*
X2448730D2*
X4292580D1*
X4433433D2*
X5461890D1*
X1138147Y6957250D2*
X2240980D1*
X2480997D2*
X5429170D1*
X1138147Y6894083D2*
X2248727D1*
X2473340D2*
X5420603D1*
X1138147Y6830917D2*
X2315080D1*
X2406897D2*
X5452137D1*
X1138147Y6767750D2*
X1916317D1*
X2059720D2*
X2802530D1*
X2933447D2*
X5461890D1*
X1138147Y6704583D2*
X1871020D1*
X2105020D2*
X2752217D1*
X2983757D2*
X5461890D1*
X1138147Y6641417D2*
X1871020D1*
X2105020D2*
X2542763D1*
X2681153D2*
X2749937D1*
X2986127D2*
X3619377D1*
X3798693D2*
X5447400D1*
X1138147Y6578250D2*
X1755080D1*
X2059720D2*
X2495460D1*
X2728550D2*
X2790863D1*
X2945113D2*
X3588753D1*
X3829317D2*
X5425433D1*
X1138147Y6515083D2*
X1706683D1*
X1939317D2*
X2494547D1*
X2729460D2*
X3597593D1*
X3820477D2*
X5441747D1*
X1138147Y6451917D2*
X1705317D1*
X1940683D2*
X2537933D1*
X2686077D2*
X3435810D1*
X3608197D2*
X3669053D1*
X3748927D2*
X5461890D1*
X1138147Y6388750D2*
X1747790D1*
X1898210D2*
X2388180D1*
X2589827D2*
X2805900D1*
X2952130D2*
X3402270D1*
X3641740D2*
X4405237D1*
X4498783D2*
X5461890D1*
X1138147Y6325583D2*
X2080380D1*
X2283577D2*
X2367580D1*
X2610423D2*
X2761697D1*
X2996337D2*
X3409103D1*
X3634903D2*
X4339520D1*
X4564410D2*
X5461890D1*
X1138147Y6262417D2*
X1296527D1*
X1452507D2*
X2060603D1*
X2303447D2*
X2384807D1*
X2593197D2*
X2667633D1*
X2995697D2*
X3472270D1*
X3571740D2*
X4332047D1*
X4588197D2*
X5461890D1*
X1138147Y6199250D2*
X1276567D1*
X1472470D2*
X2078557D1*
X2285490D2*
X2648583D1*
X2949213D2*
X3812880D1*
X3923107D2*
X4364677D1*
X4663850D2*
X5461890D1*
X1138147Y6136083D2*
X1307553D1*
X1441480D2*
X2596997D1*
X2872743D2*
X3754183D1*
X3981897D2*
X4432490D1*
X4673510D2*
X5449403D1*
X1138147Y6072917D2*
X2585053D1*
X2826897D2*
X3748713D1*
X3987273D2*
X4462113D1*
X4643887D2*
X5425613D1*
X1138147Y6009750D2*
X1843673D1*
X2018340D2*
X2611670D1*
X2800280D2*
X3784353D1*
X3951637D2*
X5440197D1*
X1138147Y5946583D2*
X1811043D1*
X2050970D2*
X4338973D1*
X4535060D2*
X5461890D1*
X1138147Y5883417D2*
X1320407D1*
X1428537D2*
X1818520D1*
X2043497D2*
X2519340D1*
X2692637D2*
X4315733D1*
X4558303D2*
X5461890D1*
X1138147Y5820250D2*
X1277660D1*
X1471373D2*
X1884233D1*
X1977780D2*
X2486163D1*
X2725813D2*
X4325303D1*
X4543447D2*
X5461890D1*
X1138147Y5757083D2*
X1289873D1*
X1459160D2*
X2493270D1*
X2718707D2*
X4289663D1*
X4528313D2*
X5430627D1*
X1138147Y5693917D2*
X2557437D1*
X2654540D2*
X3558767D1*
X3707273D2*
X4295133D1*
X4522847D2*
X5433180D1*
X1138147Y5630750D2*
X3515470D1*
X3750567D2*
X4353923D1*
X4464147D2*
X5461890D1*
X1138147Y5567583D2*
X2285460D1*
X2460490D2*
X3516473D1*
X3749473D2*
X5461890D1*
X1138147Y5504417D2*
X2253010D1*
X2492937D2*
X2986917D1*
X3071077D2*
X3564053D1*
X3701897D2*
X5461890D1*
X1138147Y5441250D2*
X2260577D1*
X2485373D2*
X2773270D1*
X3140710D2*
X3859363D1*
X4150607D2*
X5461890D1*
X1138147Y5378083D2*
X2326657D1*
X2419383D2*
X2743557D1*
X3149187D2*
X3673337D1*
X4150607D2*
X5461890D1*
X1138147Y5314917D2*
X1466057D1*
X1659957D2*
X1720080D1*
X1913887D2*
X1974103D1*
X2167910D2*
X2349353D1*
X2550723D2*
X2753127D1*
X3118017D2*
X3657660D1*
X4150607D2*
X5461890D1*
X1138147Y5251750D2*
X1415290D1*
X2218770D2*
X2328570D1*
X2571413D2*
X2828140D1*
X2899813D2*
X3679990D1*
X4150607D2*
X5431267D1*
X1138147Y5188583D2*
X1402347D1*
X2231623D2*
X2345707D1*
X2554280D2*
X3887983D1*
X4121987D2*
X4163153D1*
X4372820D2*
X5432360D1*
X1138147Y5125417D2*
X1416567D1*
X2217493D2*
X3861007D1*
X4389410D2*
X5461890D1*
X1138147Y5062250D2*
X1467970D1*
X2165997D2*
X2812373D1*
X2980477D2*
X3294990D1*
X3463003D2*
X3865747D1*
X4368080D2*
X5461890D1*
X1138147Y4999083D2*
X1415837D1*
X2218133D2*
X2769807D1*
X3022950D2*
X3252423D1*
X3505567D2*
X3907033D1*
X4102937D2*
X4139457D1*
X4348483D2*
X5461890D1*
X1138147Y4935917D2*
X1402347D1*
X2231623D2*
X2767983D1*
X3024773D2*
X3250603D1*
X3507390D2*
X3888987D1*
X4365437D2*
X5449950D1*
X1138147Y4872750D2*
X1415927D1*
X2218040D2*
X2804260D1*
X2988587D2*
X3286877D1*
X3471113D2*
X3861187D1*
X4344473D2*
X5435550D1*
X1138147Y4809583D2*
X1468153D1*
X1657767D2*
X1722177D1*
X1911790D2*
X1976200D1*
X2165813D2*
X3865380D1*
X4144683D2*
X5459613D1*
X1138147Y4746417D2*
X3905483D1*
X4104487D2*
X5461890D1*
X1138147Y4683250D2*
X5461890D1*
X1138147Y4620083D2*
X5461890D1*
X1138147Y4556917D2*
X2189027D1*
X2372990D2*
X5461890D1*
X1138147Y4493750D2*
X2160407D1*
X2401610D2*
X5461890D1*
X1138147Y4430583D2*
X2170707D1*
X2391310D2*
X5451500D1*
X1138147Y4367417D2*
X2250733D1*
X2311283D2*
X5435460D1*
X1138147Y4304250D2*
X5457607D1*
X1138147Y4241083D2*
X1300537D1*
X1531440D2*
X1750523D1*
X1981427D2*
X5461890D1*
X1138147Y4177917D2*
X1262347D1*
X1569630D2*
X1712333D1*
X2019617D2*
X5461890D1*
X1138147Y4114750D2*
X1255330D1*
X1576647D2*
X1705317D1*
X2026637D2*
X5461890D1*
X1138147Y4051583D2*
X1255693D1*
X1576283D2*
X1705680D1*
X2026270D2*
X2352450D1*
X2551543D2*
X5456603D1*
X1138147Y3988417D2*
X1274013D1*
X1557963D2*
X1724000D1*
X2007950D2*
X2330667D1*
X2573327D2*
X5450223D1*
X1138147Y3925250D2*
X1338180D1*
X1493797D2*
X1788167D1*
X1943783D2*
X2346710D1*
X2557287D2*
X4126150D1*
X4297807D2*
X5461890D1*
X1138147Y3862083D2*
X4092333D1*
X4331713D2*
X5461890D1*
X1138147Y3798917D2*
X4098897D1*
X4325060D2*
X5461890D1*
X1138147Y3735750D2*
X4161423D1*
X4262623D2*
X5461890D1*
X1138147Y3672583D2*
X5461890D1*
X1138147Y3609417D2*
X1322687D1*
X1509383D2*
X1772673D1*
X1959370D2*
X5461890D1*
X1138147Y3546250D2*
X1269363D1*
X1562613D2*
X1719353D1*
X2012600D2*
X2879913D1*
X3087480D2*
X5457697D1*
X1138147Y3483083D2*
X1255330D1*
X1576647D2*
X1705407D1*
X2026637D2*
X2862320D1*
X3154657D2*
X5449770D1*
X1138147Y3419917D2*
X1255330D1*
X1576647D2*
X1705317D1*
X2026637D2*
X2882463D1*
X3189200D2*
X5461890D1*
X1138147Y3356750D2*
X1265627D1*
X1566440D2*
X1715613D1*
X2016427D2*
X2956293D1*
X3183093D2*
X5461890D1*
X1138147Y3293583D2*
X1310747D1*
X1521230D2*
X1760733D1*
X1971220D2*
X3017177D1*
X3122207D2*
X5461890D1*
X1138147Y3230417D2*
X5461890D1*
X1138147Y3167250D2*
X5448400D1*
X1138147Y3104083D2*
X1734300D1*
X1945697D2*
X5461890D1*
X1138147Y3040917D2*
X1718713D1*
X1961283D2*
X5461890D1*
X1138147Y2977750D2*
X1740953D1*
X1939043D2*
X5461890D1*
X1138147Y2914583D2*
X5461890D1*
X1138147Y2851417D2*
X1290147D1*
X1458797D2*
X5461890D1*
X1138147Y2788250D2*
X1277567D1*
X1471467D2*
X5461890D1*
X1138147Y2725083D2*
X1319587D1*
X1429357D2*
X5461890D1*
X1138147Y2661917D2*
X5448400D1*
X1138147Y2598750D2*
X1908663D1*
X2085333D2*
X2268870D1*
X2389123D2*
X5461890D1*
X1138147Y2535583D2*
X1876943D1*
X2117053D2*
X2214183D1*
X2443810D2*
X5461890D1*
X1138147Y2472417D2*
X1308103D1*
X1440933D2*
X1884963D1*
X2109030D2*
X2210173D1*
X2447820D2*
X5461890D1*
X1138147Y2409250D2*
X1276567D1*
X1472470D2*
X1952960D1*
X2041037D2*
X2248180D1*
X2567220D2*
X5461890D1*
X1138147Y2346083D2*
X1296163D1*
X1452873D2*
X2339690D1*
X2582260D2*
X5444847D1*
X1138147Y2282917D2*
X2362567D1*
X2620360D2*
X5457423D1*
X1138147Y2219750D2*
X2392737D1*
X2635307D2*
X5461890D1*
X1138147Y2156583D2*
X2415887D1*
X2612157D2*
X5461890D1*
X1138147Y2093417D2*
X2063153D1*
X2220777D2*
X2257840D1*
X2358223D2*
X5461890D1*
X1138147Y2030250D2*
X2023597D1*
X2421023D2*
X5461890D1*
X1138147Y1967083D2*
X2026603D1*
X2427677D2*
X5461890D1*
X1138147Y1903917D2*
X2078830D1*
X2393953D2*
X5461890D1*
X1138147Y1840750D2*
X5445030D1*
X1138147Y1777583D2*
X2580407D1*
X2787613D2*
X5456057D1*
X1138147Y1714417D2*
X1345380D1*
X1554590D2*
X2562543D1*
X2805387D2*
X5461890D1*
X1138147Y1651250D2*
X1246030D1*
X1654030D2*
X2582503D1*
X2785517D2*
X5461890D1*
X1138147Y1588083D2*
X1197633D1*
X1702337D2*
X5461890D1*
X1138147Y1524917D2*
X1171610D1*
X1728313D2*
X5461890D1*
X1738160Y1461750D2*
X5461890D1*
X1733693Y1398583D2*
X5461890D1*
X1138147Y1335417D2*
X1185877D1*
X1714097D2*
X5461890D1*
X1138147Y1272250D2*
X1224613D1*
X1675360D2*
X3683090D1*
X3874980D2*
X4812840D1*
X5015123D2*
X5461890D1*
X1138147Y1209083D2*
X1296890D1*
X1603080D2*
X3657933D1*
X3900047D2*
X4792607D1*
X5035450D2*
X5461890D1*
X1138147Y1145917D2*
X3671057D1*
X3886920D2*
X4810107D1*
X5017860D2*
X5461890D1*
X1711713Y3481953D2*
X1713610Y3506137D1*
X1719260Y3529677D1*
X1728527Y3552047D1*
X1741177Y3572690D1*
X1756900Y3591100D1*
X1775310Y3606823D1*
X1795953Y3619473D1*
X1818323Y3628740D1*
X1841863Y3634390D1*
X1866000Y3636290D1*
X1890137Y3634390D1*
X1913677Y3628740D1*
X1936047Y3619473D1*
X1956690Y3606823D1*
X1975100Y3591100D1*
X1990823Y3572690D1*
X2003473Y3552047D1*
X2012740Y3529677D1*
X2018390Y3506137D1*
X2020290Y3482000D1*
X2019813Y3399893D1*
X2016027Y3375983D1*
X2008547Y3352957D1*
X1997553Y3331383D1*
X1983323Y3311797D1*
X1966203Y3294677D1*
X1946617Y3280447D1*
X1925043Y3269453D1*
X1902017Y3261973D1*
X1878107Y3258187D1*
X1853893D1*
X1829983Y3261973D1*
X1806957Y3269453D1*
X1785383Y3280447D1*
X1765797Y3294677D1*
X1748677Y3311797D1*
X1734447Y3331383D1*
X1723453Y3352957D1*
X1715973Y3375983D1*
X1712187Y3399893D1*
X1711710Y3458667D1*
Y3481910D1*
X1711713Y4131953D2*
X1713610Y4156137D1*
X1719260Y4179677D1*
X1728527Y4202047D1*
X1741177Y4222690D1*
X1756900Y4241100D1*
X1775310Y4256823D1*
X1795953Y4269473D1*
X1818323Y4278740D1*
X1841863Y4284390D1*
X1866000Y4286290D1*
X1890137Y4284390D1*
X1913677Y4278740D1*
X1936047Y4269473D1*
X1956690Y4256823D1*
X1975100Y4241100D1*
X1990823Y4222690D1*
X2003473Y4202047D1*
X2012740Y4179677D1*
X2018390Y4156137D1*
X2020290Y4132000D1*
X2019813Y4049893D1*
X2016027Y4025983D1*
X2008547Y4002957D1*
X1997553Y3981383D1*
X1983323Y3961797D1*
X1966203Y3944677D1*
X1946617Y3930447D1*
X1925043Y3919453D1*
X1902017Y3911973D1*
X1878107Y3908187D1*
X1853893D1*
X1829983Y3911973D1*
X1806957Y3919453D1*
X1785383Y3930447D1*
X1765797Y3944677D1*
X1748677Y3961797D1*
X1734447Y3981383D1*
X1723453Y4002957D1*
X1715973Y4025983D1*
X1712187Y4049893D1*
X1711710Y4108667D1*
Y4131910D1*
X1261717Y3482017D2*
X1262913Y3501233D1*
X1266353Y3519570D1*
X1271983Y3537353D1*
X1279717Y3554333D1*
X1289440Y3570250D1*
X1301017Y3584880D1*
X1314273Y3598007D1*
X1329020Y3609433D1*
X1345033Y3619000D1*
X1362087Y3626563D1*
X1379930Y3632013D1*
X1398297Y3635270D1*
X1416927Y3636287D1*
X1435540Y3635047D1*
X1453867Y3631570D1*
X1471643Y3625907D1*
X1488603Y3618140D1*
X1504503Y3608383D1*
X1519110Y3596777D1*
X1532210Y3583493D1*
X1543610Y3568727D1*
X1553143Y3552690D1*
X1560673Y3535623D1*
X1566087Y3517770D1*
X1569307Y3499397D1*
X1570290Y3477333D1*
X1569657Y3398020D1*
X1566843Y3379577D1*
X1561830Y3361610D1*
X1554680Y3344377D1*
X1545507Y3328133D1*
X1534437Y3313117D1*
X1521637Y3299547D1*
X1507293Y3287617D1*
X1491613Y3277510D1*
X1474830Y3269367D1*
X1457187Y3263310D1*
X1438940Y3259423D1*
X1420357Y3257770D1*
X1401713Y3258373D1*
X1383277Y3261220D1*
X1365317Y3266273D1*
X1348100Y3273453D1*
X1331873Y3282663D1*
X1316880Y3293760D1*
X1303333Y3306587D1*
X1291437Y3320957D1*
X1281357Y3336653D1*
X1273250Y3353453D1*
X1267227Y3371110D1*
X1263380Y3389367D1*
X1261763Y3407950D1*
X1261710Y3481800D1*
X1261717Y4132017D2*
X1262913Y4151233D1*
X1266353Y4169570D1*
X1271983Y4187353D1*
X1279717Y4204333D1*
X1289440Y4220250D1*
X1301017Y4234880D1*
X1314273Y4248007D1*
X1329020Y4259433D1*
X1345033Y4269000D1*
X1362087Y4276563D1*
X1379930Y4282013D1*
X1398297Y4285270D1*
X1416927Y4286287D1*
X1435540Y4285047D1*
X1453867Y4281570D1*
X1471643Y4275907D1*
X1488603Y4268140D1*
X1504503Y4258383D1*
X1519110Y4246777D1*
X1532210Y4233493D1*
X1543610Y4218727D1*
X1553143Y4202690D1*
X1560673Y4185623D1*
X1566087Y4167770D1*
X1569307Y4149397D1*
X1570290Y4127333D1*
X1569657Y4048020D1*
X1566843Y4029577D1*
X1561830Y4011610D1*
X1554680Y3994377D1*
X1545507Y3978133D1*
X1534437Y3963117D1*
X1521637Y3949547D1*
X1507293Y3937617D1*
X1491613Y3927510D1*
X1474830Y3919367D1*
X1457187Y3913310D1*
X1438940Y3909423D1*
X1420357Y3907770D1*
X1401713Y3908373D1*
X1383277Y3911220D1*
X1365317Y3916273D1*
X1348100Y3923453D1*
X1331873Y3932663D1*
X1316880Y3943760D1*
X1303333Y3956587D1*
X1291437Y3970957D1*
X1281357Y3986653D1*
X1273250Y4003453D1*
X1267227Y4021110D1*
X1263380Y4039367D1*
X1261763Y4057950D1*
X1261710Y4131763D1*
X1681213Y10077867D2*
X1678610Y10055873D1*
X1674290Y10034150D1*
X1668277Y10012830D1*
X1660610Y9992050D1*
X1651337Y9971937D1*
X1640517Y9952613D1*
X1628210Y9934197D1*
X1614497Y9916800D1*
X1599463Y9900537D1*
X1583200Y9885503D1*
X1565803Y9871790D1*
X1547387Y9859483D1*
X1528063Y9848663D1*
X1507950Y9839390D1*
X1487170Y9831723D1*
X1465850Y9825710D1*
X1444127Y9821390D1*
X1422133Y9818787D1*
X1400000Y9817917D1*
X1377867Y9818787D1*
X1355873Y9821390D1*
X1334150Y9825710D1*
X1312830Y9831723D1*
X1292050Y9839390D1*
X1271937Y9848663D1*
X1252613Y9859483D1*
X1234197Y9871790D1*
X1216800Y9885503D1*
X1200537Y9900537D1*
X1185503Y9916800D1*
X1171790Y9934197D1*
X1159483Y9952613D1*
X1148663Y9971937D1*
X1139390Y9992050D1*
X1131753Y10012750D1*
X1131750Y1131837D1*
X3686263Y1131750D1*
X3676453Y1147750D1*
X3669543Y1164437D1*
X3665327Y1181997D1*
X3663910Y1200000D1*
X3665327Y1218003D1*
X3669543Y1235563D1*
X3676453Y1252250D1*
X3685890Y1267647D1*
X3697620Y1281380D1*
X3711353Y1293110D1*
X3726750Y1302547D1*
X3743437Y1309457D1*
X3760997Y1313673D1*
X3779000Y1315090D1*
X3797003Y1313673D1*
X3814563Y1309457D1*
X3831250Y1302547D1*
X3846647Y1293110D1*
X3860380Y1281380D1*
X3872110Y1267647D1*
X3881547Y1252250D1*
X3888457Y1235563D1*
X3892673Y1218003D1*
X3894090Y1200000D1*
X3892673Y1181997D1*
X3888457Y1164437D1*
X3881547Y1147750D1*
X3871650Y1131770D1*
X4826483Y1132257D1*
X4815870Y1146867D1*
X4807670Y1162957D1*
X4802090Y1180133D1*
X4799263Y1197970D1*
Y1216030D1*
X4802090Y1233867D1*
X4807670Y1251043D1*
X4815870Y1267133D1*
X4826483Y1281743D1*
X4839257Y1294517D1*
X4853867Y1305130D1*
X4869957Y1313330D1*
X4887133Y1318910D1*
X4904970Y1321737D1*
X4923030D1*
X4940867Y1318910D1*
X4958043Y1313330D1*
X4974133Y1305130D1*
X4988743Y1294517D1*
X5001517Y1281743D1*
X5012130Y1267133D1*
X5020330Y1251043D1*
X5025910Y1233867D1*
X5028737Y1216030D1*
Y1197970D1*
X5025910Y1180133D1*
X5020330Y1162957D1*
X5012130Y1146867D1*
X5001060Y1131763D1*
X5468163Y1131750D1*
X5468250Y1767097D1*
X5459410Y1784263D1*
X5453867Y1801320D1*
X5451063Y1819033D1*
Y1836967D1*
X5453867Y1854680D1*
X5459410Y1871737D1*
X5468233Y1888737D1*
X5468250Y2275143D1*
X5459410Y2292263D1*
X5453867Y2309320D1*
X5451063Y2327033D1*
Y2344967D1*
X5453867Y2362680D1*
X5459410Y2379737D1*
X5468233Y2396737D1*
X5468250Y2605090D1*
X5460303Y2623683D1*
X5456117Y2641120D1*
X5454710Y2659000D1*
X5456117Y2676880D1*
X5460303Y2694317D1*
X5467167Y2710887D1*
X5468247Y2712813D1*
X5468250Y3112957D1*
X5460303Y3131683D1*
X5456117Y3149120D1*
X5454710Y3167000D1*
X5456117Y3184880D1*
X5460303Y3202317D1*
X5467167Y3218887D1*
X5468247Y3220813D1*
X5468250Y3447097D1*
X5460303Y3465683D1*
X5456117Y3483120D1*
X5454710Y3501000D1*
X5456117Y3518880D1*
X5460303Y3536317D1*
X5467167Y3552887D1*
X5468247Y3554813D1*
X5468250Y3954960D1*
X5460303Y3973683D1*
X5456117Y3991120D1*
X5454710Y4009000D1*
X5456117Y4026880D1*
X5460303Y4044317D1*
X5467167Y4060887D1*
X5468250Y4063333D1*
Y4298763D1*
X5458553Y4312283D1*
X5450410Y4328263D1*
X5444867Y4345320D1*
X5442063Y4363033D1*
Y4380967D1*
X5444867Y4398680D1*
X5450410Y4415737D1*
X5458553Y4431717D1*
X5468247Y4445153D1*
X5468250Y4806810D1*
X5458553Y4820283D1*
X5450410Y4836263D1*
X5444867Y4853320D1*
X5442063Y4871033D1*
Y4888967D1*
X5444867Y4906680D1*
X5450410Y4923737D1*
X5458553Y4939717D1*
X5468247Y4953153D1*
X5468250Y5140220D1*
X5455537Y5154823D1*
X5446167Y5170113D1*
X5439303Y5186683D1*
X5435117Y5204120D1*
X5433710Y5222000D1*
X5435117Y5239880D1*
X5439303Y5257317D1*
X5446167Y5273887D1*
X5455537Y5289177D1*
X5468240Y5303790D1*
X5468250Y5648087D1*
X5455537Y5662823D1*
X5446167Y5678113D1*
X5439303Y5694683D1*
X5435117Y5712120D1*
X5433710Y5730000D1*
X5435117Y5747880D1*
X5439303Y5765317D1*
X5446167Y5781887D1*
X5455537Y5797177D1*
X5468240Y5811790D1*
X5468250Y5982227D1*
X5459093Y5991773D1*
X5448553Y6006283D1*
X5440410Y6022263D1*
X5434867Y6039320D1*
X5432063Y6057033D1*
Y6074967D1*
X5434867Y6092680D1*
X5440410Y6109737D1*
X5448553Y6125717D1*
X5459093Y6140227D1*
X5468247Y6149647D1*
X5468250Y6490273D1*
X5459093Y6499773D1*
X5448553Y6514283D1*
X5440410Y6530263D1*
X5434867Y6547320D1*
X5432063Y6565033D1*
Y6582967D1*
X5434867Y6600680D1*
X5440410Y6617737D1*
X5448553Y6633717D1*
X5459093Y6648227D1*
X5468247Y6657647D1*
X5468250Y6822043D1*
X5459183Y6830183D1*
X5447537Y6843823D1*
X5438167Y6859113D1*
X5431303Y6875683D1*
X5427117Y6893120D1*
X5425710Y6911000D1*
X5427117Y6928880D1*
X5431303Y6946317D1*
X5438167Y6962887D1*
X5447537Y6978177D1*
X5459183Y6991817D1*
X5468223Y6999837D1*
X5468250Y7330090D1*
X5459183Y7338183D1*
X5447537Y7351823D1*
X5438167Y7367113D1*
X5431303Y7383683D1*
X5427117Y7401120D1*
X5425710Y7419000D1*
X5427117Y7436880D1*
X5431303Y7454317D1*
X5438167Y7470887D1*
X5447537Y7486177D1*
X5459183Y7499817D1*
X5468223Y7507837D1*
X5468250Y7662590D1*
X5453183Y7675183D1*
X5441537Y7688823D1*
X5432167Y7704113D1*
X5425303Y7720683D1*
X5421117Y7738120D1*
X5419710Y7756000D1*
X5421117Y7773880D1*
X5425303Y7791317D1*
X5432167Y7807887D1*
X5441537Y7823177D1*
X5453183Y7836817D1*
X5468250Y7849417D1*
Y8170457D1*
X5453183Y8183183D1*
X5441537Y8196823D1*
X5432167Y8212113D1*
X5425303Y8228683D1*
X5421117Y8246120D1*
X5419710Y8264000D1*
X5421117Y8281880D1*
X5425303Y8299317D1*
X5432167Y8315887D1*
X5441537Y8331177D1*
X5453183Y8344817D1*
X5468250Y8357417D1*
Y8525923D1*
X5455183Y8537183D1*
X5443537Y8550823D1*
X5434167Y8566113D1*
X5427303Y8582683D1*
X5423117Y8600120D1*
X5421710Y8618000D1*
X5423117Y8635880D1*
X5427303Y8653317D1*
X5434167Y8669887D1*
X5443537Y8685177D1*
X5455183Y8698817D1*
X5468243Y8710007D1*
X5468250Y9033970D1*
X5455183Y9045183D1*
X5443537Y9058823D1*
X5434167Y9074113D1*
X5427303Y9090683D1*
X5423117Y9108120D1*
X5421710Y9126000D1*
X5423117Y9143880D1*
X5427303Y9161317D1*
X5434167Y9177887D1*
X5443537Y9193177D1*
X5455183Y9206817D1*
X5468243Y9218007D1*
X5468250Y9400377D1*
X5457093Y9411773D1*
X5446553Y9426283D1*
X5438410Y9442263D1*
X5432867Y9459320D1*
X5430063Y9477033D1*
Y9494967D1*
X5432867Y9512680D1*
X5438410Y9529737D1*
X5446553Y9545717D1*
X5457093Y9560227D1*
X5468257Y9571503D1*
X5468250Y9908423D1*
X5457093Y9919773D1*
X5446553Y9934283D1*
X5438410Y9950263D1*
X5432867Y9967320D1*
X5430063Y9985033D1*
Y10002967D1*
X5432867Y10020680D1*
X5438410Y10037737D1*
X5446553Y10053717D1*
X5457093Y10068227D1*
X5468257Y10079503D1*
X5468250Y10368163D1*
X1487303Y10368250D1*
X1507950Y10360610D1*
X1528063Y10351337D1*
X1547387Y10340517D1*
X1565803Y10328210D1*
X1583200Y10314497D1*
X1599463Y10299463D1*
X1614497Y10283200D1*
X1628210Y10265803D1*
X1640517Y10247387D1*
X1651337Y10228063D1*
X1660610Y10207950D1*
X1668277Y10187170D1*
X1674290Y10165850D1*
X1678610Y10144127D1*
X1681213Y10122133D1*
X1682083Y10100000D1*
X1681213Y10077867D1*
X1731213Y1427867D2*
X1728610Y1405873D1*
X1724290Y1384150D1*
X1718277Y1362830D1*
X1710610Y1342050D1*
X1701337Y1321937D1*
X1690517Y1302613D1*
X1678210Y1284197D1*
X1664497Y1266800D1*
X1649463Y1250537D1*
X1633200Y1235503D1*
X1615803Y1221790D1*
X1597387Y1209483D1*
X1578063Y1198663D1*
X1557950Y1189390D1*
X1537170Y1181723D1*
X1515850Y1175710D1*
X1494127Y1171390D1*
X1472133Y1168787D1*
X1450000Y1167917D1*
X1427867Y1168787D1*
X1405873Y1171390D1*
X1384150Y1175710D1*
X1362830Y1181723D1*
X1342050Y1189390D1*
X1321937Y1198663D1*
X1302613Y1209483D1*
X1284197Y1221790D1*
X1266800Y1235503D1*
X1250537Y1250537D1*
X1235503Y1266800D1*
X1221790Y1284197D1*
X1209483Y1302613D1*
X1198663Y1321937D1*
X1189390Y1342050D1*
X1181723Y1362830D1*
X1175710Y1384150D1*
X1171390Y1405873D1*
X1168787Y1427867D1*
X1167917Y1450000D1*
X1168787Y1472133D1*
X1171390Y1494127D1*
X1175710Y1515850D1*
X1181723Y1537170D1*
X1189390Y1557950D1*
X1198663Y1578063D1*
X1209483Y1597387D1*
X1221790Y1615803D1*
X1235503Y1633200D1*
X1250537Y1649463D1*
X1266800Y1664497D1*
X1284197Y1678210D1*
X1302613Y1690517D1*
X1321937Y1701337D1*
X1342050Y1710610D1*
X1362830Y1718277D1*
X1384150Y1724290D1*
X1405873Y1728610D1*
X1427867Y1731213D1*
X1450000Y1732083D1*
X1472133Y1731213D1*
X1494127Y1728610D1*
X1515850Y1724290D1*
X1537170Y1718277D1*
X1557950Y1710610D1*
X1578063Y1701337D1*
X1597387Y1690517D1*
X1615803Y1678210D1*
X1633200Y1664497D1*
X1649463Y1649463D1*
X1664497Y1633200D1*
X1678210Y1615803D1*
X1690517Y1597387D1*
X1701337Y1578063D1*
X1710610Y1557950D1*
X1718277Y1537170D1*
X1724290Y1515850D1*
X1728610Y1494127D1*
X1731213Y1472133D1*
X1732083Y1450000D1*
X1731213Y1427867D1*
X1475497Y5063047D2*
X1462797Y5072677D1*
X1445677Y5089797D1*
X1431447Y5109383D1*
X1420453Y5130957D1*
X1412973Y5153983D1*
X1409187Y5177893D1*
Y5202107D1*
X1412973Y5226017D1*
X1420453Y5249043D1*
X1431447Y5270617D1*
X1445677Y5290203D1*
X1462797Y5307323D1*
X1482383Y5321553D1*
X1503957Y5332547D1*
X1526983Y5340027D1*
X1550893Y5343813D1*
X1575107D1*
X1599017Y5340027D1*
X1622043Y5332547D1*
X1643617Y5321553D1*
X1663203Y5307323D1*
X1680323Y5290203D1*
X1689953Y5277503D1*
X1699677Y5290203D1*
X1716797Y5307323D1*
X1736383Y5321553D1*
X1757957Y5332547D1*
X1780983Y5340027D1*
X1804893Y5343813D1*
X1829107D1*
X1853017Y5340027D1*
X1876043Y5332547D1*
X1897617Y5321553D1*
X1917203Y5307323D1*
X1934323Y5290203D1*
X1943953Y5277503D1*
X1956017Y5292880D1*
X1969273Y5306007D1*
X1984020Y5317433D1*
X2000033Y5327000D1*
X2017087Y5334563D1*
X2034930Y5340013D1*
X2053297Y5343270D1*
X2071927Y5344287D1*
X2090540Y5343047D1*
X2108867Y5339570D1*
X2126643Y5333907D1*
X2143603Y5326140D1*
X2159503Y5316383D1*
X2174110Y5304777D1*
X2187210Y5291493D1*
X2198610Y5276727D1*
X2208143Y5260690D1*
X2215673Y5243623D1*
X2221087Y5225770D1*
X2224307Y5207397D1*
X2225290Y5190000D1*
X2224163Y5171380D1*
X2220797Y5153030D1*
X2215240Y5135220D1*
X2207573Y5118213D1*
X2197910Y5102257D1*
X2186393Y5087580D1*
X2173190Y5074403D1*
X2158623Y5063010D1*
X2171203Y5053323D1*
X2188323Y5036203D1*
X2202553Y5016617D1*
X2213547Y4995043D1*
X2221027Y4972017D1*
X2224813Y4948107D1*
Y4923893D1*
X2221027Y4899983D1*
X2213547Y4876957D1*
X2202553Y4855383D1*
X2188323Y4835797D1*
X2171203Y4818677D1*
X2151617Y4804447D1*
X2130043Y4793453D1*
X2107017Y4785973D1*
X2083107Y4782187D1*
X2058893D1*
X2034983Y4785973D1*
X2011957Y4793453D1*
X1990383Y4804447D1*
X1970797Y4818677D1*
X1953677Y4835797D1*
X1944047Y4848497D1*
X1934323Y4835797D1*
X1917203Y4818677D1*
X1897617Y4804447D1*
X1876043Y4793453D1*
X1853017Y4785973D1*
X1829107Y4782187D1*
X1804893D1*
X1780983Y4785973D1*
X1757957Y4793453D1*
X1736383Y4804447D1*
X1716797Y4818677D1*
X1699677Y4835797D1*
X1690047Y4848497D1*
X1680323Y4835797D1*
X1663203Y4818677D1*
X1643617Y4804447D1*
X1622043Y4793453D1*
X1599017Y4785973D1*
X1575107Y4782187D1*
X1550893D1*
X1526983Y4785973D1*
X1503957Y4793453D1*
X1482383Y4804447D1*
X1462797Y4818677D1*
X1445677Y4835797D1*
X1431447Y4855383D1*
X1420453Y4876957D1*
X1412973Y4899983D1*
X1409187Y4923893D1*
Y4948107D1*
X1412973Y4972017D1*
X1420453Y4995043D1*
X1431447Y5016617D1*
X1445677Y5036203D1*
X1462797Y5053323D1*
X1475497Y5062953D1*
X1466007Y6197797D2*
X1463753Y6183573D1*
X1459303Y6169873D1*
X1452763Y6157040D1*
X1444297Y6145387D1*
X1434113Y6135203D1*
X1422460Y6126737D1*
X1409627Y6120197D1*
X1395927Y6115747D1*
X1381703Y6113493D1*
X1367297D1*
X1353073Y6115747D1*
X1339373Y6120197D1*
X1326540Y6126737D1*
X1314887Y6135203D1*
X1304703Y6145387D1*
X1296237Y6157040D1*
X1289697Y6169873D1*
X1285247Y6183573D1*
X1282993Y6197797D1*
Y6212203D1*
X1285247Y6226427D1*
X1289697Y6240127D1*
X1296237Y6252960D1*
X1304703Y6264613D1*
X1314887Y6274797D1*
X1326540Y6283263D1*
X1339373Y6289803D1*
X1353073Y6294253D1*
X1367297Y6296507D1*
X1381703D1*
X1395927Y6294253D1*
X1409627Y6289803D1*
X1422460Y6283263D1*
X1434113Y6274797D1*
X1444297Y6264613D1*
X1452763Y6252960D1*
X1459303Y6240127D1*
X1463753Y6226427D1*
X1466007Y6212203D1*
Y6197797D1*
Y5797797D2*
X1463753Y5783573D1*
X1459303Y5769873D1*
X1452763Y5757040D1*
X1444297Y5745387D1*
X1434113Y5735203D1*
X1422460Y5726737D1*
X1409627Y5720197D1*
X1395927Y5715747D1*
X1381703Y5713493D1*
X1367297D1*
X1353073Y5715747D1*
X1339373Y5720197D1*
X1326540Y5726737D1*
X1314887Y5735203D1*
X1304703Y5745387D1*
X1296237Y5757040D1*
X1289697Y5769873D1*
X1285247Y5783573D1*
X1282993Y5797797D1*
Y5812203D1*
X1285247Y5826427D1*
X1289697Y5840127D1*
X1296237Y5852960D1*
X1304703Y5864613D1*
X1314887Y5874797D1*
X1326540Y5883263D1*
X1339373Y5889803D1*
X1353073Y5894253D1*
X1367297Y5896507D1*
X1381703D1*
X1395927Y5894253D1*
X1409627Y5889803D1*
X1422460Y5883263D1*
X1434113Y5874797D1*
X1444297Y5864613D1*
X1452763Y5852960D1*
X1459303Y5840127D1*
X1463753Y5826427D1*
X1466007Y5812203D1*
Y5797797D1*
Y2795797D2*
X1463753Y2781573D1*
X1459303Y2767873D1*
X1452763Y2755040D1*
X1444297Y2743387D1*
X1434113Y2733203D1*
X1422460Y2724737D1*
X1409627Y2718197D1*
X1395927Y2713747D1*
X1381703Y2711493D1*
X1367297D1*
X1353073Y2713747D1*
X1339373Y2718197D1*
X1326540Y2724737D1*
X1314887Y2733203D1*
X1304703Y2743387D1*
X1296237Y2755040D1*
X1289697Y2767873D1*
X1285247Y2781573D1*
X1282993Y2795797D1*
Y2810203D1*
X1285247Y2824427D1*
X1289697Y2838127D1*
X1296237Y2850960D1*
X1304703Y2862613D1*
X1314887Y2872797D1*
X1326540Y2881263D1*
X1339373Y2887803D1*
X1353073Y2892253D1*
X1367297Y2894507D1*
X1381703D1*
X1395927Y2892253D1*
X1409627Y2887803D1*
X1422460Y2881263D1*
X1434113Y2872797D1*
X1444297Y2862613D1*
X1452763Y2850960D1*
X1459303Y2838127D1*
X1463753Y2824427D1*
X1466007Y2810203D1*
Y2795797D1*
Y2395797D2*
X1463753Y2381573D1*
X1459303Y2367873D1*
X1452763Y2355040D1*
X1444297Y2343387D1*
X1434113Y2333203D1*
X1422460Y2324737D1*
X1409627Y2318197D1*
X1395927Y2313747D1*
X1381703Y2311493D1*
X1367297D1*
X1353073Y2313747D1*
X1339373Y2318197D1*
X1326540Y2324737D1*
X1314887Y2333203D1*
X1304703Y2343387D1*
X1296237Y2355040D1*
X1289697Y2367873D1*
X1285247Y2381573D1*
X1282993Y2395797D1*
Y2410203D1*
X1285247Y2424427D1*
X1289697Y2438127D1*
X1296237Y2450960D1*
X1304703Y2462613D1*
X1314887Y2472797D1*
X1326540Y2481263D1*
X1339373Y2487803D1*
X1353073Y2492253D1*
X1367297Y2494507D1*
X1381703D1*
X1395927Y2492253D1*
X1409627Y2487803D1*
X1422460Y2481263D1*
X1434113Y2472797D1*
X1444297Y2462613D1*
X1452763Y2450960D1*
X1459303Y2438127D1*
X1463753Y2424427D1*
X1466007Y2410203D1*
Y2395797D1*
X3870377Y5497290D2*
X4144290D1*
Y5218710D1*
X4084007D1*
X4095460Y5209917D1*
X4110917Y5194460D1*
X4123763Y5176780D1*
X4133687Y5157303D1*
X4140440Y5136517D1*
X4143860Y5114930D1*
Y5093070D1*
X4140440Y5071483D1*
X4133687Y5050697D1*
X4123763Y5031220D1*
X4110917Y5013540D1*
X4095460Y4998083D1*
X4077780Y4985237D1*
X4062067Y4977047D1*
X4077780Y4968763D1*
X4095460Y4955917D1*
X4110917Y4940460D1*
X4123763Y4922780D1*
X4133687Y4903303D1*
X4140440Y4882517D1*
X4143860Y4860930D1*
Y4839070D1*
X4140440Y4817483D1*
X4133687Y4796697D1*
X4123763Y4777220D1*
X4110917Y4759540D1*
X4095460Y4744083D1*
X4077780Y4731237D1*
X4058303Y4721313D1*
X4037517Y4714560D1*
X4015930Y4711140D1*
X3994070D1*
X3972483Y4714560D1*
X3951697Y4721313D1*
X3932220Y4731237D1*
X3914540Y4744083D1*
X3899083Y4759540D1*
X3886237Y4777220D1*
X3876313Y4796697D1*
X3869560Y4817483D1*
X3866140Y4839070D1*
Y4860930D1*
X3869560Y4882517D1*
X3876313Y4903303D1*
X3886237Y4922780D1*
X3899083Y4940460D1*
X3914540Y4955917D1*
X3932220Y4968763D1*
X3947933Y4976953D1*
X3932220Y4985237D1*
X3914540Y4998083D1*
X3899083Y5013540D1*
X3886237Y5031220D1*
X3876313Y5050697D1*
X3869560Y5071483D1*
X3866140Y5093070D1*
Y5114930D1*
X3869560Y5136517D1*
X3876313Y5157303D1*
X3886237Y5176780D1*
X3899083Y5194460D1*
X3914540Y5209917D1*
X3926147Y5218707D1*
X3865710Y5218710D1*
Y5244323D1*
X3853743Y5232483D1*
X3839133Y5221870D1*
X3823043Y5213670D1*
X3805867Y5208090D1*
X3788030Y5205263D1*
X3769970D1*
X3752133Y5208090D1*
X3734957Y5213670D1*
X3718867Y5221870D1*
X3704257Y5232483D1*
X3691483Y5245257D1*
X3680870Y5259867D1*
X3672670Y5275957D1*
X3667090Y5293133D1*
X3664263Y5310970D1*
Y5329030D1*
X3667090Y5346867D1*
X3672670Y5364043D1*
X3680870Y5380133D1*
X3691483Y5394743D1*
X3704257Y5407517D1*
X3718867Y5418130D1*
X3734957Y5426330D1*
X3752133Y5431910D1*
X3769970Y5434737D1*
X3788030D1*
X3805867Y5431910D1*
X3823043Y5426330D1*
X3839133Y5418130D1*
X3853743Y5407517D1*
X3865723Y5395600D1*
X3865710Y5497290D1*
X3870377D1*
X3503863Y4954173D2*
X3500790Y4934760D1*
X3494717Y4916070D1*
X3485793Y4898557D1*
X3474240Y4882657D1*
X3460343Y4868760D1*
X3444443Y4857207D1*
X3426930Y4848283D1*
X3408240Y4842210D1*
X3388827Y4839137D1*
X3369173D1*
X3349760Y4842210D1*
X3331070Y4848283D1*
X3313557Y4857207D1*
X3297657Y4868760D1*
X3283760Y4882657D1*
X3272207Y4898557D1*
X3263283Y4916070D1*
X3257210Y4934760D1*
X3254137Y4954173D1*
Y4973827D1*
X3257210Y4993240D1*
X3263283Y5011930D1*
X3272207Y5029443D1*
X3283760Y5045343D1*
X3297657Y5059240D1*
X3313557Y5070793D1*
X3331070Y5079717D1*
X3349760Y5085790D1*
X3369173Y5088863D1*
X3388827D1*
X3408240Y5085790D1*
X3426930Y5079717D1*
X3444443Y5070793D1*
X3460343Y5059240D1*
X3474240Y5045343D1*
X3485793Y5029443D1*
X3494717Y5011930D1*
X3500790Y4993240D1*
X3503863Y4973827D1*
Y4954173D1*
X3021263D2*
X3018190Y4934760D1*
X3012117Y4916070D1*
X3003193Y4898557D1*
X2991640Y4882657D1*
X2977743Y4868760D1*
X2961843Y4857207D1*
X2944330Y4848283D1*
X2925640Y4842210D1*
X2906227Y4839137D1*
X2886573D1*
X2867160Y4842210D1*
X2848470Y4848283D1*
X2830957Y4857207D1*
X2815057Y4868760D1*
X2801160Y4882657D1*
X2789607Y4898557D1*
X2780683Y4916070D1*
X2774610Y4934760D1*
X2771537Y4954173D1*
Y4973827D1*
X2774610Y4993240D1*
X2780683Y5011930D1*
X2789607Y5029443D1*
X2801160Y5045343D1*
X2815057Y5059240D1*
X2830957Y5070793D1*
X2848470Y5079717D1*
X2867160Y5085790D1*
X2886573Y5088863D1*
X2906227D1*
X2925640Y5085790D1*
X2944330Y5079717D1*
X2961843Y5070793D1*
X2977743Y5059240D1*
X2991640Y5045343D1*
X3003193Y5029443D1*
X3012117Y5011930D1*
X3018190Y4993240D1*
X3021263Y4973827D1*
Y4954173D1*
X2820737Y6074970D2*
X2817910Y6057133D1*
X2812330Y6039957D1*
X2804130Y6023867D1*
X2793517Y6009257D1*
X2780743Y5996483D1*
X2766133Y5985870D1*
X2750043Y5977670D1*
X2732867Y5972090D1*
X2715030Y5969263D1*
X2696970D1*
X2679133Y5972090D1*
X2661957Y5977670D1*
X2645867Y5985870D1*
X2631257Y5996483D1*
X2618483Y6009257D1*
X2607870Y6023867D1*
X2599670Y6039957D1*
X2594090Y6057133D1*
X2591263Y6074970D1*
Y6093030D1*
X2594090Y6110867D1*
X2599670Y6128043D1*
X2607870Y6144133D1*
X2618483Y6158743D1*
X2631257Y6171517D1*
X2645867Y6182130D1*
X2655513Y6187360D1*
X2655263Y6208030D1*
X2658090Y6225867D1*
X2663670Y6243043D1*
X2671870Y6259133D1*
X2682483Y6273743D1*
X2695257Y6286517D1*
X2709867Y6297130D1*
X2725957Y6305330D1*
X2743133Y6310910D1*
X2760970Y6313737D1*
X2765450Y6313910D1*
X2769543Y6330563D1*
X2776453Y6347250D1*
X2785890Y6362647D1*
X2797620Y6376380D1*
X2811353Y6388110D1*
X2826750Y6397547D1*
X2843437Y6404457D1*
X2860997Y6408673D1*
X2879000Y6410090D1*
X2897003Y6408673D1*
X2914563Y6404457D1*
X2931250Y6397547D1*
X2946647Y6388110D1*
X2960380Y6376380D1*
X2972110Y6362647D1*
X2981547Y6347250D1*
X2988457Y6330563D1*
X2992673Y6313003D1*
X2994090Y6295000D1*
X2992673Y6276997D1*
X2988457Y6259437D1*
X2981547Y6242750D1*
X2972110Y6227353D1*
X2960380Y6213620D1*
X2946647Y6201890D1*
X2931250Y6192453D1*
X2914563Y6185543D1*
X2897003Y6181327D1*
X2883550Y6180090D1*
X2879457Y6163437D1*
X2872547Y6146750D1*
X2863110Y6131353D1*
X2851380Y6117620D1*
X2837647Y6105890D1*
X2820487Y6095640D1*
X2820737Y6074970D1*
X3143737Y5385970D2*
X3140910Y5368133D1*
X3135330Y5350957D1*
X3127130Y5334867D1*
X3116517Y5320257D1*
X3103743Y5307483D1*
X3089133Y5296870D1*
X3073043Y5288670D1*
X3055867Y5283090D1*
X3038030Y5280263D1*
X3019970D1*
X3002133Y5283090D1*
X2984957Y5288670D1*
X2968867Y5296870D1*
X2961500Y5301793D1*
X2951517Y5288257D1*
X2938743Y5275483D1*
X2924133Y5264870D1*
X2908043Y5256670D1*
X2890867Y5251090D1*
X2873030Y5248263D1*
X2854970D1*
X2837133Y5251090D1*
X2819957Y5256670D1*
X2803867Y5264870D1*
X2789257Y5275483D1*
X2776483Y5288257D1*
X2765870Y5302867D1*
X2757670Y5318957D1*
X2752090Y5336133D1*
X2749263Y5353970D1*
Y5372030D1*
X2752090Y5389867D1*
X2757670Y5407043D1*
X2765870Y5423133D1*
X2776483Y5437743D1*
X2789257Y5450517D1*
X2803867Y5461130D1*
X2819957Y5469330D1*
X2837133Y5474910D1*
X2854970Y5477737D1*
X2873030D1*
X2890867Y5474910D1*
X2908043Y5469330D1*
X2924133Y5461130D1*
X2931500Y5456207D1*
X2941483Y5469743D1*
X2954257Y5482517D1*
X2968867Y5493130D1*
X2984957Y5501330D1*
X3002133Y5506910D1*
X3019970Y5509737D1*
X3038030D1*
X3055867Y5506910D1*
X3073043Y5501330D1*
X3089133Y5493130D1*
X3103743Y5482517D1*
X3116517Y5469743D1*
X3127130Y5455133D1*
X3135330Y5439043D1*
X3140910Y5421867D1*
X3143737Y5404030D1*
Y5385970D1*
X3636737Y6359970D2*
X3633910Y6342133D1*
X3628330Y6324957D1*
X3620130Y6308867D1*
X3609517Y6294257D1*
X3596743Y6281483D1*
X3582133Y6270870D1*
X3566043Y6262670D1*
X3548867Y6257090D1*
X3531030Y6254263D1*
X3512970D1*
X3495133Y6257090D1*
X3477957Y6262670D1*
X3461867Y6270870D1*
X3447257Y6281483D1*
X3434483Y6294257D1*
X3423870Y6308867D1*
X3415670Y6324957D1*
X3410090Y6342133D1*
X3407263Y6359970D1*
Y6378030D1*
X3410090Y6395867D1*
X3415670Y6413043D1*
X3423870Y6429133D1*
X3434483Y6443743D1*
X3447257Y6456517D1*
X3461867Y6467130D1*
X3477957Y6475330D1*
X3495133Y6480910D1*
X3512970Y6483737D1*
X3531030D1*
X3548867Y6480910D1*
X3566043Y6475330D1*
X3582133Y6467130D1*
X3596743Y6456517D1*
X3609517Y6443743D1*
X3620130Y6429133D1*
X3628330Y6413043D1*
X3633910Y6395867D1*
X3636737Y6378030D1*
Y6359970D1*
X2143737Y7880970D2*
X2140910Y7863133D1*
X2135330Y7845957D1*
X2127130Y7829867D1*
X2116517Y7815257D1*
X2103743Y7802483D1*
X2089133Y7791870D1*
X2073043Y7783670D1*
X2055867Y7778090D1*
X2038030Y7775263D1*
X2019970D1*
X2002133Y7778090D1*
X1984957Y7783670D1*
X1968867Y7791870D1*
X1954257Y7802483D1*
X1941483Y7815257D1*
X1930870Y7829867D1*
X1922670Y7845957D1*
X1917090Y7863133D1*
X1914263Y7880970D1*
Y7899030D1*
X1917090Y7916867D1*
X1922670Y7934043D1*
X1930870Y7950133D1*
X1941483Y7964743D1*
X1954257Y7977517D1*
X1968867Y7988130D1*
X1984957Y7996330D1*
X2002133Y8001910D1*
X2019970Y8004737D1*
X2038030D1*
X2055867Y8001910D1*
X2073043Y7996330D1*
X2089133Y7988130D1*
X2103743Y7977517D1*
X2116517Y7964743D1*
X2127130Y7950133D1*
X2135330Y7934043D1*
X2140910Y7916867D1*
X2143737Y7899030D1*
Y7880970D1*
X3823737Y6552970D2*
X3820910Y6535133D1*
X3815330Y6517957D1*
X3807130Y6501867D1*
X3796517Y6487257D1*
X3783743Y6474483D1*
X3769133Y6463870D1*
X3753043Y6455670D1*
X3735867Y6450090D1*
X3718030Y6447263D1*
X3699970D1*
X3682133Y6450090D1*
X3664957Y6455670D1*
X3648867Y6463870D1*
X3634257Y6474483D1*
X3621483Y6487257D1*
X3610870Y6501867D1*
X3602670Y6517957D1*
X3597090Y6535133D1*
X3594263Y6552970D1*
Y6571030D1*
X3597090Y6588867D1*
X3602670Y6606043D1*
X3610870Y6622133D1*
X3621483Y6636743D1*
X3634257Y6649517D1*
X3648867Y6660130D1*
X3664957Y6668330D1*
X3682133Y6673910D1*
X3699970Y6676737D1*
X3718030D1*
X3735867Y6673910D1*
X3753043Y6668330D1*
X3769133Y6660130D1*
X3783743Y6649517D1*
X3796517Y6636743D1*
X3807130Y6622133D1*
X3815330Y6606043D1*
X3820910Y6588867D1*
X3823737Y6571030D1*
Y6552970D1*
X2726737Y6535970D2*
X2723910Y6518133D1*
X2718330Y6500957D1*
X2710130Y6484867D1*
X2699517Y6470257D1*
X2686743Y6457483D1*
X2672133Y6446870D1*
X2656043Y6438670D1*
X2638867Y6433090D1*
X2621030Y6430263D1*
X2602970D1*
X2585133Y6433090D1*
X2567957Y6438670D1*
X2551867Y6446870D1*
X2537257Y6457483D1*
X2524483Y6470257D1*
X2513870Y6484867D1*
X2505670Y6500957D1*
X2500090Y6518133D1*
X2497263Y6535970D1*
Y6554030D1*
X2500090Y6571867D1*
X2505670Y6589043D1*
X2513870Y6605133D1*
X2524483Y6619743D1*
X2537257Y6632517D1*
X2551867Y6643130D1*
X2567957Y6651330D1*
X2585133Y6656910D1*
X2602970Y6659737D1*
X2621030D1*
X2638867Y6656910D1*
X2656043Y6651330D1*
X2672133Y6643130D1*
X2686743Y6632517D1*
X2699517Y6619743D1*
X2710130Y6605133D1*
X2718330Y6589043D1*
X2723910Y6571867D1*
X2726737Y6554030D1*
Y6535970D1*
X2723910Y6518133D1*
X2718330Y6500957D1*
X2710130Y6484867D1*
X2699517Y6470257D1*
X2686743Y6457483D1*
X2672133Y6446870D1*
X2656043Y6438670D1*
X2638867Y6433090D1*
X2621030Y6430263D1*
X2602970D1*
X2585133Y6433090D1*
X2567957Y6438670D1*
X2551867Y6446870D1*
X2537257Y6457483D1*
X2524483Y6470257D1*
X2513870Y6484867D1*
X2505670Y6500957D1*
X2500090Y6518133D1*
X2497263Y6535970D1*
Y6554030D1*
X2500090Y6571867D1*
X2505670Y6589043D1*
X2513870Y6605133D1*
X2524483Y6619743D1*
X2537257Y6632517D1*
X2551867Y6643130D1*
X2567957Y6651330D1*
X2585133Y6656910D1*
X2602970Y6659737D1*
X2621030D1*
X2638867Y6656910D1*
X2656043Y6651330D1*
X2672133Y6643130D1*
X2686743Y6632517D1*
X2699517Y6619743D1*
X2710130Y6605133D1*
X2718330Y6589043D1*
X2723910Y6571867D1*
X2726737Y6554030D1*
Y6535970D1*
X3865723Y5244400D2*
X3853743Y5232483D1*
X3839133Y5221870D1*
X3823043Y5213670D1*
X3805867Y5208090D1*
X3788030Y5205263D1*
X3769970D1*
X3752133Y5208090D1*
X3734957Y5213670D1*
X3718867Y5221870D1*
X3704257Y5232483D1*
X3691483Y5245257D1*
X3680870Y5259867D1*
X3672670Y5275957D1*
X3667090Y5293133D1*
X3664263Y5310970D1*
Y5329030D1*
X3667090Y5346867D1*
X3672670Y5364043D1*
X3680870Y5380133D1*
X3691483Y5394743D1*
X3704257Y5407517D1*
X3718867Y5418130D1*
X3734957Y5426330D1*
X3752133Y5431910D1*
X3769970Y5434737D1*
X3788030D1*
X3805867Y5431910D1*
X3823043Y5426330D1*
X3839133Y5418130D1*
X3853743Y5407517D1*
X3865723Y5395600D1*
X2395737Y4470970D2*
X2392910Y4453133D1*
X2387330Y4435957D1*
X2379130Y4419867D1*
X2368517Y4405257D1*
X2355743Y4392483D1*
X2341133Y4381870D1*
X2325043Y4373670D1*
X2307867Y4368090D1*
X2290030Y4365263D1*
X2271970D1*
X2254133Y4368090D1*
X2236957Y4373670D1*
X2220867Y4381870D1*
X2206257Y4392483D1*
X2193483Y4405257D1*
X2182870Y4419867D1*
X2174670Y4435957D1*
X2169090Y4453133D1*
X2166263Y4470970D1*
Y4489030D1*
X2169090Y4506867D1*
X2174670Y4524043D1*
X2182870Y4540133D1*
X2193483Y4554743D1*
X2206257Y4567517D1*
X2220867Y4578130D1*
X2236957Y4586330D1*
X2254133Y4591910D1*
X2271970Y4594737D1*
X2290030D1*
X2307867Y4591910D1*
X2325043Y4586330D1*
X2341133Y4578130D1*
X2355743Y4567517D1*
X2368517Y4554743D1*
X2379130Y4540133D1*
X2387330Y4524043D1*
X2392910Y4506867D1*
X2395737Y4489030D1*
Y4470970D1*
X2798737Y1706970D2*
X2795910Y1689133D1*
X2790330Y1671957D1*
X2782130Y1655867D1*
X2771517Y1641257D1*
X2758743Y1628483D1*
X2744133Y1617870D1*
X2728043Y1609670D1*
X2710867Y1604090D1*
X2693030Y1601263D1*
X2674970D1*
X2657133Y1604090D1*
X2639957Y1609670D1*
X2623867Y1617870D1*
X2609257Y1628483D1*
X2596483Y1641257D1*
X2585870Y1655867D1*
X2577670Y1671957D1*
X2572090Y1689133D1*
X2569263Y1706970D1*
Y1725030D1*
X2572090Y1742867D1*
X2577670Y1760043D1*
X2585870Y1776133D1*
X2596483Y1790743D1*
X2609257Y1803517D1*
X2623867Y1814130D1*
X2639957Y1822330D1*
X2657133Y1827910D1*
X2674970Y1830737D1*
X2693030D1*
X2710867Y1827910D1*
X2728043Y1822330D1*
X2744133Y1814130D1*
X2758743Y1803517D1*
X2771517Y1790743D1*
X2782130Y1776133D1*
X2790330Y1760043D1*
X2795910Y1742867D1*
X2798737Y1725030D1*
Y1706970D1*
X3686350Y1131770D2*
X3676453Y1147750D1*
X3669543Y1164437D1*
X3665327Y1181997D1*
X3663910Y1200000D1*
X3665327Y1218003D1*
X3669543Y1235563D1*
X3676453Y1252250D1*
X3685890Y1267647D1*
X3697620Y1281380D1*
X3711353Y1293110D1*
X3726750Y1302547D1*
X3743437Y1309457D1*
X3760997Y1313673D1*
X3779000Y1315090D1*
X3797003Y1313673D1*
X3814563Y1309457D1*
X3831250Y1302547D1*
X3846647Y1293110D1*
X3860380Y1281380D1*
X3872110Y1267647D1*
X3881547Y1252250D1*
X3888457Y1235563D1*
X3892673Y1218003D1*
X3894090Y1200000D1*
X3892673Y1181997D1*
X3888457Y1164437D1*
X3881547Y1147750D1*
X3871650Y1131770D1*
X3184447Y3389977D2*
X3181620Y3372140D1*
X3176040Y3354963D1*
X3167840Y3338873D1*
X3157227Y3324263D1*
X3144453Y3311490D1*
X3129843Y3300877D1*
X3113753Y3292677D1*
X3096577Y3287097D1*
X3078740Y3284270D1*
X3060680D1*
X3042843Y3287097D1*
X3025667Y3292677D1*
X3009577Y3300877D1*
X2994967Y3311490D1*
X2982193Y3324263D1*
X2971580Y3338873D1*
X2963380Y3354963D1*
X2957657Y3372867D1*
X2939680Y3378663D1*
X2923590Y3386863D1*
X2908980Y3397477D1*
X2896207Y3410250D1*
X2885593Y3424860D1*
X2877393Y3440950D1*
X2871813Y3458127D1*
X2868987Y3475963D1*
Y3494023D1*
X2871813Y3511860D1*
X2877393Y3529037D1*
X2885593Y3545127D1*
X2896207Y3559737D1*
X2908980Y3572510D1*
X2923590Y3583123D1*
X2939680Y3591323D1*
X2956857Y3596903D1*
X2974693Y3599730D1*
X2992753D1*
X3010590Y3596903D1*
X3027767Y3591323D1*
X3043857Y3583123D1*
X3058467Y3572510D1*
X3071240Y3559737D1*
X3081853Y3545127D1*
X3090053Y3529037D1*
X3095777Y3511133D1*
X3113753Y3505337D1*
X3129843Y3497137D1*
X3144453Y3486523D1*
X3157227Y3473750D1*
X3167840Y3459140D1*
X3176040Y3443050D1*
X3181620Y3425873D1*
X3184447Y3408037D1*
Y3389977D1*
X3982737Y6085970D2*
X3979910Y6068133D1*
X3974330Y6050957D1*
X3966130Y6034867D1*
X3955517Y6020257D1*
X3942743Y6007483D1*
X3928133Y5996870D1*
X3912043Y5988670D1*
X3894867Y5983090D1*
X3877030Y5980263D1*
X3858970D1*
X3841133Y5983090D1*
X3823957Y5988670D1*
X3807867Y5996870D1*
X3793257Y6007483D1*
X3780483Y6020257D1*
X3769870Y6034867D1*
X3761670Y6050957D1*
X3756090Y6068133D1*
X3753263Y6085970D1*
Y6104030D1*
X3756090Y6121867D1*
X3761670Y6139043D1*
X3769870Y6155133D1*
X3780483Y6169743D1*
X3793257Y6182517D1*
X3807867Y6193130D1*
X3823957Y6201330D1*
X3841133Y6206910D1*
X3858970Y6209737D1*
X3877030D1*
X3894867Y6206910D1*
X3912043Y6201330D1*
X3928133Y6193130D1*
X3942743Y6182517D1*
X3955517Y6169743D1*
X3966130Y6155133D1*
X3974330Y6139043D1*
X3979910Y6121867D1*
X3982737Y6104030D1*
Y6085970D1*
X4382737Y5119970D2*
X4379910Y5102133D1*
X4374330Y5084957D1*
X4366130Y5068867D1*
X4355517Y5054257D1*
X4342743Y5041483D1*
X4328133Y5030870D1*
X4319320Y5026027D1*
X4331517Y5013743D1*
X4342130Y4999133D1*
X4350330Y4983043D1*
X4355910Y4965867D1*
X4358737Y4948030D1*
Y4929970D1*
X4355910Y4912133D1*
X4350330Y4894957D1*
X4342130Y4878867D1*
X4331517Y4864257D1*
X4318743Y4851483D1*
X4304133Y4840870D1*
X4288043Y4832670D1*
X4270867Y4827090D1*
X4253030Y4824263D1*
X4234970D1*
X4217133Y4827090D1*
X4199957Y4832670D1*
X4183867Y4840870D1*
X4169257Y4851483D1*
X4156483Y4864257D1*
X4145870Y4878867D1*
X4137670Y4894957D1*
X4132090Y4912133D1*
X4129263Y4929970D1*
Y4948030D1*
X4132090Y4965867D1*
X4137670Y4983043D1*
X4145870Y4999133D1*
X4156483Y5013743D1*
X4169257Y5026517D1*
X4183867Y5037130D1*
X4192680Y5041973D1*
X4180483Y5054257D1*
X4169870Y5068867D1*
X4161670Y5084957D1*
X4156090Y5102133D1*
X4153263Y5119970D1*
Y5138030D1*
X4156090Y5155867D1*
X4161670Y5173043D1*
X4169870Y5189133D1*
X4180483Y5203743D1*
X4193257Y5216517D1*
X4207867Y5227130D1*
X4223957Y5235330D1*
X4241133Y5240910D1*
X4258970Y5243737D1*
X4277030D1*
X4294867Y5240910D1*
X4312043Y5235330D1*
X4328133Y5227130D1*
X4342743Y5216517D1*
X4355517Y5203743D1*
X4366130Y5189133D1*
X4374330Y5173043D1*
X4379910Y5155867D1*
X4382737Y5138030D1*
Y5119970D1*
X4326737Y3832970D2*
X4323910Y3815133D1*
X4318330Y3797957D1*
X4310130Y3781867D1*
X4299517Y3767257D1*
X4286743Y3754483D1*
X4272133Y3743870D1*
X4256043Y3735670D1*
X4238867Y3730090D1*
X4221030Y3727263D1*
X4202970D1*
X4185133Y3730090D1*
X4167957Y3735670D1*
X4151867Y3743870D1*
X4137257Y3754483D1*
X4124483Y3767257D1*
X4113870Y3781867D1*
X4105670Y3797957D1*
X4100090Y3815133D1*
X4097263Y3832970D1*
Y3851030D1*
X4100090Y3868867D1*
X4105670Y3886043D1*
X4113870Y3902133D1*
X4124483Y3916743D1*
X4137257Y3929517D1*
X4151867Y3940130D1*
X4167957Y3948330D1*
X4185133Y3953910D1*
X4202970Y3956737D1*
X4221030D1*
X4238867Y3953910D1*
X4256043Y3948330D1*
X4272133Y3940130D1*
X4286743Y3929517D1*
X4299517Y3916743D1*
X4310130Y3902133D1*
X4318330Y3886043D1*
X4323910Y3868867D1*
X4326737Y3851030D1*
Y3832970D1*
X4523737Y5725970D2*
X4520910Y5708133D1*
X4515330Y5690957D1*
X4507130Y5674867D1*
X4496517Y5660257D1*
X4483743Y5647483D1*
X4469133Y5636870D1*
X4453043Y5628670D1*
X4435867Y5623090D1*
X4418030Y5620263D1*
X4399970D1*
X4382133Y5623090D1*
X4364957Y5628670D1*
X4348867Y5636870D1*
X4334257Y5647483D1*
X4321483Y5660257D1*
X4310870Y5674867D1*
X4302670Y5690957D1*
X4297090Y5708133D1*
X4294263Y5725970D1*
Y5744030D1*
X4297090Y5761867D1*
X4302670Y5779043D1*
X4310870Y5795133D1*
X4321483Y5809743D1*
X4335227Y5823280D1*
X4327543Y5841437D1*
X4323327Y5858997D1*
X4321910Y5877000D1*
X4323327Y5895003D1*
X4327543Y5912563D1*
X4334453Y5929250D1*
X4343890Y5944647D1*
X4355620Y5958380D1*
X4369353Y5970110D1*
X4384750Y5979547D1*
X4401437Y5986457D1*
X4418997Y5990673D1*
X4437000Y5992090D1*
X4455003Y5990673D1*
X4472563Y5986457D1*
X4489250Y5979547D1*
X4504647Y5970110D1*
X4518380Y5958380D1*
X4530110Y5944647D1*
X4539547Y5929250D1*
X4546457Y5912563D1*
X4550673Y5895003D1*
X4552090Y5877000D1*
X4550673Y5858997D1*
X4546457Y5841437D1*
X4539547Y5824750D1*
X4530110Y5809353D1*
X4518380Y5795620D1*
X4510773Y5788720D1*
X4518457Y5770563D1*
X4522673Y5753003D1*
X4524090Y5735000D1*
X4523737Y5725970D1*
X4294737Y9970970D2*
X4291910Y9953133D1*
X4286330Y9935957D1*
X4278130Y9919867D1*
X4267517Y9905257D1*
X4254743Y9892483D1*
X4240133Y9881870D1*
X4224043Y9873670D1*
X4206867Y9868090D1*
X4189030Y9865263D1*
X4170970D1*
X4153133Y9868090D1*
X4135957Y9873670D1*
X4119867Y9881870D1*
X4105257Y9892483D1*
X4092483Y9905257D1*
X4081870Y9919867D1*
X4073670Y9935957D1*
X4068090Y9953133D1*
X4065263Y9970970D1*
Y9989030D1*
X4068090Y10006867D1*
X4073670Y10024043D1*
X4081870Y10040133D1*
X4092483Y10054743D1*
X4105257Y10067517D1*
X4119867Y10078130D1*
X4135957Y10086330D1*
X4153133Y10091910D1*
X4170970Y10094737D1*
X4189030D1*
X4206867Y10091910D1*
X4224043Y10086330D1*
X4240133Y10078130D1*
X4254743Y10067517D1*
X4267517Y10054743D1*
X4278130Y10040133D1*
X4286330Y10024043D1*
X4291910Y10006867D1*
X4294737Y9989030D1*
Y9970970D1*
X4464737Y8865970D2*
X4461910Y8848133D1*
X4456330Y8830957D1*
X4448130Y8814867D1*
X4437517Y8800257D1*
X4424743Y8787483D1*
X4410133Y8776870D1*
X4394043Y8768670D1*
X4376867Y8763090D1*
X4359030Y8760263D1*
X4340970D1*
X4323133Y8763090D1*
X4305957Y8768670D1*
X4289867Y8776870D1*
X4275257Y8787483D1*
X4262483Y8800257D1*
X4251870Y8814867D1*
X4243670Y8830957D1*
X4238090Y8848133D1*
X4235263Y8865970D1*
Y8884030D1*
X4238090Y8901867D1*
X4243670Y8919043D1*
X4251870Y8935133D1*
X4262483Y8949743D1*
X4275257Y8962517D1*
X4289867Y8973130D1*
X4305957Y8981330D1*
X4323133Y8986910D1*
X4340970Y8989737D1*
X4359030D1*
X4376867Y8986910D1*
X4394043Y8981330D1*
X4410133Y8973130D1*
X4424743Y8962517D1*
X4437517Y8949743D1*
X4448130Y8935133D1*
X4456330Y8919043D1*
X4461910Y8901867D1*
X4464737Y8884030D1*
Y8865970D1*
X4667737Y6141970D2*
X4664910Y6124133D1*
X4659330Y6106957D1*
X4651130Y6090867D1*
X4640517Y6076257D1*
X4627743Y6063483D1*
X4613133Y6052870D1*
X4597043Y6044670D1*
X4579867Y6039090D1*
X4562030Y6036263D1*
X4543970D1*
X4526133Y6039090D1*
X4508957Y6044670D1*
X4492867Y6052870D1*
X4478257Y6063483D1*
X4465483Y6076257D1*
X4454870Y6090867D1*
X4446670Y6106957D1*
X4441090Y6124133D1*
X4438263Y6141970D1*
Y6160030D1*
X4439050Y6166657D1*
X4425133Y6169090D1*
X4407957Y6174670D1*
X4391867Y6182870D1*
X4377257Y6193483D1*
X4364483Y6206257D1*
X4353870Y6220867D1*
X4345670Y6236957D1*
X4340090Y6254133D1*
X4337263Y6271970D1*
Y6290030D1*
X4340090Y6307867D1*
X4345670Y6325043D1*
X4353870Y6341133D1*
X4364483Y6355743D1*
X4377257Y6368517D1*
X4391867Y6379130D1*
X4407957Y6387330D1*
X4425133Y6392910D1*
X4442970Y6395737D1*
X4461030D1*
X4478867Y6392910D1*
X4496043Y6387330D1*
X4512133Y6379130D1*
X4526743Y6368517D1*
X4539517Y6355743D1*
X4550130Y6341133D1*
X4558330Y6325043D1*
X4563910Y6307867D1*
X4566737Y6290030D1*
Y6271970D1*
X4565950Y6265343D1*
X4579867Y6262910D1*
X4597043Y6257330D1*
X4613133Y6249130D1*
X4627743Y6238517D1*
X4640517Y6225743D1*
X4651130Y6211133D1*
X4659330Y6195043D1*
X4664910Y6177867D1*
X4667737Y6160030D1*
Y6141970D1*
X4474737Y7970970D2*
X4471910Y7953133D1*
X4466330Y7935957D1*
X4458130Y7919867D1*
X4447517Y7905257D1*
X4434743Y7892483D1*
X4420133Y7881870D1*
X4404043Y7873670D1*
X4386867Y7868090D1*
X4369030Y7865263D1*
X4350970D1*
X4333133Y7868090D1*
X4315957Y7873670D1*
X4299867Y7881870D1*
X4285257Y7892483D1*
X4272483Y7905257D1*
X4261870Y7919867D1*
X4253670Y7935957D1*
X4248090Y7953133D1*
X4245263Y7970970D1*
Y7989030D1*
X4248090Y8006867D1*
X4253670Y8024043D1*
X4261870Y8040133D1*
X4272483Y8054743D1*
X4285257Y8067517D1*
X4299867Y8078130D1*
X4315957Y8086330D1*
X4333133Y8091910D1*
X4350970Y8094737D1*
X4369030D1*
X4386867Y8091910D1*
X4404043Y8086330D1*
X4420133Y8078130D1*
X4434743Y8067517D1*
X4447517Y8054743D1*
X4458130Y8040133D1*
X4466330Y8024043D1*
X4471910Y8006867D1*
X4474737Y7989030D1*
Y7970970D1*
X4477737Y7106970D2*
X4474910Y7089133D1*
X4469330Y7071957D1*
X4461130Y7055867D1*
X4450517Y7041257D1*
X4437743Y7028483D1*
X4423133Y7017870D1*
X4407043Y7009670D1*
X4389867Y7004090D1*
X4372030Y7001263D1*
X4353970D1*
X4336133Y7004090D1*
X4318957Y7009670D1*
X4302867Y7017870D1*
X4288257Y7028483D1*
X4275483Y7041257D1*
X4264870Y7055867D1*
X4256670Y7071957D1*
X4251090Y7089133D1*
X4248263Y7106970D1*
Y7125030D1*
X4251090Y7142867D1*
X4256670Y7160043D1*
X4264870Y7176133D1*
X4275483Y7190743D1*
X4288257Y7203517D1*
X4302867Y7214130D1*
X4318957Y7222330D1*
X4336133Y7227910D1*
X4353970Y7230737D1*
X4372030D1*
X4389867Y7227910D1*
X4407043Y7222330D1*
X4423133Y7214130D1*
X4437743Y7203517D1*
X4450517Y7190743D1*
X4461130Y7176133D1*
X4469330Y7160043D1*
X4474910Y7142867D1*
X4477737Y7125030D1*
Y7106970D1*
X2443737Y2487970D2*
X2440910Y2470133D1*
X2439483Y2465070D1*
X2451970Y2466737D1*
X2470030D1*
X2487867Y2463910D1*
X2505043Y2458330D1*
X2521133Y2450130D1*
X2535743Y2439517D1*
X2548517Y2426743D1*
X2559130Y2412133D1*
X2567330Y2396043D1*
X2572910Y2378867D1*
X2575737Y2361030D1*
Y2342970D1*
X2572843Y2324893D1*
X2588743Y2313517D1*
X2601517Y2300743D1*
X2612130Y2286133D1*
X2620330Y2270043D1*
X2625910Y2252867D1*
X2628737Y2235030D1*
Y2216970D1*
X2625910Y2199133D1*
X2620330Y2181957D1*
X2612130Y2165867D1*
X2601517Y2151257D1*
X2588743Y2138483D1*
X2574133Y2127870D1*
X2558043Y2119670D1*
X2540867Y2114090D1*
X2523030Y2111263D1*
X2504970D1*
X2487133Y2114090D1*
X2469957Y2119670D1*
X2453867Y2127870D1*
X2439257Y2138483D1*
X2426483Y2151257D1*
X2415870Y2165867D1*
X2407670Y2181957D1*
X2402090Y2199133D1*
X2399263Y2216970D1*
Y2235030D1*
X2402157Y2253107D1*
X2386257Y2264483D1*
X2373483Y2277257D1*
X2362870Y2291867D1*
X2354670Y2307957D1*
X2349090Y2325133D1*
X2346263Y2342970D1*
Y2361030D1*
X2349090Y2378867D1*
X2350517Y2383930D1*
X2338030Y2382263D1*
X2319970D1*
X2302133Y2385090D1*
X2284957Y2390670D1*
X2268867Y2398870D1*
X2254257Y2409483D1*
X2241483Y2422257D1*
X2230870Y2436867D1*
X2222670Y2452957D1*
X2217090Y2470133D1*
X2214263Y2487970D1*
Y2506030D1*
X2217090Y2523867D1*
X2222670Y2541043D1*
X2230870Y2557133D1*
X2241483Y2571743D1*
X2254257Y2584517D1*
X2268867Y2595130D1*
X2284957Y2603330D1*
X2302133Y2608910D1*
X2319970Y2611737D1*
X2338030D1*
X2355867Y2608910D1*
X2373043Y2603330D1*
X2389133Y2595130D1*
X2403743Y2584517D1*
X2416517Y2571743D1*
X2427130Y2557133D1*
X2435330Y2541043D1*
X2440910Y2523867D1*
X2443737Y2506030D1*
Y2487970D1*
X2422737Y1977970D2*
X2419910Y1960133D1*
X2414330Y1942957D1*
X2406130Y1926867D1*
X2395517Y1912257D1*
X2382743Y1899483D1*
X2368133Y1888870D1*
X2352043Y1880670D1*
X2334867Y1875090D1*
X2317030Y1872263D1*
X2298970D1*
X2281133Y1875090D1*
X2263957Y1880670D1*
X2247867Y1888870D1*
X2233257Y1899483D1*
X2220483Y1912257D1*
X2216743Y1916483D1*
X2202133Y1905870D1*
X2186043Y1897670D1*
X2168867Y1892090D1*
X2151030Y1889263D1*
X2132970D1*
X2115133Y1892090D1*
X2097957Y1897670D1*
X2081867Y1905870D1*
X2067257Y1916483D1*
X2054483Y1929257D1*
X2043870Y1943867D1*
X2035670Y1959957D1*
X2030090Y1977133D1*
X2027263Y1994970D1*
Y2013030D1*
X2030090Y2030867D1*
X2035670Y2048043D1*
X2043870Y2064133D1*
X2054483Y2078743D1*
X2067257Y2091517D1*
X2081867Y2102130D1*
X2097957Y2110330D1*
X2115133Y2115910D1*
X2132970Y2118737D1*
X2151030D1*
X2168867Y2115910D1*
X2186043Y2110330D1*
X2202133Y2102130D1*
X2216743Y2091517D1*
X2229517Y2078743D1*
X2233257Y2074517D1*
X2247867Y2085130D1*
X2263957Y2093330D1*
X2281133Y2098910D1*
X2298970Y2101737D1*
X2317030D1*
X2334867Y2098910D1*
X2352043Y2093330D1*
X2368133Y2085130D1*
X2382743Y2074517D1*
X2395517Y2061743D1*
X2406130Y2047133D1*
X2414330Y2031043D1*
X2419910Y2013867D1*
X2422737Y1996030D1*
Y1977970D1*
X2296737Y6251970D2*
X2293910Y6234133D1*
X2288330Y6216957D1*
X2280130Y6200867D1*
X2269517Y6186257D1*
X2256743Y6173483D1*
X2242133Y6162870D1*
X2226043Y6154670D1*
X2208867Y6149090D1*
X2191030Y6146263D1*
X2172970D1*
X2155133Y6149090D1*
X2137957Y6154670D1*
X2121867Y6162870D1*
X2107257Y6173483D1*
X2094483Y6186257D1*
X2083870Y6200867D1*
X2075670Y6216957D1*
X2070090Y6234133D1*
X2067263Y6251970D1*
Y6270030D1*
X2070090Y6287867D1*
X2075670Y6305043D1*
X2083870Y6321133D1*
X2094483Y6335743D1*
X2107257Y6348517D1*
X2121867Y6359130D1*
X2137957Y6367330D1*
X2155133Y6372910D1*
X2172970Y6375737D1*
X2191030D1*
X2208867Y6372910D1*
X2226043Y6367330D1*
X2242133Y6359130D1*
X2256743Y6348517D1*
X2269517Y6335743D1*
X2280130Y6321133D1*
X2288330Y6305043D1*
X2293910Y6287867D1*
X2296737Y6270030D1*
Y6251970D1*
X4880737Y9355970D2*
X4877910Y9338133D1*
X4872330Y9320957D1*
X4864130Y9304867D1*
X4853517Y9290257D1*
X4840743Y9277483D1*
X4826133Y9266870D1*
X4810043Y9258670D1*
X4792867Y9253090D1*
X4775030Y9250263D1*
X4756970D1*
X4739133Y9253090D1*
X4721957Y9258670D1*
X4705867Y9266870D1*
X4691257Y9277483D1*
X4678483Y9290257D1*
X4667870Y9304867D1*
X4659670Y9320957D1*
X4654090Y9338133D1*
X4651263Y9355970D1*
Y9374030D1*
X4654090Y9391867D1*
X4659670Y9409043D1*
X4667870Y9425133D1*
X4678483Y9439743D1*
X4691257Y9452517D1*
X4705867Y9463130D1*
X4721957Y9471330D1*
X4739133Y9476910D1*
X4756970Y9479737D1*
X4775030D1*
X4792867Y9476910D1*
X4810043Y9471330D1*
X4826133Y9463130D1*
X4840743Y9452517D1*
X4853517Y9439743D1*
X4864130Y9425133D1*
X4872330Y9409043D1*
X4877910Y9391867D1*
X4880737Y9374030D1*
Y9355970D1*
X2475737Y6929970D2*
X2472910Y6912133D1*
X2467330Y6894957D1*
X2459130Y6878867D1*
X2448517Y6864257D1*
X2435743Y6851483D1*
X2421133Y6840870D1*
X2405043Y6832670D1*
X2387867Y6827090D1*
X2370030Y6824263D1*
X2351970D1*
X2334133Y6827090D1*
X2316957Y6832670D1*
X2300867Y6840870D1*
X2286257Y6851483D1*
X2273483Y6864257D1*
X2262870Y6878867D1*
X2254670Y6894957D1*
X2249090Y6912133D1*
X2246263Y6929970D1*
Y6948030D1*
X2249090Y6965867D1*
X2254670Y6983043D1*
X2262870Y6999133D1*
X2273483Y7013743D1*
X2286257Y7026517D1*
X2300867Y7037130D1*
X2316957Y7045330D1*
X2334133Y7050910D1*
X2351970Y7053737D1*
X2370030D1*
X2387867Y7050910D1*
X2405043Y7045330D1*
X2421133Y7037130D1*
X2435743Y7026517D1*
X2448517Y7013743D1*
X2459130Y6999133D1*
X2467330Y6983043D1*
X2472910Y6965867D1*
X2475737Y6948030D1*
Y6929970D1*
X1937737Y6471970D2*
X1934910Y6454133D1*
X1929330Y6436957D1*
X1921130Y6420867D1*
X1910517Y6406257D1*
X1897743Y6393483D1*
X1883133Y6382870D1*
X1867043Y6374670D1*
X1849867Y6369090D1*
X1832030Y6366263D1*
X1813970D1*
X1796133Y6369090D1*
X1778957Y6374670D1*
X1762867Y6382870D1*
X1748257Y6393483D1*
X1735483Y6406257D1*
X1724870Y6420867D1*
X1716670Y6436957D1*
X1711090Y6454133D1*
X1708263Y6471970D1*
Y6490030D1*
X1711090Y6507867D1*
X1716670Y6525043D1*
X1724870Y6541133D1*
X1735483Y6555743D1*
X1748257Y6568517D1*
X1762867Y6579130D1*
X1778957Y6587330D1*
X1796133Y6592910D1*
X1813970Y6595737D1*
X1832030D1*
X1849867Y6592910D1*
X1867043Y6587330D1*
X1883133Y6579130D1*
X1897743Y6568517D1*
X1910517Y6555743D1*
X1921130Y6541133D1*
X1929330Y6525043D1*
X1934910Y6507867D1*
X1937737Y6490030D1*
Y6471970D1*
X3747737Y5591970D2*
X3744910Y5574133D1*
X3739330Y5556957D1*
X3731130Y5540867D1*
X3720517Y5526257D1*
X3707743Y5513483D1*
X3693133Y5502870D1*
X3677043Y5494670D1*
X3659867Y5489090D1*
X3642030Y5486263D1*
X3623970D1*
X3606133Y5489090D1*
X3588957Y5494670D1*
X3572867Y5502870D1*
X3558257Y5513483D1*
X3545483Y5526257D1*
X3534870Y5540867D1*
X3526670Y5556957D1*
X3521090Y5574133D1*
X3518263Y5591970D1*
Y5610030D1*
X3521090Y5627867D1*
X3526670Y5645043D1*
X3534870Y5661133D1*
X3545483Y5675743D1*
X3558257Y5688517D1*
X3572867Y5699130D1*
X3588957Y5707330D1*
X3606133Y5712910D1*
X3623970Y5715737D1*
X3642030D1*
X3659867Y5712910D1*
X3677043Y5707330D1*
X3693133Y5699130D1*
X3707743Y5688517D1*
X3720517Y5675743D1*
X3731130Y5661133D1*
X3739330Y5645043D1*
X3744910Y5627867D1*
X3747737Y5610030D1*
Y5591970D1*
X3744910Y5574133D1*
X3739330Y5556957D1*
X3731130Y5540867D1*
X3720517Y5526257D1*
X3707743Y5513483D1*
X3693133Y5502870D1*
X3677043Y5494670D1*
X3659867Y5489090D1*
X3642030Y5486263D1*
X3623970D1*
X3606133Y5489090D1*
X3588957Y5494670D1*
X3572867Y5502870D1*
X3558257Y5513483D1*
X3545483Y5526257D1*
X3534870Y5540867D1*
X3526670Y5556957D1*
X3521090Y5574133D1*
X3518263Y5591970D1*
Y5610030D1*
X3521090Y5627867D1*
X3526670Y5645043D1*
X3534870Y5661133D1*
X3545483Y5675743D1*
X3558257Y5688517D1*
X3572867Y5699130D1*
X3588957Y5707330D1*
X3606133Y5712910D1*
X3623970Y5715737D1*
X3642030D1*
X3659867Y5712910D1*
X3677043Y5707330D1*
X3693133Y5699130D1*
X3707743Y5688517D1*
X3720517Y5675743D1*
X3731130Y5661133D1*
X3739330Y5645043D1*
X3744910Y5627867D1*
X3747737Y5610030D1*
Y5591970D1*
X2720737Y5791970D2*
X2717910Y5774133D1*
X2712330Y5756957D1*
X2704130Y5740867D1*
X2693517Y5726257D1*
X2680743Y5713483D1*
X2666133Y5702870D1*
X2650043Y5694670D1*
X2632867Y5689090D1*
X2615030Y5686263D1*
X2596970D1*
X2579133Y5689090D1*
X2561957Y5694670D1*
X2545867Y5702870D1*
X2531257Y5713483D1*
X2518483Y5726257D1*
X2507870Y5740867D1*
X2499670Y5756957D1*
X2494090Y5774133D1*
X2491263Y5791970D1*
Y5810030D1*
X2494090Y5827867D1*
X2499670Y5845043D1*
X2507870Y5861133D1*
X2518483Y5875743D1*
X2531257Y5888517D1*
X2545867Y5899130D1*
X2561957Y5907330D1*
X2579133Y5912910D1*
X2596970Y5915737D1*
X2615030D1*
X2632867Y5912910D1*
X2650043Y5907330D1*
X2666133Y5899130D1*
X2680743Y5888517D1*
X2693517Y5875743D1*
X2704130Y5861133D1*
X2712330Y5845043D1*
X2717910Y5827867D1*
X2720737Y5810030D1*
Y5791970D1*
X2982737Y6659970D2*
X2979910Y6642133D1*
X2974330Y6624957D1*
X2966130Y6608867D1*
X2955517Y6594257D1*
X2942743Y6581483D1*
X2928133Y6570870D1*
X2912043Y6562670D1*
X2894867Y6557090D1*
X2877030Y6554263D1*
X2858970D1*
X2841133Y6557090D1*
X2823957Y6562670D1*
X2807867Y6570870D1*
X2793257Y6581483D1*
X2780483Y6594257D1*
X2769870Y6608867D1*
X2761670Y6624957D1*
X2756090Y6642133D1*
X2753263Y6659970D1*
Y6678030D1*
X2756090Y6695867D1*
X2761670Y6713043D1*
X2769870Y6729133D1*
X2780483Y6743743D1*
X2793257Y6756517D1*
X2807867Y6767130D1*
X2823957Y6775330D1*
X2841133Y6780910D1*
X2858970Y6783737D1*
X2877030D1*
X2894867Y6780910D1*
X2912043Y6775330D1*
X2928133Y6767130D1*
X2942743Y6756517D1*
X2955517Y6743743D1*
X2966130Y6729133D1*
X2974330Y6713043D1*
X2979910Y6695867D1*
X2982737Y6678030D1*
Y6659970D1*
X2111737Y2508970D2*
X2108910Y2491133D1*
X2103330Y2473957D1*
X2095130Y2457867D1*
X2084517Y2443257D1*
X2071743Y2430483D1*
X2057133Y2419870D1*
X2041043Y2411670D1*
X2023867Y2406090D1*
X2006030Y2403263D1*
X1987970D1*
X1970133Y2406090D1*
X1952957Y2411670D1*
X1936867Y2419870D1*
X1922257Y2430483D1*
X1909483Y2443257D1*
X1898870Y2457867D1*
X1890670Y2473957D1*
X1885090Y2491133D1*
X1882263Y2508970D1*
Y2527030D1*
X1885090Y2544867D1*
X1890670Y2562043D1*
X1898870Y2578133D1*
X1909483Y2592743D1*
X1922257Y2605517D1*
X1936867Y2616130D1*
X1952957Y2624330D1*
X1970133Y2629910D1*
X1987970Y2632737D1*
X2006030D1*
X2023867Y2629910D1*
X2041043Y2624330D1*
X2057133Y2616130D1*
X2071743Y2605517D1*
X2084517Y2592743D1*
X2095130Y2578133D1*
X2103330Y2562043D1*
X2108910Y2544867D1*
X2111737Y2527030D1*
Y2508970D1*
X1954737Y3036970D2*
X1951910Y3019133D1*
X1946330Y3001957D1*
X1938130Y2985867D1*
X1927517Y2971257D1*
X1914743Y2958483D1*
X1900133Y2947870D1*
X1884043Y2939670D1*
X1866867Y2934090D1*
X1849030Y2931263D1*
X1830970D1*
X1813133Y2934090D1*
X1795957Y2939670D1*
X1779867Y2947870D1*
X1765257Y2958483D1*
X1752483Y2971257D1*
X1741870Y2985867D1*
X1733670Y3001957D1*
X1728090Y3019133D1*
X1725263Y3036970D1*
Y3055030D1*
X1728090Y3072867D1*
X1733670Y3090043D1*
X1741870Y3106133D1*
X1752483Y3120743D1*
X1765257Y3133517D1*
X1779867Y3144130D1*
X1795957Y3152330D1*
X1813133Y3157910D1*
X1830970Y3160737D1*
X1849030D1*
X1866867Y3157910D1*
X1884043Y3152330D1*
X1900133Y3144130D1*
X1914743Y3133517D1*
X1927517Y3120743D1*
X1938130Y3106133D1*
X1946330Y3090043D1*
X1951910Y3072867D1*
X1954737Y3055030D1*
Y3036970D1*
X2603737Y6313970D2*
X2600910Y6296133D1*
X2595330Y6278957D1*
X2587130Y6262867D1*
X2576517Y6248257D1*
X2563743Y6235483D1*
X2549133Y6224870D1*
X2533043Y6216670D1*
X2515867Y6211090D1*
X2498030Y6208263D1*
X2479970D1*
X2462133Y6211090D1*
X2444957Y6216670D1*
X2428867Y6224870D1*
X2414257Y6235483D1*
X2401483Y6248257D1*
X2390870Y6262867D1*
X2382670Y6278957D1*
X2377090Y6296133D1*
X2374263Y6313970D1*
Y6332030D1*
X2377090Y6349867D1*
X2382670Y6367043D1*
X2390870Y6383133D1*
X2401483Y6397743D1*
X2414257Y6410517D1*
X2428867Y6421130D1*
X2444957Y6429330D1*
X2462133Y6434910D1*
X2479970Y6437737D1*
X2498030D1*
X2515867Y6434910D1*
X2533043Y6429330D1*
X2549133Y6421130D1*
X2563743Y6410517D1*
X2576517Y6397743D1*
X2587130Y6383133D1*
X2595330Y6367043D1*
X2600910Y6349867D1*
X2603737Y6332030D1*
Y6313970D1*
X1542737Y7952970D2*
X1539910Y7935133D1*
X1534330Y7917957D1*
X1526130Y7901867D1*
X1515517Y7887257D1*
X1502743Y7874483D1*
X1488133Y7863870D1*
X1472043Y7855670D1*
X1454867Y7850090D1*
X1437030Y7847263D1*
X1418970D1*
X1401133Y7850090D1*
X1383957Y7855670D1*
X1367867Y7863870D1*
X1353257Y7874483D1*
X1340483Y7887257D1*
X1329870Y7901867D1*
X1321670Y7917957D1*
X1316090Y7935133D1*
X1313263Y7952970D1*
Y7971030D1*
X1316090Y7988867D1*
X1321670Y8006043D1*
X1329870Y8022133D1*
X1340483Y8036743D1*
X1353257Y8049517D1*
X1367867Y8060130D1*
X1383957Y8068330D1*
X1401133Y8073910D1*
X1418970Y8076737D1*
X1437030D1*
X1454867Y8073910D1*
X1472043Y8068330D1*
X1488133Y8060130D1*
X1502743Y8049517D1*
X1515517Y8036743D1*
X1526130Y8022133D1*
X1534330Y8006043D1*
X1539910Y7988867D1*
X1542737Y7971030D1*
Y7952970D1*
X2566737Y3974970D2*
X2563910Y3957133D1*
X2558330Y3939957D1*
X2550130Y3923867D1*
X2539517Y3909257D1*
X2526743Y3896483D1*
X2512133Y3885870D1*
X2496043Y3877670D1*
X2478867Y3872090D1*
X2461030Y3869263D1*
X2442970D1*
X2425133Y3872090D1*
X2407957Y3877670D1*
X2391867Y3885870D1*
X2377257Y3896483D1*
X2364483Y3909257D1*
X2353870Y3923867D1*
X2345670Y3939957D1*
X2340090Y3957133D1*
X2337263Y3974970D1*
Y3993030D1*
X2340090Y4010867D1*
X2345670Y4028043D1*
X2353870Y4044133D1*
X2364483Y4058743D1*
X2377257Y4071517D1*
X2391867Y4082130D1*
X2407957Y4090330D1*
X2425133Y4095910D1*
X2442970Y4098737D1*
X2461030D1*
X2478867Y4095910D1*
X2496043Y4090330D1*
X2512133Y4082130D1*
X2526743Y4071517D1*
X2539517Y4058743D1*
X2550130Y4044133D1*
X2558330Y4028043D1*
X2563910Y4010867D1*
X2566737Y3993030D1*
Y3974970D1*
X2564737Y5239970D2*
X2561910Y5222133D1*
X2556330Y5204957D1*
X2548130Y5188867D1*
X2537517Y5174257D1*
X2524743Y5161483D1*
X2510133Y5150870D1*
X2494043Y5142670D1*
X2476867Y5137090D1*
X2459030Y5134263D1*
X2440970D1*
X2423133Y5137090D1*
X2405957Y5142670D1*
X2389867Y5150870D1*
X2375257Y5161483D1*
X2362483Y5174257D1*
X2351870Y5188867D1*
X2343670Y5204957D1*
X2338090Y5222133D1*
X2335263Y5239970D1*
Y5258030D1*
X2338090Y5275867D1*
X2343670Y5293043D1*
X2351870Y5309133D1*
X2362483Y5323743D1*
X2375257Y5336517D1*
X2389867Y5347130D1*
X2405957Y5355330D1*
X2423133Y5360910D1*
X2440970Y5363737D1*
X2459030D1*
X2476867Y5360910D1*
X2494043Y5355330D1*
X2510133Y5347130D1*
X2524743Y5336517D1*
X2537517Y5323743D1*
X2548130Y5309133D1*
X2556330Y5293043D1*
X2561910Y5275867D1*
X2564737Y5258030D1*
Y5239970D1*
X2045737Y5918970D2*
X2042910Y5901133D1*
X2037330Y5883957D1*
X2029130Y5867867D1*
X2018517Y5853257D1*
X2005743Y5840483D1*
X1991133Y5829870D1*
X1975043Y5821670D1*
X1957867Y5816090D1*
X1940030Y5813263D1*
X1921970D1*
X1904133Y5816090D1*
X1886957Y5821670D1*
X1870867Y5829870D1*
X1856257Y5840483D1*
X1843483Y5853257D1*
X1832870Y5867867D1*
X1824670Y5883957D1*
X1819090Y5901133D1*
X1816263Y5918970D1*
Y5937030D1*
X1819090Y5954867D1*
X1824670Y5972043D1*
X1832870Y5988133D1*
X1843483Y6002743D1*
X1856257Y6015517D1*
X1870867Y6026130D1*
X1886957Y6034330D1*
X1904133Y6039910D1*
X1921970Y6042737D1*
X1940030D1*
X1957867Y6039910D1*
X1975043Y6034330D1*
X1991133Y6026130D1*
X2005743Y6015517D1*
X2018517Y6002743D1*
X2029130Y5988133D1*
X2037330Y5972043D1*
X2042910Y5954867D1*
X2045737Y5937030D1*
Y5918970D1*
X2487737Y5476970D2*
X2484910Y5459133D1*
X2479330Y5441957D1*
X2471130Y5425867D1*
X2460517Y5411257D1*
X2447743Y5398483D1*
X2433133Y5387870D1*
X2417043Y5379670D1*
X2399867Y5374090D1*
X2382030Y5371263D1*
X2363970D1*
X2346133Y5374090D1*
X2328957Y5379670D1*
X2312867Y5387870D1*
X2298257Y5398483D1*
X2285483Y5411257D1*
X2274870Y5425867D1*
X2266670Y5441957D1*
X2261090Y5459133D1*
X2258263Y5476970D1*
Y5495030D1*
X2261090Y5512867D1*
X2266670Y5530043D1*
X2274870Y5546133D1*
X2285483Y5560743D1*
X2298257Y5573517D1*
X2312867Y5584130D1*
X2328957Y5592330D1*
X2346133Y5597910D1*
X2363970Y5600737D1*
X2382030D1*
X2399867Y5597910D1*
X2417043Y5592330D1*
X2433133Y5584130D1*
X2447743Y5573517D1*
X2460517Y5560743D1*
X2471130Y5546133D1*
X2479330Y5530043D1*
X2484910Y5512867D1*
X2487737Y5495030D1*
Y5476970D1*
X2102737Y6663970D2*
X2099910Y6646133D1*
X2094330Y6628957D1*
X2086130Y6612867D1*
X2075517Y6598257D1*
X2062743Y6585483D1*
X2048133Y6574870D1*
X2032043Y6566670D1*
X2014867Y6561090D1*
X1997030Y6558263D1*
X1978970D1*
X1961133Y6561090D1*
X1943957Y6566670D1*
X1927867Y6574870D1*
X1913257Y6585483D1*
X1900483Y6598257D1*
X1889870Y6612867D1*
X1881670Y6628957D1*
X1876090Y6646133D1*
X1873263Y6663970D1*
Y6682030D1*
X1876090Y6699867D1*
X1881670Y6717043D1*
X1889870Y6733133D1*
X1900483Y6747743D1*
X1913257Y6760517D1*
X1927867Y6771130D1*
X1943957Y6779330D1*
X1961133Y6784910D1*
X1978970Y6787737D1*
X1997030D1*
X2014867Y6784910D1*
X2032043Y6779330D1*
X2048133Y6771130D1*
X2062743Y6760517D1*
X2075517Y6747743D1*
X2086130Y6733133D1*
X2094330Y6717043D1*
X2099910Y6699867D1*
X2102737Y6682030D1*
Y6663970D1*
X2099910Y6646133D1*
X2094330Y6628957D1*
X2086130Y6612867D1*
X2075517Y6598257D1*
X2062743Y6585483D1*
X2048133Y6574870D1*
X2032043Y6566670D1*
X2014867Y6561090D1*
X1997030Y6558263D1*
X1978970D1*
X1961133Y6561090D1*
X1943957Y6566670D1*
X1927867Y6574870D1*
X1913257Y6585483D1*
X1900483Y6598257D1*
X1889870Y6612867D1*
X1881670Y6628957D1*
X1876090Y6646133D1*
X1873263Y6663970D1*
Y6682030D1*
X1876090Y6699867D1*
X1881670Y6717043D1*
X1889870Y6733133D1*
X1900483Y6747743D1*
X1913257Y6760517D1*
X1927867Y6771130D1*
X1943957Y6779330D1*
X1961133Y6784910D1*
X1978970Y6787737D1*
X1997030D1*
X2014867Y6784910D1*
X2032043Y6779330D1*
X2048133Y6771130D1*
X2062743Y6760517D1*
X2075517Y6747743D1*
X2086130Y6733133D1*
X2094330Y6717043D1*
X2099910Y6699867D1*
X2102737Y6682030D1*
Y6663970D1*
X2045737Y5918970D2*
X2042910Y5901133D1*
X2037330Y5883957D1*
X2029130Y5867867D1*
X2018517Y5853257D1*
X2005743Y5840483D1*
X1991133Y5829870D1*
X1975043Y5821670D1*
X1957867Y5816090D1*
X1940030Y5813263D1*
X1921970D1*
X1904133Y5816090D1*
X1886957Y5821670D1*
X1870867Y5829870D1*
X1856257Y5840483D1*
X1843483Y5853257D1*
X1832870Y5867867D1*
X1824670Y5883957D1*
X1819090Y5901133D1*
X1816263Y5918970D1*
Y5937030D1*
X1819090Y5954867D1*
X1824670Y5972043D1*
X1832870Y5988133D1*
X1843483Y6002743D1*
X1856257Y6015517D1*
X1870867Y6026130D1*
X1886957Y6034330D1*
X1904133Y6039910D1*
X1921970Y6042737D1*
X1940030D1*
X1957867Y6039910D1*
X1975043Y6034330D1*
X1991133Y6026130D1*
X2005743Y6015517D1*
X2018517Y6002743D1*
X2029130Y5988133D1*
X2037330Y5972043D1*
X2042910Y5954867D1*
X2045737Y5937030D1*
Y5918970D1*
X1261800Y3447000D2*
D14*
X1570200D1*
X1261800Y4097000D2*
X1570200D1*
X2071000Y5190000D2*
X2225200D1*
X4005000Y5358000D2*
X4144200D1*
X6818147Y10211083D2*
D28*
X7292437D1*
X7673550D2*
X7792463D1*
X6818147Y10147917D2*
X7301460D1*
X7664617D2*
X7801397D1*
X6818147Y10084750D2*
X7337007D1*
X7628980D2*
X7837033D1*
X8129003D2*
X8161877D1*
X6818147Y10021583D2*
X7458687D1*
X7507300D2*
X7958713D1*
X8007313D2*
X8161877D1*
X6818147Y9958417D2*
X7350590D1*
X7615397D2*
X7850613D1*
X8115423D2*
X8161877D1*
X6818147Y9895250D2*
X7306657D1*
X7659330D2*
X7806683D1*
X6818147Y9832083D2*
X7292530D1*
X7673457D2*
X7792553D1*
X6818147Y9768917D2*
X7300823D1*
X7665253D2*
X7800757D1*
X6818147Y9705750D2*
X7335277D1*
X7630710D2*
X7835303D1*
X6818147Y9642583D2*
X7444197D1*
X7521790D2*
X7944220D1*
X8021727D2*
X8161877D1*
X6818147Y9579417D2*
X8161877D1*
X6818147Y9516250D2*
X7847333D1*
X7952730D2*
X8161877D1*
X6818147Y9453083D2*
X7711163D1*
X8088900D2*
X8161877D1*
X6818147Y9389917D2*
X7655927D1*
X6818147Y9326750D2*
X7625850D1*
X6818147Y9263583D2*
X7612723D1*
X6818147Y9200417D2*
X7614090D1*
X6818147Y9137250D2*
X7630133D1*
X6818147Y9074083D2*
X7664040D1*
X6818147Y9010917D2*
X7726293D1*
X8073680D2*
X8161877D1*
X6818147Y8947750D2*
X8161877D1*
X6818147Y8884583D2*
X8161877D1*
X6818147Y8821417D2*
X8161877D1*
X6818147Y8758250D2*
X8161877D1*
X6818147Y8695083D2*
X8161877D1*
X6818147Y8631917D2*
X8161877D1*
X6818147Y8568750D2*
X8161877D1*
X6818147Y8505583D2*
X8161877D1*
X6818147Y8442417D2*
X8161877D1*
X6818147Y8379250D2*
X8161877D1*
X6818147Y8316083D2*
X8161877D1*
X6818147Y8252917D2*
X8161877D1*
X6818147Y8189750D2*
X8161877D1*
X6818147Y8126583D2*
X8161877D1*
X6818147Y8063417D2*
X8161877D1*
X6818147Y8000250D2*
X8161877D1*
X6818147Y7937083D2*
X7370367D1*
X7735163D2*
X8161877D1*
X6818147Y7873917D2*
X7294443D1*
X7811087D2*
X8161877D1*
X6818147Y7810750D2*
X7249780D1*
X7855750D2*
X8161877D1*
X6818147Y7747583D2*
X7223077D1*
X7882457D2*
X8161877D1*
X6818147Y7684417D2*
X7210043D1*
X7895490D2*
X8161877D1*
X6818147Y7621250D2*
X7209220D1*
X7896310D2*
X8161877D1*
X6818147Y7558083D2*
X7220340D1*
X7885190D2*
X8161877D1*
X6818147Y7494917D2*
X7244860D1*
X7860670D2*
X8161877D1*
X6818147Y7431750D2*
X7286423D1*
X7819110D2*
X8161877D1*
X6818147Y7368583D2*
X7355967D1*
X7749563D2*
X8161877D1*
X6818147Y7305417D2*
X8161877D1*
X6818147Y7242250D2*
X8161877D1*
X6818147Y7179083D2*
X8161877D1*
X6818147Y7115917D2*
X7355510D1*
X7465553D2*
X8161877D1*
X6818147Y7052750D2*
X7265003D1*
X7556063D2*
X8161877D1*
X6818147Y6989583D2*
X7235653D1*
X7585410D2*
X8161877D1*
X6818147Y6926417D2*
X7232553D1*
X7829590D2*
X8161877D1*
X6818147Y6863250D2*
X7254157D1*
X7866140D2*
X8161877D1*
X6818147Y6800083D2*
X7286697D1*
X7874253D2*
X8161877D1*
X6818147Y6736917D2*
X7243310D1*
X7858393D2*
X8161877D1*
X6818147Y6673750D2*
X7231007D1*
X7808263D2*
X8161877D1*
X6818147Y6610583D2*
X7242580D1*
X7856297D2*
X8161877D1*
X6818147Y6547417D2*
X7284780D1*
X7873980D2*
X8161877D1*
X6818147Y6484250D2*
X7255160D1*
X7867507D2*
X8161877D1*
X6818147Y6421083D2*
X7232830D1*
X7833420D2*
X8161877D1*
X6818147Y6357917D2*
X7235197D1*
X7841623D2*
X8161877D1*
X6818147Y6294750D2*
X7263637D1*
X7870243D2*
X8161877D1*
X6818147Y6231583D2*
X7272477D1*
X7872793D2*
X8161877D1*
X6818147Y6168417D2*
X7238113D1*
X7850553D2*
X8161877D1*
X6818147Y6105250D2*
X7231553D1*
X7820387D2*
X8161877D1*
X6818147Y6042083D2*
X7249053D1*
X7862767D2*
X8161877D1*
X6818147Y5978917D2*
X7297817D1*
X7874527D2*
X8161877D1*
X6818147Y5915750D2*
X7247320D1*
X7862403D2*
X8161877D1*
X6818147Y5852583D2*
X7231280D1*
X7819290D2*
X8161877D1*
X6818147Y5789417D2*
X7239210D1*
X7851193D2*
X8161877D1*
X6818147Y5726250D2*
X7275577D1*
X7872887D2*
X8161877D1*
X6818147Y5663083D2*
X7261173D1*
X7869970D2*
X8161877D1*
X6818147Y5599917D2*
X7234470D1*
X7840803D2*
X8161877D1*
X6818147Y5536750D2*
X7233377D1*
X7834240D2*
X8161877D1*
X6818147Y5473583D2*
X7257347D1*
X7867780D2*
X8161877D1*
X6818147Y5410417D2*
X7281137D1*
X7873887D2*
X8161877D1*
X6818147Y5347250D2*
X7241213D1*
X7855750D2*
X8161877D1*
X6818147Y5284083D2*
X7231007D1*
X7809540D2*
X8161877D1*
X6818147Y5220917D2*
X7244770D1*
X7858850D2*
X8161877D1*
X6818147Y5157750D2*
X7231007D1*
X7874343D2*
X8161877D1*
X6818147Y5094583D2*
X7231007D1*
X7865867D2*
X8161877D1*
X6818147Y5031417D2*
X7231007D1*
X7828680D2*
X8161877D1*
X6818147Y4968250D2*
X7231007D1*
X7590060D2*
X8161877D1*
X6818147Y4905083D2*
X7231007D1*
X7590060D2*
X8161877D1*
X6818147Y4841917D2*
X7231007D1*
X7590060D2*
X8161877D1*
X6818147Y4778750D2*
X8161877D1*
X6818147Y4715583D2*
X8161877D1*
X6818147Y4652417D2*
X8161877D1*
X6818147Y4589250D2*
X7350863D1*
X7754670D2*
X8161877D1*
X6818147Y4526083D2*
X7283507D1*
X7822027D2*
X8161877D1*
X6818147Y4462917D2*
X7243037D1*
X7862493D2*
X8161877D1*
X6818147Y4399750D2*
X7219430D1*
X7886193D2*
X8161877D1*
X6818147Y4336583D2*
X7208947D1*
X7896583D2*
X8161877D1*
X6818147Y4273417D2*
X7210497D1*
X7895033D2*
X8161877D1*
X6818147Y4210250D2*
X7224170D1*
X7881363D2*
X8161877D1*
X6818147Y4147083D2*
X7251697D1*
X7853837D2*
X8161877D1*
X6818147Y4083917D2*
X7297723D1*
X7807807D2*
X8161877D1*
X6818147Y4020750D2*
X7376383D1*
X7729147D2*
X8161877D1*
X6818147Y3957583D2*
X8161877D1*
X6818147Y3894417D2*
X8161877D1*
X6818147Y3831250D2*
X8161877D1*
X6818147Y3768083D2*
X8161877D1*
X6818147Y3704917D2*
X8161877D1*
X6818147Y3641750D2*
X8161877D1*
X6818147Y3578583D2*
X8161877D1*
X6818147Y3515417D2*
X8161877D1*
X6818147Y3452250D2*
X8161877D1*
X6818147Y3389083D2*
X8161877D1*
X6818147Y3325917D2*
X8161877D1*
X6818147Y3262750D2*
X8161877D1*
X6818147Y3199583D2*
X8161877D1*
X6818147Y3136417D2*
X8161877D1*
X6818147Y3073250D2*
X8161877D1*
X6818147Y3010083D2*
X8161877D1*
X6818147Y2946917D2*
X8161877D1*
X6818147Y2883750D2*
X8161877D1*
X6818147Y2820583D2*
X8161877D1*
X6818147Y2757417D2*
X8161877D1*
X6818147Y2694250D2*
X8161877D1*
X6818147Y2631083D2*
X8161877D1*
X6818147Y2567917D2*
X8161877D1*
X6818147Y2504750D2*
X8161877D1*
X6818147Y2441583D2*
X8161877D1*
X6818147Y2378417D2*
X8161877D1*
X6818147Y2315250D2*
X8161877D1*
X6818147Y2252083D2*
X8161877D1*
X6818147Y2188917D2*
X8161877D1*
X6818147Y2125750D2*
X8161877D1*
X6818147Y2062583D2*
X8161877D1*
X6818147Y1999417D2*
X6882463D1*
X6995517D2*
X8161877D1*
X7065243Y1936250D2*
X8161877D1*
X7080463Y1873083D2*
X8161877D1*
X7064240Y1809917D2*
X8161877D1*
X6818147Y1746750D2*
X6887293D1*
X6990683D2*
X8161877D1*
X6818147Y1683583D2*
X8161877D1*
X6818147Y1620417D2*
X7717633D1*
X8082337D2*
X8161877D1*
X6818147Y1557250D2*
X7659483D1*
X6818147Y1494083D2*
X7627763D1*
X6818147Y1430917D2*
X7613270D1*
X6818147Y1367750D2*
X7613453D1*
X8168247Y9150750D2*
X8160610Y9130050D1*
X8151337Y9109937D1*
X8140517Y9090613D1*
X8128210Y9072197D1*
X8114497Y9054800D1*
X8099463Y9038537D1*
X8083200Y9023503D1*
X8065803Y9009790D1*
X8047387Y8997483D1*
X8028063Y8986663D1*
X8007950Y8977390D1*
X7987170Y8969723D1*
X7965850Y8963710D1*
X7944127Y8959390D1*
X7922133Y8956787D1*
X7900000Y8955917D1*
X7877867Y8956787D1*
X7855873Y8959390D1*
X7834150Y8963710D1*
X7812830Y8969723D1*
X7792050Y8977390D1*
X7771937Y8986663D1*
X7752613Y8997483D1*
X7734197Y9009790D1*
X7716800Y9023503D1*
X7700537Y9038537D1*
X7685503Y9054800D1*
X7671790Y9072197D1*
X7659483Y9090613D1*
X7648663Y9109937D1*
X7639390Y9130050D1*
X7631723Y9150830D1*
X7625710Y9172150D1*
X7621390Y9193873D1*
X7618787Y9215867D1*
X7617917Y9238000D1*
X7618787Y9260133D1*
X7621390Y9282127D1*
X7625710Y9303850D1*
X7631723Y9325170D1*
X7639390Y9345950D1*
X7648663Y9366063D1*
X7659483Y9385387D1*
X7671790Y9403803D1*
X7685503Y9421200D1*
X7700537Y9437463D1*
X7716800Y9452497D1*
X7734197Y9466210D1*
X7752613Y9478517D1*
X7771937Y9489337D1*
X7792050Y9498610D1*
X7812830Y9506277D1*
X7834150Y9512290D1*
X7855873Y9516610D1*
X7877867Y9519213D1*
X7900000Y9520083D1*
X7922133Y9519213D1*
X7944127Y9516610D1*
X7965850Y9512290D1*
X7987170Y9506277D1*
X8007950Y9498610D1*
X8028063Y9489337D1*
X8047387Y9478517D1*
X8065803Y9466210D1*
X8083200Y9452497D1*
X8099463Y9437463D1*
X8114497Y9421200D1*
X8128210Y9403803D1*
X8140517Y9385387D1*
X8151337Y9366063D1*
X8160610Y9345950D1*
X8168250Y9326000D1*
Y10274190D1*
X8153933Y10273880D1*
X8160023Y10256243D1*
X8164297Y10238080D1*
X8166713Y10219580D1*
X8167230Y10200333D1*
X8165813Y10181730D1*
X8162523Y10163363D1*
X8157393Y10145423D1*
X8150477Y10128093D1*
X8141840Y10111553D1*
X8131580Y10095970D1*
X8119793Y10081507D1*
X8106603Y10068307D1*
X8092150Y10056510D1*
X8076573Y10046233D1*
X8060040Y10037587D1*
X8042717Y10030653D1*
X8024783Y10025510D1*
X8006420Y10022203D1*
X7987813Y10020773D1*
X7969163Y10021230D1*
X7950650Y10023570D1*
X7932470Y10027773D1*
X7914810Y10033790D1*
X7897847Y10041563D1*
X7881757Y10051010D1*
X7866703Y10062037D1*
X7852847Y10074530D1*
X7840320Y10088360D1*
X7829257Y10103383D1*
X7819770Y10119450D1*
X7811957Y10136393D1*
X7805897Y10154043D1*
X7801650Y10172210D1*
X7799263Y10190717D1*
X7798763Y10209370D1*
X7800147Y10227977D1*
X7803407Y10246347D1*
X7808510Y10264297D1*
X7812227Y10274250D1*
X7653933Y10273880D1*
X7660023Y10256243D1*
X7664297Y10238080D1*
X7666713Y10219580D1*
X7667230Y10200333D1*
X7665813Y10181730D1*
X7662523Y10163363D1*
X7657393Y10145423D1*
X7650477Y10128093D1*
X7641840Y10111553D1*
X7631580Y10095970D1*
X7619793Y10081507D1*
X7606603Y10068307D1*
X7592150Y10056510D1*
X7576573Y10046233D1*
X7560040Y10037587D1*
X7542717Y10030653D1*
X7524783Y10025510D1*
X7506420Y10022203D1*
X7487813Y10020773D1*
X7469163Y10021230D1*
X7450650Y10023570D1*
X7432470Y10027773D1*
X7414810Y10033790D1*
X7397847Y10041563D1*
X7381757Y10051010D1*
X7366703Y10062037D1*
X7352847Y10074530D1*
X7340320Y10088360D1*
X7329257Y10103383D1*
X7319770Y10119450D1*
X7311957Y10136393D1*
X7305897Y10154043D1*
X7301650Y10172210D1*
X7299263Y10190717D1*
X7298763Y10209370D1*
X7300147Y10227977D1*
X7303407Y10246347D1*
X7308510Y10264297D1*
X7312227Y10274250D1*
X6811757D1*
X6811750Y1919400D1*
X6818633Y1935330D1*
X6829710Y1953403D1*
X6843477Y1969523D1*
X6859597Y1983290D1*
X6877670Y1994367D1*
X6897253Y2002477D1*
X6917867Y2007427D1*
X6939000Y2009090D1*
X6960133Y2007427D1*
X6980747Y2002477D1*
X7000330Y1994367D1*
X7018403Y1983290D1*
X7034523Y1969523D1*
X7048290Y1953403D1*
X7059367Y1935330D1*
X7067477Y1915747D1*
X7072427Y1895133D1*
X7074090Y1874000D1*
X7072427Y1852867D1*
X7067477Y1832253D1*
X7059367Y1812670D1*
X7048290Y1794597D1*
X7034523Y1778477D1*
X7018403Y1764710D1*
X7000330Y1753633D1*
X6980747Y1745523D1*
X6960133Y1740573D1*
X6939000Y1738910D1*
X6917867Y1740573D1*
X6897253Y1745523D1*
X6877670Y1753633D1*
X6859597Y1764710D1*
X6843477Y1778477D1*
X6829710Y1794597D1*
X6818633Y1812670D1*
X6811740Y1828950D1*
X6811750Y1307810D1*
X7633400Y1307750D1*
X7625710Y1334150D1*
X7621390Y1355873D1*
X7618787Y1377867D1*
X7617917Y1400000D1*
X7618787Y1422133D1*
X7621390Y1444127D1*
X7625710Y1465850D1*
X7631723Y1487170D1*
X7639390Y1507950D1*
X7648663Y1528063D1*
X7659483Y1547387D1*
X7671790Y1565803D1*
X7685503Y1583200D1*
X7700537Y1599463D1*
X7716800Y1614497D1*
X7734197Y1628210D1*
X7752613Y1640517D1*
X7771937Y1651337D1*
X7792050Y1660610D1*
X7812830Y1668277D1*
X7834150Y1674290D1*
X7855873Y1678610D1*
X7877867Y1681213D1*
X7900000Y1682083D1*
X7922133Y1681213D1*
X7944127Y1678610D1*
X7965850Y1674290D1*
X7987170Y1668277D1*
X8007950Y1660610D1*
X8028063Y1651337D1*
X8047387Y1640517D1*
X8065803Y1628210D1*
X8083200Y1614497D1*
X8099463Y1599463D1*
X8114497Y1583200D1*
X8128210Y1565803D1*
X8140517Y1547387D1*
X8151337Y1528063D1*
X8160610Y1507950D1*
X8168247Y1487250D1*
X8168250Y9150727D1*
X7868127Y6805333D2*
X7866620Y6786737D1*
X7863123Y6768410D1*
X7857673Y6750567D1*
X7850337Y6733413D1*
X7841197Y6717147D1*
X7830360Y6701960D1*
X7817950Y6688023D1*
X7804117Y6675507D1*
X7799063Y6671580D1*
X7814003Y6658963D1*
X7826847Y6645433D1*
X7838163Y6630597D1*
X7847817Y6614630D1*
X7855697Y6597720D1*
X7861713Y6580057D1*
X7865793Y6561850D1*
X7867890Y6543313D1*
X7867940Y6523803D1*
X7865930Y6505257D1*
X7861940Y6487030D1*
X7856013Y6469340D1*
X7848217Y6452387D1*
X7838640Y6436373D1*
X7827400Y6421483D1*
X7814620Y6407890D1*
X7799093Y6394733D1*
X7814003Y6382130D1*
X7826847Y6368600D1*
X7838163Y6353763D1*
X7847817Y6337797D1*
X7855697Y6320887D1*
X7861713Y6303223D1*
X7865793Y6285017D1*
X7867890Y6266480D1*
X7867940Y6246970D1*
X7865930Y6228423D1*
X7861940Y6210197D1*
X7856013Y6192507D1*
X7848217Y6175553D1*
X7838640Y6159540D1*
X7827400Y6144650D1*
X7814620Y6131057D1*
X7799063Y6117880D1*
X7817463Y6101897D1*
X7835113Y6081233D1*
X7849313Y6058060D1*
X7859713Y6032953D1*
X7866057Y6006527D1*
X7868190Y5979433D1*
X7866057Y5952340D1*
X7859713Y5925913D1*
X7849313Y5900807D1*
X7835113Y5877633D1*
X7817463Y5856970D1*
X7799010Y5841063D1*
X7817463Y5825030D1*
X7835113Y5804367D1*
X7849313Y5781193D1*
X7859713Y5756087D1*
X7866057Y5729660D1*
X7868190Y5702567D1*
X7866057Y5675473D1*
X7859713Y5649047D1*
X7849313Y5623940D1*
X7835113Y5600767D1*
X7817463Y5580103D1*
X7799010Y5564197D1*
X7817463Y5548163D1*
X7835113Y5527500D1*
X7849313Y5504327D1*
X7859713Y5479220D1*
X7866057Y5452793D1*
X7868190Y5425700D1*
X7866057Y5398607D1*
X7859713Y5372180D1*
X7849313Y5347073D1*
X7835113Y5323900D1*
X7817463Y5303237D1*
X7799010Y5287330D1*
X7817463Y5271297D1*
X7835113Y5250633D1*
X7849313Y5227460D1*
X7859713Y5202353D1*
X7866057Y5175927D1*
X7868190Y5148833D1*
X7866057Y5121740D1*
X7859713Y5095313D1*
X7849313Y5070207D1*
X7835113Y5047033D1*
X7817463Y5026370D1*
X7796800Y5008720D1*
X7773627Y4994520D1*
X7748520Y4984120D1*
X7722093Y4977777D1*
X7695000Y4975643D1*
X7667907Y4977777D1*
X7641480Y4984120D1*
X7616373Y4994520D1*
X7593200Y5008720D1*
X7583733Y5016183D1*
X7583723Y4838510D1*
X7237343D1*
Y5184890D1*
X7271777D1*
X7262863Y5198043D1*
X7250527Y5222257D1*
X7242130Y5248103D1*
X7237877Y5274947D1*
Y5302120D1*
X7242130Y5328963D1*
X7250527Y5354810D1*
X7262863Y5379023D1*
X7278840Y5401010D1*
X7298057Y5420227D1*
X7306523Y5426903D1*
X7288103Y5442937D1*
X7270453Y5463600D1*
X7256253Y5486773D1*
X7245853Y5511880D1*
X7239510Y5538307D1*
X7237377Y5565400D1*
X7239510Y5592493D1*
X7245853Y5618920D1*
X7256253Y5644027D1*
X7270453Y5667200D1*
X7288103Y5687863D1*
X7306557Y5703770D1*
X7288070Y5719803D1*
X7270420Y5740467D1*
X7256220Y5763640D1*
X7245820Y5788747D1*
X7239477Y5815173D1*
X7237343Y5842267D1*
X7239477Y5869360D1*
X7245820Y5895787D1*
X7256220Y5920893D1*
X7270420Y5944067D1*
X7288070Y5964730D1*
X7306523Y5980637D1*
X7288070Y5996670D1*
X7270420Y6017333D1*
X7256220Y6040507D1*
X7245820Y6065613D1*
X7239477Y6092040D1*
X7237343Y6119133D1*
X7239477Y6146227D1*
X7245820Y6172653D1*
X7256220Y6197760D1*
X7270420Y6220933D1*
X7288070Y6241597D1*
X7306523Y6257503D1*
X7288070Y6273537D1*
X7270420Y6294200D1*
X7256220Y6317373D1*
X7245820Y6342480D1*
X7239477Y6368907D1*
X7237343Y6396000D1*
X7239477Y6423093D1*
X7245820Y6449520D1*
X7256220Y6474627D1*
X7270420Y6497800D1*
X7288070Y6518463D1*
X7306523Y6534370D1*
X7288070Y6550370D1*
X7270420Y6571033D1*
X7256220Y6594207D1*
X7245820Y6619313D1*
X7239477Y6645740D1*
X7237343Y6672833D1*
X7239477Y6699927D1*
X7245820Y6726353D1*
X7256220Y6751460D1*
X7270420Y6774633D1*
X7288070Y6795297D1*
X7306523Y6811203D1*
X7288070Y6827237D1*
X7270420Y6847900D1*
X7256220Y6871073D1*
X7245820Y6896180D1*
X7239477Y6922607D1*
X7237343Y6949700D1*
X7239477Y6976793D1*
X7245820Y7003220D1*
X7256220Y7028327D1*
X7270420Y7051500D1*
X7288070Y7072163D1*
X7308733Y7089813D1*
X7331907Y7104013D1*
X7357013Y7114413D1*
X7383440Y7120757D1*
X7410533Y7122890D1*
X7437627Y7120757D1*
X7464053Y7114413D1*
X7489160Y7104013D1*
X7512333Y7089813D1*
X7532997Y7072163D1*
X7550647Y7051500D1*
X7564847Y7028327D1*
X7575247Y7003220D1*
X7581590Y6976793D1*
X7583723Y6949700D1*
X7583757Y6942737D1*
X7598680Y6953933D1*
X7614723Y6963460D1*
X7631697Y6971207D1*
X7649407Y6977080D1*
X7667643Y6981017D1*
X7686200Y6982967D1*
X7704857Y6982910D1*
X7723400Y6980847D1*
X7741613Y6976800D1*
X7759287Y6970817D1*
X7776213Y6962970D1*
X7792197Y6953343D1*
X7807053Y6942057D1*
X7820607Y6929237D1*
X7832707Y6915033D1*
X7843203Y6899610D1*
X7851983Y6883147D1*
X7858943Y6865837D1*
X7863997Y6847877D1*
X7867090Y6829477D1*
X7868190Y6810000D1*
X7868127Y6805333D1*
X7890253Y7624887D2*
X7887843Y7601680D1*
X7883840Y7578700D1*
X7878263Y7556047D1*
X7871137Y7533833D1*
X7862500Y7512163D1*
X7852387Y7491140D1*
X7840850Y7470863D1*
X7827943Y7451430D1*
X7813727Y7432933D1*
X7798270Y7415460D1*
X7781647Y7399093D1*
X7763933Y7383910D1*
X7745217Y7369987D1*
X7725583Y7357383D1*
X7705130Y7346163D1*
X7683953Y7336383D1*
X7662150Y7328083D1*
X7639827Y7321303D1*
X7617090Y7316083D1*
X7594047Y7312437D1*
X7570810Y7310390D1*
X7547483Y7309950D1*
X7524187Y7311120D1*
X7501023Y7313890D1*
X7478103Y7318253D1*
X7455543Y7324183D1*
X7433443Y7331653D1*
X7411910Y7340630D1*
X7391047Y7351070D1*
X7370953Y7362920D1*
X7351723Y7376130D1*
X7333450Y7390633D1*
X7316220Y7406360D1*
X7300117Y7423237D1*
X7285213Y7441187D1*
X7271580Y7460117D1*
X7259287Y7479943D1*
X7248390Y7500570D1*
X7238940Y7521900D1*
X7230980Y7543830D1*
X7224553Y7566253D1*
X7219683Y7589070D1*
X7216400Y7612167D1*
X7214717Y7635433D1*
X7214640Y7658763D1*
X7216173Y7682040D1*
X7219307Y7705157D1*
X7224023Y7728003D1*
X7230307Y7750470D1*
X7238120Y7772453D1*
X7247433Y7793843D1*
X7258197Y7814540D1*
X7270360Y7834447D1*
X7283870Y7853467D1*
X7298657Y7871510D1*
X7314650Y7888493D1*
X7331777Y7904333D1*
X7349953Y7918953D1*
X7369097Y7932287D1*
X7389113Y7944270D1*
X7409907Y7954847D1*
X7431380Y7963963D1*
X7453433Y7971577D1*
X7475957Y7977653D1*
X7498843Y7982163D1*
X7521990Y7985087D1*
X7545280Y7986407D1*
X7568607Y7986120D1*
X7591860Y7984223D1*
X7614923Y7980730D1*
X7637693Y7975657D1*
X7660060Y7969023D1*
X7681917Y7960867D1*
X7703157Y7951223D1*
X7723683Y7940137D1*
X7743400Y7927663D1*
X7762207Y7913860D1*
X7780017Y7898793D1*
X7796747Y7882537D1*
X7812317Y7865163D1*
X7826653Y7846760D1*
X7839687Y7827410D1*
X7851357Y7807210D1*
X7861607Y7786253D1*
X7870387Y7764640D1*
X7877657Y7742473D1*
X7883380Y7719860D1*
X7887533Y7696903D1*
X7890093Y7673713D1*
X7891057Y7648200D1*
X7890253Y7624887D1*
Y4289887D2*
X7887843Y4266680D1*
X7883840Y4243700D1*
X7878263Y4221047D1*
X7871137Y4198833D1*
X7862500Y4177163D1*
X7852387Y4156140D1*
X7840850Y4135863D1*
X7827943Y4116430D1*
X7813727Y4097933D1*
X7798270Y4080460D1*
X7781647Y4064093D1*
X7763933Y4048910D1*
X7745217Y4034987D1*
X7725583Y4022383D1*
X7705130Y4011163D1*
X7683953Y4001383D1*
X7662150Y3993083D1*
X7639827Y3986303D1*
X7617090Y3981083D1*
X7594047Y3977437D1*
X7570810Y3975390D1*
X7547483Y3974950D1*
X7524187Y3976120D1*
X7501023Y3978890D1*
X7478103Y3983253D1*
X7455543Y3989183D1*
X7433443Y3996653D1*
X7411910Y4005630D1*
X7391047Y4016070D1*
X7370953Y4027920D1*
X7351723Y4041130D1*
X7333450Y4055633D1*
X7316220Y4071360D1*
X7300117Y4088237D1*
X7285213Y4106187D1*
X7271580Y4125117D1*
X7259287Y4144943D1*
X7248390Y4165570D1*
X7238940Y4186900D1*
X7230980Y4208830D1*
X7224553Y4231253D1*
X7219683Y4254070D1*
X7216400Y4277167D1*
X7214717Y4300433D1*
X7214640Y4323763D1*
X7216173Y4347040D1*
X7219307Y4370157D1*
X7224023Y4393003D1*
X7230307Y4415470D1*
X7238120Y4437453D1*
X7247433Y4458843D1*
X7258197Y4479540D1*
X7270360Y4499447D1*
X7283870Y4518467D1*
X7298657Y4536510D1*
X7314650Y4553493D1*
X7331777Y4569333D1*
X7349953Y4583953D1*
X7369097Y4597287D1*
X7389113Y4609270D1*
X7409907Y4619847D1*
X7431380Y4628963D1*
X7453433Y4636577D1*
X7475957Y4642653D1*
X7498843Y4647163D1*
X7521990Y4650087D1*
X7545280Y4651407D1*
X7568607Y4651120D1*
X7591860Y4649223D1*
X7614923Y4645730D1*
X7637693Y4640657D1*
X7660060Y4634023D1*
X7681917Y4625867D1*
X7703157Y4616223D1*
X7723683Y4605137D1*
X7743400Y4592663D1*
X7762207Y4578860D1*
X7780017Y4563793D1*
X7796747Y4547537D1*
X7812317Y4530163D1*
X7826653Y4511760D1*
X7839687Y4492410D1*
X7851357Y4472210D1*
X7861607Y4451253D1*
X7870387Y4429640D1*
X7877657Y4407473D1*
X7883380Y4384860D1*
X7887533Y4361903D1*
X7890093Y4338713D1*
X7891057Y4313200D1*
X7890253Y4289887D1*
X8166723Y9809540D2*
X8162197Y9780980D1*
X8153263Y9753477D1*
X8140133Y9727710D1*
X8123137Y9704313D1*
X8102687Y9683863D1*
X8079290Y9666867D1*
X8053523Y9653737D1*
X8026020Y9644803D1*
X7997460Y9640277D1*
X7968540D1*
X7939980Y9644803D1*
X7912477Y9653737D1*
X7886710Y9666867D1*
X7863313Y9683863D1*
X7842863Y9704313D1*
X7825867Y9727710D1*
X7812737Y9753477D1*
X7803803Y9780980D1*
X7799277Y9809540D1*
Y9838460D1*
X7803803Y9867020D1*
X7812737Y9894523D1*
X7825867Y9920290D1*
X7842863Y9943687D1*
X7863313Y9964137D1*
X7886710Y9981133D1*
X7912477Y9994263D1*
X7939980Y10003197D1*
X7968540Y10007723D1*
X7997460D1*
X8026020Y10003197D1*
X8053523Y9994263D1*
X8079290Y9981133D1*
X8102687Y9964137D1*
X8123137Y9943687D1*
X8140133Y9920290D1*
X8153263Y9894523D1*
X8162197Y9867020D1*
X8166723Y9838460D1*
Y9809540D1*
X7666723D2*
X7662197Y9780980D1*
X7653263Y9753477D1*
X7640133Y9727710D1*
X7623137Y9704313D1*
X7602687Y9683863D1*
X7579290Y9666867D1*
X7553523Y9653737D1*
X7526020Y9644803D1*
X7497460Y9640277D1*
X7468540D1*
X7439980Y9644803D1*
X7412477Y9653737D1*
X7386710Y9666867D1*
X7363313Y9683863D1*
X7342863Y9704313D1*
X7325867Y9727710D1*
X7312737Y9753477D1*
X7303803Y9780980D1*
X7299277Y9809540D1*
Y9838460D1*
X7303803Y9867020D1*
X7312737Y9894523D1*
X7325867Y9920290D1*
X7342863Y9943687D1*
X7363313Y9964137D1*
X7386710Y9981133D1*
X7412477Y9994263D1*
X7439980Y10003197D1*
X7468540Y10007723D1*
X7497460D1*
X7526020Y10003197D1*
X7553523Y9994263D1*
X7579290Y9981133D1*
X7602687Y9964137D1*
X7623137Y9943687D1*
X7640133Y9920290D1*
X7653263Y9894523D1*
X7662197Y9867020D1*
X7666723Y9838460D1*
Y9809540D1*
X7695000Y6810000D2*
D14*
X7868100D1*
X7695000Y6533133D2*
X7868100D1*
X7695000Y6256300D2*
X7868100D1*
X7237433Y5011700D2*
X7583633D1*
X7798800Y10205000D2*
X8167200D1*
X7298800D2*
X7667200D1*
D29*
X1866000Y3447000D3*
Y4097000D3*
X1416000Y3447000D3*
Y4097000D3*
D51*
X1563000Y5190000D3*
X1817000D3*
X2071000D3*
X1563000Y4936000D3*
X1817000D3*
X2071000D3*
D57*
X4005000Y5358000D3*
D58*
Y5104000D3*
Y4850000D3*
D21*
X7695000Y6810000D3*
Y6533133D3*
Y6256300D3*
Y5979433D3*
Y5702567D3*
Y5425700D3*
Y5148833D3*
X7410533Y6949700D3*
Y6672833D3*
Y6396000D3*
Y6119133D3*
Y5842267D3*
X7410567Y5565400D3*
X7410533Y5288533D3*
D59*
Y5011700D3*
D62*
X5561000Y9994000D3*
Y9486000D3*
X6069000Y9994000D3*
Y9486000D3*
X6323000Y9994000D3*
Y9486000D3*
X6577000Y9994000D3*
Y9486000D3*
X5561000Y9126000D3*
Y8618000D3*
X6069000Y9126000D3*
Y8618000D3*
X6323000Y9126000D3*
Y8618000D3*
X6577000Y9126000D3*
Y8618000D3*
X5569000Y4009000D3*
Y3501000D3*
X6077000Y4009000D3*
Y3501000D3*
X6331000Y4009000D3*
Y3501000D3*
X6585000Y4009000D3*
Y3501000D3*
X5568000Y4880000D3*
Y4372000D3*
X6076000Y4880000D3*
Y4372000D3*
X6330000Y4880000D3*
Y4372000D3*
X6584000Y4880000D3*
Y4372000D3*
X5567000Y2336000D3*
Y1828000D3*
X6075000Y2336000D3*
Y1828000D3*
X6329000Y2336000D3*
Y1828000D3*
X6583000Y2336000D3*
Y1828000D3*
X5569000Y3167000D3*
Y2659000D3*
X6077000Y3167000D3*
Y2659000D3*
X6331000Y3167000D3*
Y2659000D3*
X6585000Y3167000D3*
Y2659000D3*
X5567000Y6574000D3*
Y6066000D3*
X6075000Y6574000D3*
Y6066000D3*
X6329000Y6574000D3*
Y6066000D3*
X6583000Y6574000D3*
Y6066000D3*
X5567000Y5730000D3*
Y5222000D3*
X6075000Y5730000D3*
Y5222000D3*
X6329000Y5730000D3*
Y5222000D3*
X6583000Y5730000D3*
Y5222000D3*
X5563000Y8264000D3*
Y7756000D3*
X6071000Y8264000D3*
Y7756000D3*
X6325000Y8264000D3*
Y7756000D3*
X6579000Y8264000D3*
Y7756000D3*
X5564000Y7419000D3*
Y6911000D3*
X6072000Y7419000D3*
Y6911000D3*
X6326000Y7419000D3*
Y6911000D3*
X6580000Y7419000D3*
Y6911000D3*
D77*
X7983000Y9824000D3*
Y10205000D3*
X7483000Y9824000D3*
Y10205000D3*
D78*
X3379000Y4964000D3*
X2896400D3*
M02*
