M48
METRIC,0000.00
T01C0.486
T02C0.55
T03C0.6
T04C0.813
T05C0.9
T06C1.168
T07C1.2
T08C3.1
T09C5.08
%
T01
X+007599Y+008873
X+007698Y+008771
X+007787Y+008683
X+007906Y+008564
X+007496Y+008974
X+006984Y+009740
X+008130Y+010026
X+007839Y+007188
X+007539Y+007188
X+007092Y+005012
X+007092Y+004273
X+006939Y+001874
X+006724Y+001386
X+005789Y+001492
X+004914Y+001207
X+004455Y+001631
X+004617Y+001944
X+004617Y+002814
X+004617Y+003672
X+004212Y+003842
X+003540Y+003540
X+003070Y+003399
X+002984Y+003485
X+002846Y+003705
X+003088Y+003947
X+002890Y+004310
X+002726Y+004310
X+002452Y+003984
X+002281Y+004480
X+001616Y+004097
X+001616Y+003454
X+001616Y+003107
X+001840Y+003046
X+001997Y+002518
X+002329Y+002497
X+002443Y+002613
X+002464Y+002349
X+002514Y+002226
X+002308Y+001987
X+002142Y+002004
X+002007Y+002014
X+001792Y+002014
X+001557Y+001897
X+002006Y+001763
X+002026Y+001455
X+002684Y+001716
X+002848Y+001803
X+002838Y+002497
X+003540Y+002524
X+003540Y+002016
X+003540Y+001508
X+003779Y+001200
X+003540Y+003032
X+003534Y+004310
X+003534Y+004591
X+003111Y+004583
X+003029Y+005395
X+002864Y+005363
X+002614Y+005547
X+002373Y+005486
X+002450Y+005249
X+002414Y+005791
X+002606Y+005801
X+002706Y+006084
X+002770Y+006199
X+002879Y+006295
X+002612Y+006545
X+002486Y+006326
X+002181Y+006261
X+001931Y+005928
X+001745Y+005420
X+001372Y+005420
X+001823Y+006481
X+001988Y+006673
X+002361Y+006939
X+001986Y+007332
X+002089Y+007488
X+002376Y+007488
X+002029Y+007890
X+002590Y+008117
X+002590Y+008413
X+002524Y+008620
X+003032Y+008620
X+003032Y+008112
X+002818Y+007836
X+003540Y+008112
X+004048Y+008112
X+004360Y+007980
X+004590Y+007972
X+004048Y+007604
X+004048Y+007124
X+004363Y+007116
X+004591Y+007125
X+004452Y+006281
X+004553Y+006151
X+004631Y+006254
X+004437Y+005877
X+004409Y+005735
X+004560Y+005357
X+004268Y+005129
X+004244Y+004939
X+004560Y+004506
X+003779Y+005320
X+003633Y+005601
X+003239Y+005835
X+003522Y+006369
X+003709Y+006562
X+003468Y+006743
X+003457Y+007151
X+002868Y+006669
X+003868Y+006095
X+004048Y+008620
X+004350Y+008875
X+004603Y+008859
X+004766Y+009365
X+004598Y+009804
X+004180Y+009980
X+003986Y+010169
X+003538Y+010169
X+003027Y+010165
X+002524Y+010171
X+002524Y+009668
X+003021Y+009661
X+003488Y+009636
X+003500Y+009135
X+003032Y+009128
X+002524Y+009128
X+001966Y+009143
X+001508Y+009154
X+001507Y+009662
X+001965Y+009649
X+001968Y+010181
X+002016Y+008620
X+001508Y+008620
X+001428Y+007962
X+003540Y+008620
X+004048Y+009128
T02
X+001375Y+006205
X+001375Y+005805
X+001375Y+002803
X+001375Y+002403
T03
X+005561Y+009994
X+005561Y+009486
X+005561Y+009126
X+005561Y+008618
X+005563Y+008264
X+005563Y+007756
X+005564Y+007419
X+005564Y+006911
X+005567Y+006574
X+005567Y+006066
X+005567Y+005730
X+005567Y+005222
X+005568Y+004880
X+005568Y+004372
X+005569Y+004009
X+005569Y+003501
X+005569Y+003167
X+005569Y+002659
X+005567Y+002336
X+005567Y+001828
X+006075Y+001828
X+006329Y+001828
X+006583Y+001828
X+006583Y+002336
X+006329Y+002336
X+006075Y+002336
X+006077Y+002659
X+006331Y+002659
X+006585Y+002659
X+006585Y+003167
X+006331Y+003167
X+006077Y+003167
X+006077Y+003501
X+006331Y+003501
X+006585Y+003501
X+006585Y+004009
X+006331Y+004009
X+006077Y+004009
X+006076Y+004372
X+006330Y+004372
X+006584Y+004372
X+006584Y+004880
X+006330Y+004880
X+006076Y+004880
X+006075Y+005222
X+006329Y+005222
X+006583Y+005222
X+006583Y+005730
X+006329Y+005730
X+006075Y+005730
X+006075Y+006066
X+006329Y+006066
X+006583Y+006066
X+006583Y+006574
X+006329Y+006574
X+006075Y+006574
X+006072Y+006911
X+006326Y+006911
X+006580Y+006911
X+006580Y+007419
X+006326Y+007419
X+006072Y+007419
X+006071Y+007756
X+006325Y+007756
X+006579Y+007756
X+006579Y+008264
X+006325Y+008264
X+006071Y+008264
X+006069Y+008618
X+006323Y+008618
X+006577Y+008618
X+006577Y+009126
X+006323Y+009126
X+006069Y+009126
X+006069Y+009486
X+006323Y+009486
X+006577Y+009486
X+006577Y+009994
X+006323Y+009994
X+006069Y+009994
T04
X+003379Y+004964
X+002896Y+004964
T05
X+001563Y+005190
X+001817Y+005190
X+002071Y+005190
X+002071Y+004936
X+001817Y+004936
X+001563Y+004936
X+004005Y+004850
X+004005Y+005104
X+004005Y+005358
T06
X+007695Y+006810
X+007695Y+006533
X+007695Y+006256
X+007695Y+005979
X+007695Y+005703
X+007695Y+005426
X+007695Y+005149
X+007411Y+005012
X+007411Y+005289
X+007411Y+005565
X+007411Y+005842
X+007411Y+006119
X+007411Y+006396
X+007411Y+006673
X+007411Y+006950
T07
X+001866Y+003447
X+001416Y+003447
X+001416Y+004097
X+001866Y+004097
X+007483Y+009824
X+007483Y+010205
X+007983Y+010205
X+007983Y+009824
T08
X+007900Y+009238
X+001400Y+010100
X+001450Y+001450
X+007900Y+001400
T09
X+007553Y+007648
X+007553Y+004313
T00
M30
