G04 DipTrace 3.3.1.3*
G04 Top.gbr*
%MOMM*%
G04 #@! TF.FileFunction,Copper,L1,Top*
G04 #@! TF.Part,Single*
G04 #@! TA.AperFunction,CopperBalancing*
%ADD14C,0.2*%
G04 #@! TA.AperFunction,Conductor*
%ADD15C,0.55*%
%ADD16C,1.0*%
%ADD17C,0.7*%
%ADD18C,2.0*%
%ADD19C,0.65*%
%ADD20C,1.5*%
G04 #@! TA.AperFunction,ComponentPad*
%ADD21C,1.778*%
G04 #@! TA.AperFunction,ViaPad*
%ADD22C,1.016*%
G04 #@! TA.AperFunction,Conductor*
%ADD23C,0.85*%
%ADD24C,0.4*%
%ADD25C,0.6*%
%ADD26C,0.8*%
%ADD27C,0.3*%
G04 #@! TA.AperFunction,CopperBalancing*
%ADD28C,0.635*%
G04 #@! TA.AperFunction,ComponentPad*
%ADD29O,1.8X2.5*%
%ADD32R,1.0X1.1*%
%ADD33R,1.1X1.0*%
%ADD35R,2.0X1.2*%
%ADD37R,1.0X1.0*%
%ADD38R,0.6X1.0*%
%ADD40R,2.4X2.4*%
%ADD43R,1.6X0.8*%
%ADD45R,1.4X0.85*%
%ADD49R,1.05X0.65*%
%ADD50R,0.85X1.4*%
G04 #@! TA.AperFunction,ComponentPad*
%ADD51C,1.8*%
%ADD53R,1.35X0.4*%
%ADD54R,1.4X1.5*%
%ADD55R,1.3X2.3*%
%ADD56R,1.9X1.8*%
G04 #@! TA.AperFunction,ComponentPad*
%ADD57R,1.5X1.5*%
%ADD58C,1.5*%
%ADD59R,1.778X1.778*%
%ADD60R,1.45X1.2*%
%ADD61R,1.2X1.45*%
G04 #@! TA.AperFunction,ComponentPad*
%ADD62C,1.2*%
%ADD63R,1.3X1.5*%
%ADD66R,2.286X2.794*%
%ADD68O,0.85X0.3*%
%ADD69O,0.3X0.85*%
%ADD70R,3.5X3.5*%
%ADD73R,0.55X1.2*%
%ADD75R,5.2X5.2*%
%ADD76R,2.2X1.7*%
G04 #@! TA.AperFunction,ComponentPad*
%ADD77C,2.0*%
%ADD78C,1.2192*%
%FSLAX35Y35*%
G04*
G71*
G90*
G75*
G01*
G04 Top*
%LPD*%
X4268000Y1200000D2*
D14*
X4452000D1*
X4455000Y1197000D1*
X2840000Y6035000D2*
X2755000D1*
X2706000Y6084000D1*
X3018500Y5506500D2*
Y5405500D1*
X3029000Y5395000D1*
X2281000Y7629020D2*
D15*
Y7739020D1*
D16*
Y7875000D1*
X2266000Y7890000D1*
X3418500Y6163500D2*
D14*
Y6265500D1*
X3522000Y6369000D1*
X2266000Y7890000D2*
D18*
X2029000D1*
X2529227Y6766000D2*
D16*
X2535000D1*
X2612000Y6689000D1*
Y6545000D1*
X4268000Y1200000D2*
X3779000D1*
X2080000Y4480000D2*
X2281000D1*
X2684000Y1884000D2*
Y1716000D1*
X3069710Y3399007D2*
D14*
X3012010D1*
X2983523Y3370523D1*
X2875520D1*
X2833150Y3328153D1*
X2835470Y3267907D1*
X2837673Y3236293D1*
X2880353Y3199170D1*
X2921000Y3202000D1*
X4005000Y5104000D2*
X3898000Y4997000D1*
X3866000D1*
X3809283D1*
X3363500Y5442783D1*
Y5501500D1*
X3368500Y5506500D1*
X2983723Y3484993D2*
Y3427293D1*
X2966957Y3410523D1*
X2858953D1*
X2792510Y3344080D1*
X2795523Y3265747D1*
X2797770Y3233513D1*
X2760647Y3190830D1*
X2720000Y3188000D1*
X4005000Y4850000D2*
X3898000Y4957000D1*
X3866000D1*
X3792717D1*
X3323500Y5426217D1*
Y5501500D1*
X3318500Y5506500D1*
X1427000Y6070000D2*
X1586000D1*
X1598500Y6057500D1*
X2018097D1*
X2058500Y6017097D1*
Y5887973D1*
X2146000Y5787000D1*
X2332000Y6119000D2*
Y6100470D1*
X2293883Y6081000D1*
X2196207D1*
X2130613Y6015407D1*
Y5975737D1*
Y5924330D1*
X2238000Y5816943D1*
Y5708970D1*
X2223013Y5693987D1*
X2146000Y5771000D1*
Y5787000D1*
X1427000Y6005000D2*
X1586000D1*
X1598500Y6017500D1*
X2001530D1*
X2018500Y6000530D1*
Y5887973D1*
Y5692400D1*
X2146000Y5564900D1*
Y5557000D1*
X2337000Y5962000D2*
Y5980530D1*
X2295157Y5988000D1*
X2182877D1*
X2170613Y5975737D1*
Y5940897D1*
X2278000Y5833510D1*
Y5692403D1*
X2251300Y5665700D1*
X2237597Y5652000D1*
X2212000D1*
X2146000Y5586000D1*
Y5557000D1*
X4747000Y9804000D2*
D16*
X4822500Y9797000D1*
D19*
X4932000D1*
X3368500Y6163500D2*
D14*
Y6035000D1*
X3168500Y5835000D1*
X2968500Y6163500D2*
Y6035000D1*
X3168500Y5835000D1*
X2840000Y5885000D2*
X3118500D1*
X3168500Y5835000D1*
X3068500Y5506500D2*
Y5735000D1*
X3168500Y5835000D1*
X3497000Y5585000D2*
X3418500D1*
X3168500Y5835000D1*
X2588000Y2547000D2*
X2788000D1*
X2838000Y2497000D1*
X1416000Y3447000D2*
Y3691000D1*
Y3788600D1*
Y3842090D1*
Y4097000D1*
X4932000Y7106000D2*
X4755000D1*
X4748000Y7113000D1*
X4932000Y8859000D2*
D19*
X4893500D1*
D17*
X4760000D1*
X4755000Y8864000D1*
X4932000Y7961000D2*
D19*
X4843500D1*
D17*
X4766000D1*
X4755000Y7972000D1*
X4932000Y7106000D2*
D19*
X4838500D1*
D17*
X4755000D1*
X4748000Y7113000D1*
X4932000Y6232000D2*
D19*
X4826500D1*
D17*
Y6244000D1*
X4771000D1*
X4770000Y6243000D1*
Y5357000D2*
X4808500D1*
X4815500Y5350000D1*
D19*
X4932000D1*
Y4487000D2*
X4808500D1*
D17*
X4788000D1*
X4769000Y4506000D1*
X4932000Y3663000D2*
D19*
X4899500D1*
D17*
X4778000D1*
X4769000Y3672000D1*
X4932000Y2806000D2*
D19*
X4898500D1*
D17*
X4777000D1*
X4769000Y2814000D1*
X4932000Y1929000D2*
D19*
X4886500D1*
D17*
X4739000D1*
X4724000Y1944000D1*
X4747000Y9804000D2*
X4598000D1*
X4755000Y8864000D2*
X4608000D1*
X4603000Y8859000D1*
X4755000Y7972000D2*
X4590000D1*
X4748000Y7113000D2*
Y7125000D1*
X4591000D1*
X4770000Y6243000D2*
Y6254000D1*
X4631000D1*
X4770000Y5357000D2*
X4560000D1*
X4769000Y4506000D2*
X4560000D1*
X4769000Y3672000D2*
X4617000D1*
X4769000Y2814000D2*
X4617000D1*
X4724000Y1944000D2*
X4617000D1*
X2891000Y4443000D2*
D16*
X2890000D1*
Y4310000D1*
X1416000Y3447000D2*
Y3454000D1*
X1616000D1*
X1416000Y4097000D2*
X1616000D1*
X1752000Y5571000D2*
X1745000D1*
Y5420000D1*
X1976000Y5557000D2*
X1766000D1*
X1752000Y5571000D1*
X1993000Y7165000D2*
X1986000D1*
Y7332000D1*
X2546000Y7890000D2*
X2590000D1*
Y8117000D1*
X2817877Y7628760D2*
Y7836397D1*
X2838000Y2497000D2*
D3*
X2879000Y1904000D2*
X2848000D1*
Y1803000D1*
X3168500Y5835000D2*
D14*
D3*
X1792000Y2191000D2*
D17*
Y2014000D1*
X2017000Y2139000D2*
Y2014000D1*
X2007000D1*
X2998000Y7131000D2*
X3265000D1*
X3267000Y7133000D1*
X3439000D1*
X3457000Y7151000D1*
X2376000Y7369000D2*
D15*
Y7464000D1*
D17*
Y7488000D1*
X2089000D1*
X4455000Y1387000D2*
D19*
Y1454500D1*
D17*
Y1631000D1*
X5592000Y1492000D2*
X5789000D1*
X2840000Y5885000D2*
D14*
X2560000D1*
X2466000Y5791000D1*
X2414000D1*
X2546000Y7890000D2*
D16*
X2764273D1*
X2817877Y7836397D1*
Y7628760D2*
X2912000D1*
Y7742273D1*
X2817877Y7836397D1*
X2891000Y4443000D2*
X2726000D1*
Y4310000D1*
X2890000D1*
X2891000Y4443000D2*
X3051000D1*
X3100000D1*
X3111000D1*
X3380000D1*
X2879000Y1904000D2*
X3012000D1*
Y1803000D1*
X2848000D1*
X2590000Y8117000D2*
Y8413000D1*
Y9663000D1*
X3496000D1*
Y9804000D1*
X3994230D1*
X4598000D1*
X1416000Y4097000D2*
X1196000D1*
Y3452000D1*
X1411000D1*
X1416000Y3447000D1*
Y4097000D2*
Y3447000D1*
X1616000Y3454000D2*
Y3107000D1*
X3468000Y6743000D2*
Y7151000D1*
D17*
X3457000D1*
D16*
Y7180000D1*
X3496000Y7219000D1*
Y9663000D1*
X2590000Y8117000D2*
D3*
X3111000Y4583000D2*
Y4443000D1*
X3100000D2*
Y3959000D1*
X3088000Y3947000D1*
X3380000Y4443000D2*
X3534000D1*
Y4310000D1*
X3442000D1*
X1792000Y2191000D2*
X1597000D1*
X1557000Y2151000D1*
Y1897000D1*
X1745000Y5420000D2*
X1372000D1*
X4005000Y5358000D2*
D14*
Y5446000D1*
X3935000Y5516000D1*
X3594000D1*
X3525000Y5585000D1*
X3497000D1*
X2524000Y8620000D2*
Y8479000D1*
X2590000Y8413000D1*
X2016000Y8620000D2*
D16*
Y8658000D1*
X1508000D1*
Y8620000D1*
X1457000D1*
Y9154000D1*
X1508000D1*
D14*
X1966000D1*
Y9143000D1*
X1508000Y9154000D2*
X1507000Y9662000D1*
X1965000D1*
Y9649000D1*
Y10181000D1*
X1968000D1*
X2524000D1*
Y10171000D1*
D16*
X3027000D1*
D14*
Y10165000D1*
X3538000D1*
Y10169000D1*
Y9636000D1*
X3488000D1*
Y9135000D1*
X3500000D1*
Y9158000D1*
X4048000D1*
Y9128000D1*
Y8620000D1*
Y8112000D1*
Y7604000D1*
Y7124000D1*
X3540000Y8112000D2*
X4048000D1*
X3540000Y8620000D2*
D16*
Y8642000D1*
X4048000D1*
Y8620000D1*
X3540000D2*
Y8650000D1*
X3032000D1*
Y8620000D1*
Y8112000D2*
Y8620000D1*
D14*
Y9128000D1*
Y9661000D1*
X3021000D1*
X3032000Y9128000D2*
Y9151000D1*
X2524000D1*
Y9128000D1*
X2016000Y8620000D2*
D16*
Y8651000D1*
X2524000D1*
Y8620000D1*
X3540000Y3032000D2*
Y3540000D1*
Y3032000D2*
Y2524000D1*
D14*
Y2016000D1*
X2006000Y1763000D2*
Y1455000D1*
X2026000D1*
X3538000Y10169000D2*
D16*
X3986000D1*
X2524000Y9668000D2*
X1946000D1*
X1965000Y9649000D1*
X3540000Y1508000D2*
Y2016000D1*
Y2524000D1*
Y1508000D2*
X2912000D1*
X2848000Y1572000D1*
Y1803000D1*
X2912000Y1508000D2*
X2889000Y1531000D1*
X2026000D1*
Y1455000D1*
Y1763000D1*
X2006000D1*
X2007000D1*
Y2014000D1*
X3540000Y3540000D2*
Y3947000D1*
X3088000D1*
X3540000D2*
X3534000Y4310000D1*
X2890000D2*
D3*
X3111000Y4583000D2*
X3205283D1*
Y4310000D1*
X2890000D1*
X3111000Y4583000D2*
X3051000D1*
Y4443000D1*
X4048000Y7124000D2*
Y7604000D1*
Y8112000D1*
Y8620000D1*
Y9128000D1*
Y9151000D1*
X3500000D1*
Y9135000D1*
X3511000D1*
Y9636000D1*
X3488000D1*
X4048000Y9128000D2*
Y9750230D1*
X3994230Y9804000D1*
X3538000Y10169000D2*
Y9819470D1*
X3522530Y9804000D1*
X3496000D1*
X3538000Y10169000D2*
X3027000D1*
Y10165000D1*
X2524000Y10171000D2*
X1968000D1*
Y10181000D1*
Y9649000D1*
X1965000D1*
Y9143000D1*
X1966000D1*
Y9154000D1*
X1508000D1*
X1448170D1*
Y9662000D1*
X1507000D1*
X1965000D1*
Y9649000D1*
X1966000Y9143000D2*
X1968000D1*
Y8620000D1*
X2016000D1*
X3032000Y9128000D2*
Y8620000D1*
Y8650000D2*
X2524000D1*
Y8620000D1*
X3032000Y9128000D2*
Y9154000D1*
X2524000D1*
Y9128000D1*
X3032000D2*
Y9146000D1*
X3511000D1*
X3500000Y9135000D1*
X3032000Y9128000D2*
Y9661000D1*
X3021000D1*
X3540000Y8112000D2*
Y8136000D1*
X3032000D1*
Y8112000D1*
Y8147533D1*
X2590000D1*
Y8117000D1*
X3540000Y8136000D2*
X4048000D1*
Y8112000D1*
X2846000Y3705000D2*
X3074000D1*
D20*
X3209000Y3570000D1*
D16*
X3510000D1*
X3540000Y3540000D1*
X3534000Y4591000D2*
X3717000D1*
X3818000Y4490000D1*
Y3628000D1*
X3760000Y3570000D1*
X3540000D1*
Y3540000D1*
X2588000Y2547000D2*
D14*
X2509000D1*
X2443000Y2613000D1*
X1616000Y4097000D2*
D16*
Y3842090D1*
Y3788600D1*
Y3698310D1*
Y3454000D1*
X1416000Y3788600D2*
X1616000D1*
X1416000Y3842090D2*
X1616000D1*
X1416000Y3691000D2*
X1616000Y3698310D1*
X3868000Y6095000D2*
D14*
X3858000Y6085000D1*
X3497000D1*
X3218500Y5506500D2*
Y5410500D1*
X3735000Y4894000D1*
Y4805000D1*
X3957000Y4583000D1*
Y2427000D1*
X4265000Y2119000D1*
X4347000D1*
X3268500Y5506500D2*
Y5417500D1*
X3774000Y4912000D1*
Y4832000D1*
X4010000Y4596000D1*
Y3223000D1*
X4250000Y2983000D1*
X4355000D1*
X3497000Y5685000D2*
X4043000D1*
X4268000Y5460000D1*
Y5129000D1*
X4212000Y3842000D2*
Y3845000D1*
X4350000D1*
X4355000Y3850000D1*
X3418500Y5506500D2*
Y5486500D1*
X3670000Y5235000D1*
X4064000D1*
X4137000Y5162000D1*
Y4770000D1*
X4205000Y4702000D1*
X4325000D1*
X4334000Y4693000D1*
X3497000Y5735000D2*
X4409000D1*
X4180000Y9980000D2*
X4360000D1*
X4355000Y9975000D1*
X3497000Y5785000D2*
X4345000D1*
X4437000Y5877000D1*
X4350000Y8875000D2*
Y9039000D1*
X4355000Y9034000D1*
X3497000Y5835000D2*
X4264000D1*
X4553000Y6124000D1*
Y6151000D1*
X4360000Y7980000D2*
X4355000Y7985000D1*
Y8141000D1*
X3497000Y5885000D2*
X4191000D1*
X4452000Y6146000D1*
Y6281000D1*
X4363000Y7116000D2*
X4368000D1*
Y7280000D1*
X4355000Y7293000D1*
X3497000Y5935000D2*
X4095000D1*
X4370000Y6210000D1*
Y6410000D1*
X4348000Y5531000D2*
Y5043000D1*
X4244000Y4939000D1*
X2864000Y5363000D2*
Y5394000D1*
X2918500Y5448500D1*
Y5506500D1*
X2840000Y6085000D2*
Y6129000D1*
X2770000Y6199000D1*
X4914000Y1207000D2*
X5103000D1*
X5106000Y1210000D1*
X3032000Y6570000D2*
Y6328000D1*
X3068500Y6291500D1*
Y6163500D1*
X3118500D2*
Y6331500D1*
X3256000Y6469000D1*
Y6570000D1*
X2840000Y5585000D2*
Y5469000D1*
X2423000Y5052000D1*
X1679000D1*
X1563000Y4936000D1*
X2840000Y5635000D2*
X2789000D1*
X2770000Y5616000D1*
Y5458000D1*
X2449000Y5137000D1*
X2346000D1*
X2163000Y5320000D1*
X1947000D1*
X1817000Y5190000D1*
X6786000Y10258000D2*
X7430000D1*
X7483000Y10205000D1*
X7983000D2*
D18*
X7483000D1*
X6939000Y1415000D2*
D17*
X6845000D1*
X6816000Y1386000D1*
X6724000D1*
X7410533Y5011700D2*
D21*
Y4795000D1*
D18*
X7789000D1*
X7870813Y4876813D1*
X7990000Y4996000D1*
Y6271300D1*
X8005000Y6256300D1*
D16*
X7695000D1*
D21*
Y6533133D1*
Y6810000D1*
D16*
X8005000D1*
D18*
Y8465000D1*
X7495953Y8974047D1*
X8005000Y6810000D2*
X7990000Y6533133D1*
X8005000Y6256300D1*
X7695000Y6533133D2*
D16*
X7990000D1*
X7787477Y8682523D2*
D22*
X7509000Y8391000D1*
X7906000Y8564000D2*
D18*
X7581907Y8268907D1*
X7509000Y8185093D1*
X7698000Y8771000D2*
X7509000Y8597960D1*
X7483000Y10205000D2*
X7295000D1*
X6984000Y9894000D1*
Y9740000D1*
X7695000Y6810000D2*
D21*
Y7044000D1*
D18*
X7838920Y7187920D1*
X7695000Y6810000D2*
D21*
Y7032000D1*
D18*
X7539080Y7187920D1*
X6786000Y10258000D2*
D23*
X6878500D1*
D16*
X7430000D1*
X7483000Y10205000D1*
X7092000Y5011700D2*
Y4273000D1*
X7410533Y5011700D2*
X7092000D1*
X7410533D2*
X7553300D1*
X7688187Y4876813D1*
X7870813D1*
X7983000Y10205000D2*
X7483000D1*
X7983000D2*
X8130000D1*
Y10026000D1*
X2588000Y2447000D2*
D14*
X2408000D1*
X2330000Y2369000D1*
X2187000D1*
Y2623000D1*
X2142000Y2668000D1*
X1427000D1*
Y2603000D2*
X2062000D1*
X2107000Y2558000D1*
Y2304000D1*
X2187000Y2224000D1*
Y2139000D1*
X2588000Y2497000D2*
X2329000D1*
X2308000Y1987000D2*
X2187000Y2108000D1*
Y2139000D1*
X3168500Y5506500D2*
Y5300500D1*
X3379000Y5090000D1*
Y4964000D1*
X3380000Y4613000D2*
Y4963000D1*
X3379000Y4964000D1*
X2896400D2*
Y5074400D1*
X3118500Y5296500D1*
Y5506500D1*
X2891000Y4613000D2*
Y4958600D1*
X2896400Y4964000D1*
X1969000Y6255000D2*
D16*
X2181000D1*
Y6422000D1*
Y6261000D1*
X6331000Y4009000D2*
Y3501000D1*
X1427000Y5875000D2*
D24*
X1643500D1*
D17*
X1701000D1*
X1752000Y5824000D1*
Y5741000D1*
X6077000Y2659000D2*
D16*
Y3167000D1*
Y3501000D2*
Y4009000D1*
X6323000Y9486000D2*
Y9994000D1*
X6577000D2*
D18*
Y9486000D1*
Y9314000D1*
Y9126000D1*
Y8618000D1*
X6874000Y9314000D2*
X6577000D1*
Y8618000D2*
Y8264000D1*
X6579000D1*
Y7756000D1*
Y7419000D1*
X6580000D1*
Y6911000D1*
Y6574000D1*
X6583000D1*
Y6066000D1*
Y5730000D1*
Y5222000D1*
Y4881000D1*
X6584000Y4880000D1*
Y4372000D1*
Y4010000D1*
X6585000Y4009000D1*
Y3501000D1*
Y3167000D1*
Y2659000D1*
Y2336000D1*
X6583000D1*
Y1828000D1*
X6275000Y10261000D2*
D16*
Y10201000D1*
X6348000Y10128000D1*
X6464000D1*
X6577000Y10015000D1*
Y9994000D1*
X7156000Y1403000D2*
D14*
Y1512000D1*
X7063000Y1605000D1*
X6939000D1*
D19*
Y1672500D1*
D17*
Y1874000D1*
X6075000Y1828000D2*
D16*
Y2336000D1*
X6329000D2*
Y1828000D1*
X4419000Y9482000D2*
D14*
X4649000D1*
X4766000Y9365000D1*
X5163000Y9369000D2*
X5444000D1*
X5561000Y9486000D1*
X5167000Y7546000D2*
X5353000D1*
X5563000Y7756000D1*
X5163000Y8451000D2*
X5394000D1*
X5561000Y8618000D1*
X5190000Y6654000D2*
X5417000D1*
X5543000Y6780000D1*
Y6911000D1*
X5564000D1*
X5155000Y5760000D2*
X5398000D1*
X5540000Y5902000D1*
Y6066000D1*
X5567000D1*
X5132000Y4887000D2*
X5386000D1*
X5555000Y5056000D1*
Y5222000D1*
X5567000D1*
X5201000Y4074000D2*
X5402000D1*
X5564000Y4236000D1*
Y4372000D1*
X5568000D1*
X5198000Y3211000D2*
X5444000D1*
X5561000Y3328000D1*
Y3501000D1*
X5569000D1*
X5237000Y2323000D2*
Y2341000D1*
X5385000D1*
X5560000Y2516000D1*
Y2659000D1*
X5569000D1*
X5298000Y1471000D2*
Y1550000D1*
X5423000Y1675000D1*
Y1778000D1*
X5473000Y1828000D1*
X5567000D1*
X4419000Y8421000D2*
X4732000D1*
X4886000Y8267000D1*
X5100000D1*
X5163000Y8330000D1*
Y8451000D1*
X5167000Y7546000D2*
Y7441000D1*
X5128000Y7402000D1*
X4798000D1*
X4662000Y7538000D1*
X4419000D1*
X5190000Y6654000D2*
Y6543000D1*
X5151000Y6504000D1*
X4920000D1*
X4760000Y6664000D1*
X4419000D1*
X5155000Y5760000D2*
Y5626000D1*
X5143000Y5614000D1*
X4881000D1*
X4743000Y5752000D1*
X4599000D1*
X5132000Y4887000D2*
Y4811000D1*
X5080000Y4759000D1*
X4894000D1*
X4821000Y4832000D1*
X4733000D1*
X4689000Y4876000D1*
X4569000D1*
X5201000Y4074000D2*
Y3941000D1*
X5186000Y3926000D1*
X4940000D1*
X4784000Y4082000D1*
X4419000D1*
X5198000Y3211000D2*
Y3096000D1*
X5167000Y3065000D1*
X4943000D1*
X4784000Y3224000D1*
X4419000D1*
X5237000Y2323000D2*
Y2231000D1*
X5205000Y2199000D1*
X4942000D1*
X4799000Y2342000D1*
X4419000D1*
X5298000Y1471000D2*
Y1388000D1*
X5271000Y1361000D1*
X4965000D1*
X4842000Y1484000D1*
X4717000D1*
X2371000Y6766000D2*
D16*
X2361000D1*
Y6939000D1*
X5162000Y2901000D2*
D19*
X5318500D1*
D16*
X5435000D1*
X5569000Y3035000D1*
Y3167000D1*
X5247000Y2578000D2*
D14*
Y2816000D1*
X5162000Y2901000D1*
X4525000Y2983000D2*
X4768000D1*
X4769000Y2984000D1*
X4920000D1*
X4932000Y2996000D1*
X4649000Y2437000D2*
D16*
X4794000D1*
X4945000Y2588000D1*
X5055000D1*
X5071000Y2572000D1*
Y2323000D1*
X5062000D1*
X4649000Y2437000D2*
D14*
X4794000D1*
X4945000Y2588000D1*
X5077000D1*
Y2578000D1*
X4947000Y1579000D2*
Y1681000D1*
X4978000Y1712000D1*
X5110000D1*
X4947000Y1579000D2*
Y1487000D1*
X4963000Y1471000D1*
X5123000D1*
X2219000Y2805000D2*
D16*
X2031000D1*
X2030000Y2804000D1*
X2452000Y3287000D2*
Y2859000D1*
X2398000Y2805000D1*
X2219000D1*
X7983000Y9824000D2*
D18*
X7483000D1*
X7453000D1*
X7283200Y9654200D1*
Y9314000D1*
X6331000Y3167000D2*
D16*
Y2659000D1*
X5569000Y4009000D2*
Y3845000D1*
X5482000Y3758000D1*
X5319500D1*
D19*
X5162000D1*
X5197000Y3461000D2*
D14*
Y3723000D1*
X5162000Y3758000D1*
X4769000Y3842000D2*
X4921000D1*
X4932000Y3853000D1*
X4769000Y3842000D2*
X4533000D1*
X4525000Y3850000D1*
X4649000Y3319000D2*
D16*
X4783000D1*
X4926000Y3462000D1*
X5028000D1*
D14*
Y3211000D1*
X5023000D1*
X4649000Y3319000D2*
X4783000D1*
X4925000Y3461000D1*
X5027000D1*
X6330000Y4372000D2*
D16*
Y4880000D1*
X6076000D2*
Y4372000D1*
X5162000Y4582000D2*
D19*
X5228500D1*
D16*
X5369000D1*
X5568000Y4781000D1*
Y4880000D1*
X5226000Y4334000D2*
D14*
Y4370000D1*
X5162000Y4434000D1*
Y4582000D1*
X4769000Y4676000D2*
X4931000D1*
X4932000Y4677000D1*
X4769000Y4676000D2*
X4504000D1*
Y4693000D1*
X5026000Y4074000D2*
D16*
X5045000D1*
Y4338000D1*
X4927000D1*
X4766000Y4177000D1*
X4649000D1*
D14*
X4766000D1*
X4923000Y4334000D1*
X5056000D1*
X6323000Y8618000D2*
D16*
Y9126000D1*
X6325000Y7756000D2*
Y8264000D1*
X6069000Y9994000D2*
Y9486000D1*
X6329000Y5222000D2*
Y5730000D1*
X5561000Y9994000D2*
X5459000Y9892000D1*
X5264500D1*
D19*
X5162000D1*
X5156000Y9581000D2*
D14*
X5162000D1*
Y9892000D1*
Y2024000D2*
D19*
X5237813D1*
X5306500D1*
D16*
X5437000D1*
X5567000Y2154000D1*
Y2336000D1*
X5280000Y1712000D2*
D14*
Y1823000D1*
X5237813Y1865187D1*
Y2024000D1*
X4747000Y9974000D2*
X4919000D1*
X4932000Y9987000D1*
X4747000Y9974000D2*
X4526000D1*
X4525000Y9975000D1*
X4517000Y2119000D2*
X4719000D1*
X4724000Y2114000D1*
X4927000D1*
X4932000Y2119000D1*
X1779000Y6255000D2*
D17*
X1798000D1*
D24*
X1736000Y6193000D1*
X1760000D1*
X1702000Y6135000D1*
X1427000D1*
X1823000Y6481000D2*
D17*
Y6299000D1*
X1779000Y6255000D1*
X4649000Y9577000D2*
D19*
X4751500Y9581000D1*
D16*
X4986000D1*
Y9503000D1*
X4988000Y9501000D1*
D23*
Y9369000D1*
X6069000Y9126000D2*
D16*
Y8618000D1*
X5561000Y9126000D2*
X5389000Y8954000D1*
X5313500D1*
D19*
X5162000D1*
X5156000Y8646000D2*
D14*
Y8748000D1*
X5162000Y8754000D1*
Y8954000D1*
X4755000Y9034000D2*
X4917000D1*
X4932000Y9049000D1*
X4755000Y9034000D2*
X4525000D1*
X4649000Y8516000D2*
D16*
X4715000D1*
X4845000Y8646000D1*
X4986000D1*
X4649000Y8516000D2*
D14*
X4772000D1*
X4903000Y8647000D1*
X4979000D1*
D16*
Y8442000D1*
D14*
X4988000Y8451000D1*
X3497000Y5635000D2*
X3599000D1*
X3633000Y5601000D1*
X2918500Y6163500D2*
Y6226500D1*
X2879000Y6266000D1*
Y6295000D1*
X6071000Y8264000D2*
D16*
Y7756000D1*
X6326000Y6911000D2*
Y7419000D1*
X6329000Y6066000D2*
Y6574000D1*
X5162000Y8056000D2*
D19*
X5263500D1*
D16*
X5422000D1*
X5563000Y8197000D1*
Y8264000D1*
X5167000Y7753000D2*
D14*
Y8051000D1*
X5162000Y8056000D1*
X4755000Y8142000D2*
X4923000D1*
X4932000Y8151000D1*
X4755000Y8142000D2*
X4525000D1*
Y8141000D1*
X4649000Y7633000D2*
D16*
X4700000D1*
X4820000Y7753000D1*
X4997000D1*
X4649000Y7633000D2*
X4698000D1*
X4832000Y7767000D1*
X5003000D1*
Y7546000D1*
X4992000D1*
X6072000Y7419000D2*
Y6911000D1*
X5162000Y7201000D2*
D19*
X5258500D1*
D16*
X5443000D1*
X5564000Y7322000D1*
Y7419000D1*
X5181000Y6900000D2*
D14*
Y7018000D1*
X5173000Y7026000D1*
Y7190000D1*
X5162000Y7201000D1*
X4748000Y7283000D2*
X4919000D1*
X4932000Y7296000D1*
X4748000Y7283000D2*
X4535000D1*
X4525000Y7293000D1*
X4649000Y6759000D2*
D16*
X4726000D1*
X4867000Y6900000D1*
X5011000D1*
X4726000Y6759000D2*
X4863000Y6896000D1*
X5015000D1*
Y6654000D1*
X6075000Y6574000D2*
Y6066000D1*
X5162000Y6327000D2*
D19*
X5246500D1*
D16*
Y6339000D1*
X5439000D1*
X5567000Y6467000D1*
Y6574000D1*
X5158000Y6027000D2*
D14*
Y6323000D1*
X5162000Y6327000D1*
X4770000Y6413000D2*
X4923000D1*
X4932000Y6422000D1*
X4770000Y6413000D2*
X4543000D1*
X4540000Y6410000D1*
X4829000Y5847000D2*
Y5843000D1*
X4896000D1*
X4937000Y5802000D1*
X4995000D1*
Y6034000D1*
X4988000Y6027000D1*
X4980000Y5760000D2*
X5011000D1*
X4991000Y5780000D1*
Y5805000D1*
X4933000D1*
X4891000Y5847000D1*
X4829000D1*
X6075000Y5730000D2*
D16*
Y5222000D1*
X5162000Y5445000D2*
D19*
X5235500D1*
D16*
X5372000D1*
X5567000Y5640000D1*
Y5730000D1*
X5136000Y5129000D2*
D14*
Y5419000D1*
X5162000Y5445000D1*
X4770000Y5527000D2*
X4522000D1*
X4518000Y5531000D1*
X4770000Y5527000D2*
X4919000D1*
X4932000Y5540000D1*
X4799000Y4971000D2*
D16*
Y5075000D1*
X4853000Y5129000D1*
X4966000D1*
X4799000Y4971000D2*
Y5081000D1*
X4855000Y5137000D1*
X4957000D1*
Y4887000D1*
X6442000Y1492000D2*
D14*
X6691000D1*
X6709000Y1510000D1*
X7410533Y5288533D2*
X7116533D1*
X6941000Y5113000D1*
Y2087000D1*
X6829000Y1975000D1*
Y1545000D1*
X6794000Y1510000D1*
X6709000D1*
X3032000Y6740000D2*
Y6922000D1*
X2998000Y6956000D1*
X3256000Y6740000D2*
Y6731000D1*
X3267000D1*
Y6958000D1*
X2840000Y5835000D2*
X2708000D1*
X2674000Y5801000D1*
X2606000D1*
X3018500Y6163500D2*
Y6268500D1*
X2868000Y6419000D1*
Y6669000D1*
X2840000Y5935000D2*
X2507000D1*
Y5962000D1*
X2840000Y5985000D2*
X2636000D1*
X2502000Y6119000D1*
X1866000Y4097000D2*
Y3447000D1*
Y4097000D2*
Y4469000D1*
X1875000Y4478000D1*
X6442000Y1238000D2*
X7151000D1*
X7156000Y1233000D1*
X5592000Y1238000D2*
X5304000D1*
X5276000Y1210000D1*
X4685000Y1292000D2*
X5194000D1*
X5276000Y1210000D1*
X4268000Y1370000D2*
X4282000D1*
X4360000Y1292000D1*
X4685000D1*
X6611000Y10258000D2*
X6448000D1*
X6445000Y10261000D1*
X2720000Y3018000D2*
Y2899000D1*
X2788000Y2831000D1*
Y2747000D1*
X2838000D2*
Y2833000D1*
X2921000Y2916000D1*
Y3032000D1*
X2588000Y2347000D2*
Y2265000D1*
X2606000Y2247000D1*
X2688000D1*
X2588000Y2265000D2*
D16*
X2553000D1*
X2514000Y2226000D1*
X1840000Y2804000D2*
D17*
Y2772000D1*
D24*
X1572000D1*
X1533000Y2733000D1*
X1427000D1*
X1997000Y2369000D2*
D25*
Y2518000D1*
X1840000Y2804000D2*
D17*
Y3046000D1*
X1427000Y2473000D2*
D24*
X1673000D1*
X1739000Y2407000D1*
D14*
X1792000Y2354000D1*
Y2361000D1*
X2838000Y2247000D2*
Y2115000D1*
X2879000Y2074000D1*
X2588000Y2397000D2*
X2512000D1*
X2464000Y2349000D1*
X2684000Y2054000D2*
Y2066000D1*
X2738000Y2120000D1*
Y2247000D1*
X2647877Y7628760D2*
X2471260D1*
X2471000Y7629020D1*
X2620877Y7439760D2*
X2489760D1*
X2471000Y7421000D1*
Y7369000D1*
X2351000Y6422000D2*
D16*
X2390000D1*
X2486000Y6326000D1*
X2219253Y6766000D2*
X2126000D1*
D26*
X2048000Y6844000D1*
X1988000D1*
X1684000D1*
D16*
X1664000Y6824000D1*
X1717000D1*
X2273000Y7165000D2*
Y7251000D1*
X2281000Y7259000D1*
D15*
Y7369000D1*
X2790877Y7439760D2*
D17*
Y7324877D1*
X2706000Y7240000D1*
X2399000D1*
X2273000Y7114000D1*
Y7165000D1*
X2219253Y6766000D2*
Y7024253D1*
X2273000Y7078000D1*
Y7165000D1*
X2219000Y2975000D2*
D16*
Y3616000D1*
X2330000Y3727000D1*
X2452000D1*
X1713000Y7962000D2*
D18*
X1428000D1*
X2452000Y3984000D2*
Y3727000D1*
X1404500Y5675000D2*
D16*
X1204500D1*
X1159500Y5630000D1*
X1404500Y6335000D2*
X1204500D1*
X1159500Y6380000D1*
X1404500Y2273000D2*
D17*
X1204500D1*
X1159500Y2228000D1*
X1404500Y2933000D2*
X1204500D1*
X1159500Y2978000D1*
X2968500Y5506500D2*
D14*
X2964000D1*
Y5435000D1*
X2942000Y5413000D1*
Y5331000D1*
X2882000Y5271000D1*
X2693000D1*
X2358000Y4936000D1*
X2071000D1*
X1875000Y4648000D2*
X2078000D1*
X2080000Y4650000D1*
Y4927000D1*
X2071000Y4936000D1*
X2450000Y5249000D2*
X2491000D1*
X2725000Y5483000D1*
Y5639000D1*
X2771000Y5685000D1*
X2840000D1*
X1956000Y5787000D2*
D24*
X1948000D1*
Y5888000D1*
X1931000Y5905000D1*
Y5928000D1*
X2373000Y5486000D2*
D16*
Y5672000D1*
X1988000Y6504000D2*
D26*
Y6570000D1*
D16*
Y6673000D1*
X1717000Y7164000D2*
D26*
Y7254000D1*
D16*
Y7518000D1*
X1713000Y7522000D1*
X2840000Y5785000D2*
D27*
X2744000D1*
X2730000Y5771000D1*
D17*
X2631000Y5672000D1*
X2543000D1*
D22*
X2706000Y6084000D3*
X3029000Y5395000D3*
X3522000Y6369000D3*
X2029000Y7890000D3*
X3709000Y6562000D3*
X2612000Y6545000D3*
D3*
X3779000Y5320000D3*
Y1200000D3*
Y5320000D3*
X2281000Y4480000D3*
X2684000Y1716000D3*
X3779000Y1200000D3*
X3069710Y3399007D3*
X2983723Y3484993D3*
X4598000Y9804000D3*
X4603000Y8859000D3*
X4590000Y7972000D3*
X4591000Y7125000D3*
X4631000Y6254000D3*
X4560000Y5357000D3*
Y4506000D3*
Y5357000D3*
X4617000Y3672000D3*
X4560000Y4506000D3*
X4617000Y2814000D3*
Y3672000D3*
Y1944000D3*
Y2814000D3*
X2890000Y4310000D3*
X1616000Y3454000D3*
X4617000Y3672000D3*
X1616000Y4097000D3*
Y3454000D3*
X2890000Y4310000D3*
X1745000Y5420000D3*
X1986000Y7332000D3*
X2590000Y8117000D3*
X2817877Y7836397D3*
X2838000Y2497000D3*
X2848000Y1803000D3*
X2838000Y2497000D3*
X3239000Y5835000D3*
X1792000Y2014000D3*
X2007000D3*
X3457000Y7151000D3*
X3468000Y6743000D3*
X3239000Y5835000D3*
X2376000Y7488000D3*
X2089000D3*
X1745000Y5420000D3*
X2614000Y5547000D3*
X4455000Y1631000D3*
X4617000Y1944000D3*
X5789000Y1492000D3*
X4455000Y1631000D3*
X2838000Y2497000D3*
X2007000Y2014000D3*
X3239000Y5835000D3*
X2614000Y5547000D3*
D3*
X3239000Y5835000D3*
X2414000Y5791000D3*
X1745000Y5420000D3*
D3*
X1616000Y3454000D3*
Y4097000D3*
Y3454000D3*
X1792000Y2014000D3*
X1616000Y4097000D3*
D3*
Y3454000D3*
Y4097000D3*
Y3107000D3*
X3468000Y6743000D3*
X2590000Y8413000D3*
Y8117000D3*
Y8413000D3*
Y8117000D3*
D3*
X2817877Y7836397D3*
D3*
X2376000Y7488000D3*
D3*
X2089000D3*
D3*
X1986000Y7332000D3*
X3457000Y7151000D3*
D3*
X2817877Y7836397D3*
X4560000Y5357000D3*
X3111000Y4583000D3*
X2890000Y4310000D3*
X3088000Y3947000D3*
X2890000Y4310000D3*
X3088000Y3947000D3*
D3*
X2890000Y4310000D3*
D3*
X2726000D3*
X2590000Y8413000D3*
X2838000Y2497000D3*
X1557000Y1897000D3*
X1792000Y2014000D3*
X1372000Y5420000D3*
X3986000Y10169000D3*
D3*
X2524000Y9668000D3*
X1986000Y7332000D3*
X4560000Y4506000D3*
Y5357000D3*
Y4506000D3*
X4617000Y3672000D3*
D3*
Y2814000D3*
D3*
Y1944000D3*
D3*
X4455000Y1631000D3*
X2848000Y1803000D3*
X2007000Y2014000D3*
X3534000Y4310000D3*
X3111000Y4583000D3*
D3*
X2590000Y8117000D3*
Y8413000D3*
X3534000Y4310000D3*
D3*
X2846000Y3705000D3*
X3088000Y3947000D3*
X3534000Y4591000D3*
X2443000Y2613000D3*
X2838000Y2497000D3*
X3868000Y6095000D3*
X4268000Y5129000D3*
X4212000Y3842000D3*
X4409000Y5735000D3*
X4180000Y9980000D3*
X4437000Y5877000D3*
X4350000Y8875000D3*
X4553000Y6151000D3*
X4360000Y7980000D3*
X4452000Y6281000D3*
X4363000Y7116000D3*
X4244000Y4939000D3*
X2864000Y5363000D3*
X2770000Y6199000D3*
X4914000Y1207000D3*
X6724000Y1386000D3*
X7495953Y8974047D3*
D3*
D3*
D3*
D3*
X7787477Y8682523D3*
X7906000Y8564000D3*
D3*
X7787477Y8682523D3*
X7906000Y8564000D3*
X7495953Y8974047D3*
X7787477Y8682523D3*
X7906000Y8564000D3*
X7495953Y8974047D3*
X6984000Y9740000D3*
X7838920Y7187920D3*
X7539080D3*
X7838920D3*
X7092000Y5011700D3*
Y4273000D3*
Y5011700D3*
D3*
X8130000Y10026000D3*
X2329000Y2497000D3*
X2308000Y1987000D3*
X2181000Y6261000D3*
X6939000Y1874000D3*
X4766000Y9365000D3*
X2361000Y6939000D3*
X1823000Y6481000D3*
X3633000Y5601000D3*
X2879000Y6295000D3*
X3633000Y5601000D3*
X2606000Y5801000D3*
X2868000Y6669000D3*
X2514000Y2226000D3*
X2142000Y2004000D3*
X1997000Y2518000D3*
X1840000Y3046000D3*
X2464000Y2349000D3*
X2486000Y6326000D3*
X1428000Y7962000D3*
X2452000Y3984000D3*
X2450000Y5249000D3*
X1931000Y5928000D3*
X2373000Y5486000D3*
X1988000Y6673000D3*
D3*
X1931000Y5928000D3*
X7599000Y8873000D3*
X7698000Y8771000D3*
X2524000Y8620000D3*
X2016000D3*
X3032000D3*
Y8112000D3*
Y9128000D3*
X2524000D3*
X1966000Y9143000D3*
X1508000Y9154000D3*
Y8620000D3*
X3540000Y3032000D3*
Y2524000D3*
Y2016000D3*
Y1508000D3*
X2026000Y1455000D3*
X2006000Y1763000D3*
X3540000Y3540000D3*
X3021000Y9661000D3*
X3027000Y10165000D3*
X2524000Y10171000D3*
X1968000Y10181000D3*
X1965000Y9649000D3*
X1507000Y9662000D3*
X3538000Y10169000D3*
X3488000Y9636000D3*
X3500000Y9135000D3*
X3540000Y8620000D3*
Y8112000D3*
X4048000Y9128000D3*
Y8620000D3*
Y8112000D3*
Y7604000D3*
Y7124000D3*
X1648743Y10244250D2*
D28*
X5461890D1*
X1687937Y10117250D2*
X4126603D1*
X4897637D2*
X5461890D1*
X1666243Y9990250D2*
X4028897D1*
X1138147Y9863250D2*
X1240290D1*
X1559697D2*
X4087503D1*
X1138147Y9736250D2*
X4265877D1*
X1138147Y9609250D2*
X4265877D1*
X1138147Y9482250D2*
X4265877D1*
X1138147Y9355250D2*
X4265877D1*
X4572157D2*
X4614873D1*
X1138147Y9228250D2*
X4711123D1*
X5306153D2*
X5452867D1*
X1138147Y9101250D2*
X4199340D1*
X5085123D2*
X5325810D1*
X1138147Y8974250D2*
X4199340D1*
X1138147Y8847250D2*
X4201253D1*
X1138147Y8720250D2*
X4265877D1*
X1138147Y8593250D2*
X4265877D1*
X1138147Y8466250D2*
X4265877D1*
X1138147Y8339250D2*
X4265877D1*
X1138147Y8212250D2*
X4199340D1*
X1138147Y8085250D2*
X1271460D1*
X1933667D2*
X4199340D1*
X1138147Y7958250D2*
X1227437D1*
X2746597D2*
X4210187D1*
X1138147Y7831250D2*
X1277933D1*
X2746597D2*
X4265877D1*
X1138147Y7704250D2*
X1492400D1*
X1933667D2*
X1965720D1*
X2973550D2*
X4265877D1*
X1138147Y7577250D2*
X1492400D1*
X1933667D2*
X2152840D1*
X2973550D2*
X4265877D1*
X1138147Y7450250D2*
X1492400D1*
X1933667D2*
X2152840D1*
X2946480D2*
X4265877D1*
X1138147Y7323250D2*
X1492400D1*
X1933667D2*
X2141720D1*
X2946480D2*
X4199340D1*
X1138147Y7196250D2*
X1536330D1*
X3437663D2*
X4199340D1*
X1138147Y7069250D2*
X1536330D1*
X3437663D2*
X4219300D1*
X1138147Y6942250D2*
X1536330D1*
X3437663D2*
X4265877D1*
X1138147Y6815250D2*
X1513637D1*
X3406673D2*
X4265877D1*
X1138147Y6688250D2*
X1608700D1*
X1772247D2*
X1837387D1*
X3406673D2*
X3631137D1*
X3786843D2*
X4265877D1*
X1325177Y6561250D2*
X1695747D1*
X3406673D2*
X3557580D1*
X3860397D2*
X4265877D1*
X1575100Y6434250D2*
X1679340D1*
X3784110D2*
X4214377D1*
X1575100Y6307250D2*
X1613350D1*
X3248080D2*
X3316590D1*
X3659603D2*
X4214377D1*
X3991740Y6180250D2*
X4186397D1*
X4013340Y6053250D2*
X4059430D1*
X1138147Y5418250D2*
X1578897D1*
X1138147Y5291250D2*
X1402620D1*
X1138147Y5164250D2*
X1374183D1*
X2740123D2*
X2832423D1*
X1138147Y5037250D2*
X1402620D1*
X2613067D2*
X2753127D1*
X3039630D2*
X3235747D1*
X1138147Y4910250D2*
X1374183D1*
X2486100D2*
X2744377D1*
X3048380D2*
X3226997D1*
X3530997D2*
X3564873D1*
X1138147Y4783250D2*
X1453570D1*
X1672443D2*
X1707503D1*
X2230620D2*
X2780380D1*
X3001623D2*
X3269377D1*
X3490620D2*
X3626670D1*
X1138147Y4656250D2*
X1724363D1*
X2230620D2*
X2740367D1*
X3041637D2*
X3229363D1*
X3530633D2*
X3729937D1*
X1138147Y4529250D2*
X1724363D1*
X2423850D2*
X2740367D1*
X3041637D2*
X3229363D1*
X3530633D2*
X3846330D1*
X1138147Y4402250D2*
X1724363D1*
X2409813D2*
X2740367D1*
X3041637D2*
X3229363D1*
X3530633D2*
X3846330D1*
X1138147Y4275250D2*
X1293700D1*
X1538277D2*
X1743687D1*
X1988263D2*
X3846330D1*
X1138147Y4148250D2*
X1226070D1*
X1605907D2*
X1676057D1*
X2055893D2*
X2341877D1*
X2562117D2*
X3846330D1*
X1138147Y4021250D2*
X1229900D1*
X1602077D2*
X1679887D1*
X2052063D2*
X2254923D1*
X2649070D2*
X3846330D1*
X1138147Y3894250D2*
X1333350D1*
X1498627D2*
X1755353D1*
X1976597D2*
X2231317D1*
X2672677D2*
X3846330D1*
X1138147Y3767250D2*
X1755353D1*
X1976597D2*
X2159860D1*
X2672677D2*
X3846330D1*
X1138147Y3640250D2*
X1315210D1*
X1516767D2*
X1755353D1*
X1976597D2*
X2070447D1*
X2672677D2*
X3846330D1*
X1138147Y3513250D2*
X1227983D1*
X1603993D2*
X1678063D1*
X2672677D2*
X2834613D1*
X3165503D2*
X3846330D1*
X1138147Y3386250D2*
X1227163D1*
X1604813D2*
X1677150D1*
X3220553D2*
X3846330D1*
X1138147Y3259250D2*
X1306553D1*
X1525423D2*
X1756540D1*
X1975410D2*
X2068350D1*
X3115007D2*
X3846330D1*
X1325177Y3132250D2*
X1716983D1*
X1963017D2*
X2068350D1*
X3071623D2*
X3846330D1*
X1575100Y3005250D2*
X1694377D1*
X1985620D2*
X2045837D1*
X3071623D2*
X3846330D1*
X3028693Y2878250D2*
X3846330D1*
X3154657Y2751250D2*
X3846330D1*
X3228757Y2624250D2*
X3846330D1*
X3231127Y2497250D2*
X3846330D1*
X3228667Y2370250D2*
X3863193D1*
X1575100Y2243250D2*
X1618817D1*
X2317663D2*
X2358283D1*
X3156207D2*
X3986877D1*
X1575100Y2116250D2*
X1618817D1*
X2380280D2*
X2412790D1*
X3030150D2*
X4113937D1*
X1138147Y1989250D2*
X1991330D1*
X2459397D2*
X2533377D1*
X3029603D2*
X4191317D1*
X1138147Y1862250D2*
X2104717D1*
X2179303D2*
X2227580D1*
X2388393D2*
X2533377D1*
X3029603D2*
X4573400D1*
X1138147Y1735250D2*
X2533377D1*
X2834643D2*
X4563830D1*
X1138147Y1608250D2*
X1210120D1*
X1689850D2*
X2580497D1*
X2787520D2*
X4563830D1*
X1736700Y1481250D2*
X4117400D1*
X1138147Y1354250D2*
X1178310D1*
X1721660D2*
X4117400D1*
X1138147Y1227250D2*
X1270550D1*
X1629420D2*
X3630133D1*
X1258750Y9849517D2*
Y8063727D1*
Y7860257D2*
Y6595640D1*
Y5414360D2*
Y4234417D1*
Y3959580D2*
Y3584457D1*
Y3309530D2*
Y3193623D1*
Y2012340D2*
Y1663740D1*
Y1236327D2*
Y1141110D1*
X1385750Y9811963D2*
Y8157970D1*
Y7766013D2*
Y6510600D1*
Y5499400D2*
Y5246773D1*
Y5133173D2*
Y4992840D1*
Y4879243D2*
Y4320183D1*
Y3873903D2*
Y3670133D1*
Y3223853D2*
Y3108673D1*
Y2097380D2*
Y1731003D1*
X1512750Y9835113D2*
Y8182670D1*
Y7301353D2*
Y6510600D1*
Y5499400D2*
Y5373647D1*
Y4752367D2*
Y4295210D1*
Y3898787D2*
Y3645160D1*
Y3248827D2*
Y3108673D1*
Y2097380D2*
Y1731370D1*
X1639750Y10364853D2*
Y10254963D1*
Y9945037D2*
Y8182670D1*
Y7023357D2*
Y6987660D1*
Y6675453D2*
Y6430667D1*
Y5410350D2*
Y5363897D1*
Y4762120D2*
Y2892660D1*
Y2030387D2*
Y1665107D1*
Y1234960D2*
Y1141110D1*
X1766750Y10364853D2*
Y8182670D1*
Y7023357D2*
Y6984650D1*
Y6682197D2*
Y6621070D1*
Y5410350D2*
Y5373647D1*
Y3250377D2*
Y3177580D1*
Y2030387D2*
Y1141110D1*
X1893750Y10364853D2*
Y8182670D1*
Y3223487D2*
Y3187150D1*
Y1988370D2*
Y1141110D1*
X2020750Y10364853D2*
Y8090433D1*
Y7689543D2*
Y7325627D1*
Y4324347D2*
Y4238427D1*
Y3955570D2*
Y3588467D1*
Y3305610D2*
Y2979613D1*
Y1918007D2*
Y1141110D1*
X2147750Y10364853D2*
Y8090613D1*
Y7677330D2*
Y7329000D1*
Y4324347D2*
Y3755170D1*
Y1852653D2*
Y1141110D1*
X2274750Y10364853D2*
Y8090433D1*
Y4825377D2*
Y4631267D1*
Y4328720D2*
Y4069897D1*
Y1839437D2*
Y1141110D1*
X2401750Y10364853D2*
Y8050600D1*
Y4834947D2*
Y4566827D1*
Y4393253D2*
Y4177997D1*
Y1869880D2*
Y1141110D1*
X2528750Y10364853D2*
Y8050600D1*
Y4952887D2*
Y4168883D1*
Y2075323D2*
Y1141110D1*
X2655750Y10364853D2*
Y8050600D1*
Y5079947D2*
Y3947670D1*
Y1567367D2*
Y1141110D1*
X2782750Y10364853D2*
Y7779443D1*
Y5160337D2*
Y5076147D1*
Y4851900D2*
Y4768623D1*
Y4287340D2*
Y3488113D1*
Y1603370D2*
Y1141110D1*
X2909750Y10364853D2*
Y7779443D1*
Y4287340D2*
Y3616173D1*
Y1748383D2*
Y1141110D1*
X3036750Y10364853D2*
Y7274130D1*
Y4891273D2*
Y3626383D1*
Y2115337D2*
Y1141110D1*
X3163750Y10364853D2*
Y7276137D1*
Y5151403D2*
Y3515823D1*
Y3282187D2*
Y2751383D1*
Y2242577D2*
Y1141110D1*
X3290750Y10364853D2*
Y7276137D1*
Y6349880D2*
Y6304337D1*
Y4287340D2*
Y1141110D1*
X3417750Y10364853D2*
Y7276137D1*
Y6814817D2*
Y6476240D1*
Y4287340D2*
Y1141110D1*
X3544750Y10364853D2*
Y6518623D1*
Y4930377D2*
Y1141110D1*
X3671750Y10364853D2*
Y6708570D1*
Y6415413D2*
Y6195600D1*
Y4714450D2*
Y1304077D1*
X3798750Y10364853D2*
Y6682320D1*
Y6441663D2*
Y6228870D1*
Y4587393D2*
Y1350653D1*
X3925750Y10364853D2*
Y6234430D1*
Y2304373D2*
Y1350653D1*
X4052750Y10364853D2*
Y10056083D1*
Y9903930D2*
Y6046577D1*
Y2177407D2*
Y1350653D1*
X4179750Y10364853D2*
Y10131460D1*
Y9828553D2*
Y6173543D1*
Y2050440D2*
Y1525653D1*
X4306750Y10364853D2*
Y10125627D1*
Y9348853D2*
Y9184637D1*
Y1968317D2*
Y1525653D1*
X4433750Y10364853D2*
Y10125627D1*
Y9348853D2*
Y9184637D1*
Y1968317D2*
Y1520183D1*
X4560750Y10364853D2*
Y10125627D1*
Y9348853D2*
Y9184637D1*
Y1968317D2*
Y1520183D1*
X4687750Y10364853D2*
Y10129637D1*
Y9236470D2*
Y9189650D1*
X4814750Y10364853D2*
Y10129637D1*
Y9221977D2*
Y9189650D1*
X4941750Y10364853D2*
Y10120160D1*
X5068750Y10364853D2*
Y10120160D1*
X5195750Y10364853D2*
Y10025183D1*
Y9198370D2*
Y9087113D1*
X5322750Y10364853D2*
Y10042683D1*
Y9258343D2*
Y9104613D1*
X5449750Y10364853D2*
Y10093180D1*
Y9258527D2*
Y9225197D1*
X1681713Y3481943D2*
X1683980Y3510830D1*
X1690730Y3538950D1*
X1701797Y3565667D1*
X1716907Y3590323D1*
X1735687Y3612313D1*
X1757677Y3631093D1*
X1761673Y3633763D1*
X1761710Y3910113D1*
X1746313Y3921863D1*
X1725863Y3942313D1*
X1708867Y3965710D1*
X1695737Y3991477D1*
X1686803Y4018980D1*
X1682277Y4047540D1*
X1681710Y4108667D1*
X1682277Y4146460D1*
X1686803Y4175020D1*
X1695737Y4202523D1*
X1708867Y4228290D1*
X1725863Y4251687D1*
X1746313Y4272137D1*
X1761673Y4283763D1*
X1761710Y4328783D1*
X1730710Y4328710D1*
Y4773150D1*
X1708677Y4786907D1*
X1690050Y4802580D1*
X1671323Y4786907D1*
X1646667Y4771797D1*
X1619950Y4760730D1*
X1591830Y4753980D1*
X1563000Y4751710D1*
X1534170Y4753980D1*
X1506050Y4760730D1*
X1479333Y4771797D1*
X1454677Y4786907D1*
X1432687Y4805687D1*
X1413907Y4827677D1*
X1398797Y4852333D1*
X1387730Y4879050D1*
X1380980Y4907170D1*
X1378710Y4936000D1*
X1380980Y4964830D1*
X1387730Y4992950D1*
X1398797Y5019667D1*
X1413907Y5044323D1*
X1429580Y5062950D1*
X1413907Y5081677D1*
X1398797Y5106333D1*
X1387730Y5133050D1*
X1380980Y5161170D1*
X1378710Y5190000D1*
X1380980Y5218830D1*
X1387730Y5246950D1*
X1398797Y5273667D1*
X1413907Y5298323D1*
X1432687Y5320313D1*
X1454677Y5339093D1*
X1479333Y5354203D1*
X1506050Y5365270D1*
X1534170Y5372020D1*
X1563000Y5374290D1*
X1591830Y5372020D1*
X1619950Y5365270D1*
X1646667Y5354203D1*
X1671323Y5339093D1*
X1689950Y5323420D1*
X1708677Y5339093D1*
X1733333Y5354203D1*
X1760050Y5365270D1*
X1788170Y5372020D1*
X1817000Y5374290D1*
X1845830Y5372020D1*
X1850540Y5371083D1*
X1879270Y5399303D1*
X1892537Y5408937D1*
X1891623Y5412710D1*
X1831710D1*
Y5416703D1*
X1585210Y5416710D1*
X1584803Y5759800D1*
X1583177Y5760713D1*
X1568790Y5750957D1*
Y5505710D1*
X1318777D1*
X1318790Y5420710D1*
X1131667D1*
X1131750Y3187257D1*
X1318790Y3187290D1*
Y3102250D1*
X1568790Y3102290D1*
Y2886183D1*
X1680737Y2886290D1*
X1680710Y2973290D1*
X1710697D1*
X1705953Y2990477D1*
X1698920Y3012130D1*
X1695357Y3034617D1*
Y3057383D1*
X1698920Y3079870D1*
X1705953Y3101523D1*
X1716290Y3121810D1*
X1729673Y3140230D1*
X1745770Y3156327D1*
X1764190Y3169710D1*
X1784477Y3180047D1*
X1806130Y3187080D1*
X1828617Y3190643D1*
X1851383D1*
X1873870Y3187080D1*
X1895523Y3180047D1*
X1915810Y3169710D1*
X1934230Y3156327D1*
X1950327Y3140230D1*
X1963710Y3121810D1*
X1974047Y3101523D1*
X1981080Y3079870D1*
X1984643Y3057383D1*
Y3034617D1*
X1981080Y3012130D1*
X1974047Y2990477D1*
X1969293Y2980170D1*
X1969290Y2973357D1*
X2052183Y2973290D1*
X2052210Y3129290D1*
X2074723D1*
X2075153Y3627320D1*
X2078697Y3649683D1*
X2085693Y3671217D1*
X2095973Y3691390D1*
X2109280Y3709710D1*
X2149970Y3751027D1*
X2236327Y3836747D1*
X2237710Y3839377D1*
Y3941290D1*
X2257670D1*
X2258310Y3999243D1*
X2260103Y4014393D1*
X2263077Y4029357D1*
X2267220Y4044040D1*
X2272500Y4058350D1*
X2278887Y4072207D1*
X2286340Y4085517D1*
X2294817Y4098200D1*
X2304260Y4110180D1*
X2314617Y4121383D1*
X2325820Y4131740D1*
X2337800Y4141183D1*
X2350483Y4149660D1*
X2363793Y4157113D1*
X2377650Y4163500D1*
X2391960Y4168780D1*
X2406643Y4172923D1*
X2421607Y4175897D1*
X2436757Y4177690D1*
X2452000Y4178290D1*
X2467243Y4177690D1*
X2482393Y4175897D1*
X2497357Y4172923D1*
X2512040Y4168780D1*
X2526350Y4163500D1*
X2540207Y4157113D1*
X2553517Y4149660D1*
X2566200Y4141183D1*
X2578180Y4131740D1*
X2589383Y4121383D1*
X2599740Y4110180D1*
X2609183Y4098200D1*
X2617660Y4085517D1*
X2625113Y4072207D1*
X2631500Y4058350D1*
X2636780Y4044040D1*
X2640923Y4029357D1*
X2643897Y4014393D1*
X2645690Y3999243D1*
X2646290Y3941253D1*
X2666290Y3941290D1*
Y3512710D1*
X2363230D1*
X2377710Y3501290D1*
X2666290D1*
Y3337320D1*
X2688457Y3337290D1*
X2688953Y3356423D1*
X2692160Y3372470D1*
X2697837Y3387820D1*
X2705843Y3402090D1*
X2716007Y3414957D1*
X2791223Y3489827D1*
X2804463Y3499447D1*
X2819043Y3506873D1*
X2834640Y3511937D1*
X2842643Y3518863D1*
X2849677Y3540517D1*
X2860013Y3560803D1*
X2873397Y3579223D1*
X2889493Y3595320D1*
X2907913Y3608703D1*
X2928200Y3619040D1*
X2949853Y3626073D1*
X2972340Y3629637D1*
X2995107D1*
X3017593Y3626073D1*
X3039247Y3619040D1*
X3059533Y3608703D1*
X3077953Y3595320D1*
X3094050Y3579223D1*
X3107433Y3560803D1*
X3117770Y3540517D1*
X3119727Y3535213D1*
X3135580Y3528283D1*
X3154993Y3516387D1*
X3172303Y3501600D1*
X3187090Y3484290D1*
X3198987Y3464877D1*
X3207700Y3443843D1*
X3213013Y3421703D1*
X3214800Y3399007D1*
X3213013Y3376310D1*
X3207700Y3354170D1*
X3198987Y3333137D1*
X3187090Y3313723D1*
X3172303Y3296413D1*
X3154993Y3281627D1*
X3135580Y3269730D1*
X3114547Y3261017D1*
X3092407Y3255703D1*
X3069710Y3253917D1*
X3065307Y3254090D1*
X3065290Y2882710D1*
X3019810D1*
X3021773Y2878440D1*
X3037617Y2871877D1*
X3052240Y2862917D1*
X3065280Y2851780D1*
X3076417Y2838740D1*
X3085377Y2824117D1*
X3091940Y2808273D1*
X3095943Y2791597D1*
X3097290Y2774500D1*
Y2766207D1*
X3107290Y2766290D1*
Y2756280D1*
X3124073Y2755953D1*
X3141013Y2753270D1*
X3157323Y2747970D1*
X3172603Y2740187D1*
X3186477Y2730103D1*
X3198603Y2717977D1*
X3208687Y2704103D1*
X3216470Y2688823D1*
X3221770Y2672513D1*
X3224453Y2655573D1*
Y2638427D1*
X3221880Y2622047D1*
X3224453Y2605573D1*
Y2588427D1*
X3221880Y2572047D1*
X3224453Y2555573D1*
Y2538427D1*
X3221880Y2522047D1*
X3224453Y2505573D1*
Y2488427D1*
X3221880Y2472047D1*
X3224453Y2455573D1*
Y2438427D1*
X3221880Y2422047D1*
X3224453Y2405573D1*
Y2388427D1*
X3221880Y2372047D1*
X3224453Y2355573D1*
Y2338427D1*
X3221770Y2321487D1*
X3216470Y2305177D1*
X3208687Y2289897D1*
X3198603Y2276023D1*
X3186477Y2263897D1*
X3172603Y2253813D1*
X3157323Y2246030D1*
X3141013Y2240730D1*
X3124073Y2238047D1*
X3107207Y2237710D1*
X3107290Y2227710D1*
X3097283D1*
X3096953Y2210927D1*
X3094270Y2193987D1*
X3088970Y2177677D1*
X3081187Y2162397D1*
X3071103Y2148523D1*
X3058977Y2136397D1*
X3045103Y2126313D1*
X3029823Y2118530D1*
X3023313Y2116127D1*
X3023290Y1754710D1*
X2828293D1*
X2828643Y1727383D1*
Y1704617D1*
X2825080Y1682130D1*
X2818047Y1660477D1*
X2807710Y1640190D1*
X2794327Y1621770D1*
X2778230Y1605673D1*
X2759810Y1592290D1*
X2739523Y1581953D1*
X2717870Y1574920D1*
X2695383Y1571357D1*
X2672617D1*
X2650130Y1574920D1*
X2628477Y1581953D1*
X2608190Y1592290D1*
X2589770Y1605673D1*
X2573673Y1621770D1*
X2560290Y1640190D1*
X2549953Y1660477D1*
X2542920Y1682130D1*
X2539357Y1704617D1*
Y1727383D1*
X2539710Y1762667D1*
Y2083263D1*
X2525383Y2081357D1*
X2502617D1*
X2480130Y2084920D1*
X2458477Y2091953D1*
X2438190Y2102290D1*
X2419770Y2115673D1*
X2403673Y2131770D1*
X2390290Y2150190D1*
X2379953Y2170477D1*
X2372920Y2192130D1*
X2369357Y2214617D1*
Y2237383D1*
X2369530Y2238843D1*
X2353673Y2254770D1*
X2345210Y2265827D1*
X2330000Y2264710D1*
X2311317D1*
X2311290Y2132080D1*
X2330697Y2130303D1*
X2352837Y2124990D1*
X2373870Y2116277D1*
X2393283Y2104380D1*
X2410593Y2089593D1*
X2425380Y2072283D1*
X2437277Y2052870D1*
X2445990Y2031837D1*
X2451303Y2009697D1*
X2453090Y1987000D1*
X2451303Y1964303D1*
X2445990Y1942163D1*
X2437277Y1921130D1*
X2425380Y1901717D1*
X2410593Y1884407D1*
X2393283Y1869620D1*
X2373870Y1857723D1*
X2352837Y1849010D1*
X2330697Y1843697D1*
X2308000Y1841910D1*
X2285303Y1843697D1*
X2263163Y1849010D1*
X2242130Y1857723D1*
X2222717Y1869620D1*
X2212953Y1877427D1*
X2197523Y1869953D1*
X2175870Y1862920D1*
X2153383Y1859357D1*
X2130617D1*
X2108130Y1862920D1*
X2086477Y1869953D1*
X2066190Y1880290D1*
X2047770Y1893673D1*
X2031673Y1909770D1*
X2018290Y1928190D1*
X2007953Y1948477D1*
X2000920Y1970130D1*
X1997357Y1992617D1*
X1997277Y1994707D1*
X1872710Y1994710D1*
Y2036693D1*
X1625210Y2036710D1*
Y2358650D1*
X1568830Y2358710D1*
X1568790Y2103710D1*
X1318777D1*
X1318790Y2018710D1*
X1131667D1*
X1131750Y1134837D1*
X3649440Y1134750D1*
X3641010Y1155163D1*
X3635697Y1177303D1*
X3633910Y1200000D1*
X3635697Y1222697D1*
X3641010Y1244837D1*
X3649723Y1265870D1*
X3661620Y1285283D1*
X3676407Y1302593D1*
X3693717Y1317380D1*
X3713130Y1329277D1*
X3734163Y1337990D1*
X3756303Y1343303D1*
X3779000Y1345090D1*
X3802333Y1344290D1*
X4123623D1*
X4123710Y1519290D1*
X4412290D1*
Y1513730D1*
X4570217Y1513790D1*
X4570210Y1800790D1*
X4579780D1*
X4579710Y1974723D1*
X4197710Y1974710D1*
X4197270Y2039697D1*
X4125260Y2111253D1*
X3877697Y2359270D1*
X3868077Y2372510D1*
X3860647Y2387090D1*
X3855590Y2402653D1*
X3853030Y2418817D1*
X3852710Y2520333D1*
Y4539850D1*
X3655697Y4737270D1*
X3646077Y4750510D1*
X3638650Y4765090D1*
X3633590Y4780653D1*
X3631030Y4796817D1*
X3630710Y4850847D1*
X3533450Y4948060D1*
X3529960Y4927757D1*
X3522433Y4904590D1*
X3511373Y4882883D1*
X3497053Y4863173D1*
X3484267Y4850053D1*
X3484290Y4762207D1*
X3524290Y4762290D1*
Y4293710D1*
X3235710D1*
Y4762290D1*
X3275723D1*
X3275710Y4848067D1*
X3260947Y4863173D1*
X3246627Y4882883D1*
X3235567Y4904590D1*
X3228040Y4927757D1*
X3224230Y4951820D1*
Y4976180D1*
X3228040Y5000243D1*
X3235567Y5023410D1*
X3246627Y5045117D1*
X3259090Y5062470D1*
X3145483Y5176027D1*
X3023193Y5053703D1*
X3034730Y5034483D1*
X3044050Y5011973D1*
X3049740Y4988287D1*
X3051650Y4964000D1*
X3049740Y4939713D1*
X3044050Y4916027D1*
X3034730Y4893517D1*
X3022000Y4872747D1*
X3006177Y4854223D1*
X2995320Y4844443D1*
X2995290Y4762363D1*
X3035290Y4762290D1*
Y4293710D1*
X2746710D1*
Y4762290D1*
X2786723D1*
X2786623Y4854223D1*
X2770800Y4872747D1*
X2758070Y4893517D1*
X2748750Y4916027D1*
X2743060Y4939713D1*
X2741150Y4964000D1*
X2743060Y4988287D1*
X2748750Y5011973D1*
X2758070Y5034483D1*
X2770800Y5055253D1*
X2786623Y5073777D1*
X2792180Y5078917D1*
X2794990Y5098747D1*
X2800050Y5114310D1*
X2807477Y5128890D1*
X2817097Y5142130D1*
X2841283Y5166770D1*
X2736257Y5166710D1*
X2425730Y4856697D1*
X2412490Y4847077D1*
X2397910Y4839647D1*
X2382347Y4834590D1*
X2366183Y4832030D1*
X2264667Y4831710D1*
X2223013D1*
X2211137Y4816313D1*
X2194380Y4799280D1*
X2224290Y4799290D1*
Y4624277D1*
X2269617Y4624643D1*
X2292383D1*
X2314870Y4621080D1*
X2336523Y4614047D1*
X2356810Y4603710D1*
X2375230Y4590327D1*
X2391327Y4574230D1*
X2404710Y4555810D1*
X2415047Y4535523D1*
X2422080Y4513870D1*
X2425643Y4491383D1*
Y4468617D1*
X2422080Y4446130D1*
X2415047Y4424477D1*
X2404710Y4404190D1*
X2391327Y4385770D1*
X2375230Y4369673D1*
X2356810Y4356290D1*
X2336523Y4345953D1*
X2314870Y4338920D1*
X2292383Y4335357D1*
X2269617D1*
X2224217Y4335710D1*
X2224290Y4330710D1*
X2019303D1*
X2019290Y4328710D1*
X1970343D1*
X1970290Y4283883D1*
X1985687Y4272137D1*
X2006137Y4251687D1*
X2023133Y4228290D1*
X2036263Y4202523D1*
X2045197Y4175020D1*
X2049723Y4146460D1*
X2050290Y4085333D1*
X2049723Y4047540D1*
X2045197Y4018980D1*
X2036263Y3991477D1*
X2023133Y3965710D1*
X2006137Y3942313D1*
X1985687Y3921863D1*
X1970327Y3910237D1*
X1970290Y3633887D1*
X1985687Y3622137D1*
X2006137Y3601687D1*
X2023133Y3578290D1*
X2036263Y3552523D1*
X2045197Y3525020D1*
X2049723Y3496460D1*
X2050290Y3435333D1*
X2049723Y3397540D1*
X2045197Y3368980D1*
X2036263Y3341477D1*
X2023133Y3315710D1*
X2006137Y3292313D1*
X1985687Y3271863D1*
X1962290Y3254867D1*
X1936523Y3241737D1*
X1909020Y3232803D1*
X1880460Y3228277D1*
X1851540D1*
X1822980Y3232803D1*
X1795477Y3241737D1*
X1769710Y3254867D1*
X1746313Y3271863D1*
X1725863Y3292313D1*
X1708867Y3315710D1*
X1695737Y3341477D1*
X1686803Y3368980D1*
X1682277Y3397540D1*
X1681710Y3458667D1*
Y3481910D1*
X1231713Y3482013D2*
X1233147Y3504977D1*
X1236407Y3523347D1*
X1241510Y3541297D1*
X1248400Y3558637D1*
X1257007Y3575190D1*
X1267247Y3590790D1*
X1279010Y3605273D1*
X1292177Y3618493D1*
X1306613Y3630313D1*
X1322170Y3640613D1*
X1338690Y3649290D1*
X1356000Y3656250D1*
X1373927Y3661423D1*
X1392287Y3664757D1*
X1410887Y3666220D1*
X1429540Y3665793D1*
X1448057Y3663480D1*
X1466243Y3659310D1*
X1483913Y3653320D1*
X1500890Y3645573D1*
X1516993Y3636153D1*
X1532063Y3625150D1*
X1545943Y3612680D1*
X1558493Y3598870D1*
X1569580Y3583863D1*
X1579093Y3567813D1*
X1586933Y3550880D1*
X1593023Y3533243D1*
X1597297Y3515080D1*
X1599713Y3496580D1*
X1600290Y3468000D1*
X1599760Y3398013D1*
X1597403Y3379503D1*
X1593187Y3361327D1*
X1587153Y3343670D1*
X1579370Y3326713D1*
X1569907Y3310633D1*
X1558870Y3295590D1*
X1546367Y3281740D1*
X1532527Y3269227D1*
X1517490Y3258173D1*
X1501417Y3248700D1*
X1484467Y3240900D1*
X1466817Y3234853D1*
X1448643Y3230623D1*
X1430133Y3228253D1*
X1411483Y3227767D1*
X1392877Y3229167D1*
X1374507Y3232443D1*
X1356563Y3237557D1*
X1339230Y3244460D1*
X1322683Y3253083D1*
X1307090Y3263333D1*
X1292617Y3275107D1*
X1279407Y3288287D1*
X1267597Y3302730D1*
X1257310Y3318297D1*
X1248647Y3334823D1*
X1241703Y3352143D1*
X1236543Y3370073D1*
X1233223Y3388433D1*
X1231777Y3407037D1*
X1231710Y3481800D1*
X1231713Y4132013D2*
X1233147Y4154977D1*
X1236407Y4173347D1*
X1241510Y4191297D1*
X1248400Y4208637D1*
X1257007Y4225190D1*
X1267247Y4240790D1*
X1279010Y4255273D1*
X1292177Y4268493D1*
X1306613Y4280313D1*
X1322170Y4290613D1*
X1338690Y4299290D1*
X1356000Y4306250D1*
X1373927Y4311423D1*
X1392287Y4314757D1*
X1410887Y4316220D1*
X1429540Y4315793D1*
X1448057Y4313480D1*
X1466243Y4309310D1*
X1483913Y4303320D1*
X1500890Y4295573D1*
X1516993Y4286153D1*
X1532063Y4275150D1*
X1545943Y4262680D1*
X1558493Y4248870D1*
X1569580Y4233863D1*
X1579093Y4217813D1*
X1586933Y4200880D1*
X1593023Y4183243D1*
X1597297Y4165080D1*
X1599713Y4146580D1*
X1600290Y4118000D1*
X1599760Y4048013D1*
X1597403Y4029503D1*
X1593187Y4011327D1*
X1587153Y3993670D1*
X1579370Y3976713D1*
X1569907Y3960633D1*
X1558870Y3945590D1*
X1546367Y3931740D1*
X1532527Y3919227D1*
X1517490Y3908173D1*
X1501417Y3898700D1*
X1484467Y3890900D1*
X1466817Y3884853D1*
X1448643Y3880623D1*
X1430133Y3878253D1*
X1411483Y3877767D1*
X1392877Y3879167D1*
X1374507Y3882443D1*
X1356563Y3887557D1*
X1339230Y3894460D1*
X1322683Y3903083D1*
X1307090Y3913333D1*
X1292617Y3925107D1*
X1279407Y3938287D1*
X1267597Y3952730D1*
X1257310Y3968297D1*
X1248647Y3984823D1*
X1241703Y4002143D1*
X1236543Y4020073D1*
X1233223Y4038433D1*
X1231777Y4057037D1*
X1231710Y4131763D1*
X2102043Y7319290D2*
X2145883D1*
X2156293Y7335847D1*
X2159210Y7352333D1*
Y7661560D1*
X2147693Y7683803D1*
X2143400Y7695753D1*
X2029000Y7695710D1*
X2013757Y7696310D1*
X1998607Y7698103D1*
X1983643Y7701077D1*
X1968960Y7705220D1*
X1954650Y7710500D1*
X1940793Y7716887D1*
X1927337Y7724440D1*
X1927290Y7319297D1*
X2102043Y7319290D1*
X2089963Y7010710D2*
X1798710D1*
Y7029723D1*
X1542710Y7029710D1*
Y7298290D1*
X1572697D1*
X1572710Y7307683D1*
X1498710Y7307710D1*
Y7736290D1*
X1910233D1*
X1896910Y7747720D1*
X1498710Y7747710D1*
Y7767670D1*
X1412757Y7768310D1*
X1397607Y7770103D1*
X1382643Y7773077D1*
X1367960Y7777220D1*
X1353650Y7782500D1*
X1339793Y7788887D1*
X1326483Y7796340D1*
X1313800Y7804817D1*
X1301820Y7814260D1*
X1290617Y7824617D1*
X1280260Y7835820D1*
X1270817Y7847800D1*
X1262340Y7860483D1*
X1254887Y7873793D1*
X1248500Y7887650D1*
X1243220Y7901960D1*
X1239077Y7916643D1*
X1236103Y7931607D1*
X1234310Y7946757D1*
X1233710Y7962000D1*
X1234310Y7977243D1*
X1236103Y7992393D1*
X1239077Y8007357D1*
X1243220Y8022040D1*
X1248500Y8036350D1*
X1254887Y8050207D1*
X1262340Y8063517D1*
X1270817Y8076200D1*
X1280260Y8088180D1*
X1290617Y8099383D1*
X1301820Y8109740D1*
X1313800Y8119183D1*
X1326483Y8127660D1*
X1339793Y8135113D1*
X1353650Y8141500D1*
X1367960Y8146780D1*
X1382643Y8150923D1*
X1397607Y8153897D1*
X1412757Y8155690D1*
X1451333Y8156290D1*
X1498637D1*
X1498710Y8176290D1*
X1927290D1*
X1927483Y8055660D1*
X1940793Y8063113D1*
X1954650Y8069500D1*
X1968960Y8074780D1*
X1983643Y8078923D1*
X1998607Y8081897D1*
X2013757Y8083690D1*
X2052333Y8084290D1*
X2281243Y8083690D1*
X2296393Y8081897D1*
X2311357Y8078923D1*
X2326040Y8074780D1*
X2340350Y8069500D1*
X2354207Y8063113D1*
X2367517Y8055660D1*
X2383897Y8044270D1*
X2740290Y8044290D1*
Y7773057D1*
X2967167Y7773050D1*
Y7484470D1*
X2940170D1*
X2940167Y7295470D1*
X2916743D1*
X2910310Y7275363D1*
X2908377Y7267790D1*
X3102717D1*
X3102710Y7269790D1*
X3431290D1*
Y6821210D1*
X3400210D1*
X3400290Y6447947D1*
X3411673Y6463230D1*
X3427770Y6479327D1*
X3446190Y6492710D1*
X3466477Y6503047D1*
X3488130Y6510080D1*
X3510617Y6513643D1*
X3533383D1*
X3555870Y6510080D1*
X3576230Y6503523D1*
X3571010Y6517163D1*
X3565697Y6539303D1*
X3563910Y6562000D1*
X3565697Y6584697D1*
X3571010Y6606837D1*
X3579723Y6627870D1*
X3591620Y6647283D1*
X3606407Y6664593D1*
X3623717Y6679380D1*
X3643130Y6691277D1*
X3664163Y6699990D1*
X3686303Y6705303D1*
X3709000Y6707090D1*
X3731697Y6705303D1*
X3753837Y6699990D1*
X3774870Y6691277D1*
X3794283Y6679380D1*
X3811593Y6664593D1*
X3826380Y6647283D1*
X3838277Y6627870D1*
X3846990Y6606837D1*
X3852303Y6584697D1*
X3854090Y6562000D1*
X3852303Y6539303D1*
X3846990Y6517163D1*
X3838277Y6496130D1*
X3826380Y6476717D1*
X3811593Y6459407D1*
X3794283Y6444620D1*
X3774870Y6432723D1*
X3753837Y6424010D1*
X3731697Y6418697D1*
X3709000Y6416910D1*
X3686303Y6418697D1*
X3664163Y6424010D1*
X3654770Y6427477D1*
X3659990Y6413837D1*
X3665303Y6391697D1*
X3667090Y6369000D1*
X3665303Y6346303D1*
X3659990Y6324163D1*
X3651277Y6303130D1*
X3639380Y6283717D1*
X3624593Y6266407D1*
X3607283Y6251620D1*
X3587870Y6239723D1*
X3566837Y6231010D1*
X3544697Y6225697D1*
X3524533Y6224010D1*
X3524770Y6216513D1*
X3527453Y6199573D1*
X3527663Y6194250D1*
X3541597Y6192943D1*
X3557013Y6189297D1*
X3757767Y6189290D1*
X3773770Y6205327D1*
X3792190Y6218710D1*
X3812477Y6229047D1*
X3834130Y6236080D1*
X3856617Y6239643D1*
X3879383D1*
X3901870Y6236080D1*
X3923523Y6229047D1*
X3943810Y6218710D1*
X3962230Y6205327D1*
X3978327Y6189230D1*
X3991710Y6170810D1*
X4002047Y6150523D1*
X4009080Y6128870D1*
X4012643Y6106383D1*
Y6083617D1*
X4009080Y6061130D1*
X4001953Y6039273D1*
X4051803Y6039290D1*
X4265713Y6253203D1*
X4265710Y6265690D1*
X4220710Y6265710D1*
Y6554290D1*
X4272207D1*
X4272210Y6980790D1*
X4310400D1*
X4297130Y6986723D1*
X4277717Y6998620D1*
X4260407Y7013407D1*
X4245620Y7030717D1*
X4233723Y7050130D1*
X4225010Y7071163D1*
X4219697Y7093303D1*
X4217910Y7116000D1*
X4219697Y7138697D1*
X4221683Y7148693D1*
X4205710Y7148710D1*
Y7437290D1*
X4272157D1*
X4272210Y7854790D1*
X4286703D1*
X4274717Y7862620D1*
X4257407Y7877407D1*
X4242620Y7894717D1*
X4230723Y7914130D1*
X4222010Y7935163D1*
X4216697Y7957303D1*
X4214910Y7980000D1*
X4215990Y7996730D1*
X4205710Y7996710D1*
Y8285290D1*
X4610777D1*
X4610710Y8291290D1*
X4714160D1*
X4688833Y8316677D1*
X4565840Y8316710D1*
X4565790Y8294210D1*
X4272210D1*
Y8737790D1*
X4302927D1*
X4284130Y8745723D1*
X4264717Y8757620D1*
X4247407Y8772407D1*
X4232620Y8789717D1*
X4220723Y8809130D1*
X4212010Y8830163D1*
X4206697Y8852303D1*
X4204910Y8875000D1*
X4205750Y8889697D1*
X4205710Y9178290D1*
X4610777D1*
X4610710Y9183290D1*
X4899290D1*
Y9175723D1*
X5078790Y9175790D1*
Y9080723D1*
X5244670Y9080790D1*
X5258283Y9087307D1*
X5279817Y9094303D1*
X5302180Y9097847D1*
X5329267Y9098290D1*
X5467327Y9235747D1*
X5468250Y9246333D1*
Y9267570D1*
X5452183Y9265030D1*
X5350667Y9264710D1*
X5299717D1*
X5299790Y9204710D1*
X4851210D1*
Y9247640D1*
X4831870Y9235723D1*
X4810837Y9227010D1*
X4788697Y9221697D1*
X4766000Y9219910D1*
X4743303Y9221697D1*
X4721163Y9227010D1*
X4700130Y9235723D1*
X4680717Y9247620D1*
X4663407Y9262407D1*
X4648620Y9279717D1*
X4636723Y9299130D1*
X4628010Y9320163D1*
X4622697Y9342303D1*
X4621010Y9362467D1*
X4605830Y9377683D1*
X4565783Y9377710D1*
X4565790Y9355210D1*
X4272210D1*
Y9798790D1*
X4565790D1*
Y9703723D1*
X4602743Y9703790D1*
X4602710Y9830713D1*
X4205710Y9830710D1*
Y9837180D1*
X4191383Y9835357D1*
X4168617D1*
X4146130Y9838920D1*
X4124477Y9845953D1*
X4104190Y9856290D1*
X4085770Y9869673D1*
X4069673Y9885770D1*
X4056290Y9904190D1*
X4045953Y9924477D1*
X4038920Y9946130D1*
X4035357Y9968617D1*
Y9991383D1*
X4038920Y10013870D1*
X4045953Y10035523D1*
X4056290Y10055810D1*
X4069673Y10074230D1*
X4085770Y10090327D1*
X4104190Y10103710D1*
X4124477Y10114047D1*
X4146130Y10121080D1*
X4168617Y10124643D1*
X4191383D1*
X4213870Y10121080D1*
X4220253Y10119280D1*
X4602753Y10119290D1*
X4602710Y10123290D1*
X4891290D1*
Y10113720D1*
X5078790Y10113790D1*
Y10018723D1*
X5195633Y10018790D1*
X5209283Y10025307D1*
X5230817Y10032303D1*
X5253180Y10035847D1*
X5311167Y10036290D1*
X5399303D1*
X5467327Y10103747D1*
X5468250Y10109667D1*
Y10371163D1*
X1477460Y10371250D1*
X1507950Y10360610D1*
X1528063Y10351337D1*
X1547387Y10340517D1*
X1565803Y10328210D1*
X1583200Y10314497D1*
X1599463Y10299463D1*
X1614497Y10283200D1*
X1628210Y10265803D1*
X1640517Y10247387D1*
X1651337Y10228063D1*
X1660610Y10207950D1*
X1668277Y10187170D1*
X1674290Y10165850D1*
X1678610Y10144127D1*
X1681213Y10122133D1*
X1682083Y10100000D1*
X1681213Y10077867D1*
X1678610Y10055873D1*
X1674290Y10034150D1*
X1668277Y10012830D1*
X1660610Y9992050D1*
X1651337Y9971937D1*
X1640517Y9952613D1*
X1628210Y9934197D1*
X1614497Y9916800D1*
X1599463Y9900537D1*
X1583200Y9885503D1*
X1565803Y9871790D1*
X1547387Y9859483D1*
X1528063Y9848663D1*
X1507950Y9839390D1*
X1487170Y9831723D1*
X1465850Y9825710D1*
X1444127Y9821390D1*
X1422133Y9818787D1*
X1400000Y9817917D1*
X1377867Y9818787D1*
X1355873Y9821390D1*
X1334150Y9825710D1*
X1312830Y9831723D1*
X1292050Y9839390D1*
X1271937Y9848663D1*
X1252613Y9859483D1*
X1234197Y9871790D1*
X1216800Y9885503D1*
X1200537Y9900537D1*
X1185503Y9916800D1*
X1171790Y9934197D1*
X1159483Y9952613D1*
X1148663Y9971937D1*
X1139390Y9992050D1*
X1131753Y10012750D1*
X1131750Y6589367D1*
X1318790Y6589290D1*
Y6504250D1*
X1568790Y6504290D1*
Y6249353D1*
X1619773Y6249290D1*
X1619710Y6424290D1*
X1689437D1*
X1681920Y6447130D1*
X1678357Y6469617D1*
Y6492383D1*
X1681920Y6514870D1*
X1688953Y6536523D1*
X1699290Y6556810D1*
X1712673Y6575230D1*
X1728770Y6591327D1*
X1747190Y6604710D1*
X1767477Y6615047D1*
X1789130Y6622080D1*
X1811617Y6625643D1*
X1813707Y6625723D1*
X1813710Y6638290D1*
X1843697D1*
X1842910Y6673000D1*
X1843990Y6689730D1*
X1769793Y6689710D1*
X1750683Y6683697D1*
X1728320Y6680153D1*
X1664000Y6679710D1*
X1641427Y6681487D1*
X1619370Y6686787D1*
X1587957Y6689710D1*
X1542710D1*
Y6745763D1*
X1535437Y6758493D1*
X1526773Y6779413D1*
X1521487Y6801427D1*
X1519710Y6824000D1*
X1521487Y6846573D1*
X1526773Y6868587D1*
X1535437Y6889507D1*
X1540997Y6899427D1*
X1542710Y6923043D1*
Y6958290D1*
X1595850D1*
X1608610Y6967027D1*
X1628783Y6977307D1*
X1650317Y6984303D1*
X1672680Y6987847D1*
X1695320D1*
X1717683Y6984303D1*
X1736520Y6978303D1*
X2089973Y6978290D1*
X2089963Y7010727D1*
X1731213Y1427867D2*
X1728610Y1405873D1*
X1724290Y1384150D1*
X1718277Y1362830D1*
X1710610Y1342050D1*
X1701337Y1321937D1*
X1690517Y1302613D1*
X1678210Y1284197D1*
X1664497Y1266800D1*
X1649463Y1250537D1*
X1633200Y1235503D1*
X1615803Y1221790D1*
X1597387Y1209483D1*
X1578063Y1198663D1*
X1557950Y1189390D1*
X1537170Y1181723D1*
X1515850Y1175710D1*
X1494127Y1171390D1*
X1472133Y1168787D1*
X1450000Y1167917D1*
X1427867Y1168787D1*
X1405873Y1171390D1*
X1384150Y1175710D1*
X1362830Y1181723D1*
X1342050Y1189390D1*
X1321937Y1198663D1*
X1302613Y1209483D1*
X1284197Y1221790D1*
X1266800Y1235503D1*
X1250537Y1250537D1*
X1235503Y1266800D1*
X1221790Y1284197D1*
X1209483Y1302613D1*
X1198663Y1321937D1*
X1189390Y1342050D1*
X1181723Y1362830D1*
X1175710Y1384150D1*
X1171390Y1405873D1*
X1168787Y1427867D1*
X1167917Y1450000D1*
X1168787Y1472133D1*
X1171390Y1494127D1*
X1175710Y1515850D1*
X1181723Y1537170D1*
X1189390Y1557950D1*
X1198663Y1578063D1*
X1209483Y1597387D1*
X1221790Y1615803D1*
X1235503Y1633200D1*
X1250537Y1649463D1*
X1266800Y1664497D1*
X1284197Y1678210D1*
X1302613Y1690517D1*
X1321937Y1701337D1*
X1342050Y1710610D1*
X1362830Y1718277D1*
X1384150Y1724290D1*
X1405873Y1728610D1*
X1427867Y1731213D1*
X1450000Y1732083D1*
X1472133Y1731213D1*
X1494127Y1728610D1*
X1515850Y1724290D1*
X1537170Y1718277D1*
X1557950Y1710610D1*
X1578063Y1701337D1*
X1597387Y1690517D1*
X1615803Y1678210D1*
X1633200Y1664497D1*
X1649463Y1649463D1*
X1664497Y1633200D1*
X1678210Y1615803D1*
X1690517Y1597387D1*
X1701337Y1578063D1*
X1710610Y1557950D1*
X1718277Y1537170D1*
X1724290Y1515850D1*
X1728610Y1494127D1*
X1731213Y1472133D1*
X1732083Y1450000D1*
X1731213Y1427867D1*
X3386527Y6420710D2*
X3348430D1*
X3340373Y6407700D1*
X3329720Y6395233D1*
X3233780Y6299290D1*
X3243453Y6297380D1*
X3259927Y6299953D1*
X3277073D1*
X3293453Y6297380D1*
X3309927Y6299953D1*
X3320140Y6300227D1*
X3325577Y6312847D1*
X3334127Y6326800D1*
X3344757Y6339243D1*
X3376917Y6371403D1*
X3378697Y6391697D1*
X3384010Y6413837D1*
X3386553Y6420723D1*
X5458940Y10095997D2*
X5467290Y10103720D1*
X3649443Y1134737D2*
X3641010Y1155163D1*
X3635697Y1177303D1*
X3633910Y1200000D1*
X3635697Y1222697D1*
X3641010Y1244837D1*
X3649723Y1265870D1*
X3661620Y1285283D1*
X3676407Y1302593D1*
X3693717Y1317380D1*
X3713130Y1329277D1*
X3734163Y1337990D1*
X3756303Y1343303D1*
X3779000Y1345090D1*
X3793343Y1344293D1*
X1843707Y6658657D2*
X1842910Y6673000D1*
X1843990Y6689730D1*
X1231800Y3447000D2*
D14*
X1600200D1*
X1231800Y4097000D2*
X1600200D1*
X2546000Y7890000D2*
X2740200D1*
X2817877Y7628760D2*
X2967077D1*
X3235800Y4443000D2*
X3524200D1*
X2746800D2*
X3035200D1*
X3267000Y7133000D2*
X3431200D1*
X1585300Y5571000D2*
X1752000D1*
X1625300Y2191000D2*
X1792000D1*
X2879000Y1904000D2*
X3023200D1*
X4602803Y9804000D2*
X4747000D1*
X4579800Y1944000D2*
X4724000D1*
X6929160Y10185083D2*
D28*
X7283413D1*
X7682573D2*
X7783350D1*
X6929160Y10121917D2*
X7301007D1*
X7664980D2*
X7801030D1*
X6818147Y10058750D2*
X7348767D1*
X7617220D2*
X7848700D1*
X8117247D2*
X8161877D1*
X6818147Y9995583D2*
X7355510D1*
X8080517D2*
X8161877D1*
X6818147Y9932417D2*
X7280317D1*
X6818147Y9869250D2*
X7217150D1*
X6818147Y9806083D2*
X7153987D1*
X6818147Y9742917D2*
X7104040D1*
X6818147Y9679750D2*
X7084260D1*
X8119527D2*
X8161877D1*
X6818147Y9616583D2*
X7082530D1*
X7526713D2*
X8161877D1*
X6818147Y9553417D2*
X7082530D1*
X7483873D2*
X8161877D1*
X7498183Y9490250D2*
X7767400D1*
X8032573D2*
X8161877D1*
X7498183Y9427083D2*
X7684363D1*
X8115697D2*
X8161877D1*
X7498183Y9363917D2*
X7641253D1*
X7498183Y9300750D2*
X7618650D1*
X7498183Y9237583D2*
X7611540D1*
X7498183Y9174417D2*
X7618830D1*
X7498183Y9111250D2*
X7641617D1*
X6818147Y9048083D2*
X7685093D1*
X8114970D2*
X8161877D1*
X6818147Y8984917D2*
X7769040D1*
X8030933D2*
X8161877D1*
X6818147Y8921750D2*
X8161877D1*
X6818147Y8858583D2*
X8161877D1*
X6818147Y8795417D2*
X8161877D1*
X6818147Y8732250D2*
X8161877D1*
X6818147Y8669083D2*
X8161877D1*
X6818147Y8605917D2*
X8161877D1*
X6818147Y8542750D2*
X8161877D1*
X6818147Y8479583D2*
X8161877D1*
X6818147Y8416417D2*
X8161877D1*
X6818147Y8353250D2*
X8161877D1*
X6818147Y8290083D2*
X8161877D1*
X6818147Y8226917D2*
X8161877D1*
X6818147Y8163750D2*
X8161877D1*
X6818147Y8100583D2*
X8161877D1*
X6818147Y8037417D2*
X8161877D1*
X6818147Y7974250D2*
X7423960D1*
X7681570D2*
X8161877D1*
X6818147Y7911083D2*
X7317960D1*
X7787573D2*
X8161877D1*
X6818147Y7847917D2*
X7261083D1*
X7844447D2*
X8161877D1*
X6818147Y7784750D2*
X7225993D1*
X7879540D2*
X8161877D1*
X6818147Y7721583D2*
X7205940D1*
X7899590D2*
X8161877D1*
X6818147Y7658417D2*
X7198283D1*
X7907247D2*
X8161877D1*
X6818147Y7595250D2*
X7202203D1*
X7903327D2*
X8161877D1*
X6818147Y7532083D2*
X7218063D1*
X7887470D2*
X8161877D1*
X6818147Y7468917D2*
X7247777D1*
X7857753D2*
X8161877D1*
X6818147Y7405750D2*
X7296357D1*
X7809173D2*
X8161877D1*
X6818147Y7342583D2*
X7379390D1*
X7726140D2*
X8161877D1*
X6818147Y7279417D2*
X8161877D1*
X6818147Y7216250D2*
X8161877D1*
X6818147Y7153083D2*
X8161877D1*
X6818147Y7089917D2*
X7286330D1*
X7534733D2*
X8161877D1*
X6818147Y7026750D2*
X7238023D1*
X7583040D2*
X8161877D1*
X6818147Y6963583D2*
X7221527D1*
X7801243D2*
X8161877D1*
X6818147Y6900417D2*
X7227723D1*
X7860670D2*
X8161877D1*
X6818147Y6837250D2*
X7259533D1*
X7882547D2*
X8161877D1*
X6818147Y6774083D2*
X7251513D1*
X7880997D2*
X8161877D1*
X6818147Y6710917D2*
X7224990D1*
X7855477D2*
X8161877D1*
X6818147Y6647750D2*
X7222710D1*
X7844267D2*
X8161877D1*
X6818147Y6584583D2*
X7243673D1*
X7877170D2*
X8161877D1*
X6818147Y6521417D2*
X7270653D1*
X7884187D2*
X8161877D1*
X6818147Y6458250D2*
X7231917D1*
X7868510D2*
X8161877D1*
X6818147Y6395083D2*
X7220980D1*
X7821753D2*
X8161877D1*
X6818147Y6331917D2*
X7232553D1*
X7868237D2*
X8161877D1*
X6818147Y6268750D2*
X7272387D1*
X7884097D2*
X8161877D1*
X6818147Y6205583D2*
X7242673D1*
X7877350D2*
X8161877D1*
X6818147Y6142417D2*
X7222437D1*
X7844813D2*
X8161877D1*
X6818147Y6079250D2*
X7225353D1*
X7854930D2*
X8161877D1*
X6818147Y6016083D2*
X7252697D1*
X7880813D2*
X8161877D1*
X6818147Y5952917D2*
X7258167D1*
X7882637D2*
X8161877D1*
X6818147Y5889750D2*
X7227270D1*
X7861127D2*
X8161877D1*
X6818147Y5826583D2*
X7221710D1*
X7836153D2*
X8161877D1*
X6818147Y5763417D2*
X7238843D1*
X7874160D2*
X8161877D1*
X6818147Y5700250D2*
X7280223D1*
X7884553D2*
X8161877D1*
X6818147Y5637083D2*
X7235653D1*
X7872430D2*
X8161877D1*
X6818147Y5573917D2*
X7221253D1*
X7831780D2*
X8161877D1*
X6818147Y5510750D2*
X7229363D1*
X7863587D2*
X8161877D1*
X6818147Y5447583D2*
X7263910D1*
X7883183D2*
X8161877D1*
X6818147Y5384417D2*
X7069130D1*
X7879813D2*
X8161877D1*
X6818147Y5321250D2*
X6995393D1*
X7851830D2*
X8161877D1*
X6818147Y5258083D2*
X6932230D1*
X7848367D2*
X8161877D1*
X6818147Y5194917D2*
X6869067D1*
X7878627D2*
X8161877D1*
X7113550Y5131750D2*
X7220980D1*
X7883730D2*
X8161877D1*
X7051660Y5068583D2*
X7220980D1*
X7866050D2*
X8161877D1*
X7051660Y5005417D2*
X7220980D1*
X7815280D2*
X8161877D1*
X7051660Y4942250D2*
X7220980D1*
X7600087D2*
X8161877D1*
X7051660Y4879083D2*
X7220980D1*
X7600087D2*
X8161877D1*
X7051660Y4815917D2*
X8161877D1*
X7051660Y4752750D2*
X8161877D1*
X7051660Y4689583D2*
X8161877D1*
X7051660Y4626417D2*
X7394067D1*
X7711467D2*
X8161877D1*
X7051660Y4563250D2*
X7304013D1*
X7801610D2*
X8161877D1*
X7051660Y4500083D2*
X7252517D1*
X7853017D2*
X8161877D1*
X7051660Y4436917D2*
X7220797D1*
X7884733D2*
X8161877D1*
X7051660Y4373750D2*
X7203387D1*
X7902143D2*
X8161877D1*
X7051660Y4310583D2*
X7198103D1*
X7907430D2*
X8161877D1*
X7051660Y4247417D2*
X7204390D1*
X7901140D2*
X8161877D1*
X7051660Y4184250D2*
X7222893D1*
X7882637D2*
X8161877D1*
X7051660Y4121083D2*
X7255887D1*
X7849643D2*
X8161877D1*
X7051660Y4057917D2*
X7309483D1*
X7796050D2*
X8161877D1*
X7051660Y3994750D2*
X7405367D1*
X7700163D2*
X8161877D1*
X7051660Y3931583D2*
X8161877D1*
X7051660Y3868417D2*
X8161877D1*
X7051660Y3805250D2*
X8161877D1*
X7051660Y3742083D2*
X8161877D1*
X7051660Y3678917D2*
X8161877D1*
X7051660Y3615750D2*
X8161877D1*
X7051660Y3552583D2*
X8161877D1*
X7051660Y3489417D2*
X8161877D1*
X7051660Y3426250D2*
X8161877D1*
X7051660Y3363083D2*
X8161877D1*
X7051660Y3299917D2*
X8161877D1*
X7051660Y3236750D2*
X8161877D1*
X7051660Y3173583D2*
X8161877D1*
X7051660Y3110417D2*
X8161877D1*
X7051660Y3047250D2*
X8161877D1*
X7051660Y2984083D2*
X8161877D1*
X7051660Y2920917D2*
X8161877D1*
X7051660Y2857750D2*
X8161877D1*
X7051660Y2794583D2*
X8161877D1*
X7051660Y2731417D2*
X8161877D1*
X7051660Y2668250D2*
X8161877D1*
X7051660Y2605083D2*
X8161877D1*
X7051660Y2541917D2*
X8161877D1*
X7051660Y2478750D2*
X8161877D1*
X7051660Y2415583D2*
X8161877D1*
X7051660Y2352417D2*
X8161877D1*
X7051660Y2289250D2*
X8161877D1*
X7051660Y2226083D2*
X8161877D1*
X7051660Y2162917D2*
X8161877D1*
X7051660Y2099750D2*
X8161877D1*
X7038627Y2036583D2*
X8161877D1*
X7051023Y1973417D2*
X8161877D1*
X7085840Y1910250D2*
X8161877D1*
X7087937Y1847083D2*
X8161877D1*
X7074630Y1783917D2*
X8161877D1*
X7092130Y1720750D2*
X8161877D1*
X7164227Y1657583D2*
X7778700D1*
X8021363D2*
X8161877D1*
X7227390Y1594417D2*
X7689287D1*
X8110777D2*
X8161877D1*
X7306597Y1531250D2*
X7643987D1*
X7306597Y1468083D2*
X7619923D1*
X7306597Y1404917D2*
X7611630D1*
X7306597Y1341750D2*
X7617647D1*
X7068290Y1731790D2*
X7085790D1*
Y1706723D1*
X7102910Y1701350D1*
X7117490Y1693923D1*
X7130730Y1684303D1*
X7202740Y1612747D1*
X7235303Y1579730D1*
X7244923Y1566490D1*
X7248937Y1559317D1*
X7268377Y1552290D1*
X7300290D1*
Y1281757D1*
X7643970Y1281750D1*
X7631723Y1312830D1*
X7625710Y1334150D1*
X7621390Y1355873D1*
X7618787Y1377867D1*
X7617917Y1400000D1*
X7618787Y1422133D1*
X7621390Y1444127D1*
X7625710Y1465850D1*
X7631723Y1487170D1*
X7639390Y1507950D1*
X7648663Y1528063D1*
X7659483Y1547387D1*
X7671790Y1565803D1*
X7685503Y1583200D1*
X7700537Y1599463D1*
X7716800Y1614497D1*
X7734197Y1628210D1*
X7752613Y1640517D1*
X7771937Y1651337D1*
X7792050Y1660610D1*
X7812830Y1668277D1*
X7834150Y1674290D1*
X7855873Y1678610D1*
X7877867Y1681213D1*
X7900000Y1682083D1*
X7922133Y1681213D1*
X7944127Y1678610D1*
X7965850Y1674290D1*
X7987170Y1668277D1*
X8007950Y1660610D1*
X8028063Y1651337D1*
X8047387Y1640517D1*
X8065803Y1628210D1*
X8083200Y1614497D1*
X8099463Y1599463D1*
X8114497Y1583200D1*
X8128210Y1565803D1*
X8140517Y1547387D1*
X8151337Y1528063D1*
X8160610Y1507950D1*
X8168247Y1487250D1*
X8168250Y9150793D1*
X8160610Y9130050D1*
X8151337Y9109937D1*
X8140517Y9090613D1*
X8128210Y9072197D1*
X8114497Y9054800D1*
X8099463Y9038537D1*
X8083200Y9023503D1*
X8065803Y9009790D1*
X8047387Y8997483D1*
X8028063Y8986663D1*
X8007950Y8977390D1*
X7987170Y8969723D1*
X7965850Y8963710D1*
X7944127Y8959390D1*
X7922133Y8956787D1*
X7900000Y8955917D1*
X7877867Y8956787D1*
X7855873Y8959390D1*
X7834150Y8963710D1*
X7812830Y8969723D1*
X7792050Y8977390D1*
X7771937Y8986663D1*
X7752613Y8997483D1*
X7734197Y9009790D1*
X7716800Y9023503D1*
X7700537Y9038537D1*
X7685503Y9054800D1*
X7671790Y9072197D1*
X7659483Y9090613D1*
X7648663Y9109937D1*
X7639390Y9130050D1*
X7631723Y9150830D1*
X7625710Y9172150D1*
X7621390Y9193873D1*
X7618787Y9215867D1*
X7617917Y9238000D1*
X7618787Y9260133D1*
X7621390Y9282127D1*
X7625710Y9303850D1*
X7631723Y9325170D1*
X7639390Y9345950D1*
X7648663Y9366063D1*
X7659483Y9385387D1*
X7671790Y9403803D1*
X7685503Y9421200D1*
X7700537Y9437463D1*
X7716800Y9452497D1*
X7734197Y9466210D1*
X7752613Y9478517D1*
X7771937Y9489337D1*
X7792050Y9498610D1*
X7812830Y9506277D1*
X7834150Y9512290D1*
X7855873Y9516610D1*
X7877867Y9519213D1*
X7900000Y9520083D1*
X7922133Y9519213D1*
X7944127Y9516610D1*
X7965850Y9512290D1*
X7987170Y9506277D1*
X8007950Y9498610D1*
X8028063Y9489337D1*
X8047387Y9478517D1*
X8065803Y9466210D1*
X8083200Y9452497D1*
X8099463Y9437463D1*
X8114497Y9421200D1*
X8128210Y9403803D1*
X8140517Y9385387D1*
X8151337Y9366063D1*
X8160610Y9345950D1*
X8168247Y9325250D1*
X8167780Y9763960D1*
X8162500Y9749647D1*
X8156113Y9735793D1*
X8148660Y9722483D1*
X8140183Y9709800D1*
X8130740Y9697820D1*
X8120383Y9686617D1*
X8109180Y9676260D1*
X8097200Y9666817D1*
X8084517Y9658340D1*
X8071207Y9650887D1*
X8057353Y9644500D1*
X8043040Y9639220D1*
X8028357Y9635077D1*
X8013393Y9632103D1*
X7998243Y9630310D1*
X7959667Y9629710D1*
X7533560D1*
X7477533Y9573763D1*
X7477490Y9548017D1*
X7491790Y9547990D1*
Y9080010D1*
X6811797D1*
X6811750Y2105220D1*
X6836657Y2130143D1*
X6836710Y5113000D1*
X6837993Y5129313D1*
X6841813Y5145227D1*
X6848077Y5160347D1*
X6856627Y5174300D1*
X6867280Y5186767D1*
X7048803Y5367837D1*
X7062043Y5377457D1*
X7076623Y5384883D1*
X7092187Y5389943D1*
X7108350Y5392503D1*
X7209867Y5392823D1*
X7259907D1*
X7271233Y5407507D1*
X7290613Y5426953D1*
X7271267Y5446427D1*
X7254370Y5469683D1*
X7241320Y5495297D1*
X7232437Y5522637D1*
X7227940Y5551027D1*
Y5579773D1*
X7232437Y5608163D1*
X7241320Y5635503D1*
X7254370Y5661117D1*
X7271267Y5684373D1*
X7290647Y5703820D1*
X7271233Y5723293D1*
X7254337Y5746550D1*
X7241287Y5772163D1*
X7232403Y5799503D1*
X7227907Y5827893D1*
Y5856640D1*
X7232403Y5885030D1*
X7241287Y5912370D1*
X7254337Y5937983D1*
X7271233Y5961240D1*
X7290613Y5980687D1*
X7271233Y6000160D1*
X7254337Y6023417D1*
X7241287Y6049030D1*
X7232403Y6076370D1*
X7227907Y6104760D1*
Y6133507D1*
X7232403Y6161897D1*
X7241287Y6189237D1*
X7254337Y6214850D1*
X7271233Y6238107D1*
X7290613Y6257553D1*
X7271233Y6277027D1*
X7254337Y6300283D1*
X7241287Y6325897D1*
X7232403Y6353237D1*
X7227907Y6381627D1*
Y6410373D1*
X7232403Y6438763D1*
X7241287Y6466103D1*
X7254337Y6491717D1*
X7271233Y6514973D1*
X7290613Y6534420D1*
X7271233Y6553860D1*
X7254337Y6577117D1*
X7241287Y6602730D1*
X7232403Y6630070D1*
X7227907Y6658460D1*
Y6687207D1*
X7232403Y6715597D1*
X7241287Y6742937D1*
X7254337Y6768550D1*
X7271233Y6791807D1*
X7290613Y6811253D1*
X7271233Y6830727D1*
X7254337Y6853983D1*
X7241287Y6879597D1*
X7232403Y6906937D1*
X7227907Y6935327D1*
Y6964073D1*
X7232403Y6992463D1*
X7241287Y7019803D1*
X7254337Y7045417D1*
X7271233Y7068673D1*
X7291560Y7089000D1*
X7314817Y7105897D1*
X7340430Y7118947D1*
X7367770Y7127830D1*
X7396160Y7132327D1*
X7424907D1*
X7453297Y7127830D1*
X7480637Y7118947D1*
X7506250Y7105897D1*
X7529507Y7089000D1*
X7549833Y7068673D1*
X7566730Y7045417D1*
X7579780Y7019803D1*
X7588663Y6992463D1*
X7593160Y6964073D1*
X7593227Y6962333D1*
X7609817Y6972180D1*
X7626757Y6980003D1*
X7644403Y6986063D1*
X7662577Y6990297D1*
X7681083Y6992660D1*
X7699737Y6993130D1*
X7718340Y6991697D1*
X7736703Y6988380D1*
X7754630Y6983213D1*
X7771940Y6976250D1*
X7788453Y6967560D1*
X7803997Y6957237D1*
X7818407Y6945387D1*
X7831540Y6932130D1*
X7843253Y6917607D1*
X7853430Y6901970D1*
X7861963Y6885377D1*
X7868767Y6868000D1*
X7873763Y6850023D1*
X7876907Y6831633D1*
X7878190Y6810000D1*
X7877240Y6791367D1*
X7874400Y6772923D1*
X7869697Y6754867D1*
X7863183Y6737383D1*
X7854923Y6720653D1*
X7845007Y6704847D1*
X7833530Y6690133D1*
X7820620Y6676663D1*
X7814970Y6671580D1*
X7828383Y6658700D1*
X7840463Y6644483D1*
X7851037Y6629107D1*
X7859990Y6612737D1*
X7867233Y6595543D1*
X7872687Y6577700D1*
X7876297Y6559393D1*
X7878030Y6540813D1*
X7877657Y6519147D1*
X7875287Y6500640D1*
X7871043Y6482470D1*
X7864977Y6464823D1*
X7857147Y6447890D1*
X7847637Y6431837D1*
X7836540Y6416837D1*
X7823977Y6403040D1*
X7815000Y6394737D1*
X7831540Y6378430D1*
X7843253Y6363907D1*
X7853430Y6348270D1*
X7861963Y6331677D1*
X7868767Y6314300D1*
X7873763Y6296323D1*
X7876907Y6277933D1*
X7878190Y6256300D1*
X7877240Y6237667D1*
X7874400Y6219223D1*
X7869697Y6201167D1*
X7863183Y6183683D1*
X7854923Y6166953D1*
X7845007Y6151147D1*
X7833530Y6136433D1*
X7820620Y6122963D1*
X7814970Y6117880D1*
X7834300Y6098407D1*
X7851197Y6075150D1*
X7864247Y6049537D1*
X7873130Y6022197D1*
X7877627Y5993807D1*
Y5965060D1*
X7873130Y5936670D1*
X7864247Y5909330D1*
X7851197Y5883717D1*
X7834300Y5860460D1*
X7814920Y5841013D1*
X7834300Y5821540D1*
X7851197Y5798283D1*
X7864247Y5772670D1*
X7873130Y5745330D1*
X7877627Y5716940D1*
Y5688193D1*
X7873130Y5659803D1*
X7864247Y5632463D1*
X7851197Y5606850D1*
X7834300Y5583593D1*
X7814920Y5564147D1*
X7834300Y5544673D1*
X7851197Y5521417D1*
X7864247Y5495803D1*
X7873130Y5468463D1*
X7877627Y5440073D1*
Y5411327D1*
X7873130Y5382937D1*
X7864247Y5355597D1*
X7851197Y5329983D1*
X7834300Y5306727D1*
X7814920Y5287280D1*
X7834300Y5267807D1*
X7851197Y5244550D1*
X7864247Y5218937D1*
X7873130Y5191597D1*
X7877627Y5163207D1*
Y5134460D1*
X7873130Y5106070D1*
X7864247Y5078730D1*
X7851197Y5053117D1*
X7834300Y5029860D1*
X7813973Y5009533D1*
X7790717Y4992637D1*
X7765103Y4979587D1*
X7737763Y4970703D1*
X7709373Y4966207D1*
X7680627D1*
X7652237Y4970703D1*
X7624897Y4979587D1*
X7599283Y4992637D1*
X7593723Y4996353D1*
Y4828510D1*
X7227343D1*
Y5184253D1*
X7159790Y5184243D1*
X7045330Y5069840D1*
X7044970Y2078817D1*
X7042410Y2062653D1*
X7037350Y2047090D1*
X7029923Y2032510D1*
X7020303Y2019270D1*
X7004870Y2003277D1*
X7024283Y1991380D1*
X7041593Y1976593D1*
X7056380Y1959283D1*
X7068277Y1939870D1*
X7076990Y1918837D1*
X7082303Y1896697D1*
X7084090Y1874000D1*
X7082303Y1851303D1*
X7076990Y1829163D1*
X7068293Y1808170D1*
X7068290Y1731720D1*
X6922790Y10248257D2*
Y10093710D1*
X6811750Y10093333D1*
Y9548007D1*
X7082590Y9547900D1*
X7088910Y9570667D1*
X7089510Y9669443D1*
X7091300Y9684593D1*
X7094277Y9699557D1*
X7098420Y9714240D1*
X7103700Y9728553D1*
X7110087Y9742407D1*
X7117540Y9755717D1*
X7126017Y9768400D1*
X7135460Y9780380D1*
X7162317Y9808083D1*
X7326820Y9971740D1*
X7338800Y9981183D1*
X7351483Y9989660D1*
X7364793Y9997113D1*
X7378647Y10003500D1*
X7392960Y10008780D1*
X7407643Y10012923D1*
X7422667Y10015907D1*
X7425083Y10019543D1*
X7403283Y10027817D1*
X7382630Y10038643D1*
X7363420Y10051867D1*
X7345937Y10067297D1*
X7330427Y10084710D1*
X7317113Y10103857D1*
X7306190Y10124460D1*
X7297813Y10146223D1*
X7292107Y10168833D1*
X7289147Y10191963D1*
X7288983Y10215283D1*
X7291610Y10238453D1*
X7293593Y10248260D1*
X6922773Y10248250D1*
X7900277Y7624883D2*
X7897933Y7601673D1*
X7894047Y7578670D1*
X7888627Y7555980D1*
X7881700Y7533703D1*
X7873297Y7511940D1*
X7863457Y7490787D1*
X7852220Y7470343D1*
X7839643Y7450693D1*
X7825777Y7431933D1*
X7810687Y7414143D1*
X7794440Y7397400D1*
X7777107Y7381783D1*
X7758770Y7367363D1*
X7739507Y7354203D1*
X7719407Y7342363D1*
X7698560Y7331893D1*
X7677057Y7322843D1*
X7654997Y7315250D1*
X7632480Y7309153D1*
X7609603Y7304580D1*
X7586473Y7301543D1*
X7563190Y7300067D1*
X7539863Y7300150D1*
X7516590Y7301793D1*
X7493483Y7304993D1*
X7470640Y7309730D1*
X7448167Y7315987D1*
X7426160Y7323737D1*
X7404723Y7332940D1*
X7383950Y7343557D1*
X7363937Y7355540D1*
X7344767Y7368840D1*
X7326533Y7383390D1*
X7309313Y7399130D1*
X7293187Y7415987D1*
X7278223Y7433883D1*
X7264490Y7452743D1*
X7252053Y7472480D1*
X7240963Y7493007D1*
X7231273Y7514227D1*
X7223027Y7536050D1*
X7216260Y7558373D1*
X7211000Y7581103D1*
X7207277Y7604133D1*
X7205100Y7627360D1*
X7204487Y7650680D1*
X7205433Y7673990D1*
X7207940Y7697187D1*
X7211990Y7720160D1*
X7217573Y7742810D1*
X7224660Y7765037D1*
X7233217Y7786740D1*
X7243207Y7807820D1*
X7254587Y7828187D1*
X7267307Y7847743D1*
X7281303Y7866407D1*
X7296520Y7884090D1*
X7312887Y7900713D1*
X7330330Y7916207D1*
X7348770Y7930497D1*
X7368127Y7943520D1*
X7388310Y7955217D1*
X7409230Y7965537D1*
X7430797Y7974437D1*
X7452910Y7981870D1*
X7475470Y7987803D1*
X7498380Y7992217D1*
X7521530Y7995087D1*
X7544823Y7996400D1*
X7568150Y7996150D1*
X7591410Y7994340D1*
X7614493Y7990977D1*
X7637303Y7986077D1*
X7659730Y7979657D1*
X7681680Y7971753D1*
X7703050Y7962397D1*
X7723747Y7951633D1*
X7743677Y7939507D1*
X7762750Y7926073D1*
X7780880Y7911390D1*
X7797990Y7895530D1*
X7813997Y7878560D1*
X7828830Y7860553D1*
X7842427Y7841597D1*
X7854723Y7821773D1*
X7865667Y7801170D1*
X7875203Y7779880D1*
X7883297Y7758000D1*
X7889907Y7735627D1*
X7895003Y7712860D1*
X7898563Y7689803D1*
X7900573Y7666563D1*
X7901057Y7648200D1*
X7900277Y7624883D1*
Y4289883D2*
X7897933Y4266673D1*
X7894047Y4243670D1*
X7888627Y4220980D1*
X7881700Y4198703D1*
X7873297Y4176940D1*
X7863457Y4155787D1*
X7852220Y4135343D1*
X7839643Y4115693D1*
X7825777Y4096933D1*
X7810687Y4079143D1*
X7794440Y4062400D1*
X7777107Y4046783D1*
X7758770Y4032363D1*
X7739507Y4019203D1*
X7719407Y4007363D1*
X7698560Y3996893D1*
X7677057Y3987843D1*
X7654997Y3980250D1*
X7632480Y3974153D1*
X7609603Y3969580D1*
X7586473Y3966543D1*
X7563190Y3965067D1*
X7539863Y3965150D1*
X7516590Y3966793D1*
X7493483Y3969993D1*
X7470640Y3974730D1*
X7448167Y3980987D1*
X7426160Y3988737D1*
X7404723Y3997940D1*
X7383950Y4008557D1*
X7363937Y4020540D1*
X7344767Y4033840D1*
X7326533Y4048390D1*
X7309313Y4064130D1*
X7293187Y4080987D1*
X7278223Y4098883D1*
X7264490Y4117743D1*
X7252053Y4137480D1*
X7240963Y4158007D1*
X7231273Y4179227D1*
X7223027Y4201050D1*
X7216260Y4223373D1*
X7211000Y4246103D1*
X7207277Y4269133D1*
X7205100Y4292360D1*
X7204487Y4315680D1*
X7205433Y4338990D1*
X7207940Y4362187D1*
X7211990Y4385160D1*
X7217573Y4407810D1*
X7224660Y4430037D1*
X7233217Y4451740D1*
X7243207Y4472820D1*
X7254587Y4493187D1*
X7267307Y4512743D1*
X7281303Y4531407D1*
X7296520Y4549090D1*
X7312887Y4565713D1*
X7330330Y4581207D1*
X7348770Y4595497D1*
X7368127Y4608520D1*
X7388310Y4620217D1*
X7409230Y4630537D1*
X7430797Y4639437D1*
X7452910Y4646870D1*
X7475470Y4652803D1*
X7498380Y4657217D1*
X7521530Y4660087D1*
X7544823Y4661400D1*
X7568150Y4661150D1*
X7591410Y4659340D1*
X7614493Y4655977D1*
X7637303Y4651077D1*
X7659730Y4644657D1*
X7681680Y4636753D1*
X7703050Y4627397D1*
X7723747Y4616633D1*
X7743677Y4604507D1*
X7762750Y4591073D1*
X7780880Y4576390D1*
X7797990Y4560530D1*
X7813997Y4543560D1*
X7828830Y4525553D1*
X7842427Y4506597D1*
X7854723Y4486773D1*
X7865667Y4466170D1*
X7875203Y4444880D1*
X7883297Y4423000D1*
X7889907Y4400627D1*
X7895003Y4377860D1*
X7898563Y4354803D1*
X7900573Y4331563D1*
X7901057Y4313200D1*
X7900277Y4289883D1*
X8168247Y10146447D2*
X8161317Y10127853D1*
X8150790Y10107043D1*
X8137847Y10087647D1*
X8122670Y10069943D1*
X8105483Y10054180D1*
X8086533Y10040593D1*
X8066090Y10029373D1*
X8044450Y10020683D1*
X8021923Y10014650D1*
X8043040Y10008780D1*
X8057353Y10003500D1*
X8071207Y9997113D1*
X8084517Y9989660D1*
X8097200Y9981183D1*
X8109180Y9971740D1*
X8120383Y9961383D1*
X8130740Y9950180D1*
X8140183Y9938200D1*
X8148660Y9925517D1*
X8156113Y9912207D1*
X8162500Y9898353D1*
X8168250Y9883333D1*
Y10146470D1*
X7929257Y10018293D2*
X7907560Y10025953D1*
X7886653Y10036283D1*
X7867133Y10049040D1*
X7849283Y10064047D1*
X7833360Y10081080D1*
X7819590Y10099900D1*
X7808177Y10120237D1*
X7799280Y10141790D1*
X7793030Y10164257D1*
X7789517Y10187310D1*
X7788790Y10210620D1*
X7790863Y10233847D1*
X7793593Y10248260D1*
X7672357Y10248250D1*
X7675540Y10231017D1*
X7677270Y10207760D1*
X7676393Y10186363D1*
X7672767Y10163327D1*
X7666410Y10140890D1*
X7657407Y10119380D1*
X7645893Y10099100D1*
X7632033Y10080347D1*
X7616023Y10063390D1*
X7598100Y10048473D1*
X7578517Y10035810D1*
X7557560Y10025587D1*
X7536700Y10018290D1*
X7929340D1*
X7433020Y10017260D2*
X7425083Y10019543D1*
X6786000Y10258000D2*
D14*
X6922700D1*
X7695000Y6810000D2*
X7878100D1*
X7695000Y6533133D2*
X7878100D1*
X7695000Y6256300D2*
X7878100D1*
X7227433Y5011700D2*
X7593633D1*
X7788800Y10205000D2*
X7983000D1*
X7288800D2*
X7677200D1*
D29*
X1866000Y3447000D3*
Y4097000D3*
X1416000Y3447000D3*
Y4097000D3*
D35*
X2273000Y7165000D3*
X1993000D3*
X2266000Y7890000D3*
X2546000D3*
D33*
X2647877Y7628760D3*
X2817877D3*
D32*
X3380000Y4443000D3*
Y4613000D3*
X2891000Y4443000D3*
Y4613000D3*
D37*
X1976000Y5557001D3*
D38*
X2146000D3*
Y5787001D3*
X1956000D3*
D40*
X1713000Y7522000D3*
Y7962000D3*
X2452000Y3287000D3*
Y3727000D3*
D37*
X2017000Y2139001D3*
D38*
X2187000D3*
Y2369001D3*
X1997000D3*
D43*
X1988000Y6844000D3*
Y6504000D3*
X1717000Y6824000D3*
Y7164000D3*
D45*
X3267000Y6958000D3*
Y7133000D3*
X2998000Y6956000D3*
Y7131000D3*
D49*
X4419000Y9672000D3*
Y9482000D3*
X4649000Y9577000D3*
D50*
X5163000Y9369000D3*
X4988000D3*
D49*
X4419000Y8611000D3*
Y8421000D3*
X4649000Y8516000D3*
X4419000Y3414000D3*
Y3224000D3*
X4649000Y3319000D3*
D50*
X5163000Y8451000D3*
X4988000D3*
X5198000Y3211000D3*
X5023000D3*
D49*
X4419000Y4272000D3*
Y4082000D3*
X4649000Y4177000D3*
D50*
X5201000Y4074000D3*
X5026000D3*
D49*
X4717000Y1674000D3*
Y1484000D3*
X4947000Y1579000D3*
D50*
X5298000Y1471000D3*
X5123000D3*
D49*
X4419000Y2532000D3*
Y2342000D3*
X4649000Y2437000D3*
D50*
X5237000Y2323000D3*
X5062000D3*
D49*
X6939000Y1415000D3*
Y1605000D3*
X6709000Y1510000D3*
X4599000Y5942000D3*
Y5752000D3*
X4829000Y5847000D3*
D50*
X5155000Y5760000D3*
X4980000D3*
D49*
X4569000Y5066000D3*
Y4876000D3*
X4799000Y4971000D3*
X4419000Y7728000D3*
Y7538000D3*
X4649000Y7633000D3*
D50*
X5132000Y4887000D3*
X4957000D3*
X5167000Y7546000D3*
X4992000D3*
D49*
X4419000Y6854000D3*
Y6664000D3*
X4649000Y6759000D3*
D50*
X5190000Y6654000D3*
X5015000D3*
D49*
X4455000Y1387000D3*
Y1197000D3*
X4685000Y1292000D3*
D50*
X6611000Y10258000D3*
X6786000D3*
D51*
X1563000Y5190000D3*
X1817000D3*
X2071000D3*
X1563000Y4936000D3*
X1817000D3*
X2071000D3*
D53*
X1427000Y6135000D3*
Y6070000D3*
Y6005000D3*
Y5940000D3*
Y5875000D3*
D54*
X1404500Y6335000D3*
Y5675000D3*
D55*
X1159500Y6380000D3*
Y5630000D3*
D56*
Y6120000D3*
Y5890000D3*
D53*
X1427000Y2733000D3*
Y2668000D3*
Y2603000D3*
Y2538000D3*
Y2473000D3*
D54*
X1404500Y2933000D3*
Y2273000D3*
D55*
X1159500Y2978000D3*
Y2228000D3*
D56*
Y2718000D3*
Y2488000D3*
D57*
X4005000Y5358000D3*
D58*
Y5104000D3*
Y4850000D3*
D21*
X7695000Y6810000D3*
Y6533133D3*
Y6256300D3*
Y5979433D3*
Y5702567D3*
Y5425700D3*
Y5148833D3*
X7410533Y6949700D3*
Y6672833D3*
Y6396000D3*
Y6119133D3*
Y5842267D3*
X7410567Y5565400D3*
X7410533Y5288533D3*
D59*
Y5011700D3*
D60*
X1752000Y5741000D3*
Y5571000D3*
D61*
X2181000Y6422000D3*
X2351000D3*
D60*
X1792000Y2361000D3*
Y2191000D3*
X2219000Y2805000D3*
Y2975000D3*
D49*
X4932000Y9987000D3*
Y9797000D3*
X5162000Y9892000D3*
X4932000Y9049000D3*
Y8859000D3*
X5162000Y8954000D3*
X4932000Y3853000D3*
Y3663000D3*
X5162000Y3758000D3*
X4932000Y4677000D3*
Y4487000D3*
X5162000Y4582000D3*
X4932000Y2119000D3*
Y1929000D3*
X5162000Y2024000D3*
X4932000Y2996000D3*
Y2806000D3*
X5162000Y2901000D3*
X4932000Y6422000D3*
Y6232000D3*
X5162000Y6327000D3*
X4932000Y5540000D3*
Y5350000D3*
X5162000Y5445000D3*
X4932000Y8151000D3*
Y7961000D3*
X5162000Y8056000D3*
X4932000Y7296000D3*
Y7106000D3*
X5162000Y7201000D3*
D33*
X2373000Y5672000D3*
X2543000D3*
D32*
X1875000Y4478000D3*
Y4648000D3*
X2879000Y2074000D3*
Y1904000D3*
X2080000Y4650000D3*
Y4480000D3*
X2921000Y3032000D3*
Y3202000D3*
X2720000Y3018000D3*
Y3188000D3*
X2684000Y2054000D3*
Y1884000D3*
X3256000Y6570000D3*
Y6740000D3*
X3032000Y6570000D3*
Y6740000D3*
D33*
X2790877Y7439760D3*
X2620877D3*
X2337000Y5962000D3*
X2507000D3*
X2332000Y6119000D3*
X2502000D3*
X4525000Y9975000D3*
X4355000D3*
X4525000Y9034000D3*
X4355000D3*
X4525000Y3850000D3*
X4355000D3*
X4504000Y4693000D3*
X4334000D3*
X4517000Y2119000D3*
X4347000D3*
X4525000Y2983000D3*
X4355000D3*
D32*
X4747000Y9804000D3*
Y9974000D3*
X4755000Y8864000D3*
Y9034000D3*
X4769000Y3672000D3*
Y3842000D3*
Y4506000D3*
Y4676000D3*
X4724000Y1944000D3*
Y2114000D3*
X4769000Y2814000D3*
Y2984000D3*
D33*
X4986000Y9581000D3*
X5156000D3*
X4986000Y8646000D3*
X5156000D3*
X5027000Y3461000D3*
X5197000D3*
X5056000Y4334000D3*
X5226000D3*
X5110000Y1712000D3*
X5280000D3*
X5077000Y2578000D3*
X5247000D3*
X4540000Y6410000D3*
X4370000D3*
X4518000Y5531000D3*
X4348000D3*
X4525000Y8141000D3*
X4355000D3*
X4525000Y7293000D3*
X4355000D3*
D32*
X4770000Y6243000D3*
Y6413000D3*
Y5357000D3*
Y5527000D3*
X4755000Y7972000D3*
Y8142000D3*
X4748000Y7113000D3*
Y7283000D3*
X7156000Y1403000D3*
Y1233000D3*
D33*
X4988000Y6027000D3*
X5158000D3*
X4966000Y5129000D3*
X5136000D3*
X4997000Y7753000D3*
X5167000D3*
X5011000Y6900000D3*
X5181000D3*
D32*
X4268000Y1200000D3*
Y1370000D3*
D33*
X5276000Y1210000D3*
X5106000D3*
X6275000Y10261000D3*
X6445000D3*
D62*
X5561000Y9994000D3*
Y9486000D3*
X6069000Y9994000D3*
Y9486000D3*
X6323000Y9994000D3*
Y9486000D3*
X6577000Y9994000D3*
Y9486000D3*
X5561000Y9126000D3*
Y8618000D3*
X6069000Y9126000D3*
Y8618000D3*
X6323000Y9126000D3*
Y8618000D3*
X6577000Y9126000D3*
Y8618000D3*
X5569000Y4009000D3*
Y3501000D3*
X6077000Y4009000D3*
Y3501000D3*
X6331000Y4009000D3*
Y3501000D3*
X6585000Y4009000D3*
Y3501000D3*
X5568000Y4880000D3*
Y4372000D3*
X6076000Y4880000D3*
Y4372000D3*
X6330000Y4880000D3*
Y4372000D3*
X6584000Y4880000D3*
Y4372000D3*
X5567000Y2336000D3*
Y1828000D3*
X6075000Y2336000D3*
Y1828000D3*
X6329000Y2336000D3*
Y1828000D3*
X6583000Y2336000D3*
Y1828000D3*
X5569000Y3167000D3*
Y2659000D3*
X6077000Y3167000D3*
Y2659000D3*
X6331000Y3167000D3*
Y2659000D3*
X6585000Y3167000D3*
Y2659000D3*
X5567000Y6574000D3*
Y6066000D3*
X6075000Y6574000D3*
Y6066000D3*
X6329000Y6574000D3*
Y6066000D3*
X6583000Y6574000D3*
Y6066000D3*
X5567000Y5730000D3*
Y5222000D3*
X6075000Y5730000D3*
Y5222000D3*
X6329000Y5730000D3*
Y5222000D3*
X6583000Y5730000D3*
Y5222000D3*
X5563000Y8264000D3*
Y7756000D3*
X6071000Y8264000D3*
Y7756000D3*
X6325000Y8264000D3*
Y7756000D3*
X6579000Y8264000D3*
Y7756000D3*
X5564000Y7419000D3*
Y6911000D3*
X6072000Y7419000D3*
Y6911000D3*
X6326000Y7419000D3*
Y6911000D3*
X6580000Y7419000D3*
Y6911000D3*
D63*
X1779000Y6255000D3*
X1969000D3*
X2030000Y2804000D3*
X1840000D3*
D66*
X6874000Y9314000D3*
X7283200D3*
D63*
X2371000Y6766000D3*
X2529227D3*
X2219253D3*
D68*
X2588000Y2647000D3*
Y2597000D3*
Y2547000D3*
Y2497000D3*
Y2447000D3*
Y2397000D3*
Y2347000D3*
D69*
X2688000Y2247000D3*
X2738000D3*
X2788000D3*
X2838000D3*
X2888000D3*
X2938000D3*
X2988000D3*
D68*
X3088000Y2347000D3*
Y2397000D3*
Y2447000D3*
Y2497000D3*
Y2547000D3*
Y2597000D3*
Y2647000D3*
D69*
X2988000Y2747000D3*
X2938000D3*
X2888000D3*
X2838000D3*
X2788000D3*
X2738000D3*
X2688000D3*
D70*
X2838000Y2497000D3*
D73*
X2281000Y7369000D3*
X2376000D3*
X2471000D3*
Y7629020D3*
X2281000D3*
D68*
X2840000Y6085000D3*
Y6035000D3*
Y5985000D3*
Y5935000D3*
Y5885000D3*
Y5835000D3*
Y5785000D3*
Y5735000D3*
Y5685000D3*
Y5635000D3*
Y5585000D3*
D69*
X2918500Y5506500D3*
X2968500D3*
X3018500D3*
X3068500D3*
X3118500D3*
X3168500D3*
X3218500D3*
X3268500D3*
X3318500D3*
X3368500D3*
X3418500D3*
D68*
X3497000Y5585000D3*
Y5635000D3*
Y5685000D3*
Y5735000D3*
Y5785000D3*
Y5835000D3*
Y5885000D3*
Y5935000D3*
Y5985000D3*
Y6035000D3*
Y6085000D3*
D69*
X3418500Y6163500D3*
X3368500D3*
X3318500D3*
X3268500D3*
X3218500D3*
X3168500D3*
X3118500D3*
X3068500D3*
X3018500D3*
X2968500D3*
X2918500D3*
D75*
X3168500Y5835000D3*
D76*
X6442000Y1238000D3*
Y1492000D3*
X5592000D3*
Y1238000D3*
D77*
X7983000Y9824000D3*
Y10205000D3*
X7483000Y9824000D3*
Y10205000D3*
D78*
X3379000Y4964000D3*
X2896400D3*
M02*
