G04 DipTrace 3.3.1.3*
G04 TopAssy.gbr*
%MOMM*%
G04 #@! TF.FileFunction,Drawing,Top*
G04 #@! TF.Part,Single*
%ADD10C,0.25*%
%ADD64C,0.127*%
%ADD65C,0.07*%
%ADD72C,0.1524*%
%ADD152C,0.07843*%
%FSLAX35Y35*%
G04*
G71*
G90*
G75*
G01*
G04 TopAssy*
%LPD*%
X1014516Y6455016D2*
D10*
Y5554984D1*
Y3053016D2*
Y2152984D1*
X6848546Y9314000D2*
D64*
X7318604D1*
X7358658Y9485130D2*
Y9142870D1*
X6798542D2*
Y9485130D1*
X6908626Y9314000D2*
X7248574D1*
X7238624Y9393986D2*
D65*
Y9234014D1*
X6918576D2*
Y9393986D1*
X2515993Y7419016D2*
D72*
X2236007D1*
Y7579004D2*
X2515993D1*
Y7419016D1*
X2236007Y7579004D2*
Y7419016D1*
G36*
X2256006Y7349016D2*
X2305989D1*
Y7414038D1*
X2256006D1*
Y7349016D1*
G37*
G36*
X2350994D2*
X2401006D1*
Y7414038D1*
X2350994D1*
Y7349016D1*
G37*
G36*
X2446011D2*
X2495994D1*
Y7414038D1*
X2446011D1*
Y7349016D1*
G37*
G36*
Y7583982D2*
X2495994D1*
Y7649004D1*
X2446011D1*
Y7583982D1*
G37*
G36*
X2256006D2*
X2305989D1*
Y7649004D1*
X2256006D1*
Y7583982D1*
G37*
X979402Y5929634D2*
D152*
Y5961192D1*
X928358D1*
Y5929634D1*
X955087Y5961192D2*
Y5941763D1*
X979402Y5913947D2*
X928358Y5913948D1*
Y5896933D1*
X930829Y5889633D1*
X935658Y5884748D1*
X940543Y5882333D1*
X947787Y5879918D1*
X959973D1*
X967273Y5882333D1*
X972102Y5884748D1*
X976987Y5889633D1*
X979402Y5896933D1*
Y5913947D1*
X967273Y5827788D2*
X972102Y5830203D1*
X976987Y5835088D1*
X979402Y5839917D1*
Y5849632D1*
X976987Y5854517D1*
X972102Y5859347D1*
X967273Y5861817D1*
X959973Y5864232D1*
X947787D1*
X940543Y5861818D1*
X935658Y5859347D1*
X930829Y5854518D1*
X928358Y5849632D1*
Y5839918D1*
X930829Y5835088D1*
X935658Y5830203D1*
X940543Y5827788D1*
X947787D1*
Y5839918D1*
X979402Y5780544D2*
Y5812102D1*
X928358D1*
Y5780544D1*
X955087Y5812102D2*
Y5792673D1*
X978314Y6266266D2*
X927270D1*
Y6244366D1*
X929741Y6237066D1*
X932155Y6234652D1*
X936985Y6232237D1*
X944285D1*
X949170Y6234652D1*
X951585Y6237066D1*
X953999Y6244366D1*
X956470Y6237066D1*
X958885Y6234652D1*
X963714Y6232237D1*
X968599D1*
X973428Y6234652D1*
X975899Y6237066D1*
X978314Y6244366D1*
Y6266266D1*
X953999D2*
Y6244366D1*
X978314Y6201951D2*
X975899Y6206836D1*
X971014Y6211665D1*
X966185Y6214136D1*
X958885Y6216551D1*
X946699D1*
X939455Y6214136D1*
X934570Y6211665D1*
X929741Y6206836D1*
X927270Y6201951D1*
Y6192236D1*
X929741Y6187407D1*
X934570Y6182522D1*
X939455Y6180107D1*
X946699Y6177692D1*
X958885D1*
X966185Y6180107D1*
X971014Y6182522D1*
X975899Y6187407D1*
X978314Y6192236D1*
Y6201951D1*
X927270Y6123092D2*
X978314Y6142577D1*
X927270Y6162006D1*
X944285Y6154706D2*
Y6130392D1*
X953999Y6107405D2*
Y6085561D1*
X956470Y6078261D1*
X958885Y6075791D1*
X963714Y6073376D1*
X968599D1*
X973428Y6075791D1*
X975899Y6078261D1*
X978314Y6085561D1*
Y6107405D1*
X927270D1*
X953999Y6090391D2*
X927270Y6073376D1*
X978314Y6057690D2*
X927270D1*
Y6040675D1*
X929741Y6033375D1*
X934570Y6028490D1*
X939455Y6026075D1*
X946699Y6023661D1*
X958885D1*
X966185Y6026075D1*
X971014Y6028490D1*
X975899Y6033375D1*
X978314Y6040675D1*
Y6057690D1*
X979402Y2527634D2*
Y2559192D1*
X928358D1*
Y2527634D1*
X955087Y2559192D2*
Y2539763D1*
X979402Y2511947D2*
X928358Y2511948D1*
Y2494933D1*
X930829Y2487633D1*
X935658Y2482748D1*
X940543Y2480333D1*
X947787Y2477918D1*
X959973D1*
X967273Y2480333D1*
X972102Y2482748D1*
X976987Y2487633D1*
X979402Y2494933D1*
Y2511947D1*
X967273Y2425788D2*
X972102Y2428203D1*
X976987Y2433088D1*
X979402Y2437917D1*
Y2447632D1*
X976987Y2452517D1*
X972102Y2457347D1*
X967273Y2459817D1*
X959973Y2462232D1*
X947787D1*
X940543Y2459818D1*
X935658Y2457347D1*
X930829Y2452518D1*
X928358Y2447632D1*
Y2437918D1*
X930829Y2433088D1*
X935658Y2428203D1*
X940543Y2425788D1*
X947787D1*
Y2437918D1*
X979402Y2378544D2*
Y2410102D1*
X928358D1*
Y2378544D1*
X955087Y2410102D2*
Y2390673D1*
X978314Y2864266D2*
X927270D1*
Y2842366D1*
X929741Y2835066D1*
X932155Y2832652D1*
X936985Y2830237D1*
X944285D1*
X949170Y2832652D1*
X951585Y2835066D1*
X953999Y2842366D1*
X956470Y2835066D1*
X958885Y2832652D1*
X963714Y2830237D1*
X968599D1*
X973428Y2832652D1*
X975899Y2835066D1*
X978314Y2842366D1*
Y2864266D1*
X953999D2*
Y2842366D1*
X978314Y2799951D2*
X975899Y2804836D1*
X971014Y2809665D1*
X966185Y2812136D1*
X958885Y2814551D1*
X946699D1*
X939455Y2812136D1*
X934570Y2809665D1*
X929741Y2804836D1*
X927270Y2799951D1*
Y2790236D1*
X929741Y2785407D1*
X934570Y2780522D1*
X939455Y2778107D1*
X946699Y2775692D1*
X958885D1*
X966185Y2778107D1*
X971014Y2780522D1*
X975899Y2785407D1*
X978314Y2790236D1*
Y2799951D1*
X927270Y2721092D2*
X978314Y2740577D1*
X927270Y2760006D1*
X944285Y2752706D2*
Y2728392D1*
X953999Y2705405D2*
Y2683561D1*
X956470Y2676261D1*
X958885Y2673791D1*
X963714Y2671376D1*
X968599D1*
X973428Y2673791D1*
X975899Y2676261D1*
X978314Y2683561D1*
Y2705405D1*
X927270D1*
X953999Y2688391D2*
X927270Y2671376D1*
X978314Y2655690D2*
X927270D1*
Y2638675D1*
X929741Y2631375D1*
X934570Y2626490D1*
X939455Y2624075D1*
X946699Y2621661D1*
X958885D1*
X966185Y2624075D1*
X971014Y2626490D1*
X975899Y2631375D1*
X978314Y2638675D1*
Y2655690D1*
M02*
