G04 DipTrace 3.3.1.3*
G04 TopMask.gbr*
%MOMM*%
G04 #@! TF.FileFunction,Soldermask,Top*
G04 #@! TF.Part,Single*
%ADD10C,0.25*%
%ADD15C,0.55*%
%ADD66R,2.286X2.794*%
%ADD73R,0.55X1.2*%
%ADD77C,2.0*%
%ADD80C,3.1*%
%ADD81C,5.08*%
%ADD87C,1.4192*%
%ADD89C,2.2*%
%ADD90R,2.4X1.9*%
%ADD92R,5.4X5.4*%
%ADD96R,3.7X3.7*%
%ADD98O,0.5X1.05*%
%ADD100O,1.05X0.5*%
%ADD104R,1.5X1.7*%
%ADD106C,1.4*%
%ADD107R,1.4X1.65*%
%ADD109R,1.65X1.4*%
%ADD111R,1.978X1.978*%
%ADD113C,1.978*%
%ADD115C,1.7*%
%ADD117R,1.7X1.7*%
%ADD119R,2.1X2.0*%
%ADD121R,1.5X2.5*%
%ADD123R,1.6X1.7*%
%ADD124R,1.2X1.3*%
%ADD125R,1.55X0.6*%
%ADD128R,1.05X1.6*%
%ADD130R,1.25X0.85*%
%ADD134R,1.6X1.05*%
%ADD136R,1.8X1.0*%
%ADD138R,2.6X2.6*%
%ADD140R,0.8X1.2*%
%ADD142R,1.2X1.2*%
%ADD144R,2.2X1.4*%
%ADD145R,1.3X1.2*%
%ADD150O,2.0X2.7*%
%FSLAX35Y35*%
G04*
G71*
G90*
G75*
G01*
G04 TopMask*
%LPD*%
D150*
X1866000Y3447000D3*
Y4097000D3*
X1416000Y3447000D3*
Y4097000D3*
D144*
X2273000Y7165000D3*
X1993000D3*
X2266000Y7890000D3*
X2546000D3*
D145*
X2647877Y7628760D3*
X2817877D3*
D124*
X3380000Y4443000D3*
Y4613000D3*
X2891000Y4443000D3*
Y4613000D3*
D142*
X1976000Y5557001D3*
D140*
X2146000D3*
Y5787001D3*
X1956000D3*
D138*
X1713000Y7522000D3*
Y7962000D3*
X2452000Y3287000D3*
Y3727000D3*
D142*
X2017000Y2139001D3*
D140*
X2187000D3*
Y2369001D3*
X1997000D3*
D136*
X1988000Y6844000D3*
Y6504000D3*
X1717000Y6824000D3*
Y7164000D3*
D134*
X3267000Y6958000D3*
Y7133000D3*
X2998000Y6956000D3*
Y7131000D3*
D130*
X4419000Y9672000D3*
Y9482000D3*
X4649000Y9577000D3*
D128*
X5163000Y9369000D3*
X4988000D3*
D130*
X4419000Y8611000D3*
Y8421000D3*
X4649000Y8516000D3*
X4419000Y3414000D3*
Y3224000D3*
X4649000Y3319000D3*
D128*
X5163000Y8451000D3*
X4988000D3*
X5198000Y3211000D3*
X5023000D3*
D130*
X4419000Y4272000D3*
Y4082000D3*
X4649000Y4177000D3*
D128*
X5201000Y4074000D3*
X5026000D3*
D130*
X4717000Y1674000D3*
Y1484000D3*
X4947000Y1579000D3*
D128*
X5298000Y1471000D3*
X5123000D3*
D130*
X4419000Y2532000D3*
Y2342000D3*
X4649000Y2437000D3*
D128*
X5237000Y2323000D3*
X5062000D3*
D130*
X6939000Y1415000D3*
Y1605000D3*
X6709000Y1510000D3*
X4599000Y5942000D3*
Y5752000D3*
X4829000Y5847000D3*
D128*
X5155000Y5760000D3*
X4980000D3*
D130*
X4569000Y5066000D3*
Y4876000D3*
X4799000Y4971000D3*
X4419000Y7728000D3*
Y7538000D3*
X4649000Y7633000D3*
D128*
X5132000Y4887000D3*
X4957000D3*
X5167000Y7546000D3*
X4992000D3*
D130*
X4419000Y6854000D3*
Y6664000D3*
X4649000Y6759000D3*
D128*
X5190000Y6654000D3*
X5015000D3*
D130*
X4455000Y1387000D3*
Y1197000D3*
X4685000Y1292000D3*
D128*
X6611000Y10258000D3*
X6786000D3*
D80*
X7900000Y9238000D3*
Y1400000D3*
X1400000Y10100000D3*
X1450000Y1450000D3*
D77*
X1563000Y5190000D3*
X1817000D3*
X2071000D3*
X1563000Y4936000D3*
X1817000D3*
X2071000D3*
X1344588Y6205018D2*
D10*
X1344661Y6207110D1*
X1344880Y6209192D1*
X1345244Y6211253D1*
X1345751Y6213284D1*
X1346399Y6215275D1*
X1347184Y6217215D1*
X1348102Y6219097D1*
X1349150Y6220909D1*
X1350322Y6222645D1*
X1351612Y6224294D1*
X1353014Y6225849D1*
X1354521Y6227303D1*
X1356127Y6228649D1*
X1357822Y6229879D1*
X1359599Y6230988D1*
X1361449Y6231971D1*
X1363364Y6232822D1*
X1365333Y6233538D1*
X1367347Y6234115D1*
X1369397Y6234550D1*
X1371472Y6234842D1*
X1373562Y6234988D1*
X1375658D1*
X1377748Y6234842D1*
X1379823Y6234550D1*
X1381873Y6234115D1*
X1383887Y6233538D1*
X1385856Y6232822D1*
X1387771Y6231971D1*
X1389621Y6230988D1*
X1391398Y6229879D1*
X1393093Y6228649D1*
X1394699Y6227303D1*
X1396206Y6225849D1*
X1397608Y6224294D1*
X1398898Y6222645D1*
X1400070Y6220909D1*
X1401118Y6219097D1*
X1402036Y6217215D1*
X1402821Y6215275D1*
X1403469Y6213284D1*
X1403976Y6211253D1*
X1404340Y6209192D1*
X1404559Y6207110D1*
X1404632Y6205018D1*
X1404559Y6202926D1*
X1404340Y6200844D1*
X1403976Y6198783D1*
X1403469Y6196752D1*
X1402821Y6194761D1*
X1402036Y6192821D1*
X1401118Y6190939D1*
X1400070Y6189127D1*
X1398898Y6187391D1*
X1397608Y6185742D1*
X1396206Y6184187D1*
X1394699Y6182733D1*
X1393093Y6181387D1*
X1391398Y6180157D1*
X1389621Y6179048D1*
X1387771Y6178065D1*
X1385856Y6177214D1*
X1383887Y6176498D1*
X1381873Y6175921D1*
X1379823Y6175486D1*
X1377748Y6175194D1*
X1375658Y6175048D1*
X1373562D1*
X1371472Y6175194D1*
X1369397Y6175486D1*
X1367347Y6175921D1*
X1365333Y6176498D1*
X1363364Y6177214D1*
X1361449Y6178065D1*
X1359599Y6179048D1*
X1357822Y6180157D1*
X1356127Y6181387D1*
X1354521Y6182733D1*
X1353014Y6184187D1*
X1351612Y6185742D1*
X1350322Y6187391D1*
X1349150Y6189127D1*
X1348102Y6190939D1*
X1347184Y6192821D1*
X1346399Y6194761D1*
X1345751Y6196752D1*
X1345244Y6198783D1*
X1344880Y6200844D1*
X1344661Y6202926D1*
X1344588Y6205018D1*
X1344792Y5805080D2*
X1344865Y5807172D1*
X1345084Y5809254D1*
X1345448Y5811315D1*
X1345955Y5813346D1*
X1346603Y5815337D1*
X1347388Y5817277D1*
X1348306Y5819159D1*
X1349354Y5820971D1*
X1350526Y5822707D1*
X1351816Y5824356D1*
X1353218Y5825911D1*
X1354725Y5827365D1*
X1356331Y5828711D1*
X1358026Y5829941D1*
X1359803Y5831050D1*
X1361653Y5832033D1*
X1363568Y5832884D1*
X1365537Y5833600D1*
X1367551Y5834177D1*
X1369601Y5834612D1*
X1371676Y5834904D1*
X1373766Y5835050D1*
X1375862D1*
X1377952Y5834904D1*
X1380027Y5834612D1*
X1382077Y5834177D1*
X1384091Y5833600D1*
X1386060Y5832884D1*
X1387975Y5832033D1*
X1389825Y5831050D1*
X1391602Y5829941D1*
X1393297Y5828711D1*
X1394903Y5827365D1*
X1396410Y5825911D1*
X1397812Y5824356D1*
X1399102Y5822707D1*
X1400274Y5820971D1*
X1401322Y5819159D1*
X1402240Y5817277D1*
X1403025Y5815337D1*
X1403673Y5813346D1*
X1404180Y5811315D1*
X1404544Y5809254D1*
X1404763Y5807172D1*
X1404836Y5805080D1*
X1404763Y5802988D1*
X1404544Y5800906D1*
X1404180Y5798845D1*
X1403673Y5796814D1*
X1403025Y5794823D1*
X1402240Y5792883D1*
X1401322Y5791001D1*
X1400274Y5789189D1*
X1399102Y5787453D1*
X1397812Y5785804D1*
X1396410Y5784249D1*
X1394903Y5782795D1*
X1393297Y5781449D1*
X1391602Y5780219D1*
X1389825Y5779110D1*
X1387975Y5778127D1*
X1386060Y5777276D1*
X1384091Y5776560D1*
X1382077Y5775983D1*
X1380027Y5775548D1*
X1377952Y5775256D1*
X1375862Y5775110D1*
X1373766D1*
X1371676Y5775256D1*
X1369601Y5775548D1*
X1367551Y5775983D1*
X1365537Y5776560D1*
X1363568Y5777276D1*
X1361653Y5778127D1*
X1359803Y5779110D1*
X1358026Y5780219D1*
X1356331Y5781449D1*
X1354725Y5782795D1*
X1353218Y5784249D1*
X1351816Y5785804D1*
X1350526Y5787453D1*
X1349354Y5789189D1*
X1348306Y5791001D1*
X1347388Y5792883D1*
X1346603Y5794823D1*
X1345955Y5796814D1*
X1345448Y5798845D1*
X1345084Y5800906D1*
X1344865Y5802988D1*
X1344792Y5805080D1*
D125*
X1427000Y6135000D3*
Y6070000D3*
Y6005000D3*
Y5940000D3*
Y5875000D3*
D123*
X1404500Y6335000D3*
Y5675000D3*
D121*
X1159500Y6380000D3*
Y5630000D3*
D119*
Y6120000D3*
Y5890000D3*
D15*
X1374500Y6205000D3*
Y5805000D3*
X1344588Y2803018D2*
D10*
X1344661Y2805110D1*
X1344880Y2807192D1*
X1345244Y2809253D1*
X1345751Y2811284D1*
X1346399Y2813275D1*
X1347184Y2815215D1*
X1348102Y2817097D1*
X1349150Y2818909D1*
X1350322Y2820645D1*
X1351612Y2822294D1*
X1353014Y2823849D1*
X1354521Y2825303D1*
X1356127Y2826649D1*
X1357822Y2827879D1*
X1359599Y2828988D1*
X1361449Y2829971D1*
X1363364Y2830822D1*
X1365333Y2831538D1*
X1367347Y2832115D1*
X1369397Y2832550D1*
X1371472Y2832842D1*
X1373562Y2832988D1*
X1375658D1*
X1377748Y2832842D1*
X1379823Y2832550D1*
X1381873Y2832115D1*
X1383887Y2831538D1*
X1385856Y2830822D1*
X1387771Y2829971D1*
X1389621Y2828988D1*
X1391398Y2827879D1*
X1393093Y2826649D1*
X1394699Y2825303D1*
X1396206Y2823849D1*
X1397608Y2822294D1*
X1398898Y2820645D1*
X1400070Y2818909D1*
X1401118Y2817097D1*
X1402036Y2815215D1*
X1402821Y2813275D1*
X1403469Y2811284D1*
X1403976Y2809253D1*
X1404340Y2807192D1*
X1404559Y2805110D1*
X1404632Y2803018D1*
X1404559Y2800926D1*
X1404340Y2798844D1*
X1403976Y2796783D1*
X1403469Y2794752D1*
X1402821Y2792761D1*
X1402036Y2790821D1*
X1401118Y2788939D1*
X1400070Y2787127D1*
X1398898Y2785391D1*
X1397608Y2783742D1*
X1396206Y2782187D1*
X1394699Y2780733D1*
X1393093Y2779387D1*
X1391398Y2778157D1*
X1389621Y2777048D1*
X1387771Y2776065D1*
X1385856Y2775214D1*
X1383887Y2774498D1*
X1381873Y2773921D1*
X1379823Y2773486D1*
X1377748Y2773194D1*
X1375658Y2773048D1*
X1373562D1*
X1371472Y2773194D1*
X1369397Y2773486D1*
X1367347Y2773921D1*
X1365333Y2774498D1*
X1363364Y2775214D1*
X1361449Y2776065D1*
X1359599Y2777048D1*
X1357822Y2778157D1*
X1356127Y2779387D1*
X1354521Y2780733D1*
X1353014Y2782187D1*
X1351612Y2783742D1*
X1350322Y2785391D1*
X1349150Y2787127D1*
X1348102Y2788939D1*
X1347184Y2790821D1*
X1346399Y2792761D1*
X1345751Y2794752D1*
X1345244Y2796783D1*
X1344880Y2798844D1*
X1344661Y2800926D1*
X1344588Y2803018D1*
X1344792Y2403080D2*
X1344865Y2405172D1*
X1345084Y2407254D1*
X1345448Y2409315D1*
X1345955Y2411346D1*
X1346603Y2413337D1*
X1347388Y2415277D1*
X1348306Y2417159D1*
X1349354Y2418971D1*
X1350526Y2420707D1*
X1351816Y2422356D1*
X1353218Y2423911D1*
X1354725Y2425365D1*
X1356331Y2426711D1*
X1358026Y2427941D1*
X1359803Y2429050D1*
X1361653Y2430033D1*
X1363568Y2430884D1*
X1365537Y2431600D1*
X1367551Y2432177D1*
X1369601Y2432612D1*
X1371676Y2432904D1*
X1373766Y2433050D1*
X1375862D1*
X1377952Y2432904D1*
X1380027Y2432612D1*
X1382077Y2432177D1*
X1384091Y2431600D1*
X1386060Y2430884D1*
X1387975Y2430033D1*
X1389825Y2429050D1*
X1391602Y2427941D1*
X1393297Y2426711D1*
X1394903Y2425365D1*
X1396410Y2423911D1*
X1397812Y2422356D1*
X1399102Y2420707D1*
X1400274Y2418971D1*
X1401322Y2417159D1*
X1402240Y2415277D1*
X1403025Y2413337D1*
X1403673Y2411346D1*
X1404180Y2409315D1*
X1404544Y2407254D1*
X1404763Y2405172D1*
X1404836Y2403080D1*
X1404763Y2400988D1*
X1404544Y2398906D1*
X1404180Y2396845D1*
X1403673Y2394814D1*
X1403025Y2392823D1*
X1402240Y2390883D1*
X1401322Y2389001D1*
X1400274Y2387189D1*
X1399102Y2385453D1*
X1397812Y2383804D1*
X1396410Y2382249D1*
X1394903Y2380795D1*
X1393297Y2379449D1*
X1391602Y2378219D1*
X1389825Y2377110D1*
X1387975Y2376127D1*
X1386060Y2375276D1*
X1384091Y2374560D1*
X1382077Y2373983D1*
X1380027Y2373548D1*
X1377952Y2373256D1*
X1375862Y2373110D1*
X1373766D1*
X1371676Y2373256D1*
X1369601Y2373548D1*
X1367551Y2373983D1*
X1365537Y2374560D1*
X1363568Y2375276D1*
X1361653Y2376127D1*
X1359803Y2377110D1*
X1358026Y2378219D1*
X1356331Y2379449D1*
X1354725Y2380795D1*
X1353218Y2382249D1*
X1351816Y2383804D1*
X1350526Y2385453D1*
X1349354Y2387189D1*
X1348306Y2389001D1*
X1347388Y2390883D1*
X1346603Y2392823D1*
X1345955Y2394814D1*
X1345448Y2396845D1*
X1345084Y2398906D1*
X1344865Y2400988D1*
X1344792Y2403080D1*
D125*
X1427000Y2733000D3*
Y2668000D3*
Y2603000D3*
Y2538000D3*
Y2473000D3*
D123*
X1404500Y2933000D3*
Y2273000D3*
D121*
X1159500Y2978000D3*
Y2228000D3*
D119*
Y2718000D3*
Y2488000D3*
D15*
X1374500Y2803000D3*
Y2403000D3*
D117*
X4005000Y5358000D3*
D115*
Y5104000D3*
Y4850000D3*
D113*
X7695000Y6810000D3*
Y6533133D3*
Y6256300D3*
Y5979433D3*
Y5702567D3*
Y5425700D3*
Y5148833D3*
X7410533Y6949700D3*
Y6672833D3*
Y6396000D3*
Y6119133D3*
Y5842267D3*
X7410567Y5565400D3*
X7410533Y5288533D3*
D111*
Y5011700D3*
D81*
X7552767Y7648200D3*
Y4313200D3*
D109*
X1752000Y5741000D3*
Y5571000D3*
D107*
X2181000Y6422000D3*
X2351000D3*
D109*
X1792000Y2361000D3*
Y2191000D3*
X2219000Y2805000D3*
Y2975000D3*
D130*
X4932000Y9987000D3*
Y9797000D3*
X5162000Y9892000D3*
X4932000Y9049000D3*
Y8859000D3*
X5162000Y8954000D3*
X4932000Y3853000D3*
Y3663000D3*
X5162000Y3758000D3*
X4932000Y4677000D3*
Y4487000D3*
X5162000Y4582000D3*
X4932000Y2119000D3*
Y1929000D3*
X5162000Y2024000D3*
X4932000Y2996000D3*
Y2806000D3*
X5162000Y2901000D3*
X4932000Y6422000D3*
Y6232000D3*
X5162000Y6327000D3*
X4932000Y5540000D3*
Y5350000D3*
X5162000Y5445000D3*
X4932000Y8151000D3*
Y7961000D3*
X5162000Y8056000D3*
X4932000Y7296000D3*
Y7106000D3*
X5162000Y7201000D3*
D145*
X2373000Y5672000D3*
X2543000D3*
D124*
X1875000Y4478000D3*
Y4648000D3*
X2879000Y2074000D3*
Y1904000D3*
X2080000Y4650000D3*
Y4480000D3*
X2921000Y3032000D3*
Y3202000D3*
X2720000Y3018000D3*
Y3188000D3*
X2684000Y2054000D3*
Y1884000D3*
X3256000Y6570000D3*
Y6740000D3*
X3032000Y6570000D3*
Y6740000D3*
D145*
X2790877Y7439760D3*
X2620877D3*
X2337000Y5962000D3*
X2507000D3*
X2332000Y6119000D3*
X2502000D3*
X4525000Y9975000D3*
X4355000D3*
X4525000Y9034000D3*
X4355000D3*
X4525000Y3850000D3*
X4355000D3*
X4504000Y4693000D3*
X4334000D3*
X4517000Y2119000D3*
X4347000D3*
X4525000Y2983000D3*
X4355000D3*
D124*
X4747000Y9804000D3*
Y9974000D3*
X4755000Y8864000D3*
Y9034000D3*
X4769000Y3672000D3*
Y3842000D3*
Y4506000D3*
Y4676000D3*
X4724000Y1944000D3*
Y2114000D3*
X4769000Y2814000D3*
Y2984000D3*
D145*
X4986000Y9581000D3*
X5156000D3*
X4986000Y8646000D3*
X5156000D3*
X5027000Y3461000D3*
X5197000D3*
X5056000Y4334000D3*
X5226000D3*
X5110000Y1712000D3*
X5280000D3*
X5077000Y2578000D3*
X5247000D3*
X4540000Y6410000D3*
X4370000D3*
X4518000Y5531000D3*
X4348000D3*
X4525000Y8141000D3*
X4355000D3*
X4525000Y7293000D3*
X4355000D3*
D124*
X4770000Y6243000D3*
Y6413000D3*
Y5357000D3*
Y5527000D3*
X4755000Y7972000D3*
Y8142000D3*
X4748000Y7113000D3*
Y7283000D3*
X7156000Y1403000D3*
Y1233000D3*
D145*
X4988000Y6027000D3*
X5158000D3*
X4966000Y5129000D3*
X5136000D3*
X4997000Y7753000D3*
X5167000D3*
X5011000Y6900000D3*
X5181000D3*
D124*
X4268000Y1200000D3*
Y1370000D3*
D145*
X5276000Y1210000D3*
X5106000D3*
X6275000Y10261000D3*
X6445000D3*
D106*
X5561000Y9994000D3*
Y9486000D3*
X6069000Y9994000D3*
Y9486000D3*
X6323000Y9994000D3*
Y9486000D3*
X6577000Y9994000D3*
Y9486000D3*
X5561000Y9126000D3*
Y8618000D3*
X6069000Y9126000D3*
Y8618000D3*
X6323000Y9126000D3*
Y8618000D3*
X6577000Y9126000D3*
Y8618000D3*
X5569000Y4009000D3*
Y3501000D3*
X6077000Y4009000D3*
Y3501000D3*
X6331000Y4009000D3*
Y3501000D3*
X6585000Y4009000D3*
Y3501000D3*
X5568000Y4880000D3*
Y4372000D3*
X6076000Y4880000D3*
Y4372000D3*
X6330000Y4880000D3*
Y4372000D3*
X6584000Y4880000D3*
Y4372000D3*
X5567000Y2336000D3*
Y1828000D3*
X6075000Y2336000D3*
Y1828000D3*
X6329000Y2336000D3*
Y1828000D3*
X6583000Y2336000D3*
Y1828000D3*
X5569000Y3167000D3*
Y2659000D3*
X6077000Y3167000D3*
Y2659000D3*
X6331000Y3167000D3*
Y2659000D3*
X6585000Y3167000D3*
Y2659000D3*
X5567000Y6574000D3*
Y6066000D3*
X6075000Y6574000D3*
Y6066000D3*
X6329000Y6574000D3*
Y6066000D3*
X6583000Y6574000D3*
Y6066000D3*
X5567000Y5730000D3*
Y5222000D3*
X6075000Y5730000D3*
Y5222000D3*
X6329000Y5730000D3*
Y5222000D3*
X6583000Y5730000D3*
Y5222000D3*
X5563000Y8264000D3*
Y7756000D3*
X6071000Y8264000D3*
Y7756000D3*
X6325000Y8264000D3*
Y7756000D3*
X6579000Y8264000D3*
Y7756000D3*
X5564000Y7419000D3*
Y6911000D3*
X6072000Y7419000D3*
Y6911000D3*
X6326000Y7419000D3*
Y6911000D3*
X6580000Y7419000D3*
Y6911000D3*
D104*
X1779000Y6255000D3*
X1969000D3*
X2030000Y2804000D3*
X1840000D3*
D66*
X6874000Y9314000D3*
X7283200D3*
D104*
X2371000Y6766000D3*
X2529227D3*
X2219253D3*
D100*
X2588000Y2647000D3*
Y2597000D3*
Y2547000D3*
Y2497000D3*
Y2447000D3*
Y2397000D3*
Y2347000D3*
D98*
X2688000Y2247000D3*
X2738000D3*
X2788000D3*
X2838000D3*
X2888000D3*
X2938000D3*
X2988000D3*
D100*
X3088000Y2347000D3*
Y2397000D3*
Y2447000D3*
Y2497000D3*
Y2547000D3*
Y2597000D3*
Y2647000D3*
D98*
X2988000Y2747000D3*
X2938000D3*
X2888000D3*
X2838000D3*
X2788000D3*
X2738000D3*
X2688000D3*
D96*
X2838000Y2497000D3*
D73*
X2281000Y7369000D3*
X2376000D3*
X2471000D3*
Y7629020D3*
X2281000D3*
D100*
X2840000Y6085000D3*
Y6035000D3*
Y5985000D3*
Y5935000D3*
Y5885000D3*
Y5835000D3*
Y5785000D3*
Y5735000D3*
Y5685000D3*
Y5635000D3*
Y5585000D3*
D98*
X2918500Y5506500D3*
X2968500D3*
X3018500D3*
X3068500D3*
X3118500D3*
X3168500D3*
X3218500D3*
X3268500D3*
X3318500D3*
X3368500D3*
X3418500D3*
D100*
X3497000Y5585000D3*
Y5635000D3*
Y5685000D3*
Y5735000D3*
Y5785000D3*
Y5835000D3*
Y5885000D3*
Y5935000D3*
Y5985000D3*
Y6035000D3*
Y6085000D3*
D98*
X3418500Y6163500D3*
X3368500D3*
X3318500D3*
X3268500D3*
X3218500D3*
X3168500D3*
X3118500D3*
X3068500D3*
X3018500D3*
X2968500D3*
X2918500D3*
D92*
X3168500Y5835000D3*
D90*
X6442000Y1238000D3*
Y1492000D3*
X5592000D3*
Y1238000D3*
D89*
X7983000Y9824000D3*
Y10205000D3*
X7483000Y9824000D3*
Y10205000D3*
D87*
X3379000Y4964000D3*
X2896400D3*
M02*
