G04 DipTrace 3.3.1.3*
G04 TopPaste.gbr*
%MOMM*%
G04 #@! TF.FileFunction,Paste,Top*
G04 #@! TF.Part,Single*
%ADD66R,2.286X2.794*%
%ADD73R,0.55X1.2*%
%ADD91R,2.0X1.5*%
%ADD93R,5.0X5.0*%
%ADD97R,3.3X3.3*%
%ADD99O,0.1X0.65*%
%ADD101O,0.65X0.1*%
%ADD105R,1.1X1.3*%
%ADD108R,1.0X1.25*%
%ADD110R,1.25X1.0*%
%ADD120R,1.7X1.6*%
%ADD122R,1.1X2.1*%
%ADD124R,1.2X1.3*%
%ADD126R,1.15X0.2*%
%ADD129R,0.65X1.2*%
%ADD131R,0.85X0.45*%
%ADD135R,1.2X0.65*%
%ADD136R,1.8X1.0*%
%ADD137R,1.4X0.6*%
%ADD139R,2.2X2.2*%
%ADD141R,0.4X0.8*%
%ADD143R,0.8X0.8*%
%ADD146R,0.9X0.8*%
%ADD147R,0.8X0.9*%
%FSLAX35Y35*%
G04*
G71*
G90*
G75*
G01*
G04 TopPaste*
%LPD*%
D136*
X2273000Y7165000D3*
X1993000D3*
X2266000Y7890000D3*
X2546000D3*
D146*
X2647877Y7628760D3*
X2817877D3*
D147*
X3380000Y4443000D3*
Y4613000D3*
X2891000Y4443000D3*
Y4613000D3*
D143*
X1976000Y5557001D3*
D141*
X2146000D3*
Y5787001D3*
X1956000D3*
D139*
X1713000Y7522000D3*
Y7962000D3*
X2452000Y3287000D3*
Y3727000D3*
D143*
X2017000Y2139001D3*
D141*
X2187000D3*
Y2369001D3*
X1997000D3*
D137*
X1988000Y6844000D3*
Y6504000D3*
X1717000Y6824000D3*
Y7164000D3*
D135*
X3267000Y6958000D3*
Y7133000D3*
X2998000Y6956000D3*
Y7131000D3*
D131*
X4419000Y9672000D3*
Y9482000D3*
X4649000Y9577000D3*
D129*
X5163000Y9369000D3*
X4988000D3*
D131*
X4419000Y8611000D3*
Y8421000D3*
X4649000Y8516000D3*
X4419000Y3414000D3*
Y3224000D3*
X4649000Y3319000D3*
D129*
X5163000Y8451000D3*
X4988000D3*
X5198000Y3211000D3*
X5023000D3*
D131*
X4419000Y4272000D3*
Y4082000D3*
X4649000Y4177000D3*
D129*
X5201000Y4074000D3*
X5026000D3*
D131*
X4717000Y1674000D3*
Y1484000D3*
X4947000Y1579000D3*
D129*
X5298000Y1471000D3*
X5123000D3*
D131*
X4419000Y2532000D3*
Y2342000D3*
X4649000Y2437000D3*
D129*
X5237000Y2323000D3*
X5062000D3*
D131*
X6939000Y1415000D3*
Y1605000D3*
X6709000Y1510000D3*
X4599000Y5942000D3*
Y5752000D3*
X4829000Y5847000D3*
D129*
X5155000Y5760000D3*
X4980000D3*
D131*
X4569000Y5066000D3*
Y4876000D3*
X4799000Y4971000D3*
X4419000Y7728000D3*
Y7538000D3*
X4649000Y7633000D3*
D129*
X5132000Y4887000D3*
X4957000D3*
X5167000Y7546000D3*
X4992000D3*
D131*
X4419000Y6854000D3*
Y6664000D3*
X4649000Y6759000D3*
D129*
X5190000Y6654000D3*
X5015000D3*
D131*
X4455000Y1387000D3*
Y1197000D3*
X4685000Y1292000D3*
D129*
X6611000Y10258000D3*
X6786000D3*
D126*
X1427000Y6135000D3*
Y6070000D3*
Y6005000D3*
Y5940000D3*
Y5875000D3*
D124*
X1404500Y6335000D3*
Y5675000D3*
D122*
X1159500Y6380000D3*
Y5630000D3*
D120*
Y6120000D3*
Y5890000D3*
D126*
X1427000Y2733000D3*
Y2668000D3*
Y2603000D3*
Y2538000D3*
Y2473000D3*
D124*
X1404500Y2933000D3*
Y2273000D3*
D122*
X1159500Y2978000D3*
Y2228000D3*
D120*
Y2718000D3*
Y2488000D3*
D110*
X1752000Y5741000D3*
Y5571000D3*
D108*
X2181000Y6422000D3*
X2351000D3*
D110*
X1792000Y2361000D3*
Y2191000D3*
X2219000Y2805000D3*
Y2975000D3*
D131*
X4932000Y9987000D3*
Y9797000D3*
X5162000Y9892000D3*
X4932000Y9049000D3*
Y8859000D3*
X5162000Y8954000D3*
X4932000Y3853000D3*
Y3663000D3*
X5162000Y3758000D3*
X4932000Y4677000D3*
Y4487000D3*
X5162000Y4582000D3*
X4932000Y2119000D3*
Y1929000D3*
X5162000Y2024000D3*
X4932000Y2996000D3*
Y2806000D3*
X5162000Y2901000D3*
X4932000Y6422000D3*
Y6232000D3*
X5162000Y6327000D3*
X4932000Y5540000D3*
Y5350000D3*
X5162000Y5445000D3*
X4932000Y8151000D3*
Y7961000D3*
X5162000Y8056000D3*
X4932000Y7296000D3*
Y7106000D3*
X5162000Y7201000D3*
D146*
X2373000Y5672000D3*
X2543000D3*
D147*
X1875000Y4478000D3*
Y4648000D3*
X2879000Y2074000D3*
Y1904000D3*
X2080000Y4650000D3*
Y4480000D3*
X2921000Y3032000D3*
Y3202000D3*
X2720000Y3018000D3*
Y3188000D3*
X2684000Y2054000D3*
Y1884000D3*
X3256000Y6570000D3*
Y6740000D3*
X3032000Y6570000D3*
Y6740000D3*
D146*
X2790877Y7439760D3*
X2620877D3*
X2337000Y5962000D3*
X2507000D3*
X2332000Y6119000D3*
X2502000D3*
X4525000Y9975000D3*
X4355000D3*
X4525000Y9034000D3*
X4355000D3*
X4525000Y3850000D3*
X4355000D3*
X4504000Y4693000D3*
X4334000D3*
X4517000Y2119000D3*
X4347000D3*
X4525000Y2983000D3*
X4355000D3*
D147*
X4747000Y9804000D3*
Y9974000D3*
X4755000Y8864000D3*
Y9034000D3*
X4769000Y3672000D3*
Y3842000D3*
Y4506000D3*
Y4676000D3*
X4724000Y1944000D3*
Y2114000D3*
X4769000Y2814000D3*
Y2984000D3*
D146*
X4986000Y9581000D3*
X5156000D3*
X4986000Y8646000D3*
X5156000D3*
X5027000Y3461000D3*
X5197000D3*
X5056000Y4334000D3*
X5226000D3*
X5110000Y1712000D3*
X5280000D3*
X5077000Y2578000D3*
X5247000D3*
X4540000Y6410000D3*
X4370000D3*
X4518000Y5531000D3*
X4348000D3*
X4525000Y8141000D3*
X4355000D3*
X4525000Y7293000D3*
X4355000D3*
D147*
X4770000Y6243000D3*
Y6413000D3*
Y5357000D3*
Y5527000D3*
X4755000Y7972000D3*
Y8142000D3*
X4748000Y7113000D3*
Y7283000D3*
X7156000Y1403000D3*
Y1233000D3*
D146*
X4988000Y6027000D3*
X5158000D3*
X4966000Y5129000D3*
X5136000D3*
X4997000Y7753000D3*
X5167000D3*
X5011000Y6900000D3*
X5181000D3*
D147*
X4268000Y1200000D3*
Y1370000D3*
D146*
X5276000Y1210000D3*
X5106000D3*
X6275000Y10261000D3*
X6445000D3*
D105*
X1779000Y6255000D3*
X1969000D3*
X2030000Y2804000D3*
X1840000D3*
D66*
X6874000Y9314000D3*
X7283200D3*
D105*
X2371000Y6766000D3*
X2529227D3*
X2219253D3*
D101*
X2588000Y2647000D3*
Y2597000D3*
Y2547000D3*
Y2497000D3*
Y2447000D3*
Y2397000D3*
Y2347000D3*
D99*
X2688000Y2247000D3*
X2738000D3*
X2788000D3*
X2838000D3*
X2888000D3*
X2938000D3*
X2988000D3*
D101*
X3088000Y2347000D3*
Y2397000D3*
Y2447000D3*
Y2497000D3*
Y2547000D3*
Y2597000D3*
Y2647000D3*
D99*
X2988000Y2747000D3*
X2938000D3*
X2888000D3*
X2838000D3*
X2788000D3*
X2738000D3*
X2688000D3*
D97*
X2838000Y2497000D3*
D73*
X2281000Y7369000D3*
X2376000D3*
X2471000D3*
Y7629020D3*
X2281000D3*
D101*
X2840000Y6085000D3*
Y6035000D3*
Y5985000D3*
Y5935000D3*
Y5885000D3*
Y5835000D3*
Y5785000D3*
Y5735000D3*
Y5685000D3*
Y5635000D3*
Y5585000D3*
D99*
X2918500Y5506500D3*
X2968500D3*
X3018500D3*
X3068500D3*
X3118500D3*
X3168500D3*
X3218500D3*
X3268500D3*
X3318500D3*
X3368500D3*
X3418500D3*
D101*
X3497000Y5585000D3*
Y5635000D3*
Y5685000D3*
Y5735000D3*
Y5785000D3*
Y5835000D3*
Y5885000D3*
Y5935000D3*
Y5985000D3*
Y6035000D3*
Y6085000D3*
D99*
X3418500Y6163500D3*
X3368500D3*
X3318500D3*
X3268500D3*
X3218500D3*
X3168500D3*
X3118500D3*
X3068500D3*
X3018500D3*
X2968500D3*
X2918500D3*
D93*
X3168500Y5835000D3*
D91*
X6442000Y1238000D3*
Y1492000D3*
X5592000D3*
Y1238000D3*
M02*
