G04 DipTrace 3.3.1.3*
G04 VDD.gbr*
%MOMM*%
G04 #@! TF.FileFunction,Copper,L2,Inr*
G04 #@! TF.Part,Single*
G04 #@! TA.AperFunction,CopperBalancing*
%ADD14C,0.2*%
G04 #@! TA.AperFunction,Conductor*
%ADD16C,1.0*%
%ADD17C,0.7*%
%ADD18C,2.0*%
G04 #@! TA.AperFunction,ComponentPad*
%ADD21C,1.778*%
G04 #@! TA.AperFunction,ViaPad*
%ADD22C,1.016*%
G04 #@! TA.AperFunction,CopperBalancing*
%ADD28C,0.635*%
G04 #@! TA.AperFunction,ComponentPad*
%ADD29O,1.8X2.5*%
%ADD51C,1.8*%
%ADD57R,1.5X1.5*%
%ADD58C,1.5*%
%ADD59R,1.778X1.778*%
%ADD62C,1.2*%
%ADD77C,2.0*%
%ADD78C,1.2192*%
%FSLAX35Y35*%
G04*
G71*
G90*
G75*
G01*
G04 Inner1*
%LPD*%
X2029000Y7890000D2*
D18*
X1806000Y7667000D1*
Y7141000D1*
X1955000Y6992000D1*
X2402000Y6545000D1*
X2612000D1*
X2685000Y6472000D1*
X3195000D1*
X3285000Y6562000D1*
X3709000D1*
X3779000Y5320000D2*
Y5464000D1*
X4042000Y5727000D1*
Y6320000D1*
X3800000Y6562000D1*
X3709000D1*
X3779000Y1200000D2*
Y5320000D1*
X2281000Y4480000D2*
Y5321000D1*
X1974000Y5628000D1*
X1554000D1*
Y5190000D1*
X1563000D1*
X1565000D1*
Y5579000D1*
X1641000Y5655000D1*
Y6678000D1*
X1955000Y6992000D1*
X2684000Y1716000D2*
X3181000Y1219000D1*
X3760000D1*
D16*
X3779000Y1200000D1*
X1745000Y5420000D2*
X1841000D1*
X2071000Y5190000D1*
X1616000Y3454000D2*
X1423000D1*
X1416000Y3447000D1*
X1209000D1*
Y3302147D1*
X1581000Y2930147D1*
X1716000Y2795147D1*
Y2090000D1*
X1792000Y2014000D1*
X1616000Y4097000D2*
X1416000D1*
X1183000D1*
Y3473000D1*
X1209000Y3447000D1*
X1616000Y3107000D2*
X1581000Y3072000D1*
Y2930147D1*
X2590000Y8413000D2*
Y8117000D1*
X7695000Y6810000D2*
D21*
Y6533133D1*
Y6256300D1*
Y6810000D2*
D16*
X8015000D1*
D18*
Y8468047D1*
X7550160Y8932887D1*
X7495953Y8974047D1*
X7310617Y9172430D1*
X7160000Y9323047D1*
Y9740000D1*
Y10055000D1*
X7310000Y10205000D1*
X7483000D1*
X7983000D1*
X7410533Y5011700D2*
D21*
Y4787000D1*
D18*
X7756000D1*
X7880000D1*
X8014000Y4921000D1*
Y6256300D1*
D16*
X7695000D1*
Y6533133D2*
X7883900D1*
D18*
X8015000D1*
Y6810000D1*
Y6533133D2*
X8014000Y6256300D1*
X7698000Y8771000D2*
D22*
Y8620200D1*
D18*
Y8374093D1*
X7509000Y8185093D1*
X7906000Y8564000D2*
D22*
X7799367Y8457367D1*
D18*
X7509000Y8185093D1*
X7550160Y8932887D2*
X7495953D1*
Y8974047D1*
X6984000Y9740000D2*
X7160000D1*
X7983000Y10205000D2*
X8046000D1*
X8074000Y10177000D1*
X7952000D1*
X7832520Y10057520D1*
X7737000Y9962000D1*
Y9598813D1*
X7310617Y9172430D1*
X7539080Y7187920D2*
X7838920D1*
X7092000Y4273000D2*
D16*
Y3926000D1*
X7201000Y3817000D1*
X7830000D1*
X8014000Y4001000D1*
Y4921000D1*
X7410533Y5011700D2*
X7531300D1*
X7756000Y4787000D1*
X7410533Y5011700D2*
X7092000D1*
X8130000Y10026000D2*
X7864040D1*
X7832520Y10057520D1*
X6939000Y1874000D2*
D17*
X6883000Y1818000D1*
X6593000D1*
X6583000Y1828000D1*
X5561000Y9486000D2*
D18*
X5274000D1*
X5125000Y9337000D1*
Y8618000D1*
X5561000D1*
X5563000Y7756000D2*
X5125000D1*
Y8618000D1*
X5564000Y6911000D2*
X5125000D1*
Y7756000D1*
X5567000Y6066000D2*
X5125000D1*
Y6911000D1*
X5567000Y5222000D2*
X5125000D1*
Y6066000D1*
X5568000Y4372000D2*
X5101000D1*
Y5222000D1*
X5125000D1*
X5569000Y3501000D2*
X5076000D1*
Y4372000D1*
X5101000D1*
X5569000Y2659000D2*
X5076000D1*
Y3501000D1*
X5567000Y1828000D2*
X5236000D1*
X5076000Y1988000D1*
Y2659000D1*
X2361000Y6939000D2*
X5090077D1*
X5125000Y6911000D1*
X2879000Y6295000D2*
D16*
X3397000D1*
X3633000Y6059000D1*
Y5601000D1*
X2514000Y2226000D2*
X2364000D1*
X2142000Y2004000D1*
X1997000Y2518000D2*
X2289000Y2226000D1*
X2364000D1*
X1428000Y7962000D2*
D18*
Y7047000D1*
X1189000Y6808000D1*
Y4543000D1*
X1395000Y4337000D1*
X2053000D1*
X2452000Y3938000D1*
Y3984000D1*
X1931000Y5928000D2*
D16*
X2373000Y5486000D1*
X1988000Y6673000D2*
Y6344000D1*
X1931000Y6287000D1*
Y5928000D1*
D22*
X2706000Y6084000D3*
X3029000Y5395000D3*
X3522000Y6369000D3*
X2029000Y7890000D3*
X3709000Y6562000D3*
X2612000Y6545000D3*
D3*
X3779000Y5320000D3*
Y1200000D3*
Y5320000D3*
X2281000Y4480000D3*
X2684000Y1716000D3*
X3779000Y1200000D3*
X3069710Y3399007D3*
X2983723Y3484993D3*
X4598000Y9804000D3*
X4603000Y8859000D3*
X4590000Y7972000D3*
X4591000Y7125000D3*
X4631000Y6254000D3*
X4560000Y5357000D3*
Y4506000D3*
Y5357000D3*
X4617000Y3672000D3*
X4560000Y4506000D3*
X4617000Y2814000D3*
Y3672000D3*
Y1944000D3*
Y2814000D3*
X2890000Y4310000D3*
X1616000Y3454000D3*
X4617000Y3672000D3*
X1616000Y4097000D3*
Y3454000D3*
X2890000Y4310000D3*
X1745000Y5420000D3*
X1986000Y7332000D3*
X2590000Y8117000D3*
X2817877Y7836397D3*
X2838000Y2497000D3*
X2848000Y1803000D3*
X2838000Y2497000D3*
X3239000Y5835000D3*
X1792000Y2014000D3*
X2007000D3*
X3457000Y7151000D3*
X3468000Y6743000D3*
X3239000Y5835000D3*
X2376000Y7488000D3*
X2089000D3*
X1745000Y5420000D3*
X2614000Y5547000D3*
X4455000Y1631000D3*
X4617000Y1944000D3*
X5789000Y1492000D3*
X4455000Y1631000D3*
X2838000Y2497000D3*
X2007000Y2014000D3*
X3239000Y5835000D3*
X2614000Y5547000D3*
D3*
X3239000Y5835000D3*
X2414000Y5791000D3*
X1745000Y5420000D3*
D3*
X1616000Y3454000D3*
Y4097000D3*
Y3454000D3*
X1792000Y2014000D3*
X1616000Y4097000D3*
D3*
Y3454000D3*
Y4097000D3*
Y3107000D3*
X3468000Y6743000D3*
X2590000Y8413000D3*
Y8117000D3*
Y8413000D3*
Y8117000D3*
D3*
X2817877Y7836397D3*
D3*
X2376000Y7488000D3*
D3*
X2089000D3*
D3*
X1986000Y7332000D3*
X3457000Y7151000D3*
D3*
X2817877Y7836397D3*
X4560000Y5357000D3*
X3111000Y4583000D3*
X2890000Y4310000D3*
X3088000Y3947000D3*
X2890000Y4310000D3*
X3088000Y3947000D3*
D3*
X2890000Y4310000D3*
D3*
X2726000D3*
X2590000Y8413000D3*
X2838000Y2497000D3*
X1557000Y1897000D3*
X1792000Y2014000D3*
X1372000Y5420000D3*
X3986000Y10169000D3*
D3*
X2524000Y9668000D3*
X1986000Y7332000D3*
X4560000Y4506000D3*
Y5357000D3*
Y4506000D3*
X4617000Y3672000D3*
D3*
Y2814000D3*
D3*
Y1944000D3*
D3*
X4455000Y1631000D3*
X2848000Y1803000D3*
X2007000Y2014000D3*
X3534000Y4310000D3*
X3111000Y4583000D3*
D3*
X2590000Y8117000D3*
Y8413000D3*
X3534000Y4310000D3*
D3*
X2846000Y3705000D3*
X3088000Y3947000D3*
X3534000Y4591000D3*
X2443000Y2613000D3*
X2838000Y2497000D3*
X3868000Y6095000D3*
X4268000Y5129000D3*
X4212000Y3842000D3*
X4409000Y5735000D3*
X4180000Y9980000D3*
X4437000Y5877000D3*
X4350000Y8875000D3*
X4553000Y6151000D3*
X4360000Y7980000D3*
X4452000Y6281000D3*
X4363000Y7116000D3*
X4244000Y4939000D3*
X2864000Y5363000D3*
X2770000Y6199000D3*
X4914000Y1207000D3*
X6724000Y1386000D3*
X7495953Y8974047D3*
D3*
D3*
D3*
D3*
X7787477Y8682523D3*
X7906000Y8564000D3*
D3*
X7787477Y8682523D3*
X7906000Y8564000D3*
X7495953Y8974047D3*
X7787477Y8682523D3*
X7906000Y8564000D3*
X7495953Y8974047D3*
X6984000Y9740000D3*
X7838920Y7187920D3*
X7539080D3*
X7838920D3*
X7092000Y5011700D3*
Y4273000D3*
Y5011700D3*
D3*
X8130000Y10026000D3*
X2329000Y2497000D3*
X2308000Y1987000D3*
X2181000Y6261000D3*
X6939000Y1874000D3*
X4766000Y9365000D3*
X2361000Y6939000D3*
X1823000Y6481000D3*
X3633000Y5601000D3*
X2879000Y6295000D3*
X3633000Y5601000D3*
X2606000Y5801000D3*
X2868000Y6669000D3*
X2514000Y2226000D3*
X2142000Y2004000D3*
X1997000Y2518000D3*
X1840000Y3046000D3*
X2464000Y2349000D3*
X2486000Y6326000D3*
X1428000Y7962000D3*
X2452000Y3984000D3*
X2450000Y5249000D3*
X1931000Y5928000D3*
X2373000Y5486000D3*
X1988000Y6673000D3*
D3*
X1931000Y5928000D3*
X7599000Y8873000D3*
X7698000Y8771000D3*
X2524000Y8620000D3*
X2016000D3*
X3032000D3*
Y8112000D3*
Y9128000D3*
X2524000D3*
X1966000Y9143000D3*
X1508000Y9154000D3*
Y8620000D3*
X3540000Y3032000D3*
Y2524000D3*
Y2016000D3*
Y1508000D3*
X2026000Y1455000D3*
X2006000Y1763000D3*
X3540000Y3540000D3*
X3021000Y9661000D3*
X3027000Y10165000D3*
X2524000Y10171000D3*
X1968000Y10181000D3*
X1965000Y9649000D3*
X1507000Y9662000D3*
X3538000Y10169000D3*
X3488000Y9636000D3*
X3500000Y9135000D3*
X3540000Y8620000D3*
Y8112000D3*
X4048000Y9128000D3*
Y8620000D3*
Y8112000D3*
Y7604000D3*
Y7124000D3*
X1598977Y10306083D2*
D28*
X5462890D1*
X1649563Y10242917D2*
X5462890D1*
X1676907Y10179750D2*
X5462890D1*
X1687933Y10116583D2*
X5462890D1*
X1684563Y10053417D2*
X4085040D1*
X4275017D2*
X5440013D1*
X1666243Y9990250D2*
X4059063D1*
X4300993D2*
X5423423D1*
X1629237Y9927083D2*
X4071460D1*
X4288600D2*
X5445027D1*
X1139147Y9863917D2*
X1239283D1*
X1560697D2*
X5462890D1*
X1139147Y9800750D2*
X5462890D1*
X1139147Y9737583D2*
X5462890D1*
X1139147Y9674417D2*
X5462890D1*
X1139147Y9611250D2*
X5161290D1*
X1139147Y9548083D2*
X5097397D1*
X1139147Y9484917D2*
X5034233D1*
X1139147Y9421750D2*
X4659530D1*
X4872480D2*
X4977903D1*
X1139147Y9358583D2*
X4644767D1*
X4887243D2*
X4955757D1*
X1139147Y9295417D2*
X4668007D1*
X4864003D2*
X4954387D1*
X1139147Y9232250D2*
X4954387D1*
X1139147Y9169083D2*
X4954387D1*
X1139147Y9105917D2*
X4954387D1*
X1139147Y9042750D2*
X4954387D1*
X1139147Y8979583D2*
X4295587D1*
X4404353D2*
X4954387D1*
X1139147Y8916417D2*
X4236250D1*
X4463690D2*
X4954387D1*
X1139147Y8853250D2*
X4230600D1*
X4469340D2*
X4954387D1*
X1139147Y8790083D2*
X4265963D1*
X4434067D2*
X4954387D1*
X1139147Y8726917D2*
X4954387D1*
X1139147Y8663750D2*
X4954387D1*
X1139147Y8600583D2*
X4954387D1*
X1139147Y8537417D2*
X4954387D1*
X1139147Y8474250D2*
X4954387D1*
X1139147Y8411083D2*
X4954387D1*
X1139147Y8347917D2*
X4954387D1*
X1139147Y8284750D2*
X4954387D1*
X1139147Y8221583D2*
X4954387D1*
X1139147Y8158417D2*
X4954387D1*
X1139147Y8095250D2*
X1325507D1*
X1530433D2*
X4954387D1*
X1139147Y8032083D2*
X1273100D1*
X1582933D2*
X1940197D1*
X2117870D2*
X4251017D1*
X4468977D2*
X4954387D1*
X1139147Y7968917D2*
X1257513D1*
X1598520D2*
X1869193D1*
X2179483D2*
X4239077D1*
X4480917D2*
X4954387D1*
X1139147Y7905750D2*
X1257330D1*
X1598613D2*
X1806030D1*
X2198897D2*
X4265690D1*
X4454303D2*
X4954387D1*
X1139147Y7842583D2*
X1257330D1*
X1598613D2*
X1742863D1*
X2192610D2*
X4954387D1*
X1139147Y7779417D2*
X1257330D1*
X1598613D2*
X1679883D1*
X2156880D2*
X4954387D1*
X1139147Y7716250D2*
X1257330D1*
X1598613D2*
X1642877D1*
X2093897D2*
X4954387D1*
X1139147Y7653083D2*
X1257330D1*
X1598613D2*
X1635403D1*
X2030733D2*
X4954387D1*
X1139147Y7589917D2*
X1257330D1*
X1598613D2*
X1635403D1*
X1976683D2*
X4954387D1*
X1139147Y7526750D2*
X1257330D1*
X1598613D2*
X1635403D1*
X1976683D2*
X4954387D1*
X1139147Y7463583D2*
X1257330D1*
X1598613D2*
X1635403D1*
X1976683D2*
X4954387D1*
X1139147Y7400417D2*
X1257330D1*
X1598613D2*
X1635403D1*
X1976683D2*
X4954387D1*
X1139147Y7337250D2*
X1257330D1*
X1598613D2*
X1635403D1*
X1976683D2*
X4954387D1*
X1139147Y7274083D2*
X1257330D1*
X1598613D2*
X1635403D1*
X1976683D2*
X4954387D1*
X1139147Y7210917D2*
X1257330D1*
X1598613D2*
X1635403D1*
X1976683D2*
X4266603D1*
X4469340D2*
X4954387D1*
X1139147Y7147750D2*
X1257330D1*
X1598613D2*
X1635403D1*
X2037933D2*
X4246550D1*
X4489393D2*
X4954387D1*
X1139147Y7084583D2*
X1226887D1*
X1598613D2*
X1645340D1*
X2101100D2*
X2278530D1*
X1596607Y7021417D2*
X1686900D1*
X2164263D2*
X2212540D1*
X1572637Y6958250D2*
X1682527D1*
X1514757Y6895083D2*
X1619363D1*
X1451593Y6831917D2*
X1556197D1*
X1388430Y6768750D2*
X1497683D1*
X2931803D2*
X4954387D1*
X1359627Y6705583D2*
X1472710D1*
X2983480D2*
X3198830D1*
X3886190D2*
X4954387D1*
X1359627Y6642417D2*
X1470340D1*
X2986307D2*
X3126733D1*
X3958287D2*
X4954387D1*
X1359627Y6579250D2*
X1470340D1*
X4021450D2*
X4954387D1*
X1359627Y6516083D2*
X1470340D1*
X2108663D2*
X2192213D1*
X4084613D2*
X4954387D1*
X1359627Y6452917D2*
X1470340D1*
X2108663D2*
X2255377D1*
X4147780D2*
X4954387D1*
X1359627Y6389750D2*
X1470340D1*
X2108663D2*
X2341877D1*
X4197087D2*
X4407970D1*
X4496047D2*
X4954387D1*
X1359627Y6326583D2*
X1470340D1*
X2282933D2*
X2367580D1*
X4212493D2*
X4339973D1*
X4564040D2*
X4954387D1*
X2303443Y6263417D2*
X2384167D1*
X2593833D2*
X2668270D1*
X4212673D2*
X4331953D1*
X4584003D2*
X4954387D1*
X2286123Y6200250D2*
X2648580D1*
X4212673D2*
X4363673D1*
X4663390D2*
X4954387D1*
X2051607Y6137083D2*
X2597540D1*
X2873377D2*
X3386953D1*
X4212673D2*
X4432397D1*
X4673600D2*
X4954387D1*
X1359627Y6073917D2*
X1470340D1*
X2051607D2*
X2584960D1*
X2826983D2*
X3450117D1*
X4212673D2*
X4461197D1*
X4644797D2*
X4954387D1*
X1359627Y6010750D2*
X1470340D1*
X2051607D2*
X2610847D1*
X2801100D2*
X3512370D1*
X4212673D2*
X4954387D1*
X1359627Y5947583D2*
X1470340D1*
X2079407D2*
X3512370D1*
X4212673D2*
X4339700D1*
X4534237D2*
X4954387D1*
X1426893Y5884417D2*
X1470340D1*
X2142570D2*
X2520340D1*
X2691633D2*
X3512370D1*
X4212673D2*
X4315820D1*
X4558207D2*
X4954387D1*
X2205733Y5821250D2*
X2486340D1*
X2725630D2*
X3512370D1*
X4212673D2*
X4326483D1*
X4544080D2*
X4954387D1*
X2268897Y5758083D2*
X2492903D1*
X2719160D2*
X3512370D1*
X4212673D2*
X4289937D1*
X4528130D2*
X4954387D1*
X1359627Y5694917D2*
X1397603D1*
X2332063D2*
X2554973D1*
X2656997D2*
X3512370D1*
X4209483D2*
X4294767D1*
X4523207D2*
X4954387D1*
X2395227Y5631750D2*
X3512370D1*
X4182230D2*
X4351823D1*
X4466150D2*
X4954387D1*
X2459483Y5568583D2*
X3516197D1*
X4122257D2*
X4954387D1*
X2492753Y5505417D2*
X2990197D1*
X3067790D2*
X3562500D1*
X4059093D2*
X4954387D1*
X2485827Y5442250D2*
X2774180D1*
X3140253D2*
X3608347D1*
X4150603D2*
X4954387D1*
X2441073Y5379083D2*
X2743647D1*
X3149367D2*
X3608347D1*
X4150603D2*
X4954387D1*
X2549993Y5315917D2*
X2752670D1*
X3118923D2*
X3608347D1*
X4150603D2*
X4954387D1*
X2571410Y5252750D2*
X2824583D1*
X2903363D2*
X3608347D1*
X4150603D2*
X4933243D1*
X2554913Y5189583D2*
X3608347D1*
X4121253D2*
X4163790D1*
X4372180D2*
X4930327D1*
X1359627Y5126417D2*
X1396147D1*
X2451647D2*
X3608347D1*
X4389407D2*
X4930327D1*
X1359627Y5063250D2*
X1443087D1*
X2451647D2*
X2813647D1*
X2979107D2*
X3296263D1*
X3461723D2*
X3608347D1*
X4368807D2*
X4930327D1*
X1359627Y5000083D2*
X1416290D1*
X2451647D2*
X2770080D1*
X3022673D2*
X3252697D1*
X3505290D2*
X3608347D1*
X4104120D2*
X4140090D1*
X4347933D2*
X4930327D1*
X1359627Y4936917D2*
X1402343D1*
X2451647D2*
X2767800D1*
X3025043D2*
X3250327D1*
X3507660D2*
X3608347D1*
X4365433D2*
X4930327D1*
X1359627Y4873750D2*
X1415470D1*
X2451647D2*
X2803163D1*
X2989587D2*
X3285780D1*
X3472207D2*
X3608347D1*
X4345200D2*
X4930327D1*
X1359627Y4810583D2*
X1466783D1*
X1659223D2*
X1720807D1*
X1913247D2*
X1974740D1*
X2451647D2*
X3608347D1*
X4144953D2*
X4930327D1*
X1359627Y4747417D2*
X2110363D1*
X2451647D2*
X3608347D1*
X4105577D2*
X4930327D1*
X1359627Y4684250D2*
X2110363D1*
X2451647D2*
X3608347D1*
X3949627D2*
X4930327D1*
X1359627Y4621083D2*
X2110363D1*
X2451647D2*
X3608347D1*
X3949627D2*
X4930327D1*
X1412767Y4557917D2*
X2110363D1*
X2451647D2*
X3608347D1*
X3949627D2*
X4930327D1*
X2451647Y4494750D2*
X3608347D1*
X3949627D2*
X4930327D1*
X2444353Y4431583D2*
X3608347D1*
X3949627D2*
X4916563D1*
X2407897Y4368417D2*
X3608347D1*
X3949627D2*
X4905353D1*
X1139147Y4305250D2*
X1188060D1*
X2323403D2*
X3608347D1*
X3949627D2*
X4905353D1*
X1139147Y4242083D2*
X1251223D1*
X2386567D2*
X3608347D1*
X3949627D2*
X4905353D1*
X1139147Y4178917D2*
X1262710D1*
X2449730D2*
X3608347D1*
X3949627D2*
X4905353D1*
X1139147Y4115750D2*
X1255327D1*
X1576647D2*
X1705403D1*
X2556463D2*
X3608347D1*
X3949627D2*
X4905353D1*
X1139147Y4052583D2*
X1255690D1*
X1576373D2*
X1705677D1*
X2026360D2*
X2098697D1*
X2607597D2*
X3608347D1*
X3949627D2*
X4905353D1*
X1139147Y3989417D2*
X1273463D1*
X1558507D2*
X1723543D1*
X2008493D2*
X2161863D1*
X2622543D2*
X3608347D1*
X3949627D2*
X4905353D1*
X1139147Y3926250D2*
X1336353D1*
X1495707D2*
X1786340D1*
X1945697D2*
X2225027D1*
X2622180D2*
X3608347D1*
X3949627D2*
X4127240D1*
X4296803D2*
X4905353D1*
X1139147Y3863083D2*
X2288190D1*
X2604587D2*
X3608347D1*
X3949627D2*
X4092513D1*
X4331530D2*
X4905353D1*
X1139147Y3799917D2*
X2356640D1*
X2547350D2*
X3608347D1*
X3949627D2*
X4098530D1*
X4325513D2*
X4905353D1*
X1139147Y3736750D2*
X3608347D1*
X3949627D2*
X4159050D1*
X4264900D2*
X4905353D1*
X1139147Y3673583D2*
X3608347D1*
X3949627D2*
X4905353D1*
X1139147Y3610417D2*
X1324140D1*
X1507830D2*
X1774127D1*
X1957910D2*
X3608347D1*
X3949627D2*
X4905353D1*
X1139147Y3547250D2*
X1269817D1*
X1562153D2*
X1719803D1*
X2012140D2*
X2880547D1*
X3086840D2*
X3608347D1*
X3949627D2*
X4905353D1*
X1139147Y3484083D2*
X1255417D1*
X1576647D2*
X1705403D1*
X2026633D2*
X2862317D1*
X3153560D2*
X3608347D1*
X3949627D2*
X4905353D1*
X1139147Y3420917D2*
X1255327D1*
X1576647D2*
X1705403D1*
X2026633D2*
X2881733D1*
X3189017D2*
X3608347D1*
X3949627D2*
X4905353D1*
X1139147Y3357750D2*
X1265170D1*
X1566803D2*
X1715247D1*
X2016790D2*
X2955923D1*
X3183547D2*
X3608347D1*
X3949627D2*
X4905353D1*
X1139147Y3294583D2*
X1309557D1*
X1522413D2*
X1759543D1*
X1972400D2*
X3014987D1*
X3124483D2*
X3608347D1*
X3949627D2*
X4905353D1*
X1139147Y3231417D2*
X3608347D1*
X3949627D2*
X4905353D1*
X1139147Y3168250D2*
X3608347D1*
X3949627D2*
X4905353D1*
X1139147Y3105083D2*
X1734843D1*
X1945147D2*
X3608347D1*
X3949627D2*
X4905353D1*
X1139147Y3041917D2*
X1718620D1*
X1961373D2*
X3608347D1*
X3949627D2*
X4905353D1*
X1139147Y2978750D2*
X1740220D1*
X1939770D2*
X3608347D1*
X3949627D2*
X4905353D1*
X1139147Y2915583D2*
X3608347D1*
X3949627D2*
X4905353D1*
X1139147Y2852417D2*
X1290780D1*
X1458247D2*
X3608347D1*
X3949627D2*
X4905353D1*
X1139147Y2789250D2*
X1277383D1*
X1471647D2*
X3608347D1*
X3949627D2*
X4905353D1*
X1139147Y2726083D2*
X1318033D1*
X1430903D2*
X3608347D1*
X3949627D2*
X4905353D1*
X1139147Y2662917D2*
X3608347D1*
X3949627D2*
X4905353D1*
X1139147Y2599750D2*
X1909663D1*
X2084327D2*
X2270780D1*
X2387207D2*
X3608347D1*
X3949627D2*
X4905353D1*
X1139147Y2536583D2*
X1877030D1*
X2146397D2*
X2214543D1*
X2443443D2*
X3608347D1*
X3949627D2*
X4905353D1*
X1139147Y2473417D2*
X1309283D1*
X1439743D2*
X1884507D1*
X2448000D2*
X3608347D1*
X3949627D2*
X4905353D1*
X1139147Y2410250D2*
X1276653D1*
X1472373D2*
X1936733D1*
X2566580D2*
X3608347D1*
X3949627D2*
X4905353D1*
X1139147Y2347083D2*
X1295340D1*
X1453600D2*
X1999897D1*
X2582350D2*
X3608347D1*
X3949627D2*
X4905353D1*
X1139147Y2283917D2*
X2063060D1*
X2619810D2*
X3608347D1*
X3949627D2*
X4905353D1*
X1139147Y2220750D2*
X2126223D1*
X2635303D2*
X3608347D1*
X3949627D2*
X4905353D1*
X1139147Y2157583D2*
X2127590D1*
X2612883D2*
X3608347D1*
X3949627D2*
X4905353D1*
X1139147Y2094417D2*
X2064427D1*
X2400420D2*
X3608347D1*
X3949627D2*
X4905353D1*
X1139147Y2031250D2*
X2023867D1*
X2420563D2*
X3608347D1*
X3949627D2*
X4905353D1*
X1139147Y1968083D2*
X2026330D1*
X2427857D2*
X3608347D1*
X3949627D2*
X4906537D1*
X1139147Y1904917D2*
X2077097D1*
X2395043D2*
X3608347D1*
X3949627D2*
X4927957D1*
X1139147Y1841750D2*
X2571927D1*
X2796087D2*
X3608347D1*
X3949627D2*
X4983553D1*
X1139147Y1778583D2*
X2525717D1*
X2860070D2*
X3608347D1*
X3949627D2*
X5046720D1*
X1139147Y1715417D2*
X1348113D1*
X1551853D2*
X2513320D1*
X2923233D2*
X3608347D1*
X3949627D2*
X5109883D1*
X1139147Y1652250D2*
X1247030D1*
X1653027D2*
X2526263D1*
X2986397D2*
X3608347D1*
X3949627D2*
X5462890D1*
X1139147Y1589083D2*
X1198270D1*
X1701790D2*
X2572200D1*
X3049653D2*
X3608347D1*
X3949627D2*
X5462890D1*
X1139147Y1525917D2*
X1172067D1*
X1728040D2*
X2635363D1*
X3112817D2*
X3608347D1*
X3949627D2*
X5462890D1*
X1738157Y1462750D2*
X2698530D1*
X3175980D2*
X3608347D1*
X3949627D2*
X5462890D1*
X1733873Y1399583D2*
X2761693D1*
X3239147D2*
X3608347D1*
X3949627D2*
X5462890D1*
X1139147Y1336417D2*
X1185417D1*
X1714550D2*
X2824857D1*
X3949627D2*
X5462890D1*
X1139147Y1273250D2*
X1223790D1*
X1676177D2*
X2888020D1*
X3949627D2*
X4813567D1*
X5014483D2*
X5462890D1*
X1139147Y1210083D2*
X1295247D1*
X1604720D2*
X2951187D1*
X3949627D2*
X4792603D1*
X5035357D2*
X5462890D1*
X1139147Y1146917D2*
X3014350D1*
X3940787D2*
X4809467D1*
X5018493D2*
X5462890D1*
X1711713Y3481953D2*
X1713610Y3506137D1*
X1719260Y3529677D1*
X1728527Y3552047D1*
X1741177Y3572690D1*
X1756900Y3591100D1*
X1775310Y3606823D1*
X1795953Y3619473D1*
X1818323Y3628740D1*
X1841863Y3634390D1*
X1866000Y3636290D1*
X1890137Y3634390D1*
X1913677Y3628740D1*
X1936047Y3619473D1*
X1956690Y3606823D1*
X1975100Y3591100D1*
X1990823Y3572690D1*
X2003473Y3552047D1*
X2012740Y3529677D1*
X2018390Y3506137D1*
X2020290Y3482000D1*
X2019813Y3399893D1*
X2016027Y3375983D1*
X2008547Y3352957D1*
X1997553Y3331383D1*
X1983323Y3311797D1*
X1966203Y3294677D1*
X1946617Y3280447D1*
X1925043Y3269453D1*
X1902017Y3261973D1*
X1878107Y3258187D1*
X1853893D1*
X1829983Y3261973D1*
X1806957Y3269453D1*
X1785383Y3280447D1*
X1765797Y3294677D1*
X1748677Y3311797D1*
X1734447Y3331383D1*
X1723453Y3352957D1*
X1715973Y3375983D1*
X1712187Y3399893D1*
X1711710Y3458667D1*
Y3481910D1*
X1711713Y4131953D2*
X1713610Y4156137D1*
X1717297Y4172710D1*
X1564937Y4172293D1*
X1568710Y4154023D1*
X1570253Y4135433D1*
X1570007Y4052673D1*
X1567757Y4034153D1*
X1563287Y4016040D1*
X1556663Y3998603D1*
X1547983Y3982090D1*
X1537373Y3966743D1*
X1524990Y3952790D1*
X1511013Y3940437D1*
X1495647Y3929857D1*
X1479117Y3921210D1*
X1461663Y3914623D1*
X1443543Y3910187D1*
X1425020Y3907973D1*
X1406363Y3908010D1*
X1387850Y3910300D1*
X1369747Y3914807D1*
X1352320Y3921463D1*
X1335823Y3930177D1*
X1320500Y3940817D1*
X1306573Y3953227D1*
X1294247Y3967230D1*
X1283697Y3982617D1*
X1275083Y3999163D1*
X1268530Y4016630D1*
X1264133Y4034760D1*
X1261957Y4053287D1*
X1261710Y4132617D1*
X1262913Y4151233D1*
X1266353Y4169570D1*
X1271983Y4187353D1*
X1279717Y4204333D1*
X1285593Y4214427D1*
X1146837Y4352823D1*
X1132720Y4366937D1*
X1132750Y1132837D1*
X3034840Y1132750D1*
X2567830Y1599830D1*
X2551087Y1619433D1*
X2537617Y1641413D1*
X2527750Y1665230D1*
X2521733Y1690300D1*
X2519710Y1716000D1*
X2521733Y1741700D1*
X2527750Y1766770D1*
X2537617Y1790587D1*
X2551087Y1812567D1*
X2567830Y1832170D1*
X2587433Y1848913D1*
X2609413Y1862383D1*
X2633230Y1872250D1*
X2658300Y1878267D1*
X2684000Y1880290D1*
X2709700Y1878267D1*
X2734770Y1872250D1*
X2758587Y1862383D1*
X2780567Y1848913D1*
X2800170Y1832170D1*
X3249063Y1383277D1*
X3614763Y1383290D1*
X3614710Y5464000D1*
X3614997Y5487327D1*
X3597437Y5491543D1*
X3580750Y5498453D1*
X3565353Y5507890D1*
X3551620Y5519620D1*
X3539890Y5533353D1*
X3530453Y5548750D1*
X3523543Y5565437D1*
X3519327Y5582997D1*
X3517910Y5601000D1*
X3518710Y5624333D1*
Y6011613D1*
X3349620Y6180750D1*
X2888030Y6180263D1*
X2883550Y6180090D1*
X2879457Y6163437D1*
X2872547Y6146750D1*
X2863110Y6131353D1*
X2851380Y6117620D1*
X2837647Y6105890D1*
X2820487Y6095640D1*
X2820737Y6074970D1*
X2817910Y6057133D1*
X2812330Y6039957D1*
X2804130Y6023867D1*
X2793517Y6009257D1*
X2780743Y5996483D1*
X2766133Y5985870D1*
X2750043Y5977670D1*
X2732867Y5972090D1*
X2715030Y5969263D1*
X2696970D1*
X2679133Y5972090D1*
X2661957Y5977670D1*
X2645867Y5985870D1*
X2631257Y5996483D1*
X2618483Y6009257D1*
X2607870Y6023867D1*
X2599670Y6039957D1*
X2594090Y6057133D1*
X2591263Y6074970D1*
Y6093030D1*
X2594090Y6110867D1*
X2599670Y6128043D1*
X2607870Y6144133D1*
X2618483Y6158743D1*
X2631257Y6171517D1*
X2645867Y6182130D1*
X2655513Y6187360D1*
X2655263Y6208030D1*
X2658090Y6225867D1*
X2663670Y6243043D1*
X2671870Y6259133D1*
X2682483Y6273743D1*
X2695257Y6286517D1*
X2709867Y6297130D1*
X2725957Y6305330D1*
X2732417Y6307713D1*
X2672110Y6308217D1*
X2646647Y6312250D1*
X2622130Y6320217D1*
X2610370Y6325640D1*
X2604090Y6323000D1*
X2602673Y6304997D1*
X2598457Y6287437D1*
X2591547Y6270750D1*
X2582110Y6255353D1*
X2570380Y6241620D1*
X2556647Y6229890D1*
X2541250Y6220453D1*
X2524563Y6213543D1*
X2507003Y6209327D1*
X2489000Y6207910D1*
X2470997Y6209327D1*
X2453437Y6213543D1*
X2436750Y6220453D1*
X2421353Y6229890D1*
X2407620Y6241620D1*
X2395890Y6255353D1*
X2386453Y6270750D1*
X2379543Y6287437D1*
X2375327Y6304997D1*
X2373910Y6323000D1*
X2375327Y6341003D1*
X2379543Y6358563D1*
X2386453Y6375250D1*
X2389783Y6381193D1*
X2376300Y6382733D1*
X2351230Y6388750D1*
X2327413Y6398617D1*
X2305433Y6412087D1*
X2285797Y6428867D1*
X2102340Y6612317D1*
X2102290Y6344063D1*
X2114353Y6354110D1*
X2129750Y6363547D1*
X2146437Y6370457D1*
X2163997Y6374673D1*
X2182000Y6376090D1*
X2200003Y6374673D1*
X2217563Y6370457D1*
X2234250Y6363547D1*
X2249647Y6354110D1*
X2263380Y6342380D1*
X2275110Y6328647D1*
X2284547Y6313250D1*
X2291457Y6296563D1*
X2295673Y6279003D1*
X2297090Y6261000D1*
X2295673Y6242997D1*
X2291457Y6225437D1*
X2284547Y6208750D1*
X2275110Y6193353D1*
X2263380Y6179620D1*
X2249647Y6167890D1*
X2234250Y6158453D1*
X2217563Y6151543D1*
X2200003Y6147327D1*
X2182000Y6145910D1*
X2163997Y6147327D1*
X2146437Y6151543D1*
X2129750Y6158453D1*
X2114353Y6167890D1*
X2100620Y6179620D1*
X2088890Y6193353D1*
X2079453Y6208750D1*
X2072543Y6225437D1*
X2068327Y6242997D1*
X2066923Y6261317D1*
X2045290Y6239660D1*
Y5975373D1*
X2447743Y5573517D1*
X2460517Y5560743D1*
X2471130Y5546133D1*
X2479330Y5530043D1*
X2484910Y5512867D1*
X2487737Y5495030D1*
Y5476970D1*
X2484910Y5459133D1*
X2479330Y5441957D1*
X2471130Y5425867D1*
X2460517Y5411257D1*
X2447743Y5398483D1*
X2431503Y5386957D1*
X2440970Y5363737D1*
X2459030D1*
X2476867Y5360910D1*
X2494043Y5355330D1*
X2510133Y5347130D1*
X2524743Y5336517D1*
X2537517Y5323743D1*
X2548130Y5309133D1*
X2556330Y5293043D1*
X2561910Y5275867D1*
X2564737Y5258030D1*
Y5239970D1*
X2561910Y5222133D1*
X2556330Y5204957D1*
X2548130Y5188867D1*
X2537517Y5174257D1*
X2524743Y5161483D1*
X2510133Y5150870D1*
X2494043Y5142670D1*
X2476867Y5137090D1*
X2459030Y5134263D1*
X2445310Y5134093D1*
X2444783Y4467110D1*
X2440750Y4441647D1*
X2432783Y4417130D1*
X2421080Y4394160D1*
X2405927Y4373303D1*
X2387697Y4355073D1*
X2366840Y4339920D1*
X2343870Y4328217D1*
X2319353Y4320250D1*
X2304850Y4317513D1*
X2475760Y4146583D1*
X2490353Y4143750D1*
X2514870Y4135783D1*
X2537840Y4124080D1*
X2558697Y4108927D1*
X2576927Y4090697D1*
X2592080Y4069840D1*
X2603783Y4046870D1*
X2611750Y4022353D1*
X2615783Y3996890D1*
X2616290Y3947200D1*
X2615783Y3925110D1*
X2611750Y3899647D1*
X2603783Y3875130D1*
X2592080Y3852160D1*
X2576927Y3831303D1*
X2558697Y3813073D1*
X2537840Y3797920D1*
X2514870Y3786217D1*
X2490353Y3778250D1*
X2464890Y3774217D1*
X2439110D1*
X2413647Y3778250D1*
X2389130Y3786217D1*
X2366160Y3797920D1*
X2345303Y3813073D1*
X2302830Y3854827D1*
X2020220Y4137440D1*
X2019813Y4049893D1*
X2016027Y4025983D1*
X2008547Y4002957D1*
X1997553Y3981383D1*
X1983323Y3961797D1*
X1966203Y3944677D1*
X1946617Y3930447D1*
X1925043Y3919453D1*
X1902017Y3911973D1*
X1878107Y3908187D1*
X1853893D1*
X1829983Y3911973D1*
X1806957Y3919453D1*
X1785383Y3930447D1*
X1765797Y3944677D1*
X1748677Y3961797D1*
X1734447Y3981383D1*
X1723453Y4002957D1*
X1715973Y4025983D1*
X1712187Y4049893D1*
X1711710Y4108667D1*
Y4131910D1*
X1261717Y3482017D2*
X1262913Y3501233D1*
X1266353Y3519570D1*
X1271983Y3537353D1*
X1279717Y3554333D1*
X1289440Y3570250D1*
X1301017Y3584880D1*
X1314273Y3598007D1*
X1329020Y3609433D1*
X1345033Y3619000D1*
X1362087Y3626563D1*
X1379930Y3632013D1*
X1398297Y3635270D1*
X1416927Y3636287D1*
X1435540Y3635047D1*
X1453867Y3631570D1*
X1471643Y3625907D1*
X1488603Y3618140D1*
X1504503Y3608383D1*
X1519110Y3596777D1*
X1532210Y3583493D1*
X1543610Y3568727D1*
X1553143Y3552690D1*
X1560673Y3535623D1*
X1566087Y3517770D1*
X1569307Y3499397D1*
X1570290Y3477333D1*
X1569657Y3398020D1*
X1566843Y3379577D1*
X1561830Y3361610D1*
X1554680Y3344377D1*
X1545507Y3328133D1*
X1534437Y3313117D1*
X1521637Y3299547D1*
X1507293Y3287617D1*
X1491613Y3277510D1*
X1474830Y3269367D1*
X1457187Y3263310D1*
X1438940Y3259423D1*
X1420357Y3257770D1*
X1401713Y3258373D1*
X1383277Y3261220D1*
X1365317Y3266273D1*
X1348100Y3273453D1*
X1331873Y3282663D1*
X1316880Y3293760D1*
X1303333Y3306587D1*
X1291437Y3320957D1*
X1281357Y3336653D1*
X1273250Y3353453D1*
X1267227Y3371110D1*
X1263380Y3389367D1*
X1261763Y3407950D1*
X1261710Y3481800D1*
X1681213Y10077867D2*
X1678610Y10055873D1*
X1674290Y10034150D1*
X1668277Y10012830D1*
X1660610Y9992050D1*
X1651337Y9971937D1*
X1640517Y9952613D1*
X1628210Y9934197D1*
X1614497Y9916800D1*
X1599463Y9900537D1*
X1583200Y9885503D1*
X1565803Y9871790D1*
X1547387Y9859483D1*
X1528063Y9848663D1*
X1507950Y9839390D1*
X1487170Y9831723D1*
X1465850Y9825710D1*
X1444127Y9821390D1*
X1422133Y9818787D1*
X1400000Y9817917D1*
X1377867Y9818787D1*
X1355873Y9821390D1*
X1334150Y9825710D1*
X1312830Y9831723D1*
X1292050Y9839390D1*
X1271937Y9848663D1*
X1252613Y9859483D1*
X1234197Y9871790D1*
X1216800Y9885503D1*
X1200537Y9900537D1*
X1185503Y9916800D1*
X1171790Y9934197D1*
X1159483Y9952613D1*
X1148663Y9971937D1*
X1139390Y9992050D1*
X1132770Y10009990D1*
X1132750Y6984033D1*
X1263667Y7115007D1*
X1263710Y7962000D1*
X1265733Y7987700D1*
X1271750Y8012770D1*
X1281617Y8036587D1*
X1295087Y8058567D1*
X1311830Y8078170D1*
X1331433Y8094913D1*
X1353413Y8108383D1*
X1377230Y8118250D1*
X1402300Y8124267D1*
X1428000Y8126290D1*
X1453700Y8124267D1*
X1478770Y8118250D1*
X1502587Y8108383D1*
X1524567Y8094913D1*
X1544170Y8078170D1*
X1560913Y8058567D1*
X1574383Y8036587D1*
X1584250Y8012770D1*
X1590267Y7987700D1*
X1592290Y7962000D1*
X1591783Y7034110D1*
X1587750Y7008647D1*
X1579783Y6984130D1*
X1568080Y6961160D1*
X1552927Y6940303D1*
X1511173Y6897830D1*
X1353333Y6739993D1*
X1353290Y6294393D1*
X1367297Y6296507D1*
X1381703D1*
X1395927Y6294253D1*
X1409627Y6289803D1*
X1422460Y6283263D1*
X1434113Y6274797D1*
X1444297Y6264613D1*
X1452763Y6252960D1*
X1459303Y6240127D1*
X1463753Y6226427D1*
X1466007Y6212203D1*
Y6197797D1*
X1463753Y6183573D1*
X1459303Y6169873D1*
X1452763Y6157040D1*
X1444297Y6145387D1*
X1434113Y6135203D1*
X1422460Y6126737D1*
X1409627Y6120197D1*
X1395927Y6115747D1*
X1381703Y6113493D1*
X1367297D1*
X1353267Y6115707D1*
X1353290Y5894263D1*
X1367297Y5896507D1*
X1381703D1*
X1395927Y5894253D1*
X1409627Y5889803D1*
X1422460Y5883263D1*
X1434113Y5874797D1*
X1444297Y5864613D1*
X1452763Y5852960D1*
X1459303Y5840127D1*
X1463753Y5826427D1*
X1466007Y5812203D1*
Y5797797D1*
X1463753Y5783573D1*
X1459303Y5769873D1*
X1453107Y5757653D1*
X1468203Y5768103D1*
X1476710Y5795000D1*
X1477217Y6690890D1*
X1481250Y6716353D1*
X1489217Y6740870D1*
X1500920Y6763840D1*
X1516073Y6784697D1*
X1557827Y6827170D1*
X1722627Y6991967D1*
X1681073Y7034303D1*
X1665920Y7055160D1*
X1654217Y7078130D1*
X1646250Y7102647D1*
X1642217Y7128110D1*
X1641710Y7187667D1*
X1642217Y7679890D1*
X1646250Y7705353D1*
X1654217Y7729870D1*
X1665920Y7752840D1*
X1681073Y7773697D1*
X1722827Y7816170D1*
X1922303Y8014927D1*
X1943160Y8030080D1*
X1966130Y8041783D1*
X1990647Y8049750D1*
X2016110Y8053783D1*
X2041890D1*
X2067353Y8049750D1*
X2091870Y8041783D1*
X2114840Y8030080D1*
X2135697Y8014927D1*
X2153927Y7996697D1*
X2169080Y7975840D1*
X2180783Y7952870D1*
X2188750Y7928353D1*
X2192783Y7902890D1*
Y7877110D1*
X2188750Y7851647D1*
X2180783Y7827130D1*
X2169080Y7804160D1*
X2153927Y7783303D1*
X2112173Y7740830D1*
X1970317Y7598977D1*
X1970290Y7208993D1*
X2201423Y6977917D1*
X2209217Y7001870D1*
X2220920Y7024840D1*
X2236073Y7045697D1*
X2254303Y7063927D1*
X2275160Y7079080D1*
X2298130Y7090783D1*
X2322647Y7098750D1*
X2348110Y7102783D1*
X2407667Y7103290D1*
X4261117D1*
X4256090Y7119133D1*
X4253263Y7136970D1*
Y7155030D1*
X4256090Y7172867D1*
X4261670Y7190043D1*
X4269870Y7206133D1*
X4280483Y7220743D1*
X4293257Y7233517D1*
X4307867Y7244130D1*
X4323957Y7252330D1*
X4341133Y7257910D1*
X4358970Y7260737D1*
X4377030D1*
X4394867Y7257910D1*
X4412043Y7252330D1*
X4428133Y7244130D1*
X4442743Y7233517D1*
X4455517Y7220743D1*
X4466130Y7206133D1*
X4474330Y7190043D1*
X4479910Y7172867D1*
X4482737Y7155030D1*
Y7136970D1*
X4479910Y7119133D1*
X4474830Y7103313D1*
X4960753Y7103290D1*
X4960710Y9337000D1*
X4962733Y9362700D1*
X4968750Y9387770D1*
X4978617Y9411587D1*
X4992087Y9433567D1*
X5008867Y9453203D1*
X5167303Y9610927D1*
X5188160Y9626080D1*
X5211130Y9637783D1*
X5235647Y9645750D1*
X5261110Y9649783D1*
X5320667Y9650290D1*
X5469327D1*
X5469250Y9907600D1*
X5457093Y9919773D1*
X5446553Y9934283D1*
X5438410Y9950263D1*
X5432867Y9967320D1*
X5430063Y9985033D1*
Y10002967D1*
X5432867Y10020680D1*
X5438410Y10037737D1*
X5446553Y10053717D1*
X5457093Y10068227D1*
X5469233Y10080407D1*
X5469250Y10369163D1*
X1484113Y10369250D1*
X1507950Y10360610D1*
X1528063Y10351337D1*
X1547387Y10340517D1*
X1565803Y10328210D1*
X1583200Y10314497D1*
X1599463Y10299463D1*
X1614497Y10283200D1*
X1628210Y10265803D1*
X1640517Y10247387D1*
X1651337Y10228063D1*
X1660610Y10207950D1*
X1668277Y10187170D1*
X1674290Y10165850D1*
X1678610Y10144127D1*
X1681213Y10122133D1*
X1682083Y10100000D1*
X1681213Y10077867D1*
X1731213Y1427867D2*
X1728610Y1405873D1*
X1724290Y1384150D1*
X1718277Y1362830D1*
X1710610Y1342050D1*
X1701337Y1321937D1*
X1690517Y1302613D1*
X1678210Y1284197D1*
X1664497Y1266800D1*
X1649463Y1250537D1*
X1633200Y1235503D1*
X1615803Y1221790D1*
X1597387Y1209483D1*
X1578063Y1198663D1*
X1557950Y1189390D1*
X1537170Y1181723D1*
X1515850Y1175710D1*
X1494127Y1171390D1*
X1472133Y1168787D1*
X1450000Y1167917D1*
X1427867Y1168787D1*
X1405873Y1171390D1*
X1384150Y1175710D1*
X1362830Y1181723D1*
X1342050Y1189390D1*
X1321937Y1198663D1*
X1302613Y1209483D1*
X1284197Y1221790D1*
X1266800Y1235503D1*
X1250537Y1250537D1*
X1235503Y1266800D1*
X1221790Y1284197D1*
X1209483Y1302613D1*
X1198663Y1321937D1*
X1189390Y1342050D1*
X1181723Y1362830D1*
X1175710Y1384150D1*
X1171390Y1405873D1*
X1168787Y1427867D1*
X1167917Y1450000D1*
X1168787Y1472133D1*
X1171390Y1494127D1*
X1175710Y1515850D1*
X1181723Y1537170D1*
X1189390Y1557950D1*
X1198663Y1578063D1*
X1209483Y1597387D1*
X1221790Y1615803D1*
X1235503Y1633200D1*
X1250537Y1649463D1*
X1266800Y1664497D1*
X1284197Y1678210D1*
X1302613Y1690517D1*
X1321937Y1701337D1*
X1342050Y1710610D1*
X1362830Y1718277D1*
X1384150Y1724290D1*
X1405873Y1728610D1*
X1427867Y1731213D1*
X1450000Y1732083D1*
X1472133Y1731213D1*
X1494127Y1728610D1*
X1515850Y1724290D1*
X1537170Y1718277D1*
X1557950Y1710610D1*
X1578063Y1701337D1*
X1597387Y1690517D1*
X1615803Y1678210D1*
X1633200Y1664497D1*
X1649463Y1649463D1*
X1664497Y1633200D1*
X1678210Y1615803D1*
X1690517Y1597387D1*
X1701337Y1578063D1*
X1710610Y1557950D1*
X1718277Y1537170D1*
X1724290Y1515850D1*
X1728610Y1494127D1*
X1731213Y1472133D1*
X1732083Y1450000D1*
X1731213Y1427867D1*
X1689953Y4848497D2*
X1680323Y4835797D1*
X1663203Y4818677D1*
X1643617Y4804447D1*
X1622043Y4793453D1*
X1599017Y4785973D1*
X1575107Y4782187D1*
X1550893D1*
X1526983Y4785973D1*
X1503957Y4793453D1*
X1482383Y4804447D1*
X1462797Y4818677D1*
X1445677Y4835797D1*
X1431447Y4855383D1*
X1420453Y4876957D1*
X1412973Y4899983D1*
X1409187Y4923893D1*
Y4948107D1*
X1412973Y4972017D1*
X1420453Y4995043D1*
X1431447Y5016617D1*
X1445677Y5036203D1*
X1462833Y5053353D1*
X1447303Y5065073D1*
X1429073Y5083303D1*
X1413920Y5104160D1*
X1402217Y5127130D1*
X1394250Y5151647D1*
X1390217Y5177110D1*
X1389710Y5236667D1*
X1390217Y5640890D1*
X1394250Y5666353D1*
X1402217Y5690870D1*
X1413920Y5713840D1*
X1422460Y5726737D1*
X1409627Y5720197D1*
X1395927Y5715747D1*
X1381703Y5713493D1*
X1367297D1*
X1353267Y5715707D1*
X1353290Y4611113D1*
X1463007Y4501333D1*
X2053000Y4501290D1*
X2078700Y4499267D1*
X2103770Y4493250D1*
X2115917Y4488763D1*
X2116710Y4526667D1*
Y4788710D1*
X2095137Y4783610D1*
X2071000Y4781710D1*
X2046863Y4783610D1*
X2023323Y4789260D1*
X2000953Y4798527D1*
X1980310Y4811177D1*
X1961900Y4826900D1*
X1946177Y4845310D1*
X1944047Y4848497D1*
X1934323Y4835797D1*
X1917203Y4818677D1*
X1897617Y4804447D1*
X1876043Y4793453D1*
X1853017Y4785973D1*
X1829107Y4782187D1*
X1804893D1*
X1780983Y4785973D1*
X1757957Y4793453D1*
X1736383Y4804447D1*
X1716797Y4818677D1*
X1699677Y4835797D1*
X1690047Y4848497D1*
X1466007Y2795797D2*
X1463753Y2781573D1*
X1459303Y2767873D1*
X1452763Y2755040D1*
X1444297Y2743387D1*
X1434113Y2733203D1*
X1422460Y2724737D1*
X1409627Y2718197D1*
X1395927Y2713747D1*
X1381703Y2711493D1*
X1367297D1*
X1353073Y2713747D1*
X1339373Y2718197D1*
X1326540Y2724737D1*
X1314887Y2733203D1*
X1304703Y2743387D1*
X1296237Y2755040D1*
X1289697Y2767873D1*
X1285247Y2781573D1*
X1282993Y2795797D1*
Y2810203D1*
X1285247Y2824427D1*
X1289697Y2838127D1*
X1296237Y2850960D1*
X1304703Y2862613D1*
X1314887Y2872797D1*
X1326540Y2881263D1*
X1339373Y2887803D1*
X1353073Y2892253D1*
X1367297Y2894507D1*
X1381703D1*
X1395927Y2892253D1*
X1409627Y2887803D1*
X1422460Y2881263D1*
X1434113Y2872797D1*
X1444297Y2862613D1*
X1452763Y2850960D1*
X1459303Y2838127D1*
X1463753Y2824427D1*
X1466007Y2810203D1*
Y2795797D1*
Y2395797D2*
X1463753Y2381573D1*
X1459303Y2367873D1*
X1452763Y2355040D1*
X1444297Y2343387D1*
X1434113Y2333203D1*
X1422460Y2324737D1*
X1409627Y2318197D1*
X1395927Y2313747D1*
X1381703Y2311493D1*
X1367297D1*
X1353073Y2313747D1*
X1339373Y2318197D1*
X1326540Y2324737D1*
X1314887Y2333203D1*
X1304703Y2343387D1*
X1296237Y2355040D1*
X1289697Y2367873D1*
X1285247Y2381573D1*
X1282993Y2395797D1*
Y2410203D1*
X1285247Y2424427D1*
X1289697Y2438127D1*
X1296237Y2450960D1*
X1304703Y2462613D1*
X1314887Y2472797D1*
X1326540Y2481263D1*
X1339373Y2487803D1*
X1353073Y2492253D1*
X1367297Y2494507D1*
X1381703D1*
X1395927Y2492253D1*
X1409627Y2487803D1*
X1422460Y2481263D1*
X1434113Y2472797D1*
X1444297Y2462613D1*
X1452763Y2450960D1*
X1459303Y2438127D1*
X1463753Y2424427D1*
X1466007Y2410203D1*
Y2395797D1*
X4044630Y5497290D2*
X4144290D1*
Y5218710D1*
X4084007D1*
X4095460Y5209917D1*
X4110917Y5194460D1*
X4123763Y5176780D1*
X4133687Y5157303D1*
X4140440Y5136517D1*
X4143860Y5114930D1*
Y5093070D1*
X4140440Y5071483D1*
X4133687Y5050697D1*
X4123763Y5031220D1*
X4110917Y5013540D1*
X4095460Y4998083D1*
X4077780Y4985237D1*
X4062067Y4977047D1*
X4077780Y4968763D1*
X4095460Y4955917D1*
X4110917Y4940460D1*
X4123763Y4922780D1*
X4133687Y4903303D1*
X4140440Y4882517D1*
X4143860Y4860930D1*
Y4839070D1*
X4140440Y4817483D1*
X4133687Y4796697D1*
X4123763Y4777220D1*
X4110917Y4759540D1*
X4095460Y4744083D1*
X4077780Y4731237D1*
X4058303Y4721313D1*
X4037517Y4714560D1*
X4015930Y4711140D1*
X3994070D1*
X3972483Y4714560D1*
X3951697Y4721313D1*
X3943277Y4725193D1*
X3942783Y1187110D1*
X3938750Y1161647D1*
X3930783Y1137130D1*
X3928780Y1132780D1*
X4826040Y1132750D1*
X4815870Y1146867D1*
X4807670Y1162957D1*
X4802090Y1180133D1*
X4799263Y1197970D1*
Y1216030D1*
X4802090Y1233867D1*
X4807670Y1251043D1*
X4815870Y1267133D1*
X4826483Y1281743D1*
X4839257Y1294517D1*
X4853867Y1305130D1*
X4869957Y1313330D1*
X4887133Y1318910D1*
X4904970Y1321737D1*
X4923030D1*
X4940867Y1318910D1*
X4958043Y1313330D1*
X4974133Y1305130D1*
X4988743Y1294517D1*
X5001517Y1281743D1*
X5012130Y1267133D1*
X5020330Y1251043D1*
X5025910Y1233867D1*
X5028737Y1216030D1*
Y1197970D1*
X5025910Y1180133D1*
X5020330Y1162957D1*
X5012130Y1146867D1*
X5001887Y1132727D1*
X5469163Y1132750D1*
X5469250Y1663643D1*
X5236000Y1663710D1*
X5210300Y1665733D1*
X5185230Y1671750D1*
X5161413Y1681617D1*
X5139433Y1695087D1*
X5119830Y1711830D1*
X4951073Y1881303D1*
X4935920Y1902160D1*
X4924217Y1925130D1*
X4916250Y1949647D1*
X4912217Y1975110D1*
X4911710Y2034667D1*
X4912217Y4384890D1*
X4916250Y4410353D1*
X4924217Y4434870D1*
X4935947Y4457883D1*
X4936710Y4488667D1*
X4937217Y5234890D1*
X4941250Y5260353D1*
X4949217Y5284870D1*
X4954640Y5296630D1*
X4960710Y5315333D1*
Y6774660D1*
X2913423Y6774710D1*
X2928133Y6767130D1*
X2942743Y6756517D1*
X2955517Y6743743D1*
X2966130Y6729133D1*
X2974330Y6713043D1*
X2979910Y6695867D1*
X2982737Y6678030D1*
Y6659970D1*
X2979910Y6642133D1*
X2978270Y6636323D1*
X3126967Y6636290D1*
X3178303Y6686927D1*
X3199160Y6702080D1*
X3222130Y6713783D1*
X3246647Y6721750D1*
X3272110Y6725783D1*
X3331667Y6726290D1*
X3812890Y6725783D1*
X3838353Y6721750D1*
X3862870Y6713783D1*
X3885840Y6702080D1*
X3906697Y6686927D1*
X3949170Y6645173D1*
X4166927Y6426697D1*
X4182080Y6405840D1*
X4193783Y6382870D1*
X4201750Y6358353D1*
X4205783Y6332890D1*
X4206290Y6273333D1*
X4205783Y5714110D1*
X4201750Y5688647D1*
X4193783Y5664130D1*
X4182080Y5641160D1*
X4166927Y5620303D1*
X4125173Y5577830D1*
X4044673Y5497333D1*
X3503863Y4954173D2*
X3500790Y4934760D1*
X3494717Y4916070D1*
X3485793Y4898557D1*
X3474240Y4882657D1*
X3460343Y4868760D1*
X3444443Y4857207D1*
X3426930Y4848283D1*
X3408240Y4842210D1*
X3388827Y4839137D1*
X3369173D1*
X3349760Y4842210D1*
X3331070Y4848283D1*
X3313557Y4857207D1*
X3297657Y4868760D1*
X3283760Y4882657D1*
X3272207Y4898557D1*
X3263283Y4916070D1*
X3257210Y4934760D1*
X3254137Y4954173D1*
Y4973827D1*
X3257210Y4993240D1*
X3263283Y5011930D1*
X3272207Y5029443D1*
X3283760Y5045343D1*
X3297657Y5059240D1*
X3313557Y5070793D1*
X3331070Y5079717D1*
X3349760Y5085790D1*
X3369173Y5088863D1*
X3388827D1*
X3408240Y5085790D1*
X3426930Y5079717D1*
X3444443Y5070793D1*
X3460343Y5059240D1*
X3474240Y5045343D1*
X3485793Y5029443D1*
X3494717Y5011930D1*
X3500790Y4993240D1*
X3503863Y4973827D1*
Y4954173D1*
X3021263D2*
X3018190Y4934760D1*
X3012117Y4916070D1*
X3003193Y4898557D1*
X2991640Y4882657D1*
X2977743Y4868760D1*
X2961843Y4857207D1*
X2944330Y4848283D1*
X2925640Y4842210D1*
X2906227Y4839137D1*
X2886573D1*
X2867160Y4842210D1*
X2848470Y4848283D1*
X2830957Y4857207D1*
X2815057Y4868760D1*
X2801160Y4882657D1*
X2789607Y4898557D1*
X2780683Y4916070D1*
X2774610Y4934760D1*
X2771537Y4954173D1*
Y4973827D1*
X2774610Y4993240D1*
X2780683Y5011930D1*
X2789607Y5029443D1*
X2801160Y5045343D1*
X2815057Y5059240D1*
X2830957Y5070793D1*
X2848470Y5079717D1*
X2867160Y5085790D1*
X2886573Y5088863D1*
X2906227D1*
X2925640Y5085790D1*
X2944330Y5079717D1*
X2961843Y5070793D1*
X2977743Y5059240D1*
X2991640Y5045343D1*
X3003193Y5029443D1*
X3012117Y5011930D1*
X3018190Y4993240D1*
X3021263Y4973827D1*
Y4954173D1*
X3143737Y5385970D2*
X3140910Y5368133D1*
X3135330Y5350957D1*
X3127130Y5334867D1*
X3116517Y5320257D1*
X3103743Y5307483D1*
X3089133Y5296870D1*
X3073043Y5288670D1*
X3055867Y5283090D1*
X3038030Y5280263D1*
X3019970D1*
X3002133Y5283090D1*
X2984957Y5288670D1*
X2968867Y5296870D1*
X2961500Y5301793D1*
X2951517Y5288257D1*
X2938743Y5275483D1*
X2924133Y5264870D1*
X2908043Y5256670D1*
X2890867Y5251090D1*
X2873030Y5248263D1*
X2854970D1*
X2837133Y5251090D1*
X2819957Y5256670D1*
X2803867Y5264870D1*
X2789257Y5275483D1*
X2776483Y5288257D1*
X2765870Y5302867D1*
X2757670Y5318957D1*
X2752090Y5336133D1*
X2749263Y5353970D1*
Y5372030D1*
X2752090Y5389867D1*
X2757670Y5407043D1*
X2765870Y5423133D1*
X2776483Y5437743D1*
X2789257Y5450517D1*
X2803867Y5461130D1*
X2819957Y5469330D1*
X2837133Y5474910D1*
X2854970Y5477737D1*
X2873030D1*
X2890867Y5474910D1*
X2908043Y5469330D1*
X2924133Y5461130D1*
X2931500Y5456207D1*
X2941483Y5469743D1*
X2954257Y5482517D1*
X2968867Y5493130D1*
X2984957Y5501330D1*
X3002133Y5506910D1*
X3019970Y5509737D1*
X3038030D1*
X3055867Y5506910D1*
X3073043Y5501330D1*
X3089133Y5493130D1*
X3103743Y5482517D1*
X3116517Y5469743D1*
X3127130Y5455133D1*
X3135330Y5439043D1*
X3140910Y5421867D1*
X3143737Y5404030D1*
Y5385970D1*
X3184447Y3389977D2*
X3181620Y3372140D1*
X3176040Y3354963D1*
X3167840Y3338873D1*
X3157227Y3324263D1*
X3144453Y3311490D1*
X3129843Y3300877D1*
X3113753Y3292677D1*
X3096577Y3287097D1*
X3078740Y3284270D1*
X3060680D1*
X3042843Y3287097D1*
X3025667Y3292677D1*
X3009577Y3300877D1*
X2994967Y3311490D1*
X2982193Y3324263D1*
X2971580Y3338873D1*
X2963380Y3354963D1*
X2957657Y3372867D1*
X2939680Y3378663D1*
X2923590Y3386863D1*
X2908980Y3397477D1*
X2896207Y3410250D1*
X2885593Y3424860D1*
X2877393Y3440950D1*
X2871813Y3458127D1*
X2868987Y3475963D1*
Y3494023D1*
X2871813Y3511860D1*
X2877393Y3529037D1*
X2885593Y3545127D1*
X2896207Y3559737D1*
X2908980Y3572510D1*
X2923590Y3583123D1*
X2939680Y3591323D1*
X2956857Y3596903D1*
X2974693Y3599730D1*
X2992753D1*
X3010590Y3596903D1*
X3027767Y3591323D1*
X3043857Y3583123D1*
X3058467Y3572510D1*
X3071240Y3559737D1*
X3081853Y3545127D1*
X3090053Y3529037D1*
X3095777Y3511133D1*
X3113753Y3505337D1*
X3129843Y3497137D1*
X3144453Y3486523D1*
X3157227Y3473750D1*
X3167840Y3459140D1*
X3176040Y3443050D1*
X3181620Y3425873D1*
X3184447Y3408037D1*
Y3389977D1*
X4382737Y5119970D2*
X4379910Y5102133D1*
X4374330Y5084957D1*
X4366130Y5068867D1*
X4355517Y5054257D1*
X4342743Y5041483D1*
X4328133Y5030870D1*
X4319320Y5026027D1*
X4331517Y5013743D1*
X4342130Y4999133D1*
X4350330Y4983043D1*
X4355910Y4965867D1*
X4358737Y4948030D1*
Y4929970D1*
X4355910Y4912133D1*
X4350330Y4894957D1*
X4342130Y4878867D1*
X4331517Y4864257D1*
X4318743Y4851483D1*
X4304133Y4840870D1*
X4288043Y4832670D1*
X4270867Y4827090D1*
X4253030Y4824263D1*
X4234970D1*
X4217133Y4827090D1*
X4199957Y4832670D1*
X4183867Y4840870D1*
X4169257Y4851483D1*
X4156483Y4864257D1*
X4145870Y4878867D1*
X4137670Y4894957D1*
X4132090Y4912133D1*
X4129263Y4929970D1*
Y4948030D1*
X4132090Y4965867D1*
X4137670Y4983043D1*
X4145870Y4999133D1*
X4156483Y5013743D1*
X4169257Y5026517D1*
X4183867Y5037130D1*
X4192680Y5041973D1*
X4180483Y5054257D1*
X4169870Y5068867D1*
X4161670Y5084957D1*
X4156090Y5102133D1*
X4153263Y5119970D1*
Y5138030D1*
X4156090Y5155867D1*
X4161670Y5173043D1*
X4169870Y5189133D1*
X4180483Y5203743D1*
X4193257Y5216517D1*
X4207867Y5227130D1*
X4223957Y5235330D1*
X4241133Y5240910D1*
X4258970Y5243737D1*
X4277030D1*
X4294867Y5240910D1*
X4312043Y5235330D1*
X4328133Y5227130D1*
X4342743Y5216517D1*
X4355517Y5203743D1*
X4366130Y5189133D1*
X4374330Y5173043D1*
X4379910Y5155867D1*
X4382737Y5138030D1*
Y5119970D1*
X4326737Y3832970D2*
X4323910Y3815133D1*
X4318330Y3797957D1*
X4310130Y3781867D1*
X4299517Y3767257D1*
X4286743Y3754483D1*
X4272133Y3743870D1*
X4256043Y3735670D1*
X4238867Y3730090D1*
X4221030Y3727263D1*
X4202970D1*
X4185133Y3730090D1*
X4167957Y3735670D1*
X4151867Y3743870D1*
X4137257Y3754483D1*
X4124483Y3767257D1*
X4113870Y3781867D1*
X4105670Y3797957D1*
X4100090Y3815133D1*
X4097263Y3832970D1*
Y3851030D1*
X4100090Y3868867D1*
X4105670Y3886043D1*
X4113870Y3902133D1*
X4124483Y3916743D1*
X4137257Y3929517D1*
X4151867Y3940130D1*
X4167957Y3948330D1*
X4185133Y3953910D1*
X4202970Y3956737D1*
X4221030D1*
X4238867Y3953910D1*
X4256043Y3948330D1*
X4272133Y3940130D1*
X4286743Y3929517D1*
X4299517Y3916743D1*
X4310130Y3902133D1*
X4318330Y3886043D1*
X4323910Y3868867D1*
X4326737Y3851030D1*
Y3832970D1*
X4523737Y5725970D2*
X4520910Y5708133D1*
X4515330Y5690957D1*
X4507130Y5674867D1*
X4496517Y5660257D1*
X4483743Y5647483D1*
X4469133Y5636870D1*
X4453043Y5628670D1*
X4435867Y5623090D1*
X4418030Y5620263D1*
X4399970D1*
X4382133Y5623090D1*
X4364957Y5628670D1*
X4348867Y5636870D1*
X4334257Y5647483D1*
X4321483Y5660257D1*
X4310870Y5674867D1*
X4302670Y5690957D1*
X4297090Y5708133D1*
X4294263Y5725970D1*
Y5744030D1*
X4297090Y5761867D1*
X4302670Y5779043D1*
X4310870Y5795133D1*
X4321483Y5809743D1*
X4335227Y5823280D1*
X4327543Y5841437D1*
X4323327Y5858997D1*
X4321910Y5877000D1*
X4323327Y5895003D1*
X4327543Y5912563D1*
X4334453Y5929250D1*
X4343890Y5944647D1*
X4355620Y5958380D1*
X4369353Y5970110D1*
X4384750Y5979547D1*
X4401437Y5986457D1*
X4418997Y5990673D1*
X4437000Y5992090D1*
X4455003Y5990673D1*
X4472563Y5986457D1*
X4489250Y5979547D1*
X4504647Y5970110D1*
X4518380Y5958380D1*
X4530110Y5944647D1*
X4539547Y5929250D1*
X4546457Y5912563D1*
X4550673Y5895003D1*
X4552090Y5877000D1*
X4550673Y5858997D1*
X4546457Y5841437D1*
X4539547Y5824750D1*
X4530110Y5809353D1*
X4518380Y5795620D1*
X4510773Y5788720D1*
X4518457Y5770563D1*
X4522673Y5753003D1*
X4524090Y5735000D1*
X4523737Y5725970D1*
X4294737Y9970970D2*
X4291910Y9953133D1*
X4286330Y9935957D1*
X4278130Y9919867D1*
X4267517Y9905257D1*
X4254743Y9892483D1*
X4240133Y9881870D1*
X4224043Y9873670D1*
X4206867Y9868090D1*
X4189030Y9865263D1*
X4170970D1*
X4153133Y9868090D1*
X4135957Y9873670D1*
X4119867Y9881870D1*
X4105257Y9892483D1*
X4092483Y9905257D1*
X4081870Y9919867D1*
X4073670Y9935957D1*
X4068090Y9953133D1*
X4065263Y9970970D1*
Y9989030D1*
X4068090Y10006867D1*
X4073670Y10024043D1*
X4081870Y10040133D1*
X4092483Y10054743D1*
X4105257Y10067517D1*
X4119867Y10078130D1*
X4135957Y10086330D1*
X4153133Y10091910D1*
X4170970Y10094737D1*
X4189030D1*
X4206867Y10091910D1*
X4224043Y10086330D1*
X4240133Y10078130D1*
X4254743Y10067517D1*
X4267517Y10054743D1*
X4278130Y10040133D1*
X4286330Y10024043D1*
X4291910Y10006867D1*
X4294737Y9989030D1*
Y9970970D1*
X4464737Y8865970D2*
X4461910Y8848133D1*
X4456330Y8830957D1*
X4448130Y8814867D1*
X4437517Y8800257D1*
X4424743Y8787483D1*
X4410133Y8776870D1*
X4394043Y8768670D1*
X4376867Y8763090D1*
X4359030Y8760263D1*
X4340970D1*
X4323133Y8763090D1*
X4305957Y8768670D1*
X4289867Y8776870D1*
X4275257Y8787483D1*
X4262483Y8800257D1*
X4251870Y8814867D1*
X4243670Y8830957D1*
X4238090Y8848133D1*
X4235263Y8865970D1*
Y8884030D1*
X4238090Y8901867D1*
X4243670Y8919043D1*
X4251870Y8935133D1*
X4262483Y8949743D1*
X4275257Y8962517D1*
X4289867Y8973130D1*
X4305957Y8981330D1*
X4323133Y8986910D1*
X4340970Y8989737D1*
X4359030D1*
X4376867Y8986910D1*
X4394043Y8981330D1*
X4410133Y8973130D1*
X4424743Y8962517D1*
X4437517Y8949743D1*
X4448130Y8935133D1*
X4456330Y8919043D1*
X4461910Y8901867D1*
X4464737Y8884030D1*
Y8865970D1*
X4667737Y6141970D2*
X4664910Y6124133D1*
X4659330Y6106957D1*
X4651130Y6090867D1*
X4640517Y6076257D1*
X4627743Y6063483D1*
X4613133Y6052870D1*
X4597043Y6044670D1*
X4579867Y6039090D1*
X4562030Y6036263D1*
X4543970D1*
X4526133Y6039090D1*
X4508957Y6044670D1*
X4492867Y6052870D1*
X4478257Y6063483D1*
X4465483Y6076257D1*
X4454870Y6090867D1*
X4446670Y6106957D1*
X4441090Y6124133D1*
X4438263Y6141970D1*
Y6160030D1*
X4439050Y6166657D1*
X4425133Y6169090D1*
X4407957Y6174670D1*
X4391867Y6182870D1*
X4377257Y6193483D1*
X4364483Y6206257D1*
X4353870Y6220867D1*
X4345670Y6236957D1*
X4340090Y6254133D1*
X4337263Y6271970D1*
Y6290030D1*
X4340090Y6307867D1*
X4345670Y6325043D1*
X4353870Y6341133D1*
X4364483Y6355743D1*
X4377257Y6368517D1*
X4391867Y6379130D1*
X4407957Y6387330D1*
X4425133Y6392910D1*
X4442970Y6395737D1*
X4461030D1*
X4478867Y6392910D1*
X4496043Y6387330D1*
X4512133Y6379130D1*
X4526743Y6368517D1*
X4539517Y6355743D1*
X4550130Y6341133D1*
X4558330Y6325043D1*
X4563910Y6307867D1*
X4566737Y6290030D1*
Y6271970D1*
X4565950Y6265343D1*
X4579867Y6262910D1*
X4597043Y6257330D1*
X4613133Y6249130D1*
X4627743Y6238517D1*
X4640517Y6225743D1*
X4651130Y6211133D1*
X4659330Y6195043D1*
X4664910Y6177867D1*
X4667737Y6160030D1*
Y6141970D1*
X4474737Y7970970D2*
X4471910Y7953133D1*
X4466330Y7935957D1*
X4458130Y7919867D1*
X4447517Y7905257D1*
X4434743Y7892483D1*
X4420133Y7881870D1*
X4404043Y7873670D1*
X4386867Y7868090D1*
X4369030Y7865263D1*
X4350970D1*
X4333133Y7868090D1*
X4315957Y7873670D1*
X4299867Y7881870D1*
X4285257Y7892483D1*
X4272483Y7905257D1*
X4261870Y7919867D1*
X4253670Y7935957D1*
X4248090Y7953133D1*
X4245263Y7970970D1*
Y7989030D1*
X4248090Y8006867D1*
X4253670Y8024043D1*
X4261870Y8040133D1*
X4272483Y8054743D1*
X4285257Y8067517D1*
X4299867Y8078130D1*
X4315957Y8086330D1*
X4333133Y8091910D1*
X4350970Y8094737D1*
X4369030D1*
X4386867Y8091910D1*
X4404043Y8086330D1*
X4420133Y8078130D1*
X4434743Y8067517D1*
X4447517Y8054743D1*
X4458130Y8040133D1*
X4466330Y8024043D1*
X4471910Y8006867D1*
X4474737Y7989030D1*
Y7970970D1*
X2443737Y2487970D2*
X2440910Y2470133D1*
X2439483Y2465070D1*
X2451970Y2466737D1*
X2470030D1*
X2487867Y2463910D1*
X2505043Y2458330D1*
X2521133Y2450130D1*
X2535743Y2439517D1*
X2548517Y2426743D1*
X2559130Y2412133D1*
X2567330Y2396043D1*
X2572910Y2378867D1*
X2575737Y2361030D1*
Y2342970D1*
X2572843Y2324893D1*
X2588743Y2313517D1*
X2601517Y2300743D1*
X2612130Y2286133D1*
X2620330Y2270043D1*
X2625910Y2252867D1*
X2628737Y2235030D1*
Y2216970D1*
X2625910Y2199133D1*
X2620330Y2181957D1*
X2612130Y2165867D1*
X2601517Y2151257D1*
X2588743Y2138483D1*
X2574133Y2127870D1*
X2558043Y2119670D1*
X2540867Y2114090D1*
X2523030Y2111263D1*
X2504970D1*
X2490667Y2111710D1*
X2411280D1*
X2377980Y2078350D1*
X2389380Y2068380D1*
X2401110Y2054647D1*
X2410547Y2039250D1*
X2417457Y2022563D1*
X2421673Y2005003D1*
X2423090Y1987000D1*
X2421673Y1968997D1*
X2417457Y1951437D1*
X2410547Y1934750D1*
X2401110Y1919353D1*
X2389380Y1905620D1*
X2375647Y1893890D1*
X2360250Y1884453D1*
X2343563Y1877543D1*
X2326003Y1873327D1*
X2308000Y1871910D1*
X2289997Y1873327D1*
X2272437Y1877543D1*
X2255750Y1884453D1*
X2240353Y1893890D1*
X2226620Y1905620D1*
X2216967Y1916717D1*
X2202133Y1905870D1*
X2186043Y1897670D1*
X2168867Y1892090D1*
X2151030Y1889263D1*
X2132970D1*
X2115133Y1892090D1*
X2097957Y1897670D1*
X2081867Y1905870D1*
X2067257Y1916483D1*
X2054483Y1929257D1*
X2043870Y1943867D1*
X2035670Y1959957D1*
X2030090Y1977133D1*
X2027263Y1994970D1*
Y2013030D1*
X2030090Y2030867D1*
X2035670Y2048043D1*
X2043870Y2064133D1*
X2054483Y2078743D1*
X2067257Y2091517D1*
X2077683Y2101313D1*
X2164883Y2188517D1*
X1922257Y2430483D1*
X1909483Y2443257D1*
X1898870Y2457867D1*
X1890670Y2473957D1*
X1885090Y2491133D1*
X1882263Y2508970D1*
Y2527030D1*
X1885090Y2544867D1*
X1890670Y2562043D1*
X1898870Y2578133D1*
X1909483Y2592743D1*
X1922257Y2605517D1*
X1936867Y2616130D1*
X1952957Y2624330D1*
X1970133Y2629910D1*
X1987970Y2632737D1*
X2006030D1*
X2023867Y2629910D1*
X2041043Y2624330D1*
X2057133Y2616130D1*
X2071743Y2605517D1*
X2084517Y2592743D1*
X2094313Y2582317D1*
X2221990Y2454640D1*
X2217090Y2470133D1*
X2214263Y2487970D1*
Y2506030D1*
X2217090Y2523867D1*
X2222670Y2541043D1*
X2230870Y2557133D1*
X2241483Y2571743D1*
X2254257Y2584517D1*
X2268867Y2595130D1*
X2284957Y2603330D1*
X2302133Y2608910D1*
X2319970Y2611737D1*
X2338030D1*
X2355867Y2608910D1*
X2373043Y2603330D1*
X2389133Y2595130D1*
X2403743Y2584517D1*
X2416517Y2571743D1*
X2427130Y2557133D1*
X2435330Y2541043D1*
X2440910Y2523867D1*
X2443737Y2506030D1*
Y2487970D1*
X4880737Y9355970D2*
X4877910Y9338133D1*
X4872330Y9320957D1*
X4864130Y9304867D1*
X4853517Y9290257D1*
X4840743Y9277483D1*
X4826133Y9266870D1*
X4810043Y9258670D1*
X4792867Y9253090D1*
X4775030Y9250263D1*
X4756970D1*
X4739133Y9253090D1*
X4721957Y9258670D1*
X4705867Y9266870D1*
X4691257Y9277483D1*
X4678483Y9290257D1*
X4667870Y9304867D1*
X4659670Y9320957D1*
X4654090Y9338133D1*
X4651263Y9355970D1*
Y9374030D1*
X4654090Y9391867D1*
X4659670Y9409043D1*
X4667870Y9425133D1*
X4678483Y9439743D1*
X4691257Y9452517D1*
X4705867Y9463130D1*
X4721957Y9471330D1*
X4739133Y9476910D1*
X4756970Y9479737D1*
X4775030D1*
X4792867Y9476910D1*
X4810043Y9471330D1*
X4826133Y9463130D1*
X4840743Y9452517D1*
X4853517Y9439743D1*
X4864130Y9425133D1*
X4872330Y9409043D1*
X4877910Y9391867D1*
X4880737Y9374030D1*
Y9355970D1*
X3616363Y5487167D2*
X3597437Y5491543D1*
X3580750Y5498453D1*
X3565353Y5507890D1*
X3551620Y5519620D1*
X3539890Y5533353D1*
X3530453Y5548750D1*
X3523543Y5565437D1*
X3519327Y5582997D1*
X3517910Y5601000D1*
X3518710Y5613780D1*
X2720737Y5791970D2*
X2717910Y5774133D1*
X2712330Y5756957D1*
X2704130Y5740867D1*
X2693517Y5726257D1*
X2680743Y5713483D1*
X2666133Y5702870D1*
X2650043Y5694670D1*
X2632867Y5689090D1*
X2615030Y5686263D1*
X2596970D1*
X2579133Y5689090D1*
X2561957Y5694670D1*
X2545867Y5702870D1*
X2531257Y5713483D1*
X2518483Y5726257D1*
X2507870Y5740867D1*
X2499670Y5756957D1*
X2494090Y5774133D1*
X2491263Y5791970D1*
Y5810030D1*
X2494090Y5827867D1*
X2499670Y5845043D1*
X2507870Y5861133D1*
X2518483Y5875743D1*
X2531257Y5888517D1*
X2545867Y5899130D1*
X2561957Y5907330D1*
X2579133Y5912910D1*
X2596970Y5915737D1*
X2615030D1*
X2632867Y5912910D1*
X2650043Y5907330D1*
X2666133Y5899130D1*
X2680743Y5888517D1*
X2693517Y5875743D1*
X2704130Y5861133D1*
X2712330Y5845043D1*
X2717910Y5827867D1*
X2720737Y5810030D1*
Y5791970D1*
X1954737Y3036970D2*
X1951910Y3019133D1*
X1946330Y3001957D1*
X1938130Y2985867D1*
X1927517Y2971257D1*
X1914743Y2958483D1*
X1900133Y2947870D1*
X1884043Y2939670D1*
X1866867Y2934090D1*
X1849030Y2931263D1*
X1830970D1*
X1813133Y2934090D1*
X1795957Y2939670D1*
X1779867Y2947870D1*
X1765257Y2958483D1*
X1752483Y2971257D1*
X1741870Y2985867D1*
X1733670Y3001957D1*
X1728090Y3019133D1*
X1725263Y3036970D1*
Y3055030D1*
X1728090Y3072867D1*
X1733670Y3090043D1*
X1741870Y3106133D1*
X1752483Y3120743D1*
X1765257Y3133517D1*
X1779867Y3144130D1*
X1795957Y3152330D1*
X1813133Y3157910D1*
X1830970Y3160737D1*
X1849030D1*
X1866867Y3157910D1*
X1884043Y3152330D1*
X1900133Y3144130D1*
X1914743Y3133517D1*
X1927517Y3120743D1*
X1938130Y3106133D1*
X1946330Y3090043D1*
X1951910Y3072867D1*
X1954737Y3055030D1*
Y3036970D1*
X1261800Y3447000D2*
D14*
X1570200D1*
X1261800Y4097000D2*
X1570200D1*
X4005000Y5358000D2*
X4144200D1*
X6814147Y10204083D2*
D28*
X7292357D1*
X7673650D2*
X7792383D1*
X6814147Y10140917D2*
X7303840D1*
X7662167D2*
X7803867D1*
X6814147Y10077750D2*
X7343307D1*
X7622700D2*
X7843333D1*
X8122637D2*
X8157877D1*
X6814147Y10014583D2*
X8157877D1*
X6814147Y9951417D2*
X7343490D1*
X7622517D2*
X7843517D1*
X8122453D2*
X8157877D1*
X6814147Y9888250D2*
X7303933D1*
X7662077D2*
X7803960D1*
X6814147Y9825083D2*
X7292357D1*
X7673650D2*
X7792383D1*
X6814147Y9761917D2*
X7303113D1*
X7662897D2*
X7803137D1*
X6814147Y9698750D2*
X7341483D1*
X7624523D2*
X7841420D1*
X8124550D2*
X8157877D1*
X6814147Y9635583D2*
X8157877D1*
X6814147Y9572417D2*
X8157877D1*
X6814147Y9509250D2*
X7816263D1*
X7983730D2*
X8157877D1*
X6814147Y9446083D2*
X7703243D1*
X8096840D2*
X8157877D1*
X6814147Y9382917D2*
X7651653D1*
X6814147Y9319750D2*
X7623673D1*
X6814147Y9256583D2*
X7612187D1*
X6814147Y9193417D2*
X7615103D1*
X6814147Y9130250D2*
X7632970D1*
X6814147Y9067083D2*
X7669247D1*
X6814147Y9003917D2*
X7736237D1*
X8063753D2*
X8157877D1*
X6814147Y8940750D2*
X8157877D1*
X6814147Y8877583D2*
X8157877D1*
X6814147Y8814417D2*
X8157877D1*
X6814147Y8751250D2*
X8157877D1*
X6814147Y8688083D2*
X8157877D1*
X6814147Y8624917D2*
X8157877D1*
X6814147Y8561750D2*
X8157877D1*
X6814147Y8498583D2*
X8157877D1*
X6814147Y8435417D2*
X8157877D1*
X6814147Y8372250D2*
X8157877D1*
X6814147Y8309083D2*
X8157877D1*
X6814147Y8245917D2*
X8157877D1*
X6814147Y8182750D2*
X8157877D1*
X6814147Y8119583D2*
X8157877D1*
X6814147Y8056417D2*
X8157877D1*
X6814147Y7993250D2*
X8157877D1*
X6814147Y7930083D2*
X7359350D1*
X7746113D2*
X8157877D1*
X6814147Y7866917D2*
X7288347D1*
X7817207D2*
X8157877D1*
X6814147Y7803750D2*
X7246053D1*
X7859497D2*
X8157877D1*
X6814147Y7740583D2*
X7220990D1*
X7884563D2*
X8157877D1*
X6814147Y7677417D2*
X7209413D1*
X7896137D2*
X8157877D1*
X6814147Y7614250D2*
X7209870D1*
X7895683D2*
X8157877D1*
X6814147Y7551083D2*
X7222357D1*
X7883197D2*
X8157877D1*
X6814147Y7487917D2*
X7248517D1*
X7857037D2*
X8157877D1*
X6814147Y7424750D2*
X7292447D1*
X7813103D2*
X8157877D1*
X6814147Y7361583D2*
X7366733D1*
X7738820D2*
X8157877D1*
X6814147Y7298417D2*
X8157877D1*
X6814147Y7235250D2*
X8157877D1*
X6814147Y7172083D2*
X8157877D1*
X6814147Y7108917D2*
X7336017D1*
X7485070D2*
X8157877D1*
X6814147Y7045750D2*
X7260090D1*
X7560993D2*
X8157877D1*
X6814147Y6982583D2*
X7234113D1*
X7586880D2*
X7674167D1*
X7715883D2*
X8157877D1*
X6814147Y6919417D2*
X7233660D1*
X7835617D2*
X8157877D1*
X6814147Y6856250D2*
X7258360D1*
X7868247D2*
X8157877D1*
X6814147Y6793083D2*
X7279507D1*
X7873717D2*
X8157877D1*
X6814147Y6729917D2*
X7240677D1*
X7854940D2*
X8157877D1*
X6814147Y6666750D2*
X7231107D1*
X7811553D2*
X8157877D1*
X6814147Y6603583D2*
X7245417D1*
X7859587D2*
X8157877D1*
X6814147Y6540417D2*
X7292540D1*
X7874353D2*
X8157877D1*
X6814147Y6477250D2*
X7251250D1*
X7865240D2*
X8157877D1*
X6814147Y6414083D2*
X7231927D1*
X7827140D2*
X8157877D1*
X6814147Y6350917D2*
X7236940D1*
X7846373D2*
X8157877D1*
X6814147Y6287750D2*
X7269023D1*
X7871620D2*
X8157877D1*
X6814147Y6224583D2*
X7266837D1*
X7871620D2*
X8157877D1*
X6814147Y6161417D2*
X7236210D1*
X7846280D2*
X8157877D1*
X6814147Y6098250D2*
X7232293D1*
X7827323D2*
X8157877D1*
X6814147Y6035083D2*
X7252800D1*
X7865330D2*
X8157877D1*
X6814147Y5971917D2*
X7289350D1*
X7874353D2*
X8157877D1*
X6814147Y5908750D2*
X7244233D1*
X7859497D2*
X8157877D1*
X6814147Y5845583D2*
X7231017D1*
X7811280D2*
X8157877D1*
X6814147Y5782417D2*
X7241680D1*
X7855030D2*
X8157877D1*
X6814147Y5719250D2*
X7282240D1*
X7873717D2*
X8157877D1*
X6814147Y5656083D2*
X7256627D1*
X7868157D2*
X8157877D1*
X6814147Y5592917D2*
X7233203D1*
X7835433D2*
X8157877D1*
X6814147Y5529750D2*
X7234753D1*
X7839810D2*
X8157877D1*
X6814147Y5466583D2*
X7262007D1*
X7869613D2*
X8157877D1*
X6814147Y5403417D2*
X7274583D1*
X7873077D2*
X8157877D1*
X6814147Y5340250D2*
X7238853D1*
X7852023D2*
X8157877D1*
X6814147Y5277083D2*
X7231380D1*
X7817753D2*
X8157877D1*
X6814147Y5213917D2*
X7247877D1*
X7861867D2*
X8157877D1*
X6814147Y5150750D2*
X7231017D1*
X7874537D2*
X8157877D1*
X6814147Y5087583D2*
X7231017D1*
X7863327D2*
X8157877D1*
X6814147Y5024417D2*
X7231017D1*
X7821853D2*
X8157877D1*
X6814147Y4961250D2*
X7231017D1*
X7590070D2*
X8157877D1*
X6814147Y4898083D2*
X7231017D1*
X7590070D2*
X8157877D1*
X6814147Y4834917D2*
X8157877D1*
X6814147Y4771750D2*
X8157877D1*
X6814147Y4708583D2*
X8157877D1*
X6814147Y4645417D2*
X7482580D1*
X7622973D2*
X8157877D1*
X6814147Y4582250D2*
X7341393D1*
X7764160D2*
X8157877D1*
X6814147Y4519083D2*
X7277957D1*
X7827503D2*
X8157877D1*
X6814147Y4455917D2*
X7239673D1*
X7865787D2*
X8157877D1*
X6814147Y4392750D2*
X7217617D1*
X7887933D2*
X8157877D1*
X6814147Y4329583D2*
X7208503D1*
X7897050D2*
X8157877D1*
X6814147Y4266417D2*
X7211420D1*
X7894133D2*
X8157877D1*
X6814147Y4203250D2*
X7226460D1*
X7879003D2*
X8157877D1*
X6814147Y4140083D2*
X7255807D1*
X7849743D2*
X8157877D1*
X6814147Y4076917D2*
X7304297D1*
X7801253D2*
X8157877D1*
X6814147Y4013750D2*
X7389063D1*
X7716490D2*
X8157877D1*
X6814147Y3950583D2*
X8157877D1*
X6814147Y3887417D2*
X8157877D1*
X6814147Y3824250D2*
X8157877D1*
X6814147Y3761083D2*
X8157877D1*
X6814147Y3697917D2*
X8157877D1*
X6814147Y3634750D2*
X8157877D1*
X6814147Y3571583D2*
X8157877D1*
X6814147Y3508417D2*
X8157877D1*
X6814147Y3445250D2*
X8157877D1*
X6814147Y3382083D2*
X8157877D1*
X6814147Y3318917D2*
X8157877D1*
X6814147Y3255750D2*
X8157877D1*
X6814147Y3192583D2*
X8157877D1*
X6814147Y3129417D2*
X8157877D1*
X6814147Y3066250D2*
X8157877D1*
X6814147Y3003083D2*
X8157877D1*
X6814147Y2939917D2*
X8157877D1*
X6814147Y2876750D2*
X8157877D1*
X6814147Y2813583D2*
X8157877D1*
X6814147Y2750417D2*
X8157877D1*
X6814147Y2687250D2*
X8157877D1*
X6814147Y2624083D2*
X8157877D1*
X6814147Y2560917D2*
X8157877D1*
X6814147Y2497750D2*
X8157877D1*
X6814147Y2434583D2*
X8157877D1*
X6814147Y2371417D2*
X8157877D1*
X6814147Y2308250D2*
X8157877D1*
X6814147Y2245083D2*
X8157877D1*
X6814147Y2181917D2*
X8157877D1*
X6814147Y2118750D2*
X8157877D1*
X6814147Y2055583D2*
X8157877D1*
X6814147Y1992417D2*
X6867617D1*
X7010383D2*
X8157877D1*
X7068623Y1929250D2*
X8157877D1*
X7080200Y1866083D2*
X8157877D1*
X7060240Y1802917D2*
X8157877D1*
X6979757Y1739750D2*
X8157877D1*
X6814147Y1676583D2*
X7838230D1*
X7961763D2*
X8157877D1*
X6814147Y1613417D2*
X7709167D1*
X8090827D2*
X8157877D1*
X6814147Y1550250D2*
X7654937D1*
X6814147Y1487083D2*
X7625313D1*
X6814147Y1423917D2*
X7612553D1*
X6814147Y1360750D2*
X7614283D1*
X8164233Y9139873D2*
X8151337Y9109937D1*
X8140517Y9090613D1*
X8128210Y9072197D1*
X8114497Y9054800D1*
X8099463Y9038537D1*
X8083200Y9023503D1*
X8065803Y9009790D1*
X8047387Y8997483D1*
X8028063Y8986663D1*
X8007950Y8977390D1*
X7987170Y8969723D1*
X7965850Y8963710D1*
X7944127Y8959390D1*
X7922133Y8956787D1*
X7900000Y8955917D1*
X7877867Y8956787D1*
X7855873Y8959390D1*
X7834150Y8963710D1*
X7812830Y8969723D1*
X7792050Y8977390D1*
X7771937Y8986663D1*
X7752613Y8997483D1*
X7734197Y9009790D1*
X7716800Y9023503D1*
X7700537Y9038537D1*
X7685503Y9054800D1*
X7671790Y9072197D1*
X7659483Y9090613D1*
X7648663Y9109937D1*
X7639390Y9130050D1*
X7631723Y9150830D1*
X7625710Y9172150D1*
X7621390Y9193873D1*
X7618787Y9215867D1*
X7617917Y9238000D1*
X7618787Y9260133D1*
X7621390Y9282127D1*
X7625710Y9303850D1*
X7631723Y9325170D1*
X7639390Y9345950D1*
X7648663Y9366063D1*
X7659483Y9385387D1*
X7671790Y9403803D1*
X7685503Y9421200D1*
X7700537Y9437463D1*
X7716800Y9452497D1*
X7734197Y9466210D1*
X7752613Y9478517D1*
X7771937Y9489337D1*
X7792050Y9498610D1*
X7812830Y9506277D1*
X7834150Y9512290D1*
X7855873Y9516610D1*
X7877867Y9519213D1*
X7900000Y9520083D1*
X7922133Y9519213D1*
X7944127Y9516610D1*
X7965850Y9512290D1*
X7987170Y9506277D1*
X8007950Y9498610D1*
X8028063Y9489337D1*
X8047387Y9478517D1*
X8065803Y9466210D1*
X8083200Y9452497D1*
X8099463Y9437463D1*
X8114497Y9421200D1*
X8128210Y9403803D1*
X8140517Y9385387D1*
X8151337Y9366063D1*
X8164233Y9336127D1*
X8164250Y9790680D1*
X8158270Y9767050D1*
X8147203Y9740333D1*
X8132093Y9715677D1*
X8113313Y9693687D1*
X8091323Y9674907D1*
X8066667Y9659797D1*
X8039950Y9648730D1*
X8011830Y9641980D1*
X7983000Y9639710D1*
X7954170Y9641980D1*
X7926050Y9648730D1*
X7899333Y9659797D1*
X7874677Y9674907D1*
X7852687Y9693687D1*
X7833907Y9715677D1*
X7818797Y9740333D1*
X7807730Y9767050D1*
X7800980Y9795170D1*
X7798710Y9824000D1*
X7800980Y9852830D1*
X7807730Y9880950D1*
X7818797Y9907667D1*
X7833907Y9932323D1*
X7852687Y9954313D1*
X7874677Y9973093D1*
X7899333Y9988203D1*
X7926050Y9999270D1*
X7954170Y10006020D1*
X7983000Y10008290D1*
X8011830Y10006020D1*
X8039950Y9999270D1*
X8066667Y9988203D1*
X8091323Y9973093D1*
X8113313Y9954313D1*
X8132093Y9932323D1*
X8147203Y9907667D1*
X8158270Y9880950D1*
X8164260Y9856653D1*
X8164250Y10171670D1*
X8158847Y10149857D1*
X8152370Y10132360D1*
X8144157Y10115607D1*
X8134290Y10099767D1*
X8122877Y10085010D1*
X8110027Y10071480D1*
X8095873Y10059320D1*
X8080563Y10048653D1*
X8064253Y10039590D1*
X8047113Y10032223D1*
X8029313Y10026623D1*
X8011040Y10022857D1*
X7992477Y10020953D1*
X7973820Y10020940D1*
X7955253Y10022810D1*
X7936973Y10026550D1*
X7919167Y10032120D1*
X7902013Y10039460D1*
X7885687Y10048497D1*
X7870363Y10059140D1*
X7856190Y10071277D1*
X7843320Y10084783D1*
X7831880Y10099523D1*
X7821987Y10115347D1*
X7813747Y10132087D1*
X7807243Y10149573D1*
X7802540Y10167630D1*
X7799683Y10186070D1*
X7798710Y10204703D1*
X7799623Y10223340D1*
X7802420Y10241787D1*
X7807063Y10259857D1*
X7809550Y10267233D1*
X7656507Y10267250D1*
X7662390Y10247217D1*
X7665740Y10228860D1*
X7667213Y10210260D1*
X7666760Y10191013D1*
X7664403Y10172503D1*
X7660187Y10154327D1*
X7654153Y10136670D1*
X7646370Y10119713D1*
X7636907Y10103633D1*
X7625870Y10088590D1*
X7613367Y10074740D1*
X7599527Y10062227D1*
X7584490Y10051173D1*
X7568417Y10041700D1*
X7551467Y10033900D1*
X7533817Y10027853D1*
X7515643Y10023623D1*
X7497133Y10021253D1*
X7478483Y10020767D1*
X7459877Y10022167D1*
X7441507Y10025443D1*
X7423563Y10030557D1*
X7406230Y10037460D1*
X7389683Y10046083D1*
X7374090Y10056333D1*
X7359617Y10068107D1*
X7346407Y10081287D1*
X7334597Y10095730D1*
X7324310Y10111297D1*
X7315647Y10127823D1*
X7308703Y10145143D1*
X7303543Y10163073D1*
X7300223Y10181433D1*
X7298777Y10200037D1*
X7299220Y10218690D1*
X7301547Y10237203D1*
X7305733Y10255387D1*
X7309333Y10267250D1*
X6807757D1*
X6807750Y1937373D1*
X6823817Y1944583D1*
X6836277Y1961733D1*
X6851267Y1976723D1*
X6868417Y1989183D1*
X6887303Y1998807D1*
X6907463Y2005357D1*
X6928400Y2008673D1*
X6949600D1*
X6970537Y2005357D1*
X6990697Y1998807D1*
X7009583Y1989183D1*
X7026733Y1976723D1*
X7041723Y1961733D1*
X7054183Y1944583D1*
X7063807Y1925697D1*
X7070357Y1905537D1*
X7073673Y1884600D1*
Y1863400D1*
X7070357Y1842463D1*
X7063807Y1822303D1*
X7054183Y1803417D1*
X7041723Y1786267D1*
X7026733Y1771277D1*
X7009583Y1758817D1*
X6990697Y1749193D1*
X6978630Y1744927D1*
X6960473Y1727290D1*
X6945330Y1716290D1*
X6928650Y1707790D1*
X6910847Y1702007D1*
X6892360Y1699077D1*
X6807803Y1698710D1*
X6807750Y1300810D1*
X7635960Y1300750D1*
X7625710Y1334150D1*
X7621390Y1355873D1*
X7618787Y1377867D1*
X7617917Y1400000D1*
X7618787Y1422133D1*
X7621390Y1444127D1*
X7625710Y1465850D1*
X7631723Y1487170D1*
X7639390Y1507950D1*
X7648663Y1528063D1*
X7659483Y1547387D1*
X7671790Y1565803D1*
X7685503Y1583200D1*
X7700537Y1599463D1*
X7716800Y1614497D1*
X7734197Y1628210D1*
X7752613Y1640517D1*
X7771937Y1651337D1*
X7792050Y1660610D1*
X7812830Y1668277D1*
X7834150Y1674290D1*
X7855873Y1678610D1*
X7877867Y1681213D1*
X7900000Y1682083D1*
X7922133Y1681213D1*
X7944127Y1678610D1*
X7965850Y1674290D1*
X7987170Y1668277D1*
X8007950Y1660610D1*
X8028063Y1651337D1*
X8047387Y1640517D1*
X8065803Y1628210D1*
X8083200Y1614497D1*
X8099463Y1599463D1*
X8114497Y1583200D1*
X8128210Y1565803D1*
X8140517Y1547387D1*
X8151337Y1528063D1*
X8164233Y1498127D1*
X8164250Y9139350D1*
X7868127Y6805333D2*
X7866620Y6786737D1*
X7863123Y6768410D1*
X7857673Y6750567D1*
X7850337Y6733413D1*
X7841197Y6717147D1*
X7830360Y6701960D1*
X7817950Y6688023D1*
X7804117Y6675507D1*
X7799063Y6671580D1*
X7814003Y6658963D1*
X7826847Y6645433D1*
X7838163Y6630597D1*
X7847817Y6614630D1*
X7855697Y6597720D1*
X7861713Y6580057D1*
X7865793Y6561850D1*
X7867890Y6543313D1*
X7867940Y6523803D1*
X7865930Y6505257D1*
X7861940Y6487030D1*
X7856013Y6469340D1*
X7848217Y6452387D1*
X7838640Y6436373D1*
X7827400Y6421483D1*
X7814620Y6407890D1*
X7799093Y6394733D1*
X7814003Y6382130D1*
X7826847Y6368600D1*
X7838163Y6353763D1*
X7847817Y6337797D1*
X7855697Y6320887D1*
X7861713Y6303223D1*
X7865793Y6285017D1*
X7867890Y6266480D1*
X7867940Y6246970D1*
X7865930Y6228423D1*
X7861940Y6210197D1*
X7856013Y6192507D1*
X7848217Y6175553D1*
X7838640Y6159540D1*
X7827400Y6144650D1*
X7814620Y6131057D1*
X7799063Y6117880D1*
X7817463Y6101897D1*
X7835113Y6081233D1*
X7849313Y6058060D1*
X7859713Y6032953D1*
X7866057Y6006527D1*
X7868190Y5979433D1*
X7866057Y5952340D1*
X7859713Y5925913D1*
X7849313Y5900807D1*
X7835113Y5877633D1*
X7817463Y5856970D1*
X7799010Y5841063D1*
X7817463Y5825030D1*
X7835113Y5804367D1*
X7849313Y5781193D1*
X7859713Y5756087D1*
X7866057Y5729660D1*
X7868190Y5702567D1*
X7866057Y5675473D1*
X7859713Y5649047D1*
X7849313Y5623940D1*
X7835113Y5600767D1*
X7817463Y5580103D1*
X7799010Y5564197D1*
X7817463Y5548163D1*
X7835113Y5527500D1*
X7849313Y5504327D1*
X7859713Y5479220D1*
X7866057Y5452793D1*
X7868190Y5425700D1*
X7866057Y5398607D1*
X7859713Y5372180D1*
X7849313Y5347073D1*
X7835113Y5323900D1*
X7817463Y5303237D1*
X7799010Y5287330D1*
X7817463Y5271297D1*
X7835113Y5250633D1*
X7849313Y5227460D1*
X7859713Y5202353D1*
X7866057Y5175927D1*
X7868190Y5148833D1*
X7866057Y5121740D1*
X7859713Y5095313D1*
X7849313Y5070207D1*
X7835113Y5047033D1*
X7817463Y5026370D1*
X7796800Y5008720D1*
X7773627Y4994520D1*
X7748520Y4984120D1*
X7722093Y4977777D1*
X7695000Y4975643D1*
X7667907Y4977777D1*
X7641480Y4984120D1*
X7616373Y4994520D1*
X7593200Y5008720D1*
X7583733Y5016183D1*
X7583723Y4838510D1*
X7237343D1*
Y5184890D1*
X7271777D1*
X7262863Y5198043D1*
X7250527Y5222257D1*
X7242130Y5248103D1*
X7237877Y5274947D1*
Y5302120D1*
X7242130Y5328963D1*
X7250527Y5354810D1*
X7262863Y5379023D1*
X7278840Y5401010D1*
X7298057Y5420227D1*
X7306523Y5426903D1*
X7288103Y5442937D1*
X7270453Y5463600D1*
X7256253Y5486773D1*
X7245853Y5511880D1*
X7239510Y5538307D1*
X7237377Y5565400D1*
X7239510Y5592493D1*
X7245853Y5618920D1*
X7256253Y5644027D1*
X7270453Y5667200D1*
X7288103Y5687863D1*
X7306557Y5703770D1*
X7288070Y5719803D1*
X7270420Y5740467D1*
X7256220Y5763640D1*
X7245820Y5788747D1*
X7239477Y5815173D1*
X7237343Y5842267D1*
X7239477Y5869360D1*
X7245820Y5895787D1*
X7256220Y5920893D1*
X7270420Y5944067D1*
X7288070Y5964730D1*
X7306523Y5980637D1*
X7288070Y5996670D1*
X7270420Y6017333D1*
X7256220Y6040507D1*
X7245820Y6065613D1*
X7239477Y6092040D1*
X7237343Y6119133D1*
X7239477Y6146227D1*
X7245820Y6172653D1*
X7256220Y6197760D1*
X7270420Y6220933D1*
X7288070Y6241597D1*
X7306523Y6257503D1*
X7288070Y6273537D1*
X7270420Y6294200D1*
X7256220Y6317373D1*
X7245820Y6342480D1*
X7239477Y6368907D1*
X7237343Y6396000D1*
X7239477Y6423093D1*
X7245820Y6449520D1*
X7256220Y6474627D1*
X7270420Y6497800D1*
X7288070Y6518463D1*
X7306523Y6534370D1*
X7288070Y6550370D1*
X7270420Y6571033D1*
X7256220Y6594207D1*
X7245820Y6619313D1*
X7239477Y6645740D1*
X7237343Y6672833D1*
X7239477Y6699927D1*
X7245820Y6726353D1*
X7256220Y6751460D1*
X7270420Y6774633D1*
X7288070Y6795297D1*
X7306523Y6811203D1*
X7288070Y6827237D1*
X7270420Y6847900D1*
X7256220Y6871073D1*
X7245820Y6896180D1*
X7239477Y6922607D1*
X7237343Y6949700D1*
X7239477Y6976793D1*
X7245820Y7003220D1*
X7256220Y7028327D1*
X7270420Y7051500D1*
X7288070Y7072163D1*
X7308733Y7089813D1*
X7331907Y7104013D1*
X7357013Y7114413D1*
X7383440Y7120757D1*
X7410533Y7122890D1*
X7437627Y7120757D1*
X7464053Y7114413D1*
X7489160Y7104013D1*
X7512333Y7089813D1*
X7532997Y7072163D1*
X7550647Y7051500D1*
X7564847Y7028327D1*
X7575247Y7003220D1*
X7581590Y6976793D1*
X7583723Y6949700D1*
X7583757Y6942737D1*
X7598680Y6953933D1*
X7614723Y6963460D1*
X7631697Y6971207D1*
X7649407Y6977080D1*
X7667643Y6981017D1*
X7686200Y6982967D1*
X7704857Y6982910D1*
X7723400Y6980847D1*
X7741613Y6976800D1*
X7759287Y6970817D1*
X7776213Y6962970D1*
X7792197Y6953343D1*
X7807053Y6942057D1*
X7820607Y6929237D1*
X7832707Y6915033D1*
X7843203Y6899610D1*
X7851983Y6883147D1*
X7858943Y6865837D1*
X7863997Y6847877D1*
X7867090Y6829477D1*
X7868190Y6810000D1*
X7868127Y6805333D1*
X7890253Y7624887D2*
X7887843Y7601680D1*
X7883840Y7578700D1*
X7878263Y7556047D1*
X7871137Y7533833D1*
X7862500Y7512163D1*
X7852387Y7491140D1*
X7840850Y7470863D1*
X7827943Y7451430D1*
X7813727Y7432933D1*
X7798270Y7415460D1*
X7781647Y7399093D1*
X7763933Y7383910D1*
X7745217Y7369987D1*
X7725583Y7357383D1*
X7705130Y7346163D1*
X7683953Y7336383D1*
X7662150Y7328083D1*
X7639827Y7321303D1*
X7617090Y7316083D1*
X7594047Y7312437D1*
X7570810Y7310390D1*
X7547483Y7309950D1*
X7524187Y7311120D1*
X7501023Y7313890D1*
X7478103Y7318253D1*
X7455543Y7324183D1*
X7433443Y7331653D1*
X7411910Y7340630D1*
X7391047Y7351070D1*
X7370953Y7362920D1*
X7351723Y7376130D1*
X7333450Y7390633D1*
X7316220Y7406360D1*
X7300117Y7423237D1*
X7285213Y7441187D1*
X7271580Y7460117D1*
X7259287Y7479943D1*
X7248390Y7500570D1*
X7238940Y7521900D1*
X7230980Y7543830D1*
X7224553Y7566253D1*
X7219683Y7589070D1*
X7216400Y7612167D1*
X7214717Y7635433D1*
X7214640Y7658763D1*
X7216173Y7682040D1*
X7219307Y7705157D1*
X7224023Y7728003D1*
X7230307Y7750470D1*
X7238120Y7772453D1*
X7247433Y7793843D1*
X7258197Y7814540D1*
X7270360Y7834447D1*
X7283870Y7853467D1*
X7298657Y7871510D1*
X7314650Y7888493D1*
X7331777Y7904333D1*
X7349953Y7918953D1*
X7369097Y7932287D1*
X7389113Y7944270D1*
X7409907Y7954847D1*
X7431380Y7963963D1*
X7453433Y7971577D1*
X7475957Y7977653D1*
X7498843Y7982163D1*
X7521990Y7985087D1*
X7545280Y7986407D1*
X7568607Y7986120D1*
X7591860Y7984223D1*
X7614923Y7980730D1*
X7637693Y7975657D1*
X7660060Y7969023D1*
X7681917Y7960867D1*
X7703157Y7951223D1*
X7723683Y7940137D1*
X7743400Y7927663D1*
X7762207Y7913860D1*
X7780017Y7898793D1*
X7796747Y7882537D1*
X7812317Y7865163D1*
X7826653Y7846760D1*
X7839687Y7827410D1*
X7851357Y7807210D1*
X7861607Y7786253D1*
X7870387Y7764640D1*
X7877657Y7742473D1*
X7883380Y7719860D1*
X7887533Y7696903D1*
X7890093Y7673713D1*
X7891057Y7648200D1*
X7890253Y7624887D1*
Y4289887D2*
X7887843Y4266680D1*
X7883840Y4243700D1*
X7878263Y4221047D1*
X7871137Y4198833D1*
X7862500Y4177163D1*
X7852387Y4156140D1*
X7840850Y4135863D1*
X7827943Y4116430D1*
X7813727Y4097933D1*
X7798270Y4080460D1*
X7781647Y4064093D1*
X7763933Y4048910D1*
X7745217Y4034987D1*
X7725583Y4022383D1*
X7705130Y4011163D1*
X7683953Y4001383D1*
X7662150Y3993083D1*
X7639827Y3986303D1*
X7617090Y3981083D1*
X7594047Y3977437D1*
X7570810Y3975390D1*
X7547483Y3974950D1*
X7524187Y3976120D1*
X7501023Y3978890D1*
X7478103Y3983253D1*
X7455543Y3989183D1*
X7433443Y3996653D1*
X7411910Y4005630D1*
X7391047Y4016070D1*
X7370953Y4027920D1*
X7351723Y4041130D1*
X7333450Y4055633D1*
X7316220Y4071360D1*
X7300117Y4088237D1*
X7285213Y4106187D1*
X7271580Y4125117D1*
X7259287Y4144943D1*
X7248390Y4165570D1*
X7238940Y4186900D1*
X7230980Y4208830D1*
X7224553Y4231253D1*
X7219683Y4254070D1*
X7216400Y4277167D1*
X7214717Y4300433D1*
X7214640Y4323763D1*
X7216173Y4347040D1*
X7219307Y4370157D1*
X7224023Y4393003D1*
X7230307Y4415470D1*
X7238120Y4437453D1*
X7247433Y4458843D1*
X7258197Y4479540D1*
X7270360Y4499447D1*
X7283870Y4518467D1*
X7298657Y4536510D1*
X7314650Y4553493D1*
X7331777Y4569333D1*
X7349953Y4583953D1*
X7369097Y4597287D1*
X7389113Y4609270D1*
X7409907Y4619847D1*
X7431380Y4628963D1*
X7453433Y4636577D1*
X7475957Y4642653D1*
X7498843Y4647163D1*
X7521990Y4650087D1*
X7545280Y4651407D1*
X7568607Y4651120D1*
X7591860Y4649223D1*
X7614923Y4645730D1*
X7637693Y4640657D1*
X7660060Y4634023D1*
X7681917Y4625867D1*
X7703157Y4616223D1*
X7723683Y4605137D1*
X7743400Y4592663D1*
X7762207Y4578860D1*
X7780017Y4563793D1*
X7796747Y4547537D1*
X7812317Y4530163D1*
X7826653Y4511760D1*
X7839687Y4492410D1*
X7851357Y4472210D1*
X7861607Y4451253D1*
X7870387Y4429640D1*
X7877657Y4407473D1*
X7883380Y4384860D1*
X7887533Y4361903D1*
X7890093Y4338713D1*
X7891057Y4313200D1*
X7890253Y4289887D1*
X7666723Y9809540D2*
X7662197Y9780980D1*
X7653263Y9753477D1*
X7640133Y9727710D1*
X7623137Y9704313D1*
X7602687Y9683863D1*
X7579290Y9666867D1*
X7553523Y9653737D1*
X7526020Y9644803D1*
X7497460Y9640277D1*
X7468540D1*
X7439980Y9644803D1*
X7412477Y9653737D1*
X7386710Y9666867D1*
X7363313Y9683863D1*
X7342863Y9704313D1*
X7325867Y9727710D1*
X7312737Y9753477D1*
X7303803Y9780980D1*
X7299277Y9809540D1*
Y9838460D1*
X7303803Y9867020D1*
X7312737Y9894523D1*
X7325867Y9920290D1*
X7342863Y9943687D1*
X7363313Y9964137D1*
X7386710Y9981133D1*
X7412477Y9994263D1*
X7439980Y10003197D1*
X7468540Y10007723D1*
X7497460D1*
X7526020Y10003197D1*
X7553523Y9994263D1*
X7579290Y9981133D1*
X7602687Y9964137D1*
X7623137Y9943687D1*
X7640133Y9920290D1*
X7653263Y9894523D1*
X7662197Y9867020D1*
X7666723Y9838460D1*
Y9809540D1*
X7695000Y6810000D2*
D14*
X7868100D1*
X7695000Y6533133D2*
X7868100D1*
X7695000Y6256300D2*
X7868100D1*
X7237433Y5011700D2*
X7583633D1*
X7798800Y10205000D2*
X7983000D1*
X7298800D2*
X7667200D1*
D29*
X1866000Y3447000D3*
Y4097000D3*
X1416000Y3447000D3*
Y4097000D3*
D51*
X1563000Y5190000D3*
X1817000D3*
X2071000D3*
X1563000Y4936000D3*
X1817000D3*
X2071000D3*
D57*
X4005000Y5358000D3*
D58*
Y5104000D3*
Y4850000D3*
D21*
X7695000Y6810000D3*
Y6533133D3*
Y6256300D3*
Y5979433D3*
Y5702567D3*
Y5425700D3*
Y5148833D3*
X7410533Y6949700D3*
Y6672833D3*
Y6396000D3*
Y6119133D3*
Y5842267D3*
X7410567Y5565400D3*
X7410533Y5288533D3*
D59*
Y5011700D3*
D62*
X5561000Y9994000D3*
Y9486000D3*
X6069000Y9994000D3*
Y9486000D3*
X6323000Y9994000D3*
Y9486000D3*
X6577000Y9994000D3*
Y9486000D3*
X5561000Y9126000D3*
Y8618000D3*
X6069000Y9126000D3*
Y8618000D3*
X6323000Y9126000D3*
Y8618000D3*
X6577000Y9126000D3*
Y8618000D3*
X5569000Y4009000D3*
Y3501000D3*
X6077000Y4009000D3*
Y3501000D3*
X6331000Y4009000D3*
Y3501000D3*
X6585000Y4009000D3*
Y3501000D3*
X5568000Y4880000D3*
Y4372000D3*
X6076000Y4880000D3*
Y4372000D3*
X6330000Y4880000D3*
Y4372000D3*
X6584000Y4880000D3*
Y4372000D3*
X5567000Y2336000D3*
Y1828000D3*
X6075000Y2336000D3*
Y1828000D3*
X6329000Y2336000D3*
Y1828000D3*
X6583000Y2336000D3*
Y1828000D3*
X5569000Y3167000D3*
Y2659000D3*
X6077000Y3167000D3*
Y2659000D3*
X6331000Y3167000D3*
Y2659000D3*
X6585000Y3167000D3*
Y2659000D3*
X5567000Y6574000D3*
Y6066000D3*
X6075000Y6574000D3*
Y6066000D3*
X6329000Y6574000D3*
Y6066000D3*
X6583000Y6574000D3*
Y6066000D3*
X5567000Y5730000D3*
Y5222000D3*
X6075000Y5730000D3*
Y5222000D3*
X6329000Y5730000D3*
Y5222000D3*
X6583000Y5730000D3*
Y5222000D3*
X5563000Y8264000D3*
Y7756000D3*
X6071000Y8264000D3*
Y7756000D3*
X6325000Y8264000D3*
Y7756000D3*
X6579000Y8264000D3*
Y7756000D3*
X5564000Y7419000D3*
Y6911000D3*
X6072000Y7419000D3*
Y6911000D3*
X6326000Y7419000D3*
Y6911000D3*
X6580000Y7419000D3*
Y6911000D3*
D77*
X7983000Y9824000D3*
Y10205000D3*
X7483000Y9824000D3*
Y10205000D3*
D78*
X3379000Y4964000D3*
X2896400D3*
M02*
